<svg width="100" height="100" xmlns="http://www.w3.org/2000/svg"><g clip-path="url(#a)"><path fill-rule="evenodd" clip-rule="evenodd" d="M16.353 18.18a2.725 2.725 0 1 1-5.45 0 2.725 2.725 0 0 1 5.45 0Zm46.498 2.725H35.105a2.726 2.726 0 0 1-2.48-2.726 2.725 2.725 0 0 1 2.48-2.725h27.882a2.725 2.725 0 0 1 0 5.45h-.136ZM8.013 36.33a2.726 2.726 0 0 0-2.535 2.726v19.95a2.726 2.726 0 0 0 2.726 2.726H54.02v5.452H8.177A8.176 8.176 0 0 1 0 59.008V39.057a8.176 8.176 0 0 1 2.099-5.451A8.177 8.177 0 0 1 0 28.155V8.177A8.177 8.177 0 0 1 8.177 0h60.18a8.176 8.176 0 0 1 8.176 8.177V28.1a8.177 8.177 0 0 1-2.099 5.451 8.176 8.176 0 0 1 2.1 5.451v.137h-5.452v-.137a2.726 2.726 0 0 0-2.59-2.725H8.014v.054Zm17.253-18.15a2.725 2.725 0 1 1-5.451 0 2.725 2.725 0 0 1 5.45 0Zm-8.913 30.88a2.725 2.725 0 1 1-5.45.001 2.725 2.725 0 0 1 5.45 0Zm37.613 2.726H35.105a2.725 2.725 0 1 1 0-5.45H54.02l-.054 5.45Zm-28.7-2.725a2.725 2.725 0 1 1-5.45 0 2.725 2.725 0 0 1 5.45 0ZM100 99.646H59.253V43.772h29.272L100 55.083v44.563Zm-11.257-8.177h-20.85V65.713h2.971v10.33h3.189l4.824-5.016h4.579l3.598-3.734h4.197L84.71 74.08h-4.58l-4.85 4.96h-4.416v9.267h2.89V83.62h2.97v4.689h3.107v-8.804h2.97v8.803h2.972V76.752h2.97V91.47Zm-24.53 3.189h30.69v-35.05H84.791v-10.74H64.35l-.136 45.79ZM8.178 5.451A2.726 2.726 0 0 0 5.45 8.177V28.1a2.726 2.726 0 0 0 2.562 2.726H68.52a2.726 2.726 0 0 0 2.59-2.726V8.177a2.726 2.726 0 0 0-2.726-2.726H8.177Z"/></g><defs><clipPath id="a"><path fill="#fff" d="M0 0h100v100H0z"/></clipPath></defs></svg>