<svg width="100" height="100" fill="none" xmlns="http://www.w3.org/2000/svg"><g clip-path="url(#clip0_345_5443)"><path clip-rule="evenodd" d="M97.094 50.546v3.012H30.38c.187 6.091.943 11.683 2.105 16.625a70.62 70.62 0 0116.063-1.458h3.012v6.13h-3.012a64.454 64.454 0 00-14.391 1.214c3.564 10.56 9.097 16.95 14.286 17.036h.204a7.09 7.09 0 002.912-.673V99.2h-3.174A48.547 48.547 0 01.087 53.559H0v-6.06h.103a48.543 48.543 0 0114.079-31.137A48.547 48.547 0 0146.624 2.144a12.926 12.926 0 013.852 0 48.546 48.546 0 0146.618 48.402zM66.643 47.5H30.381c.156-4.893.68-9.463 1.485-13.631a68.067 68.067 0 0016.68 1.513c5.61.179 11.19-.337 16.618-1.517.803 4.172 1.324 8.743 1.477 13.635zM48.546 8.06c-5.668 0-11.767 7.555-15.272 19.875a62.215 62.215 0 0015.272 1.352 62.007 62.007 0 0015.218-1.348c-3.493-12.335-9.58-19.915-15.252-19.915l.035.036zm24.23 39.44c-.159-5.376-.734-10.487-1.665-15.21a68.066 68.066 0 0012.593-5.4 42.526 42.526 0 017.08 20.61H72.776zm-3.077-21.148a62.006 62.006 0 0010.213-4.323 42.518 42.518 0 00-17.534-11.63c3.014 4.109 5.52 9.556 7.321 15.953zM17.064 22a62.217 62.217 0 0010.348 4.372c1.811-6.427 4.332-11.9 7.363-16.02A42.52 42.52 0 0017.064 22zm8.932 10.317a68.07 68.07 0 01-12.737-5.461A42.526 42.526 0 006.136 47.5H24.32c.164-5.363.743-10.466 1.675-15.183zm.583 39.363c-1.291-5.511-2.082-11.623-2.265-18.12H6.128a42.525 42.525 0 008.642 22.856 70.615 70.615 0 0111.809-4.736zm-7.621 9.443a64.461 64.461 0 019.257-3.574c1.71 5.23 3.914 9.724 6.49 13.241a42.517 42.517 0 01-15.747-9.667z"/><path d="M73.281 67.45V81.2H71.12v-6.13h-2.906v6.13h-2.162V67.45h2.162v5.741h2.906v-5.74h2.161zm13.359 0V81.2h-2.126v-8.753l-2.41 8.753h-.779l-2.374-8.753V81.2H76.79V67.45h2.799l2.126 7.69 2.197-7.69h2.729zm3.155 0h2.126V81.2h-2.126V67.45z"/><path clip-rule="evenodd" d="M73.175 91.014H62.048a3.934 3.934 0 01-3.898-3.969V63.551a3.934 3.934 0 013.898-3.933h34.019A3.933 3.933 0 01100 63.55v23.494a3.927 3.927 0 01-1.14 2.805 3.934 3.934 0 01-2.793 1.164H84.975v4.75h4.571v1.948H68.604v-1.949h4.571v-4.749zm22.892-1.311a2.622 2.622 0 002.622-2.622v-1.027H59.426v.991a2.623 2.623 0 002.622 2.623l34.019.035zm-36.641-5.067h39.263V63.551a2.657 2.657 0 00-2.622-2.657H62.048a2.657 2.657 0 00-2.622 2.657v21.085zm15.06 11.127h9.178v-4.749h-9.178v4.75z"/></g><defs><clipPath id="clip0_345_5443"><path fill="#fff" d="M0 0h100v100H0z"/></clipPath></defs></svg>