<svg width="73" height="73" fill="none" xmlns="http://www.w3.org/2000/svg"><path clip-rule="evenodd" d="m31.023 21.822-1.016.424c-1.277-.8-1.844-2.454-4.035-2.388-1.844.055-2.891 1.645-3.785 2.537-.903.902-2.456 1.898-2.464 3.788-.009 1.883 1.444 2.71 2.353 3.804l-.415 1.254c-3.989.307-5.407-.391-5.407 5.46 0 5.119.517 5.21 5.347 5.509l.532 1.19c-3.273 3.349-3.36 4.3.003 7.659.837.835 2.054 2.492 3.837 2.547 2.328.07 2.645-1.714 4.029-2.372l.999.375c.577 2.132-.327 3.338 1.313 4.716 1.064.894 8.105 1.898 9.451-1.136.79-1.78-.392-3.056.779-3.756 1.68-1.004 1.81 2.625 5.14 2.131 1.252-.185 5.816-4.052 5.798-6.336-.014-1.831-1.566-2.957-2.373-3.811l.46-1.226c4.838-.237 5.38-.486 5.382-5.49.003-5.758-1.231-5.14-5.385-5.465l-.502-1.226c1.01-1.198 2.417-1.859 2.418-3.823.002-1.937-1.535-2.851-2.465-3.784-.922-.925-1.895-2.506-3.783-2.546-2.174-.045-2.8 1.51-4.026 2.374-2.513-.797-.203-1.967-1.624-4.275-1.524-2.474-8.053-1.81-9.23-.838-1.645 1.358-.87 2.475-1.331 4.704Zm4.266 5.785c-12.187 1.932-9.39 20.014 2.74 18.26 4.565-.662 8.445-5.002 7.73-10.451-.593-4.51-5.058-8.666-10.47-7.81Z"/><path clip-rule="evenodd" d="M7.619 44.756c.526.802 1.149 3.054 1.64 4.175 3.007 6.87 8.307 11.914 14.956 15.055 1.829.865 7.314 2.754 9.579 2.494 1.843-.21 2.131-2.703.006-3.174-5.324-1.18-7.81-1.211-13.02-5.072-4.007-2.968-9.053-9.197-9.763-14.056.774.384 1.72 1.331 2.805.299 1.798-1.708-1.442-3.376-3.013-4.474-.877-.614-1.609-1.253-2.519-1.734-.97.927-2.614 3.5-3.514 4.766-.636.894-.951 2.273.159 2.861 1.356.72 2.073-.563 2.684-1.14ZM44.262 62.26c1.443-3.523-1.387-3.893-2.735-1.942-.996 1.443-2.252 3.42-3.42 4.774.57.792 2.718 2.115 3.68 2.803 1.4 1.001 2.337 2.2 4.08.627.267-1.785-.437-1.927-1.388-2.72.101-.081.153-.142.454-.287l1.672-.564c7.6-2.686 13.739-8.342 17.12-15.576.966-2.069 2.706-6.963 2.628-9.553-.06-2.054-2.477-2.367-3.083-.745-.98 2.622-.025 6.074-4.96 13.174-2.396 3.445-8.205 8.817-14.048 10.008Zm17.945-32.981c-.958-.514-1-.844-2.482-.61-1.748 2.08-.47 2.611 1.188 3.762 1.333.924 2.582 1.947 4.007 2.782l2.337-3.113c.83-1.137 2.013-2.129 1.687-3.963-1.788-1.51-2.206-.632-3.352.645-.305-.409-1.692-4.837-3.7-8.076-2.927-4.716-7.774-8.917-12.945-11.237-1.931-.866-7.255-2.733-9.523-2.487-1.82.198-2.073 2.63-.33 3.135 3.923 1.134 7.149.522 13.16 5.006 3.823 2.853 8.54 7.94 9.953 14.156ZM28.637 7.844c-9.536 3.164-15.6 8.381-19.429 16.802-.959 2.111-2.803 7.41-2.213 10.038 1.39 1.377 2.821.92 3.12-1.324.232-1.728.546-3.197 1.042-4.757 2.438-7.669 9.87-15.893 17.962-17.452-.399.91-1.267 1.922-.184 2.901 1.087.982 2.12.123 2.65-.615 1.095-1.523 2.286-3.466 3.512-4.912-.58-.78-3.788-2.89-4.835-3.648-.764-.556-2.197-.991-2.825.19-.774 1.457.625 2.132 1.2 2.777ZM38.942 49.19c-.321.413-.275.432-.27 1.154l.022 3.408-4.217.018.06-3.653c-.01-.338-.011-.307-.073-.615l-.161-.327-.045 4.713c1.244.235 3.457.316 4.575-.061l.11-4.637Z"/></svg>