<svg xmlns="http://www.w3.org/2000/svg" viewBox="0 0 1064.428 1234" width="64" height="64"><path d="M1046.428 560l-163 200q-11 12-29.5 12.5t-32-7.5-13.5-19V645h-128q-26 0-45-18.5t-19-45.5V453q0-27 19-45.5t45-18.5h128V289q0-12 13.5-20t32-7.5 29.5 12.5l163 199q18 18 18 43.5t-18 43.5zm-365.5-299q-26.5 0-45.5-19t-19-45.5-18.5-45-45.5-18.5h-320q-26 0-45 18.5t-19 45.5v640q0 26 19 45t45 19h320q27 0 45.5-19t18.5-45.5 19-45 45.5-18.5 45 18.5 18.5 45.5v64q0 53-37.5 90.5t-90.5 37.5h-448q-53 0-90.5-37.5t-37.5-90.5V133q0-53 37.5-90.5t90.5-37.5h448q53 0 90.5 37.5t37.5 90.5v64q0 26-18.5 45t-45 19z"/></svg>