<svg width="100" height="100" fill="none" xmlns="http://www.w3.org/2000/svg"><path fill-rule="evenodd" clip-rule="evenodd" d="M32.147 14.337c-5-.071-9.988.538-14.825 1.81-4.12 1.186-6.46 2.528-6.46 3.496 0 .967 2.34 2.34 6.46 3.495a55.025 55.025 0 0014.825 1.842c5.003.063 9.99-.557 14.825-1.841 4.12-1.155 6.461-2.529 6.461-3.496 0-.968-2.34-2.31-6.46-3.496a55.177 55.177 0 00-14.826-1.81zm21.286 28.496a24.19 24.19 0 01-3.402 1.404 58.804 58.804 0 01-17.884 2.497 56.9 56.9 0 01-18.726-2.84 29.967 29.967 0 01-2.435-1.061v8.739c0 .967 2.341 2.34 6.46 3.495a55.178 55.178 0 0014.826 1.81 55.123 55.123 0 0014.825-1.81c4.12-1.154 6.461-2.528 6.461-3.495l-.125-8.74zm-42.572-6.71c0 .967 2.404 2.309 6.461 3.464a55.186 55.186 0 0014.825 1.81 55.185 55.185 0 0014.825-1.81c4.12-1.186 6.461-2.56 6.461-3.496v-9.707a24.196 24.196 0 01-3.495 1.343 58.804 58.804 0 01-17.884 2.496 56.9 56.9 0 01-18.727-2.84 21.876 21.876 0 01-2.434-1.061v9.8h-.032zm74.595 18.04V42.02H90.2l3.433 12.141h-8.177zM11.423 71.421a5.837 5.837 0 110 11.673 5.837 5.837 0 010-11.673zm24.157 0a5.837 5.837 0 110 11.673 5.837 5.837 0 010-11.673zM11.424 88.806A11.423 11.423 0 100 77.383a11.454 11.454 0 0011.423 11.423zM82.18 71.422a5.837 5.837 0 110 11.673 5.837 5.837 0 010-11.673zm9.363-.905a11.423 11.423 0 00-18.446 0h-2.372V42.02h9.363v17.634h14.389v10.987l-2.934-.125zm-9.364 18.165a11.454 11.454 0 0011.455-11.299v-1.155h6.242V56.347L93.79 37.09H64.92v33.552h-20.1a11.455 11.455 0 102.185 6.741c.032-.52.032-1.04 0-1.56H70.91v1.435a11.455 11.455 0 0011.267 11.548v-.124zM32.242 62.09a56.899 56.899 0 01-18.727-2.84c-4.4-1.436-7.272-3.683-7.865-6.555a16.104 16.104 0 010-2.122V19.768a7.302 7.302 0 010-1.186c.593-2.934 3.465-5.181 7.647-6.742A56.897 56.897 0 0132.023 9a56.897 56.897 0 0118.726 2.84c4.182 1.56 7.085 3.808 7.647 6.742v34.05c-.562 2.935-3.465 5.182-7.647 6.742a56.897 56.897 0 01-18.602 2.84l.094-.124z" fill="#003968"/></svg>