<svg width="67" height="40" fill="none" xmlns="http://www.w3.org/2000/svg"><g clip-path="url(#clip0_345_2986)"><path fill-rule="evenodd" clip-rule="evenodd" d="M31.75 3.733a2.465 2.465 0 000-2.489 2.466 2.466 0 00-3.456-.898c-.497.294-.88.749-1.083 1.29-2.43 4.447-3.72 11.336-3.72 19.02a48.987 48.987 0 003.075 17.524c.062.173.143.34.242.495a.161.161 0 000 .15v.104a2.535 2.535 0 004.355-2.547c-.092-.15 0-.103-.092-.15a45.6 45.6 0 01-2.777-15.575 41.947 41.947 0 013.457-16.924z" fill="#9D231F"/><path fill-rule="evenodd" clip-rule="evenodd" d="M6.29 1.648A2.304 2.304 0 005.207.346 2.488 2.488 0 001.75 3.733 41.809 41.809 0 015 17.362H2.475a2.523 2.523 0 100 5.046h2.627a45.944 45.944 0 01-2.8 13.779v.196a2.558 2.558 0 00.991 3.294 2.546 2.546 0 003.318-.748l.104-.104v-.15a1.59 1.59 0 00.196-.541 48.537 48.537 0 003.145-17.523c0-7.639-1.29-14.574-3.767-18.963zm44.494 25.587H57.5c1.497-.541 2.177-3.456 0-4.182h-2.466l-4.251 4.182zm0-1.014v-5.864l2.04-1.785c.558-.22 1.18-.22 1.739 0a2.385 2.385 0 01.795 3.122l-4.574 4.527zm-.714 0v-5.864l-2.04-1.785a2.376 2.376 0 00-1.74 0 2.385 2.385 0 00-.794 3.122l4.574 4.527zm0 1.014h-6.717c-1.498-.541-2.166-3.456 0-4.182h2.43l4.287 4.182zm.357-7.454l-1.959-1.924V13.56a2.086 2.086 0 013.917.08v4.217l-1.958 1.924zm-9.943-9.92h19.678v19.805H40.484V9.862z" fill="#003968"/><path fill-rule="evenodd" clip-rule="evenodd" d="M32.154 10.277v19.182h2.235l1.383-9.298v9.332l2.58-.034V10.277h-2.338l-1.429 8.732v-8.732h-2.43z" fill="#9D231F"/><path fill-rule="evenodd" clip-rule="evenodd" d="M11.371 29.839v-1.774c1.037-.519 1.152-.772 1.152-2.19V9.932h9.597v1.982h-3.191v6.359h3.133v1.924H18.93v7.661h3.237v1.924h-5.841V11.96h-1.348v15.046c.092 1.624-.53 2.557-1.866 2.822l-1.74.012z" fill="#003968"/><path d="M64.332 7.408h.38a.576.576 0 00.369-.08.241.241 0 00.103-.208.321.321 0 000-.15.31.31 0 00-.184-.057.945.945 0 00-.31 0h-.358v.495zm-.311 1.083V6.567h.668a1.51 1.51 0 01.484 0c.102.033.19.098.254.184a.518.518 0 01.08.288.483.483 0 01-.15.357.634.634 0 01-.403.185.61.61 0 01.173.092c.105.12.198.252.276.392l.242.368h-.38l-.173-.3a1.606 1.606 0 00-.322-.449.392.392 0 00-.254-.011h-.184v.818h-.311zm.795-2.477a1.417 1.417 0 00-.737.196 1.371 1.371 0 00-.565.553 1.544 1.544 0 00-.196.749c.004.258.071.511.196.737.132.23.323.42.553.553a1.51 1.51 0 001.486 0c.233-.129.424-.32.553-.553.125-.226.193-.48.196-.737 0-.263-.068-.52-.196-.75a1.371 1.371 0 00-.564-.552 1.44 1.44 0 00-.726-.196zm0-.3c.306.005.607.084.875.23.282.156.514.387.669.669a1.774 1.774 0 010 1.786c-.148.28-.377.509-.657.656a1.774 1.774 0 01-1.786 0 1.635 1.635 0 01-.656-.656 1.774 1.774 0 010-1.786c.154-.282.386-.513.668-.668a1.89 1.89 0 01.887-.185v-.046z" fill="#003968"/></g><defs><clipPath id="clip0_345_2986"><path fill="#fff" d="M0 0h66.601v40H0z"/></clipPath></defs></svg>