<svg width="200" height="51" fill="none" xmlns="http://www.w3.org/2000/svg"><g clip-path="url(#clip0_274_3945)" fill-rule="evenodd" clip-rule="evenodd"><path d="M142.451 46.553c-.094 1.105-.419 2.405-.516 3.542h6.452c0-1.096.387-2.19.387-3.416h5.419c1.506 0 2.598-.353 3.39-1.104 1.072-1.017 1.206-1.345 1.408-3.174.142-1.294.344-2.668.516-4.048l.493-4.07c0-1.492-1.389-2.784-2.839-2.784h-19.226c-.898 0-2.008.629-2.49 1.1-.676.665-.985 1.38-1.146 2.546-.289 2.082-.501 4.231-.823 6.403-.267 1.804-.8 3.962 1.759 4.87.972.343 5.717.135 7.216.135zM37.548 50.095H44l1.052-3.156 6.045-.133.387 3.289h6.451c0-.844-.171-1.655-.246-2.415L56.04 32.978c-.07-.556.012-.762-.263-1.134a1.129 1.129 0 00-.938-.471h-9.162c-1.78 0-1.843 1.78-2.71 3.921-.65 1.613-1.192 3.255-1.824 4.916l-1.836 4.904c-.292.848-.606 1.558-.904 2.402-.247.695-.798 1.912-.855 2.579zm64.644 0c.719-.125.545-.501.657-1.508l.482-3.575c.301-2.067-.513-1.622 3.636-1.622 0 1.244-.233 2.25-.363 3.312l-.411 3.393h6.71c.384-1.617 1.697-13.285 2.154-16.358.107-.712.298-1.691.298-2.364h-6.452c-.519 0-.356.463-.508 1.525-.195 1.36-.653 4.38-.653 5.432h-3.613c.133-.27.903-6.239.903-6.957h-6.323l-2.451 18.722h5.934zm-42.579 0h6.322c.088-1.031.306-2.25.462-3.342l.442-3.363h3.484c0 .473-.124 1.184-.202 1.7l-.611 4.49c-.026.338-.157.515.296.515h6.452c0-1.045 1.806-13.974 2.075-16.309.098-.852.248-1.398.248-2.413h-6.71l-.668 5.163c-.065.44-.225 1.325-.235 1.794h-3.484l.903-6.957h-6.452c0 2.223-2.322 15.982-2.322 18.722zm-38.194 0h6.322l.517-3.542c1.936 0 3.875.002 5.811.004 4.667.005 4.328-4.427 4.696-7.034.129-.91.233-1.723.331-2.584.222-1.957.808-3.712-.878-4.958-.515-.38-1.464-.608-2.347-.608H23.483c0 1.27-.859 7.466-1.02 9.372l-1.044 9.35zm158.194 0h11.484c1.427 0 2.649-.399 3.391-1.103 1.023-.97 1.131-1.506 1.346-3.108.278-2.096.94-6.398.94-8.186 0-.346-.182-.665-.342-.93-.155-.262-.068-.138-.262-.377l-.308-.329c-.4-.372-1.034-.768-1.797-.768h-6.452c0-1.2.489-2.74.516-3.921h-6.452l-.606 4.718c-.227 1.684-.368 3.155-.609 4.843-.232 1.616-.412 3.081-.614 4.71-.089.705-.238 1.673-.327 2.337-.16 1.2-.476 2.114.092 2.114zm-64.646 0h15.613c0-.716.194-1.602.27-2.392.084-.87.246-1.517.246-2.542h-9.032c0-.813.241-1.544.258-2.277h9.161c.024-1.023.517-3.207.517-4.3h-5.549c-1.338 0-2.164.126-3.484.126 0-.783.107-1.642.258-2.277h9.162c0-.575.514-4.667.645-4.934h-15.613l-2.452 18.596zm-32.515 0h7.612c1.71 0 3.452-1.261 4.127-2.28.755-1.137.826-2.308 1.014-3.818.194-1.548.793-1.113-6.302-1.113 0 .655-.208 1.3-.258 1.898h-3.484c0-1.156 1.034-6.839 1.162-8.35h3.484c0 .803-.13 1.057-.13 1.898 7.366 0 6.195.513 6.507-1.716l.203-2.332c0-1.638-1.94-2.783-3.613-2.783h-8c-1.03 0-2.001.505-2.66.934-.781.51-1.257 1.043-1.688 1.887-.656 1.282-1.204 7.383-1.466 9.19-.26 1.8-.907 4.084.832 5.523.613.506 1.593 1.062 2.66 1.062zm78.838-13.662h5.548l-.459 3.344a104.136 104.136 0 00-.454 3.477 105.554 105.554 0 01-.449 3.355l-.444 3.486h6.323l1.806-13.662c5.013 0 4.261.396 5.186-1.115l2.427-3.945h-18.839l-.645 5.06zm-158.064 0h6.322c-.088 1.03-.304 2.25-.462 3.342l-1.344 10.32h6.322l1.807-13.662h5.161l.645-5.06H6.322c-.085.31-.543.967-.748 1.29l-1.616 2.464c-.274.457-.615.811-.732 1.306zm102.135-14.724c-.845.123-3.155-.266-3.841-.429-4.083-.97-8.012-3.953-9.56-7.833-.701-1.758-.92-3.367.124-5.142.26-.446.6-.919 1.206-.968-.418-.56-3.436-1.265-4.644.634-1.188 1.87-1.35 5.833-.693 8.014.297.986.472 1.552.906 2.4.524 1.03 1.94 3.003 2.826 3.682.916.702.277.396 1.809 1.389 2.07 1.34 5.201 2.117 8.037 1.828 2.634-.27 6.082-1.805 7.759-3.652.516-.57.415-.479.516-.633-.502.352-3.991.644-4.445.71z" fill="#005A9C"/><path d="M100.7 20.114c.461 0 1.485-.009 2.009-.253 1.945-.528 4.276-2.485 5.553-3.791 1.141-1.17 2.821-2.056 4.512-2.53.522-.781 1.115-1.503 1.695-2.264.56-.73 1.229-1.496 1.66-2.294-1.762-.145-4.126-.787-5.909.659-1.405 1.14-.853.8-1.801 1.776-.32.329-.543.617-.823.964l-4.079 4.73c-.511.55-1.519 1.16-2.255 1.33-1.462.34-2.286.051-3.327.028.25.334 2.218 1.446 2.765 1.645z" fill="#005A9C"/><path d="M100.7 20.114c1.254.487 2.28.794 3.822 1.005.764.104 1.276.15 2.192.138.825-.01 1.458-.241 2.189-.258.142-.129-.226-.126.387-.126l.258-.127h.129c.026-.018.07-.07.083-.045.052.102 1.856-1.006 2.718-2.016l2.202-2.649a25.65 25.65 0 001.449-1.868c-1.022-.53-1.784-.646-3.355-.629-1.691.475-3.371 1.36-4.513 2.53-1.276 1.307-3.478 3.138-5.423 3.665-.325.089-2.129.374-2.138.38z" fill="#EB1C2B"/><path d="M112.645 5.945l1.961-2.884c.541-.849 1.053-1.558 1.523-2.429-.525-.011-.53-.1-1.05-.126h-1.646c-.727.04-1.722.29-2.209.505-2.773 1.227-2.487 1.968-3.095 2.404-.676-.444-1.218-.91-2.019-1.309-.771-.383-1.562-.722-2.394-.942-3.581-.952-7.65-.524-10.723 1.707-.867.63-3.045 2.458-3.316 3.454 1.155-.543 2.164-.242 2.607-.48.19-.103.485-.585.713-.82.349-.36.509-.456.897-.763 2.671-2.114 6.046-3.202 9.627-2.528a13.87 13.87 0 012.49.721c.377.147.691.31 1.044.496.421.222.613.47 1.074.59l-2.195 3.795a172.754 172.754 0 01-2.151 3.963c-.988 1.753-2.987 5-4.79 5.93-.496.257-.619.228-1.316.228v.127c2.403 0 3.506-1.415 4.922-3.272 2.289-2.998 4.209-6.842 6.379-9.938 1.373-1.96 3.472-2.35 5.861-2.35l-2.194 3.921z" fill="#005A9C"/><path d="M112.903 5.566h-.129l.107.148.022-.148zm0 0l.129-.253-.129.253z" fill="#005A9C"/><path d="M29.677 36.433h3.226l-.866 5.076-3.263.11.903-5.186zm17.161 5.692h3.871l-.645-5.06-1.288-.05-1.938 5.11zm92.904-.505h3.484l.645-5.187h-3.467l-.662 5.186zm9.677 0h3.484l.645-5.187h-3.467l-.662 5.186zm36.774 3.541h3.355l.645-4.934h-3.354l-.646 4.934z" fill="#fff"/></g><defs><clipPath id="clip0_274_3945"><path fill="#fff" d="M0 0h200v50.601H0z"/></clipPath></defs></svg>