<svg width="100" height="100" fill="none" xmlns="http://www.w3.org/2000/svg"><path clip-rule="evenodd" d="M37.417 97.931c-.403-.121-.82-.241-1.236-.36a46.722 46.722 0 0 1-2.175-.662C-.004 84.789-.002 60.237 0 26.717V15.879L38.705 3l38.636 12.879v28.888H41.664v44.851a7.32 7.32 0 0 1 .104-.053V98.3h-4.35v-.37Zm-1.705-59.08v-28.59L5.987 20.16v5.778c-.028 4.591-.053 8.944 0 13.065v-.153h29.725ZM6.125 44.766c.85 22.777 5.627 37.78 29.587 46.432V44.769H6.125Zm35.539-5.917h29.725V20.3L41.664 10.264V38.85Z"/><path clip-rule="evenodd" d="M80.821 94.403H46.954v3.898h52.942v-1.949c0-7.727-6.161-10.06-10.234-11.59a17.41 17.41 0 0 1-3.272-1.428.627.627 0 0 1 .627-.626h7.658l-1.045-2.715a37.848 37.848 0 0 0-.751-1.817l-.223-.515a25.234 25.234 0 0 1-2.576-11.208 10.79 10.79 0 0 0-10.442-11.069 9.815 9.815 0 0 0-5.534 1.74 13.714 13.714 0 0 0-12.879-9.536 13.923 13.923 0 0 0-13.61 13.679 6.023 6.023 0 0 0-2.018 5.256c0 3.48 1.218 6.961 3.864 6.961a22.45 22.45 0 0 0 2.75 6.091 6.37 6.37 0 0 1 1.392 2.82c0 1.697-3.245 3.13-6.182 4.426l-.223.099h-.244v3.982a20.07 20.07 0 0 1 1.462-.606c4.282-1.845 8.702-3.794 8.702-8.11a9.467 9.467 0 0 0-1.845-4.977 18.136 18.136 0 0 1-2.61-6.335l-.313-1.532h-2.576a7.17 7.17 0 0 1-.244-4.873h1.775v-2.54a10.442 10.442 0 0 1 9.955-10.443 10.129 10.129 0 0 1 9.92 9.468v3.62h1.81a7.17 7.17 0 0 1-.244 4.873h-2.575l-.314 1.531a17.403 17.403 0 0 1-2.61 6.37 15.138 15.138 0 0 0-1.392 2.68 6.337 6.337 0 0 0-.453 2.263 7.17 7.17 0 0 0 4.212 5.952 41.2 41.2 0 0 0 4.524 2.018 19.073 19.073 0 0 1 6.718 4.003l-.035.14Zm-10.128-9.99a7.552 7.552 0 0 0 2.401-1.357.731.731 0 0 0-.661-.487h-3.272c.328.72.876 1.318 1.567 1.706l-.035.139Zm.07-5.742h.048l-.084.139.035-.14Zm.048 0h1.622a4.386 4.386 0 0 1 4.142 4.664 3.827 3.827 0 0 1-1.74 3.237l.574.25c3.963 1.74 8.407 3.688 9.485 7.581h11.103c-.8-3.167-3.724-4.525-7.588-5.986l-.012-.005c-2.78-1.043-5.661-2.123-5.661-5.077a4.387 4.387 0 0 1 4.281-4.525h2.089a28.61 28.61 0 0 1-2.715-12.357 6.96 6.96 0 0 0-6.753-7.17 6.404 6.404 0 0 0-4.664 2.054 6.127 6.127 0 0 1 1.914 5.186c0 3.272-1.218 6.961-3.863 6.961a20.884 20.884 0 0 1-2.214 5.187Z"/></svg>