<svg width="100" height="100" fill="none" xmlns="http://www.w3.org/2000/svg"><path fill-rule="evenodd" clip-rule="evenodd" d="M21.36 29.745a3.56 3.56 0 11-7.12 0 3.56 3.56 0 017.12 0zm60.733 3.56h-36.24a3.56 3.56 0 01-3.24-3.56 3.56 3.56 0 013.24-3.56H82.27a3.56 3.56 0 010 7.12h-.178zm7.12 60.52H10.68A10.68 10.68 0 010 83.145v-26.13a10.68 10.68 0 012.741-7.12A10.68 10.68 0 010 42.775V16.68A10.68 10.68 0 0110.68 6h78.604a10.68 10.68 0 0110.68 10.68v26.023a10.68 10.68 0 01-2.705 7.12 10.68 10.68 0 012.705 7.12v26.06a10.68 10.68 0 01-10.68 10.786l-.07.036zM10.68 53.455a3.56 3.56 0 00-3.346 3.56v26.059a3.56 3.56 0 003.56 3.56h78.39a3.56 3.56 0 003.56-3.56v-26.06a3.56 3.56 0 00-3.382-3.56H10.68zm22.321-23.71a3.56 3.56 0 11-7.12 0 3.56 3.56 0 017.12 0zM21.36 70.08a3.56 3.56 0 11-7.12 0 3.56 3.56 0 017.12 0zm60.733 3.56h-36.24a3.56 3.56 0 110-7.12H82.27a3.56 3.56 0 110 7.12h-.178zm-49.092-3.56a3.56 3.56 0 11-7.12 0 3.56 3.56 0 017.12 0zM10.68 13.12a3.56 3.56 0 00-3.56 3.56v26.023a3.56 3.56 0 003.346 3.56h78.996a3.56 3.56 0 003.56-3.56V16.68a3.56 3.56 0 00-3.56-3.56H10.68z" fill="#003968"/></svg>