<svg width="100" height="100" fill="none" xmlns="http://www.w3.org/2000/svg"><g clip-path="url(#clip0_345_5425)"><path fill-rule="evenodd" clip-rule="evenodd" d="M73.337 52.012a55.65 55.65 0 00-14.782 1.807c-4.134 1.204-6.543 2.573-6.543 3.668 0 1.095 2.327 2.327 6.46 3.504a54.532 54.532 0 0014.783 1.807 54.917 54.917 0 0014.81-1.807c4.106-1.177 6.433-2.546 6.433-3.504 0-.958-2.327-2.327-6.433-3.531a56.032 56.032 0 00-14.728-1.944zM94.58 80.564a24.333 24.333 0 01-3.395 1.423 58.937 58.937 0 01-17.848 2.492 56.553 56.553 0 01-18.834-2.738 24.62 24.62 0 01-2.409-1.068v8.76c0 .986 2.327 2.355 6.46 3.532a55.65 55.65 0 0014.783 1.806 56.047 56.047 0 0014.81-1.806c4.106-1.177 6.433-2.546 6.433-3.532v-8.87zm-42.568-6.652c0 .958 2.382 2.3 6.46 3.476a55.658 55.658 0 0014.783 1.807c4.995.06 9.976-.547 14.81-1.806 4.106-1.205 6.433-2.574 6.433-3.532v-9.745a24.34 24.34 0 01-3.395 1.396 58.938 58.938 0 01-17.848 2.49 56.553 56.553 0 01-18.834-2.737 24.64 24.64 0 01-2.409-1.04v9.691zm21.243 26.143a56.556 56.556 0 01-18.834-2.738c-4.16-1.587-7.063-3.832-7.61-6.761a13.687 13.687 0 010-2.135V57.487a8.595 8.595 0 010-1.177c.547-2.93 3.45-5.174 7.61-6.762a56.558 56.558 0 0118.834-2.737 56.557 56.557 0 0118.834 2.737c4.16 1.588 7.062 3.833 7.637 6.762v34.109c-.575 2.929-3.449 5.174-7.637 6.761A56.56 56.56 0 0173.337 100l-.082.055zm-56.83-81.741a2.738 2.738 0 11-5.476 0 2.738 2.738 0 015.476 0zm46.701 2.737H35.26a2.737 2.737 0 010-5.475h28.004a2.738 2.738 0 010 5.475h-.137zM8.048 36.627a2.738 2.738 0 00-2.546 2.738v20.093a2.738 2.738 0 002.738 2.738h33.096v5.474H8.212A8.212 8.212 0 010 59.458V39.392a8.212 8.212 0 012.108-5.475A8.212 8.212 0 010 28.442V8.212A8.212 8.212 0 018.212 0h60.444a8.213 8.213 0 018.212 8.212v20.093a8.212 8.212 0 01-2.108 5.476 8.212 8.212 0 012.108 5.474v2.136h-5.447v-2.053a2.737 2.737 0 00-2.6-2.738H8.047v.027zm17.328-18.313a2.737 2.737 0 11-5.475 0 2.737 2.737 0 015.475 0zm-8.951 31.125a2.738 2.738 0 11-5.476 0 2.738 2.738 0 015.476 0zm25.212 2.737h-6.378a2.737 2.737 0 010-5.475h11.415a15.11 15.11 0 00-2.053 1.451 9.307 9.307 0 00-2.93 4.052l-.054-.028zM25.212 49.44a2.738 2.738 0 11-2.737-2.738 2.738 2.738 0 012.901 2.738h-.164zm-17-43.964a2.737 2.737 0 00-2.737 2.737v20.093a2.738 2.738 0 002.573 2.738H68.82a2.738 2.738 0 002.6-2.738V8.212a2.738 2.738 0 00-2.737-2.737H8.213z" fill="#003968"/></g><defs><clipPath id="clip0_345_5425"><path fill="#fff" d="M0 0h100v100H0z"/></clipPath></defs></svg>