<svg width="100" height="100" fill="none" xmlns="http://www.w3.org/2000/svg"><g clip-path="url(#clip0_345_5447)" fill="#003968"><path fill-rule="evenodd" clip-rule="evenodd" d="M100 53.101V50A50 50 0 0051.987.15 13.377 13.377 0 0048.02.147 49.999 49.999 0 00.106 46.86H0v6.24h.09a49.998 49.998 0 0049.743 47.007l.167.001h3.102v-6.97a7.3 7.3 0 01-3 .692h-.21c-5.345-.088-11.043-6.669-14.714-17.545A66.38 66.38 0 0150 75.036h3.102v-6.314H50a72.735 72.735 0 00-16.544 1.502c-1.197-5.09-1.976-10.85-2.168-17.122H100zm-68.709-6.24h37.346c-.159-5.039-.695-9.747-1.522-14.043A70.105 70.105 0 0150 34.38a70.11 70.11 0 01-17.18-1.559c-.83 4.294-1.368 9-1.529 14.04zm2.98-20.15C37.88 14.02 44.16 6.24 50 6.24l-.037-.037c5.842 0 12.111 7.807 15.71 20.51A63.863 63.863 0 0150 28.104a64.08 64.08 0 01-15.73-1.393zm38.968 4.484c.959 4.864 1.552 10.129 1.715 15.666H93.5a43.798 43.798 0 00-7.292-21.228 70.099 70.099 0 01-12.97 5.562zm9.064-10.568a63.863 63.863 0 01-10.518 4.453c-1.855-6.589-4.436-12.199-7.54-16.432a43.789 43.789 0 0118.058 11.979zM28.233 25.1a64.084 64.084 0 01-10.659-4.503A43.79 43.79 0 0135.816 8.6c-3.122 4.245-5.718 9.881-7.584 16.5zm-14.577.499a70.098 70.098 0 0013.118 5.624c-.96 4.859-1.556 10.114-1.725 15.638H6.32a43.8 43.8 0 017.337-21.262zm11.386 27.503c.188 6.691 1.003 12.986 2.332 18.662a72.733 72.733 0 00-12.162 4.878 43.798 43.798 0 01-8.9-23.54h18.73zm4.017 24.707a66.372 66.372 0 00-9.534 3.68 43.79 43.79 0 0016.219 9.957c-2.654-3.622-4.924-8.251-6.685-13.637z"/><path d="M76.642 93.394a5.328 5.328 0 01-5.182-4.234H61.241l3.65-7.591V71.277a11.57 11.57 0 1123.138 0v10.292l3.65 7.591H81.46a5.293 5.293 0 01-4.818 4.234z"/></g><defs><clipPath id="clip0_345_5447"><path fill="#fff" d="M0 0h100v100H0z"/></clipPath></defs></svg>