<svg width="16" height="18" fill="none" xmlns="http://www.w3.org/2000/svg"><g clip-path="url(#clip0_66_1017)" fill="#871F14"><path d="M9.15 2a.19.19 0 00.24 0 .18.18 0 00-.06-.27L9 1.5a.2.2 0 00-.24.05.19.19 0 00.06.28l.33.17zm1.29.74a.19.19 0 10.19-.33l-.33-.18a.18.18 0 00-.24 0 .19.19 0 00.06.27l.32.24zm1.29.73a.19.19 0 00.25 0 .191.191 0 00-.002-.218.19.19 0 00-.057-.052L11.6 3a.19.19 0 00-.25 0 .19.19 0 00.06.27l.32.2zm1.3.74a.19.19 0 00.24 0 .191.191 0 00-.002-.218.19.19 0 00-.057-.052l-.32-.19a.19.19 0 00-.19.25l.33.21zm1.2.69a.2.2 0 00.24 0 .192.192 0 00.009-.225.19.19 0 00-.058-.055l-.24-.13a.18.18 0 00-.24 0 .178.178 0 000 .22.18.18 0 00.06.05l.23.14zM7.72.77a.18.18 0 00-.284.06.18.18 0 00.045.21l.33.18a.18.18 0 00.24-.05A.19.19 0 008 1L7.72.77zM6.1 15.23a.183.183 0 00-.25.07.183.183 0 00.07.25l.32.19a.2.2 0 00.24-.05.19.19 0 00-.06-.28l-.32-.18zm-1.29-.74a.19.19 0 00-.26.07.19.19 0 00.07.26L5 15a.19.19 0 00.19 0 .18.18 0 00-.06-.27l-.32-.24zm-1.29-.73a.19.19 0 00-.25.05.19.19 0 00.06.27l.33.18a.18.18 0 00.24 0 .19.19 0 00-.06-.27l-.32-.23zM2.22 13a.18.18 0 00-.269.12.19.19 0 00.09.2l.32.19a.19.19 0 00.19-.33L2.22 13zM1 12.33a.2.2 0 00-.24.05.19.19 0 00.06.28l.23.13a.19.19 0 00.24 0 .18.18 0 00-.06-.27L1 12.33zm6.51 4.14a.18.18 0 00.286-.061.18.18 0 00-.045-.21l-.36-.2a.18.18 0 00-.24 0 .19.19 0 00.06.27l.3.2zm1.64-6.71a.19.19 0 00.24 0 .18.18 0 00-.06-.27L9 9.25a.2.2 0 00-.24.05.19.19 0 00.06.28l.33.18zm1.29.74a.19.19 0 00.28-.215.19.19 0 00-.09-.115L10.3 10a.18.18 0 00-.24 0 .19.19 0 00.06.27l.32.23zm1.29.73a.19.19 0 00.25-.05.192.192 0 00.03-.148.19.19 0 00-.09-.122l-.32-.18a.19.19 0 00-.25 0 .19.19 0 00.06.27l.32.23zM13 12a.19.19 0 00.24-.05.192.192 0 00.03-.148.19.19 0 00-.09-.122l-.32-.19a.19.19 0 00-.19.33L13 12zm1.2.69a.2.2 0 00.24-.05.192.192 0 00.009-.225.19.19 0 00-.058-.055l-.24-.13a.18.18 0 00-.24.05.177.177 0 00-.033.149.18.18 0 00.093.12l.23.14zM7.72 8.52a.18.18 0 00-.24.05.18.18 0 000 .27l.38.16a.18.18 0 00.24 0 .19.19 0 00-.1-.3l-.28-.18z"/><path d="M2.64 11.74a.19.19 0 00-.18-.33l-.33.19a.181.181 0 10.17.32l.34-.18zM3.93 11a.19.19 0 00-.18-.33l-.33.19a.19.19 0 00.18.33l.33-.19zm1.29-.74a.19.19 0 00-.17-.33l-.34.19a.19.19 0 00.18.33l.33-.19zm1.29-.73a.19.19 0 00-.17-.33L6 9.39a.181.181 0 00.17.32l.34-.18zm1.21-.69a.19.19 0 00-.18-.33l-.24.14a.195.195 0 10.17.35l.25-.16zM.84 12.33a.19.19 0 00.17.33l.33-.19a.19.19 0 00-.17-.33l-.33.19z"/><path d="M7.81 14.42a.19.19 0 00-.37 0v.4a.19.19 0 00.37 0v-.4zm0-1.5a.19.19 0 00-.37 0v.4a.19.19 0 00.37 0v-.4zm0-1.49a.19.19 0 00-.37 0v.4a.19.19 0 00.37 0v-.4zm0-1.49a.19.19 0 00-.37 0v.4a.19.19 0 00.37 0v-.4zm0-1.49a.19.19 0 00-.37 0v.39a.19.19 0 00.37 0v-.4.01zm0-1.45a.19.19 0 00-.37 0v.39a.19.19 0 00.37 0V7zm0-1.49a.19.19 0 00-.37 0v.39a.19.19 0 00.37 0v-.4.01zm0-1.51a.19.19 0 00-.37 0v.39a.19.19 0 00.37 0V4zm0-1.49a.19.19 0 00-.37 0v.39a.19.19 0 00.37 0v-.41.02zm0-1.37a.19.19 0 00-.37 0v.27a.19.19 0 00.37 0v-.29.02zm-.37 15.14a.19.19 0 00.37 0v-.39a.19.19 0 00-.37 0v.4-.01zM.74 6.54a.19.19 0 00.17.19.19.19 0 00.2-.19v-.37a.19.19 0 10-.37 0v.37zM.74 8a.18.18 0 00.17.18.18.18 0 00.2-.18v-.34a.19.19 0 10-.37 0V8zm0 1.49a.19.19 0 00.245.172.18.18 0 00.125-.172v-.35a.19.19 0 00-.37 0v.35zm0 1.51a.19.19 0 00.17.19.19.19 0 00.2-.19v-.37a.18.18 0 00-.17-.18.18.18 0 00-.2.18V11zm0 1.4a.18.18 0 00.17.18.18.18 0 00.2-.18v-.28a.19.19 0 00-.17-.19.188.188 0 00-.184.115.19.19 0 00-.016.075v.28zm.37-7.72a.17.17 0 00-.17-.18.18.18 0 00-.2.18v.37a.19.19 0 00.17.19.19.19 0 00.2-.19v-.37z"/><path fill-rule="evenodd" clip-rule="evenodd" d="M.93 11.67a.73.73 0 110 1.46.73.73 0 010-1.46z"/><path d="M8.09 17.11a.93.93 0 11-.93-1.6l6.23-3.65V6.34l-5.31 3a.93.93 0 01-.93 0L.47 5.55a.92.92 0 01-.35-1.26.89.89 0 01.36-.36L7.17.12a.925.925 0 11.91 1.61l-5.28 3 4.83 2.76L13.8 4a.93.93 0 011.45.77v7.63a.911.911 0 01-.46.8l-6.7 3.91z"/></g><defs><clipPath id="clip0_66_1017"><path fill="#fff" d="M0 0h15.25v17.24H0z"/></clipPath></defs></svg>