<svg width="28" height="28" fill="none" xmlns="http://www.w3.org/2000/svg"><path fill-rule="evenodd" clip-rule="evenodd" d="M14 7.75a3.572 3.572 0 1 1 0 7.144 3.572 3.572 0 0 1 0-7.144Zm0 1.5a2.071 2.071 0 1 1 0 4.142 2.071 2.071 0 0 1 0-4.142Zm0 7.143c4.832 0 8.75 3.502 8.75 7.821v.036h-2.074c-.104-2.892-3.335-5.786-6.569-5.786-3.233 0-6.388 2.895-6.491 5.786H5.25l-.001-.036c0-4.319 3.918-7.821 8.75-7.821Z" fill="#E3E3E4"/><circle cx="14" cy="14" r="13" stroke="#E3E3E4" stroke-width="2"/></svg>