<svg width="100" height="100" fill="none" xmlns="http://www.w3.org/2000/svg"><g clip-path="url(#clip0_345_5445)" clip-rule="evenodd"><path d="M100 50v3.102H31.288c.192 6.273.972 12.032 2.168 17.122A72.735 72.735 0 0150 68.722V75a66.386 66.386 0 00-14.83 1.265C38.868 87.228 44.622 93.832 50 93.832V100A50 50 0 01.096 53.102H0V46.86h.099A50 50 0 01100 50zM49.981 6.24c-5.833.018-12.104 7.795-15.71 20.47A64.08 64.08 0 0050 28.103a63.863 63.863 0 0015.673-1.388c-3.58-12.635-9.8-20.426-15.615-20.51h-.094L50 6.24h-.019zm14.265 2.41c3.104 4.232 5.684 9.842 7.539 16.43a63.867 63.867 0 0010.518-4.453A43.791 43.791 0 0064.246 8.65zm2.869 24.168c.827 4.296 1.363 9.004 1.522 14.043H31.29c.16-5.04.7-9.746 1.53-14.04A70.101 70.101 0 0050 34.382a70.104 70.104 0 0017.115-1.563zm-40.359-1.6c-.956 4.858-1.547 10.114-1.71 15.643H6.32a43.798 43.798 0 017.336-21.262 70.1 70.1 0 0013.1 5.619zm-1.711 21.884H6.312a43.799 43.799 0 008.9 23.54 72.727 72.727 0 0112.186-4.885c-1.336-5.672-2.158-11.964-2.353-18.655zm49.909-6.241H93.5a43.799 43.799 0 00-7.292-21.228 70.102 70.102 0 01-12.97 5.562c.959 4.864 1.552 10.129 1.715 15.666zM28.21 25.093c1.86-6.612 4.451-12.24 7.57-16.48a43.791 43.791 0 00-18.206 11.984 64.075 64.075 0 0010.636 4.496zm.876 52.691a66.392 66.392 0 00-9.566 3.703 43.79 43.79 0 0016.332 9.997c-2.687-3.624-4.985-8.276-6.766-13.7z"/><path d="M62.737 62.41h-4.671v37.334h38.467v-4.672h-2.92v-7.846h-4.562v7.846h-3.54V91.68h-4.562v3.393h-3.504v-10.95h-4.562v10.95h-3.54v-4.671h-4.562v4.67h-2.044V79.344h4.647a3.394 3.394 0 106.257-2.608l3.376-3.375a3.394 3.394 0 002.915-.007l3.363 3.364.09-.09a3.393 3.393 0 003.002 4.978 3.395 3.395 0 003.063-4.857l.003.003 4.853-4.854v2.92h2.263V68.03h-6.788v2.263h2.92l-4.854 4.853.003.003a3.394 3.394 0 00-3.047.06l.092-.091-3.364-3.365a3.393 3.393 0 10-6.12.015l-3.377 3.375a3.394 3.394 0 00-4.65 1.938h-4.647V62.409zm7.218 14.861a1.13 1.13 0 111.257 1.88 1.13 1.13 0 01-1.257-1.88zm16.432-.19a1.13 1.13 0 100 2.26 1.13 1.13 0 000-2.26zm-8.548-7.73a1.13 1.13 0 01.628-.19v.182a1.094 1.094 0 011.132.95 1.131 1.131 0 11-1.76-.942z"/></g><defs><clipPath id="clip0_345_5445"><path fill="#fff" d="M0 0h100v100H0z"/></clipPath></defs></svg>