<svg width="180" height="87" fill="none" xmlns="http://www.w3.org/2000/svg"><path d="M56.304 55.844h11.222v3.594h-5.338v25.26h-5.884V55.843zM74.18 73.866l1.008-14.427h.338l1.008 14.427h-2.355zm-6.516 10.832h5.76l.545-7.662h2.775l.548 7.662h5.758l-3.07-28.854h-9.248l-3.069 28.854zm23.812-10.099v5.44c0 .732.579.945.917.945.555 0 .94-.45.94-.946v-6.717c0-.899-.168-1.892-2.364-1.892h-2.388V68.26h2.485c1.664 0 2.267-.379 2.267-2.152v-5.723a.938.938 0 00-.94-.947c-.339 0-.918.19-.918.947v4.706H85.59v-4.092c0-2.01.242-5.155 4.367-5.155h4.872c4.124 0 4.39 3.145 4.39 5.155v4.611c0 3.146-2.242 3.998-4.004 3.927v.284c3.957-.094 4.005 2.885 4.005 3.902v5.819c0 2.033-.266 5.155-4.39 5.155h-4.873c-4.125 0-4.367-3.122-4.367-5.156V74.6h5.887zm11.604-18.755h13.629v28.853h-5.886V59.438h-1.858v25.26h-5.886V55.843m23.376 15.871V59.438h.773c.627 0 1.084.52 1.084 1.444v9.388c0 .923-.457 1.444-1.084 1.444h-.773zm-5.886 12.984h5.886v-9.816h3.378c4.1 0 4.367-3.121 4.367-5.156V61c0-2.01-.267-5.155-4.367-5.155h-9.264v28.854m25.233-4.661a.937.937 0 01-.94.946c-.339 0-.918-.213-.918-.946V60.385c0-.758.579-.947.918-.947.554 0 .94.45.94.947v19.653zm-7.743-.496c0 2.033.265 5.155 4.366 5.155h4.898c4.1 0 4.366-3.122 4.366-5.156V61c0-2.01-.266-5.155-4.366-5.155h-4.898c-4.101 0-4.366 3.145-4.366 5.155v18.542zm32.783-23.698h7.671v28.853h-5.886V66.604h-.218l-3.038 18.094h-4.705l-3.015-18.094h-.217v18.094h-5.886V55.844h7.647l3.836 20.293 3.811-20.293zM48.676 16.395C46.875 8.66 42.358 2.37 41.736 1.353c-.984 1.442-4.585 7-6.416 13.15-2 6.882-2.294 12.984-1.605 18.968.685 6.007 3.274 12.18 3.274 12.18 1.375 3.217 3.435 6.693 4.776 8.396 1.966-2.507 6.485-9.98 7.894-19.724.784-5.44.817-10.195-.983-17.928zm-6.94 35.712c-.885-1.631-2.26-4.73-2.39-9.555-.034-4.635 1.864-8.632 2.42-9.46.494.828 2.129 4.305 2.325 9.058.132 4.636-1.44 8.301-2.355 9.957zm6.417-22.586c-.067 2.956-.427 6.078-.885 7.947.164-3.217-.23-7.734-.983-11.282-.752-3.524-2.882-9.436-4.583-12.156-1.57 2.601-3.505 7.71-4.518 12.133-1.018 4.422-1.047 9.79-1.047 11.4-.27-1.349-.946-6.197-.755-11.045.159-3.997 1.114-8.136 1.638-10.028 1.997-6.315 4.257-10.359 4.682-10.998.425.64 3.271 5.629 4.748 10.856 1.469 5.226 1.766 10.24 1.703 13.173z" fill="#0079C2"/><path d="M44.792 55.844h-13.7v9.01c.013 0 .023-.023.035-.023 3.228-3.17 8.462-3.17 11.693 0 3.227 3.145 3.227 8.278 0 11.446-.015.024-.03.024-.044.048-.017 0-.034.023-.048.046-3.22 3.122-7.428 4.684-11.635 4.684-4.226 0-8.453-1.562-11.676-4.73a15.945 15.945 0 01-2.024-20.482 16.49 16.49 0 012.024-2.413c3.223-3.168 7.45-4.73 11.676-4.73V27.037c-16.24 0-29.405 12.89-29.405 28.806s13.165 28.83 29.405 28.83c8.467 0 16.095-3.524 21.46-9.13V55.841h-7.76" fill="#0079C2"/></svg>