<svg width="100" height="118" fill="none" xmlns="http://www.w3.org/2000/svg"><path fill-rule="evenodd" clip-rule="evenodd" d="M4.462 91.834l91 .052.05-89.49-91.052-.05.002 89.488zm32.854-79.451c-5.292 1.076-4.22 5.766-4.22 11.198 0 5.16-.286 27.672.136 30.843C35.15 68.818 56.04 69.549 59.79 56.637c1.01-3.472.58-10.749.578-14.821V18.679c.004-2.787-.338-4.379-2.078-5.518-1.77-1.159-4.098-1.257-5.932-.08-1.912 1.225-2.174 2.78-2.17 5.794.012 10.327.002 20.653.004 30.98 0 2.549.074 4.796-2.04 5.592-2.528.95-4.606-.827-4.8-2.86L43.33 21.62c.006-2.218.364-5.32-.706-7.022-.906-1.441-2.91-2.706-5.308-2.216zM90.362 79.1c-.272-1.721-2.452-6.494-3.2-8.355l-9.896-24.82c-3.618-9.348-3.964-7.07 1.77-16.09 1.414-2.225 2.982-4.692 4.45-7.02 1.416-2.248 3.84-5.113 1.802-8.284-1.614-2.51-5.624-3.08-8.022-.75-.906.878-8.12 12.794-8.958 14.162-4.86 7.95-6.018 8.469-2.474 16.65 1.168 2.697 2.406 5.427 3.524 8.111.974 2.34 6.804 15.235 6.962 16.404-10.782.14-21.666.008-32.458.008-17.524 0-17.628 1.631-17.634-6.712-.002-2.68 0-5.359.002-8.04.008-10.587-.002-21.176.002-31.764 0-3.47 1.15-10.9-5.776-10.23-5.556.54-4.5 6.681-4.482 11.799.036 10.586.018 21.178.018 31.765 0 3.605-.412 12.721.308 15.639.942 3.811 4.348 7.015 8.764 7.478 2.59.27 64.792.059 65.298.05z" fill="#E03A3E"/><path fill-rule="evenodd" clip-rule="evenodd" d="M66.838 114.606l4.108.043 5.378-8.328.114 8.295 3.944.039.006-14.263-3.928.016c-1.142 1.161-4.042 6.274-5.086 7.594l-.582.561-.004-8.051-3.934-.118-.016 14.212zm15.096-3.324l-.03 3.373c2.958.641 5.666-.247 6.536-2.285.922-2.152.188-5.98.494-8.505l2.816-.018.04 10.794 4.056-.006.012-14.188-11.04-.051c-.046 2.306-.014 4.624-.01 6.91.004 2.81.332 4.139-2.874 3.976zm-71.126.557c.48-2.612-.114-5.555.29-8.012l2.92-.058.074 10.811 4.04-.051-.032-14.106-11.058-.025c-.034 1.5.19 8.929-.27 9.955-.474 1.051-1.4.927-2.608.961l-.024 3.317c3.158.888 6.134-.5 6.668-2.792zm24.476 2.804l4.034.008.08-5.814c.204.149.178.118.356.322l3.684 5.427 5.08.065c-.704-1.6-4.516-5.622-5.434-7.345.728-1.416 4.592-5.477 5.316-6.834l-4.778-.074-4.22 5.633-.022-5.535-4.094-.094-.002 14.241zm-12.126.002l4.336-.007 6.438-14.2-4.48-.03-2.17 5.726c-1.136-.941-1.864-4.473-3.02-5.702l-4.616-.03c.598 1.826 2.648 5.13 3.57 6.943.346.679 1.69 2.877 1.648 3.469-.044.59-1.428 2.784-1.706 3.831z" fill="#232021"/><path fill-rule="evenodd" clip-rule="evenodd" d="M55.686 103.526c-4.444 1.507-2.838 9.572 2.286 8.021 4.35-1.315 2.838-9.761-2.286-8.021zm-.79-3.532c-9.694 1.906-7.506 17.487 4.044 15.049 9.294-1.962 7.386-17.296-4.044-15.049zm14.458-2.721c.744 3.031 6.898 3.231 8.52.23-.434-.5-1.566-.795-2.25-.958-1.088 1.973-2.882 1.122-4.164.01l-2.106.718z" fill="#232021"/><path fill-rule="evenodd" clip-rule="evenodd" d="M10.808 111.839c.814-.633.436-6.539.468-7.859l2.614-.021-.002 10.698c1.038.417 2.488.174 3.572.174 1.372-.037.286.022.672-.302l-4.04.051-.074-10.811-2.92.058c-.404 2.457.19 5.4-.29 8.012z" fill="#B1AEAF"/></svg>