<svg xmlns="http://www.w3.org/2000/svg" xmlns:xlink="http://www.w3.org/1999/xlink"><defs><clipPath id="a"><path fill="#fff" d="M0 0h100v100H0z"/></clipPath><clipPath id="a"><path fill="#fff" d="M0 0h15.25v17.24H0z"/></clipPath><clipPath id="a"><path fill="#fff" d="M0 0h100v100H0z"/></clipPath><clipPath id="a"><path fill="#fff" d="M0 0h100v100H0z"/></clipPath><clipPath id="a"><path fill="#fff" d="M0 0h100v100H0z"/></clipPath><clipPath id="a"><path fill="#fff" d="M0 0h100v100H0z"/></clipPath><clipPath id="a"><path fill="#fff" d="M0 0h100v100H0z"/></clipPath></defs><symbol id="icon-alarms"><path clip-rule="evenodd" d="M50.139 99.892a15.503 15.503 0 0 1-15.143-12.258H5l11.177-22.317V35.068A33.96 33.96 0 0 1 63.371 2.692a33.962 33.962 0 0 1 20.692 32.376v30.14l11.069 22.426H65.245A15.503 15.503 0 0 1 50.138 100v-.108ZM14.986 81.36h70.267l-7.21-14.71V35.068a27.796 27.796 0 1 0-55.558 0v31.583l-7.5 14.71Z"/></symbol><symbol id="icon-arrow"><path d="m12.792 2.642-9.434 9.424 9.434 9.423"/></symbol><symbol id="icon-client-security"><path clip-rule="evenodd" d="M37.417 97.931c-.403-.121-.82-.241-1.236-.36a46.722 46.722 0 0 1-2.175-.662C-.004 84.789-.002 60.237 0 26.717V15.879L38.705 3l38.636 12.879v28.888H41.664v44.851a7.32 7.32 0 0 1 .104-.053V98.3h-4.35v-.37Zm-1.705-59.08v-28.59L5.987 20.16v5.778c-.028 4.591-.053 8.944 0 13.065v-.153h29.725ZM6.125 44.766c.85 22.777 5.627 37.78 29.587 46.432V44.769H6.125Zm35.539-5.917h29.725V20.3L41.664 10.264V38.85Z"/><path clip-rule="evenodd" d="M80.821 94.403H46.954v3.898h52.942v-1.949c0-7.727-6.161-10.06-10.234-11.59a17.41 17.41 0 0 1-3.272-1.428.627.627 0 0 1 .627-.626h7.658l-1.045-2.715a37.848 37.848 0 0 0-.751-1.817l-.223-.515a25.234 25.234 0 0 1-2.576-11.208 10.79 10.79 0 0 0-10.442-11.069 9.815 9.815 0 0 0-5.534 1.74 13.714 13.714 0 0 0-12.879-9.536 13.923 13.923 0 0 0-13.61 13.679 6.023 6.023 0 0 0-2.018 5.256c0 3.48 1.218 6.961 3.864 6.961a22.45 22.45 0 0 0 2.75 6.091 6.37 6.37 0 0 1 1.392 2.82c0 1.697-3.245 3.13-6.182 4.426l-.223.099h-.244v3.982a20.07 20.07 0 0 1 1.462-.606c4.282-1.845 8.702-3.794 8.702-8.11a9.467 9.467 0 0 0-1.845-4.977 18.136 18.136 0 0 1-2.61-6.335l-.313-1.532h-2.576a7.17 7.17 0 0 1-.244-4.873h1.775v-2.54a10.442 10.442 0 0 1 9.955-10.443 10.129 10.129 0 0 1 9.92 9.468v3.62h1.81a7.17 7.17 0 0 1-.244 4.873h-2.575l-.314 1.531a17.403 17.403 0 0 1-2.61 6.37 15.138 15.138 0 0 0-1.392 2.68 6.337 6.337 0 0 0-.453 2.263 7.17 7.17 0 0 0 4.212 5.952 41.2 41.2 0 0 0 4.524 2.018 19.073 19.073 0 0 1 6.718 4.003l-.035.14Zm-10.128-9.99a7.552 7.552 0 0 0 2.401-1.357.731.731 0 0 0-.661-.487h-3.272c.328.72.876 1.318 1.567 1.706l-.035.139Zm.07-5.742h.048l-.084.139.035-.14Zm.048 0h1.622a4.386 4.386 0 0 1 4.142 4.664 3.827 3.827 0 0 1-1.74 3.237l.574.25c3.963 1.74 8.407 3.688 9.485 7.581h11.103c-.8-3.167-3.724-4.525-7.588-5.986l-.012-.005c-2.78-1.043-5.661-2.123-5.661-5.077a4.387 4.387 0 0 1 4.281-4.525h2.089a28.61 28.61 0 0 1-2.715-12.357 6.96 6.96 0 0 0-6.753-7.17 6.404 6.404 0 0 0-4.664 2.054 6.127 6.127 0 0 1 1.914 5.186c0 3.272-1.218 6.961-3.863 6.961a20.884 20.884 0 0 1-2.214 5.187Z"/></symbol><symbol id="icon-data-transport"><path clip-rule="evenodd" d="M32.147 14.337c-5-.071-9.988.538-14.825 1.81-4.12 1.186-6.46 2.528-6.46 3.496 0 .967 2.34 2.34 6.46 3.495a55.025 55.025 0 0 0 14.825 1.842c5.003.063 9.99-.557 14.825-1.841 4.12-1.155 6.461-2.529 6.461-3.496 0-.968-2.34-2.31-6.46-3.496a55.177 55.177 0 0 0-14.826-1.81Zm21.286 28.496a24.19 24.19 0 0 1-3.402 1.404 58.804 58.804 0 0 1-17.884 2.497 56.9 56.9 0 0 1-18.726-2.84 29.967 29.967 0 0 1-2.435-1.061v8.739c0 .967 2.341 2.34 6.46 3.495a55.178 55.178 0 0 0 14.826 1.81 55.123 55.123 0 0 0 14.825-1.81c4.12-1.154 6.461-2.528 6.461-3.495l-.125-8.74Zm-42.572-6.71c0 .967 2.404 2.309 6.461 3.464a55.186 55.186 0 0 0 14.825 1.81 55.185 55.185 0 0 0 14.825-1.81c4.12-1.186 6.461-2.56 6.461-3.496v-9.707a24.196 24.196 0 0 1-3.495 1.343 58.804 58.804 0 0 1-17.884 2.496 56.9 56.9 0 0 1-18.727-2.84 21.876 21.876 0 0 1-2.434-1.061v9.8h-.032Zm74.595 18.04V42.02H90.2l3.433 12.141h-8.177ZM11.423 71.421a5.837 5.837 0 1 1 0 11.673 5.837 5.837 0 0 1 0-11.673Zm24.157 0a5.837 5.837 0 1 1 0 11.673 5.837 5.837 0 0 1 0-11.673ZM11.424 88.806A11.423 11.423 0 1 0 0 77.383a11.454 11.454 0 0 0 11.423 11.423ZM82.18 71.422a5.837 5.837 0 1 1 0 11.673 5.837 5.837 0 0 1 0-11.673Zm9.363-.905a11.423 11.423 0 0 0-18.446 0h-2.372V42.02h9.363v17.634h14.389v10.987l-2.934-.125Zm-9.364 18.165a11.454 11.454 0 0 0 11.455-11.299v-1.155h6.242V56.347L93.79 37.09H64.92v33.552h-20.1a11.455 11.455 0 1 0 2.185 6.741c.032-.52.032-1.04 0-1.56H70.91v1.435a11.455 11.455 0 0 0 11.267 11.548v-.124ZM32.242 62.09a56.899 56.899 0 0 1-18.727-2.84c-4.4-1.436-7.272-3.683-7.865-6.555a16.104 16.104 0 0 1 0-2.122V19.768a7.302 7.302 0 0 1 0-1.186c.593-2.934 3.465-5.181 7.647-6.742A56.897 56.897 0 0 1 32.023 9a56.897 56.897 0 0 1 18.726 2.84c4.182 1.56 7.085 3.808 7.647 6.742v34.05c-.562 2.935-3.465 5.182-7.647 6.742a56.897 56.897 0 0 1-18.602 2.84l.094-.124Z"/></symbol><symbol id="icon-document-pdf"><path d="M38.634 10.825 28.443.235A.77.77 0 0 0 27.889 0H12.7a3.086 3.086 0 0 0-3.083 3.081v10.765H3.463a2.309 2.309 0 0 0-2.307 2.306v11.542A2.309 2.309 0 0 0 3.463 30h6.155v6.924A3.083 3.083 0 0 0 12.7 40h23.066c1.7 0 3.083-1.38 3.083-3.074V11.358a.77.77 0 0 0-.215-.533ZM28.079 2.077l8.366 8.692h-8.366V2.077ZM3.463 28.462a.768.768 0 0 1-.768-.768V16.152c0-.423.344-.767.768-.767h20.772c.423 0 .767.344.767.767v11.542a.768.768 0 0 1-.767.768H3.463Zm33.847 8.464c0 .847-.693 1.536-1.544 1.536H12.7c-.851 0-1.544-.69-1.544-1.538V30h13.079a2.309 2.309 0 0 0 2.306-2.306V16.152a2.309 2.309 0 0 0-2.306-2.306H11.156V3.081c0-.85.693-1.543 1.544-1.543h13.84v10c0 .425.345.77.77.77h10v24.618Z"/><path d="M10.35 19.523a1.732 1.732 0 0 0-.95-.646c-.247-.067-.776-.1-1.587-.1H5.672v6.608h1.334v-2.493h.87c.604 0 1.065-.031 1.384-.094.234-.051.465-.156.692-.314.226-.157.414-.374.56-.65.148-.277.222-.618.222-1.024 0-.526-.128-.955-.384-1.287Zm-1.142 1.819a.876.876 0 0 1-.417.325c-.177.069-.529.103-1.055.103h-.73v-1.875h.645c.48 0 .8.015.96.045.216.04.395.137.536.293a.853.853 0 0 1 .212.595c0 .195-.05.367-.151.514Zm7.939-.76a2.888 2.888 0 0 0-.63-1.07 2.21 2.21 0 0 0-.997-.608c-.288-.085-.707-.127-1.257-.127h-2.439v6.608h2.51c.494 0 .887-.047 1.182-.14.393-.126.706-.302.937-.527.307-.298.543-.687.708-1.168.135-.393.203-.862.203-1.406 0-.619-.073-1.14-.217-1.561Zm-1.298 2.714c-.09.296-.206.508-.35.638-.142.129-.321.22-.538.274-.165.043-.434.064-.806.064h-.997v-4.377h.6c.544 0 .909.021 1.095.063.25.054.455.158.617.311.163.154.289.367.38.64.09.274.134.666.134 1.177 0 .51-.045.914-.135 1.21Zm7.185-3.401v-1.118h-4.53v6.608h1.334v-2.808h2.758v-1.118h-2.758v-1.564h3.196Z"/></symbol><symbol id="icon-download"><path d="M13 3a1 1 0 1 0-2 0v9.586L7.707 9.293a1 1 0 0 0-1.414 1.414l5 5 .007.007a.996.996 0 0 0 .697.286h.006c.272 0 .518-.11.697-.286l.008-.008 5-4.999a1 1 0 0 0-1.415-1.414L13 12.586V3Z"/><path d="M3 14a1 1 0 0 1 1 1v4a1 1 0 0 0 1 1h14a1 1 0 0 0 1-1v-4a1 1 0 1 1 2 0v4a3 3 0 0 1-3 3H5a3 3 0 0 1-3-3v-4a1 1 0 0 1 1-1Z"/></symbol><symbol id="icon-exit" viewBox="0 0 1064.428 1234"><path d="m1046.428 560-163 200q-11 12-29.5 12.5t-32-7.5-13.5-19V645h-128q-26 0-45-18.5t-19-45.5V453q0-27 19-45.5t45-18.5h128V289q0-12 13.5-20t32-7.5 29.5 12.5l163 199q18 18 18 43.5t-18 43.5zm-365.5-299q-26.5 0-45.5-19t-19-45.5-18.5-45-45.5-18.5h-320q-26 0-45 18.5t-19 45.5v640q0 26 19 45t45 19h320q27 0 45.5-19t18.5-45.5 19-45 45.5-18.5 45 18.5 18.5 45.5v64q0 53-37.5 90.5t-90.5 37.5h-448q-53 0-90.5-37.5t-37.5-90.5V133q0-53 37.5-90.5t90.5-37.5h448q53 0 90.5 37.5t37.5 90.5v64q0 26-18.5 45t-45 19z"/></symbol><symbol id="icon-feature-eye"><path d="M40 6.667C58.41 6.667 73.332 21.59 73.332 40c0 18.41-14.924 33.333-33.334 33.333C21.59 73.333 6.666 58.41 6.666 40c0-18.41 14.923-33.333 33.333-33.333Zm0 6.666a26.666 26.666 0 1 0 0 53.333 26.666 26.666 0 0 0 0-53.333Zm0 10A16.667 16.667 0 1 1 24.065 35.09a8.33 8.33 0 0 0 15.933-3.423 8.333 8.333 0 0 0-4.91-7.6 16.7 16.7 0 0 1 4.91-.734Z"/></symbol><symbol id="icon-feature-gear"><path clip-rule="evenodd" d="m31.023 21.822-1.016.424c-1.277-.8-1.844-2.454-4.035-2.388-1.844.055-2.891 1.645-3.785 2.537-.903.902-2.456 1.898-2.464 3.788-.009 1.883 1.444 2.71 2.353 3.804l-.415 1.254c-3.989.307-5.407-.391-5.407 5.46 0 5.119.517 5.21 5.347 5.509l.532 1.19c-3.273 3.349-3.36 4.3.003 7.659.837.835 2.054 2.492 3.837 2.547 2.328.07 2.645-1.714 4.029-2.372l.999.375c.577 2.132-.327 3.338 1.313 4.716 1.064.894 8.105 1.898 9.451-1.136.79-1.78-.392-3.056.779-3.756 1.68-1.004 1.81 2.625 5.14 2.131 1.252-.185 5.816-4.052 5.798-6.336-.014-1.831-1.566-2.957-2.373-3.811l.46-1.226c4.838-.237 5.38-.486 5.382-5.49.003-5.758-1.231-5.14-5.385-5.465l-.502-1.226c1.01-1.198 2.417-1.859 2.418-3.823.002-1.937-1.535-2.851-2.465-3.784-.922-.925-1.895-2.506-3.783-2.546-2.174-.045-2.8 1.51-4.026 2.374-2.513-.797-.203-1.967-1.624-4.275-1.524-2.474-8.053-1.81-9.23-.838-1.645 1.358-.87 2.475-1.331 4.704Zm4.266 5.785c-12.187 1.932-9.39 20.014 2.74 18.26 4.565-.662 8.445-5.002 7.73-10.451-.593-4.51-5.058-8.666-10.47-7.81Z"/><path clip-rule="evenodd" d="M7.619 44.756c.526.802 1.149 3.054 1.64 4.175 3.007 6.87 8.307 11.914 14.956 15.055 1.829.865 7.314 2.754 9.579 2.494 1.843-.21 2.131-2.703.006-3.174-5.324-1.18-7.81-1.211-13.02-5.072-4.007-2.968-9.053-9.197-9.763-14.056.774.384 1.72 1.331 2.805.299 1.798-1.708-1.442-3.376-3.013-4.474-.877-.614-1.609-1.253-2.519-1.734-.97.927-2.614 3.5-3.514 4.766-.636.894-.951 2.273.159 2.861 1.356.72 2.073-.563 2.684-1.14ZM44.262 62.26c1.443-3.523-1.387-3.893-2.735-1.942-.996 1.443-2.252 3.42-3.42 4.774.57.792 2.718 2.115 3.68 2.803 1.4 1.001 2.337 2.2 4.08.627.267-1.785-.437-1.927-1.388-2.72.101-.081.153-.142.454-.287l1.672-.564c7.6-2.686 13.739-8.342 17.12-15.576.966-2.069 2.706-6.963 2.628-9.553-.06-2.054-2.477-2.367-3.083-.745-.98 2.622-.025 6.074-4.96 13.174-2.396 3.445-8.205 8.817-14.048 10.008Zm17.945-32.981c-.958-.514-1-.844-2.482-.61-1.748 2.08-.47 2.611 1.188 3.762 1.333.924 2.582 1.947 4.007 2.782l2.337-3.113c.83-1.137 2.013-2.129 1.687-3.963-1.788-1.51-2.206-.632-3.352.645-.305-.409-1.692-4.837-3.7-8.076-2.927-4.716-7.774-8.917-12.945-11.237-1.931-.866-7.255-2.733-9.523-2.487-1.82.198-2.073 2.63-.33 3.135 3.923 1.134 7.149.522 13.16 5.006 3.823 2.853 8.54 7.94 9.953 14.156ZM28.637 7.844c-9.536 3.164-15.6 8.381-19.429 16.802-.959 2.111-2.803 7.41-2.213 10.038 1.39 1.377 2.821.92 3.12-1.324.232-1.728.546-3.197 1.042-4.757 2.438-7.669 9.87-15.893 17.962-17.452-.399.91-1.267 1.922-.184 2.901 1.087.982 2.12.123 2.65-.615 1.095-1.523 2.286-3.466 3.512-4.912-.58-.78-3.788-2.89-4.835-3.648-.764-.556-2.197-.991-2.825.19-.774 1.457.625 2.132 1.2 2.777ZM38.942 49.19c-.321.413-.275.432-.27 1.154l.022 3.408-4.217.018.06-3.653c-.01-.338-.011-.307-.073-.615l-.161-.327-.045 4.713c1.244.235 3.457.316 4.575-.061l.11-4.637Z"/></symbol><symbol id="icon-feature-scada"><path d="M13.333 63.333h53.333V46.667h6.667v20A3.333 3.333 0 0 1 69.999 70H10a3.333 3.333 0 0 1-3.333-3.333v-20h6.667v16.666Zm26.666-30H30a19.973 19.973 0 0 0-16.18 8.244A26.677 26.677 0 0 1 40 20V6.667l26.667 20-26.667 20V33.333Z"/></symbol><symbol id="icon-history-server"><g clip-path="url(#a)"><path clip-rule="evenodd" d="M73.337 52.012a55.65 55.65 0 0 0-14.782 1.807c-4.134 1.204-6.543 2.573-6.543 3.668 0 1.095 2.327 2.327 6.46 3.504a54.532 54.532 0 0 0 14.783 1.807 54.917 54.917 0 0 0 14.81-1.807c4.106-1.177 6.433-2.546 6.433-3.504 0-.958-2.327-2.327-6.433-3.531a56.032 56.032 0 0 0-14.728-1.944ZM94.58 80.564a24.333 24.333 0 0 1-3.395 1.423 58.937 58.937 0 0 1-17.848 2.492 56.553 56.553 0 0 1-18.834-2.738 24.62 24.62 0 0 1-2.409-1.068v8.76c0 .986 2.327 2.355 6.46 3.532a55.65 55.65 0 0 0 14.783 1.806 56.047 56.047 0 0 0 14.81-1.806c4.106-1.177 6.433-2.546 6.433-3.532v-8.87Zm-42.568-6.652c0 .958 2.382 2.3 6.46 3.476a55.658 55.658 0 0 0 14.783 1.807c4.995.06 9.976-.547 14.81-1.806 4.106-1.205 6.433-2.574 6.433-3.532v-9.745a24.34 24.34 0 0 1-3.395 1.396 58.938 58.938 0 0 1-17.848 2.49 56.553 56.553 0 0 1-18.834-2.737 24.64 24.64 0 0 1-2.409-1.04v9.691Zm21.243 26.143a56.556 56.556 0 0 1-18.834-2.738c-4.16-1.587-7.063-3.832-7.61-6.761a13.687 13.687 0 0 1 0-2.135V57.487a8.595 8.595 0 0 1 0-1.177c.547-2.93 3.45-5.174 7.61-6.762a56.558 56.558 0 0 1 18.834-2.737 56.557 56.557 0 0 1 18.834 2.737c4.16 1.588 7.062 3.833 7.637 6.762v34.109c-.575 2.929-3.449 5.174-7.637 6.761A56.56 56.56 0 0 1 73.337 100l-.082.055Zm-56.83-81.741a2.738 2.738 0 1 1-5.476 0 2.738 2.738 0 0 1 5.476 0Zm46.701 2.737H35.26a2.737 2.737 0 0 1 0-5.475h28.004a2.738 2.738 0 0 1 0 5.475h-.137ZM8.048 36.627a2.738 2.738 0 0 0-2.546 2.738v20.093a2.738 2.738 0 0 0 2.738 2.738h33.096v5.474H8.212A8.212 8.212 0 0 1 0 59.458V39.392a8.212 8.212 0 0 1 2.108-5.475A8.212 8.212 0 0 1 0 28.442V8.212A8.212 8.212 0 0 1 8.212 0h60.444a8.213 8.213 0 0 1 8.212 8.212v20.093a8.212 8.212 0 0 1-2.108 5.476 8.212 8.212 0 0 1 2.108 5.474v2.136h-5.447v-2.053a2.737 2.737 0 0 0-2.6-2.738H8.047v.027Zm17.328-18.313a2.737 2.737 0 1 1-5.475 0 2.737 2.737 0 0 1 5.475 0Zm-8.951 31.125a2.738 2.738 0 1 1-5.476 0 2.738 2.738 0 0 1 5.476 0Zm25.212 2.737h-6.378a2.737 2.737 0 0 1 0-5.475h11.415a15.11 15.11 0 0 0-2.053 1.451 9.307 9.307 0 0 0-2.93 4.052l-.054-.028ZM25.212 49.44a2.738 2.738 0 1 1-2.737-2.738 2.738 2.738 0 0 1 2.901 2.738h-.164Zm-17-43.964a2.737 2.737 0 0 0-2.737 2.737v20.093a2.738 2.738 0 0 0 2.573 2.738H68.82a2.738 2.738 0 0 0 2.6-2.738V8.212a2.738 2.738 0 0 0-2.737-2.737H8.213Z"/></g></symbol><symbol id="icon-hmi"><path clip-rule="evenodd" d="M6.985 78.618a9.09 9.09 0 0 0 3.49.681h79.05a9.128 9.128 0 0 0 9.128-9.09V15.475a9.129 9.129 0 0 0-9.128-9.129h-79.05a9.128 9.128 0 0 0-9.128 9.129v54.732a9.09 9.09 0 0 0 5.638 8.41Zm86.852-4.098a6.098 6.098 0 0 1-4.312 1.786h-79.05a6.098 6.098 0 0 1-6.098-6.098V15.476a6.098 6.098 0 0 1 6.098-6.098h79.05a6.098 6.098 0 0 1 6.098 6.098v54.732a6.098 6.098 0 0 1-1.786 4.312Z" stroke="#003968" stroke-width=".72" stroke-miterlimit="22.93"/><path d="M3.741 61.267v5.724H97.27v-5.724H3.741Z"/><path clip-rule="evenodd" d="M40.703 88.99h18.594V76.38h5.724v12.61h10.624v7.22H24.317v-7.22H34.98V76.381h5.723V88.99Z"/><path d="M22.746 23.93V53h5.238V40.428h5.125v12.57h5.275V23.931h-5.275v11.784h-5.125V23.931h-5.238Zm22.073 0V53h5.237V37.67L54.231 53h2.198l4.29-15.397V53h5.162V23.931h-6.334l-4.175 14.682-4.106-14.682H44.82Zm26.674 0V53h5.237V23.93h-5.237Z"/></symbol><symbol id="icon-list-point"><g clip-path="url(#a)" fill="#871F14"><path d="M9.15 2a.19.19 0 0 0 .24 0 .18.18 0 0 0-.06-.27L9 1.5a.2.2 0 0 0-.24.05.19.19 0 0 0 .06.28l.33.17Zm1.29.74a.19.19 0 1 0 .19-.33l-.33-.18a.18.18 0 0 0-.24 0 .19.19 0 0 0 .06.27l.32.24Zm1.29.73a.19.19 0 0 0 .25 0 .191.191 0 0 0-.002-.218.19.19 0 0 0-.057-.052L11.6 3a.19.19 0 0 0-.25 0 .19.19 0 0 0 .06.27l.32.2Zm1.3.74a.19.19 0 0 0 .24 0 .191.191 0 0 0-.002-.218.19.19 0 0 0-.057-.052l-.32-.19a.19.19 0 0 0-.19.25l.33.21Zm1.2.69a.2.2 0 0 0 .24 0 .192.192 0 0 0 .009-.225.19.19 0 0 0-.058-.055l-.24-.13a.18.18 0 0 0-.24 0 .178.178 0 0 0 0 .22.18.18 0 0 0 .06.05l.23.14ZM7.72.77a.18.18 0 0 0-.284.06.18.18 0 0 0 .045.21l.33.18a.18.18 0 0 0 .24-.05A.19.19 0 0 0 8 1L7.72.77ZM6.1 15.23a.183.183 0 0 0-.25.07.183.183 0 0 0 .07.25l.32.19a.2.2 0 0 0 .24-.05.19.19 0 0 0-.06-.28l-.32-.18Zm-1.29-.74a.19.19 0 0 0-.26.07.19.19 0 0 0 .07.26L5 15a.19.19 0 0 0 .19 0 .18.18 0 0 0-.06-.27l-.32-.24Zm-1.29-.73a.19.19 0 0 0-.25.05.19.19 0 0 0 .06.27l.33.18a.18.18 0 0 0 .24 0 .19.19 0 0 0-.06-.27l-.32-.23ZM2.22 13a.18.18 0 0 0-.269.12.19.19 0 0 0 .09.2l.32.19a.19.19 0 0 0 .19-.33L2.22 13ZM1 12.33a.2.2 0 0 0-.24.05.19.19 0 0 0 .06.28l.23.13a.19.19 0 0 0 .24 0 .18.18 0 0 0-.06-.27L1 12.33Zm6.51 4.14a.18.18 0 0 0 .286-.061.18.18 0 0 0-.045-.21l-.36-.2a.18.18 0 0 0-.24 0 .19.19 0 0 0 .06.27l.3.2Zm1.64-6.71a.19.19 0 0 0 .24 0 .18.18 0 0 0-.06-.27L9 9.25a.2.2 0 0 0-.24.05.19.19 0 0 0 .06.28l.33.18Zm1.29.74a.19.19 0 0 0 .28-.215.19.19 0 0 0-.09-.115L10.3 10a.18.18 0 0 0-.24 0 .19.19 0 0 0 .06.27l.32.23Zm1.29.73a.19.19 0 0 0 .25-.05.192.192 0 0 0 .03-.148.19.19 0 0 0-.09-.122l-.32-.18a.19.19 0 0 0-.25 0 .19.19 0 0 0 .06.27l.32.23ZM13 12a.19.19 0 0 0 .24-.05.192.192 0 0 0 .03-.148.19.19 0 0 0-.09-.122l-.32-.19a.19.19 0 0 0-.19.33L13 12Zm1.2.69a.2.2 0 0 0 .24-.05.192.192 0 0 0 .009-.225.19.19 0 0 0-.058-.055l-.24-.13a.18.18 0 0 0-.24.05.177.177 0 0 0-.033.149.18.18 0 0 0 .093.12l.23.14ZM7.72 8.52a.18.18 0 0 0-.24.05.18.18 0 0 0 0 .27l.38.16a.18.18 0 0 0 .24 0 .19.19 0 0 0-.1-.3l-.28-.18Z"/><path d="M2.64 11.74a.19.19 0 0 0-.18-.33l-.33.19a.181.181 0 1 0 .17.32l.34-.18ZM3.93 11a.19.19 0 0 0-.18-.33l-.33.19a.19.19 0 0 0 .18.33l.33-.19Zm1.29-.74a.19.19 0 0 0-.17-.33l-.34.19a.19.19 0 0 0 .18.33l.33-.19Zm1.29-.73a.19.19 0 0 0-.17-.33L6 9.39a.181.181 0 0 0 .17.32l.34-.18Zm1.21-.69a.19.19 0 0 0-.18-.33l-.24.14a.195.195 0 1 0 .17.35l.25-.16ZM.84 12.33a.19.19 0 0 0 .17.33l.33-.19a.19.19 0 0 0-.17-.33l-.33.19Z"/><path d="M7.81 14.42a.19.19 0 0 0-.37 0v.4a.19.19 0 0 0 .37 0v-.4Zm0-1.5a.19.19 0 0 0-.37 0v.4a.19.19 0 0 0 .37 0v-.4Zm0-1.49a.19.19 0 0 0-.37 0v.4a.19.19 0 0 0 .37 0v-.4Zm0-1.49a.19.19 0 0 0-.37 0v.4a.19.19 0 0 0 .37 0v-.4Zm0-1.49a.19.19 0 0 0-.37 0v.39a.19.19 0 0 0 .37 0v-.4.01Zm0-1.45a.19.19 0 0 0-.37 0v.39a.19.19 0 0 0 .37 0V7Zm0-1.49a.19.19 0 0 0-.37 0v.39a.19.19 0 0 0 .37 0v-.4.01Zm0-1.51a.19.19 0 0 0-.37 0v.39a.19.19 0 0 0 .37 0V4Zm0-1.49a.19.19 0 0 0-.37 0v.39a.19.19 0 0 0 .37 0v-.41.02Zm0-1.37a.19.19 0 0 0-.37 0v.27a.19.19 0 0 0 .37 0v-.29.02Zm-.37 15.14a.19.19 0 0 0 .37 0v-.39a.19.19 0 0 0-.37 0v.4-.01ZM.74 6.54a.19.19 0 0 0 .17.19.19.19 0 0 0 .2-.19v-.37a.19.19 0 1 0-.37 0v.37ZM.74 8a.18.18 0 0 0 .17.18.18.18 0 0 0 .2-.18v-.34a.19.19 0 1 0-.37 0V8Zm0 1.49a.19.19 0 0 0 .245.172.18.18 0 0 0 .125-.172v-.35a.19.19 0 0 0-.37 0v.35Zm0 1.51a.19.19 0 0 0 .17.19.19.19 0 0 0 .2-.19v-.37a.18.18 0 0 0-.17-.18.18.18 0 0 0-.2.18V11Zm0 1.4a.18.18 0 0 0 .17.18.18.18 0 0 0 .2-.18v-.28a.19.19 0 0 0-.17-.19.188.188 0 0 0-.184.115.19.19 0 0 0-.016.075v.28Zm.37-7.72a.17.17 0 0 0-.17-.18.18.18 0 0 0-.2.18v.37a.19.19 0 0 0 .17.19.19.19 0 0 0 .2-.19v-.37Z"/><path fill-rule="evenodd" clip-rule="evenodd" d="M.93 11.67a.73.73 0 1 1 0 1.46.73.73 0 0 1 0-1.46Z"/><path d="M8.09 17.11a.93.93 0 1 1-.93-1.6l6.23-3.65V6.34l-5.31 3a.93.93 0 0 1-.93 0L.47 5.55a.92.92 0 0 1-.35-1.26.89.89 0 0 1 .36-.36L7.17.12a.925.925 0 1 1 .91 1.61l-5.28 3 4.83 2.76L13.8 4a.93.93 0 0 1 1.45.77v7.63a.911.911 0 0 1-.46.8l-6.7 3.91Z"/></g></symbol><symbol id="icon-phone"><path clip-rule="evenodd" d="M0 3.982C.06 9.644 6.34 16.048 12.004 16c1.905-.017 4.582-2.082 3.882-3.457-.587-1.155-3.392-2.207-5.577-1.736L9.04 11.985c-2.51.124-5.155-2.515-5.07-5.071l1.245-1.206C5.835 3.22 4.284.656 3.294.08 2.248-.528-.016 2.47 0 3.982Z"/></symbol><symbol id="icon-reports"><g clip-path="url(#a)"><path fill-rule="evenodd" clip-rule="evenodd" d="M16.353 18.18a2.725 2.725 0 1 1-5.45 0 2.725 2.725 0 0 1 5.45 0Zm46.498 2.725H35.105a2.726 2.726 0 0 1-2.48-2.726 2.725 2.725 0 0 1 2.48-2.725h27.882a2.725 2.725 0 0 1 0 5.45h-.136ZM8.013 36.33a2.726 2.726 0 0 0-2.535 2.726v19.95a2.726 2.726 0 0 0 2.726 2.726H54.02v5.452H8.177A8.176 8.176 0 0 1 0 59.008V39.057a8.176 8.176 0 0 1 2.099-5.451A8.177 8.177 0 0 1 0 28.155V8.177A8.177 8.177 0 0 1 8.177 0h60.18a8.176 8.176 0 0 1 8.176 8.177V28.1a8.177 8.177 0 0 1-2.099 5.451 8.176 8.176 0 0 1 2.1 5.451v.137h-5.452v-.137a2.726 2.726 0 0 0-2.59-2.725H8.014v.054Zm17.253-18.15a2.725 2.725 0 1 1-5.451 0 2.725 2.725 0 0 1 5.45 0Zm-8.913 30.88a2.725 2.725 0 1 1-5.45.001 2.725 2.725 0 0 1 5.45 0Zm37.613 2.726H35.105a2.725 2.725 0 1 1 0-5.45H54.02l-.054 5.45Zm-28.7-2.725a2.725 2.725 0 1 1-5.45 0 2.725 2.725 0 0 1 5.45 0ZM100 99.646H59.253V43.772h29.272L100 55.083v44.563Zm-11.257-8.177h-20.85V65.713h2.971v10.33h3.189l4.824-5.016h4.579l3.598-3.734h4.197L84.71 74.08h-4.58l-4.85 4.96h-4.416v9.267h2.89V83.62h2.97v4.689h3.107v-8.804h2.97v8.803h2.972V76.752h2.97V91.47Zm-24.53 3.189h30.69v-35.05H84.791v-10.74H64.35l-.136 45.79ZM8.178 5.451A2.726 2.726 0 0 0 5.45 8.177V28.1a2.726 2.726 0 0 0 2.562 2.726H68.52a2.726 2.726 0 0 0 2.59-2.726V8.177a2.726 2.726 0 0 0-2.726-2.726H8.177Z"/></g></symbol><symbol id="icon-server"><path clip-rule="evenodd" d="M21.36 29.745a3.56 3.56 0 1 1-7.12 0 3.56 3.56 0 0 1 7.12 0Zm60.733 3.56h-36.24a3.56 3.56 0 0 1-3.24-3.56 3.56 3.56 0 0 1 3.24-3.56H82.27a3.56 3.56 0 0 1 0 7.12h-.178Zm7.12 60.52H10.68A10.68 10.68 0 0 1 0 83.145v-26.13a10.68 10.68 0 0 1 2.741-7.12A10.68 10.68 0 0 1 0 42.775V16.68A10.68 10.68 0 0 1 10.68 6h78.604a10.68 10.68 0 0 1 10.68 10.68v26.023a10.68 10.68 0 0 1-2.705 7.12 10.68 10.68 0 0 1 2.705 7.12v26.06a10.68 10.68 0 0 1-10.68 10.786l-.07.036ZM10.68 53.455a3.56 3.56 0 0 0-3.346 3.56v26.059a3.56 3.56 0 0 0 3.56 3.56h78.39a3.56 3.56 0 0 0 3.56-3.56v-26.06a3.56 3.56 0 0 0-3.382-3.56H10.68Zm22.321-23.71a3.56 3.56 0 1 1-7.12 0 3.56 3.56 0 0 1 7.12 0ZM21.36 70.08a3.56 3.56 0 1 1-7.12 0 3.56 3.56 0 0 1 7.12 0Zm60.733 3.56h-36.24a3.56 3.56 0 1 1 0-7.12H82.27a3.56 3.56 0 1 1 0 7.12h-.178Zm-49.092-3.56a3.56 3.56 0 1 1-7.12 0 3.56 3.56 0 0 1 7.12 0ZM10.68 13.12a3.56 3.56 0 0 0-3.56 3.56v26.023a3.56 3.56 0 0 0 3.346 3.56h78.996a3.56 3.56 0 0 0 3.56-3.56V16.68a3.56 3.56 0 0 0-3.56-3.56H10.68Z"/></symbol><symbol id="icon-trends"><g clip-path="url(#a)"><path clip-rule="evenodd" d="M0 0h6.243v40.58h12.983a9.402 9.402 0 0 1 12.924-5.36l9.353-9.35a9.402 9.402 0 1 1 16.967-.01l9.355 9.354a9.4 9.4 0 0 1 8.114.012l13.375-13.375h-8.043v-6.243H100v18.73h-6.243v-8.053l-13.4 13.373a9.403 9.403 0 0 1-13.71 11.86A9.401 9.401 0 0 1 63.4 39.62l-9.335-9.335a9.4 9.4 0 0 1-8.151.004l-9.346 9.342a9.402 9.402 0 1 1-17.342 7.193H6.243v46.933h5.876V77.488h12.56v16.268h9.805V60.08h12.56v33.676h9.805V80.94h12.56v12.816h9.842V68.711h12.56v25.045H100V100H0V0Zm28.13 40.58a3.158 3.158 0 1 0-.072 6.315 3.158 3.158 0 0 0 .073-6.315Zm41.729 1.03a3.158 3.158 0 1 1 4.7 4.219 3.158 3.158 0 0 1-4.7-4.219Zm-19.84-22.881a3.121 3.121 0 1 0 0 6.242 3.121 3.121 0 0 0 0-6.242Z"/></g></symbol><symbol id="icon-user"><path fill-rule="evenodd" clip-rule="evenodd" d="M14 7.75a3.572 3.572 0 1 1 0 7.144 3.572 3.572 0 0 1 0-7.144Zm0 1.5a2.071 2.071 0 1 1 0 4.142 2.071 2.071 0 0 1 0-4.142Zm0 7.143c4.832 0 8.75 3.502 8.75 7.821v.036h-2.074c-.104-2.892-3.335-5.786-6.569-5.786-3.233 0-6.388 2.895-6.491 5.786H5.25l-.001-.036c0-4.319 3.918-7.821 8.75-7.821Z" fill="#E3E3E4"/><circle cx="14" cy="14" r="13" stroke="#E3E3E4" stroke-width="2"/></symbol><symbol id="icon-web-alarms"><g clip-path="url(#a)"><path clip-rule="evenodd" d="M100 53.101V50A50 50 0 0 0 51.987.15 13.377 13.377 0 0 0 48.02.147 49.999 49.999 0 0 0 .106 46.86H0v6.24h.09a49.998 49.998 0 0 0 49.743 47.007l.167.001h3.102v-6.97a7.3 7.3 0 0 1-3 .692h-.21c-5.345-.088-11.043-6.669-14.714-17.545A66.38 66.38 0 0 1 50 75.036h3.102v-6.314H50a72.735 72.735 0 0 0-16.544 1.502c-1.197-5.09-1.976-10.85-2.168-17.122H100Zm-68.709-6.24h37.346c-.159-5.039-.695-9.747-1.522-14.043A70.105 70.105 0 0 1 50 34.38a70.11 70.11 0 0 1-17.18-1.559c-.83 4.294-1.368 9-1.529 14.04Zm2.98-20.15C37.88 14.02 44.16 6.24 50 6.24l-.037-.037c5.842 0 12.111 7.807 15.71 20.51A63.863 63.863 0 0 1 50 28.104a64.08 64.08 0 0 1-15.73-1.393Zm38.968 4.484c.959 4.864 1.552 10.129 1.715 15.666H93.5a43.798 43.798 0 0 0-7.292-21.228 70.099 70.099 0 0 1-12.97 5.562Zm9.064-10.568a63.863 63.863 0 0 1-10.518 4.453c-1.855-6.589-4.436-12.199-7.54-16.432a43.789 43.789 0 0 1 18.058 11.979ZM28.233 25.1a64.084 64.084 0 0 1-10.659-4.503A43.79 43.79 0 0 1 35.816 8.6c-3.122 4.245-5.718 9.881-7.584 16.5Zm-14.577.499a70.098 70.098 0 0 0 13.118 5.624c-.96 4.859-1.556 10.114-1.725 15.638H6.32a43.8 43.8 0 0 1 7.337-21.262Zm11.386 27.503c.188 6.691 1.003 12.986 2.332 18.662a72.733 72.733 0 0 0-12.162 4.878 43.798 43.798 0 0 1-8.9-23.54h18.73Zm4.017 24.707a66.372 66.372 0 0 0-9.534 3.68 43.79 43.79 0 0 0 16.219 9.957c-2.654-3.622-4.924-8.251-6.685-13.637Z"/><path d="M76.642 93.394a5.328 5.328 0 0 1-5.182-4.234H61.241l3.65-7.591V71.277a11.57 11.57 0 1 1 23.138 0v10.292l3.65 7.591H81.46a5.293 5.293 0 0 1-4.818 4.234Z"/></g></symbol><symbol id="icon-web-hmi"><g clip-path="url(#a)"><path clip-rule="evenodd" d="M97.094 50.546v3.012H30.38c.187 6.091.943 11.683 2.105 16.625a70.62 70.62 0 0 1 16.063-1.458h3.012v6.13h-3.012a64.454 64.454 0 0 0-14.391 1.214c3.564 10.56 9.097 16.95 14.286 17.036h.204a7.09 7.09 0 0 0 2.912-.673V99.2h-3.174A48.547 48.547 0 0 1 .087 53.559H0v-6.06h.103a48.543 48.543 0 0 1 14.079-31.137A48.547 48.547 0 0 1 46.624 2.144a12.926 12.926 0 0 1 3.852 0 48.546 48.546 0 0 1 46.618 48.402ZM66.643 47.5H30.381c.156-4.893.68-9.463 1.485-13.631a68.067 68.067 0 0 0 16.68 1.513c5.61.179 11.19-.337 16.618-1.517.803 4.172 1.324 8.743 1.477 13.635ZM48.546 8.06c-5.668 0-11.767 7.555-15.272 19.875a62.215 62.215 0 0 0 15.272 1.352 62.007 62.007 0 0 0 15.218-1.348c-3.493-12.335-9.58-19.915-15.252-19.915l.035.036Zm24.23 39.44c-.159-5.376-.734-10.487-1.665-15.21a68.066 68.066 0 0 0 12.593-5.4 42.526 42.526 0 0 1 7.08 20.61H72.776Zm-3.077-21.148a62.006 62.006 0 0 0 10.213-4.323 42.518 42.518 0 0 0-17.534-11.63c3.014 4.109 5.52 9.556 7.321 15.953ZM17.064 22a62.217 62.217 0 0 0 10.348 4.372c1.811-6.427 4.332-11.9 7.363-16.02A42.52 42.52 0 0 0 17.064 22Zm8.932 10.317a68.07 68.07 0 0 1-12.737-5.461A42.526 42.526 0 0 0 6.136 47.5H24.32c.164-5.363.743-10.466 1.675-15.183Zm.583 39.363c-1.291-5.511-2.082-11.623-2.265-18.12H6.128a42.525 42.525 0 0 0 8.642 22.856 70.615 70.615 0 0 1 11.809-4.736Zm-7.621 9.443a64.461 64.461 0 0 1 9.257-3.574c1.71 5.23 3.914 9.724 6.49 13.241a42.517 42.517 0 0 1-15.747-9.667Z"/><path d="M73.281 67.45V81.2H71.12v-6.13h-2.906v6.13h-2.162V67.45h2.162v5.741h2.906v-5.74h2.161Zm13.359 0V81.2h-2.126v-8.753l-2.41 8.753h-.779l-2.374-8.753V81.2H76.79V67.45h2.799l2.126 7.69 2.197-7.69h2.729Zm3.155 0h2.126V81.2h-2.126V67.45Z"/><path clip-rule="evenodd" d="M73.175 91.014H62.048a3.934 3.934 0 0 1-3.898-3.969V63.551a3.934 3.934 0 0 1 3.898-3.933h34.019A3.933 3.933 0 0 1 100 63.55v23.494a3.927 3.927 0 0 1-1.14 2.805 3.934 3.934 0 0 1-2.793 1.164H84.975v4.75h4.571v1.948H68.604v-1.949h4.571v-4.749Zm22.892-1.311a2.622 2.622 0 0 0 2.622-2.622v-1.027H59.426v.991a2.623 2.623 0 0 0 2.622 2.623l34.019.035Zm-36.641-5.067h39.263V63.551a2.657 2.657 0 0 0-2.622-2.657H62.048a2.657 2.657 0 0 0-2.622 2.657v21.085Zm15.06 11.127h9.178v-4.749h-9.178v4.75Z"/></g></symbol><symbol id="icon-web-trends"><g clip-path="url(#a)" clip-rule="evenodd"><path d="M100 50v3.102H31.288c.192 6.273.972 12.032 2.168 17.122A72.735 72.735 0 0 1 50 68.722V75a66.386 66.386 0 0 0-14.83 1.265C38.868 87.228 44.622 93.832 50 93.832V100A50 50 0 0 1 .096 53.102H0V46.86h.099A50 50 0 0 1 100 50ZM49.981 6.24c-5.833.018-12.104 7.795-15.71 20.47A64.08 64.08 0 0 0 50 28.103a63.863 63.863 0 0 0 15.673-1.388c-3.58-12.635-9.8-20.426-15.615-20.51h-.094L50 6.24h-.019Zm14.265 2.41c3.104 4.232 5.684 9.842 7.539 16.43a63.867 63.867 0 0 0 10.518-4.453A43.791 43.791 0 0 0 64.246 8.65Zm2.869 24.168c.827 4.296 1.363 9.004 1.522 14.043H31.29c.16-5.04.7-9.746 1.53-14.04A70.101 70.101 0 0 0 50 34.382a70.104 70.104 0 0 0 17.115-1.563Zm-40.359-1.6c-.956 4.858-1.547 10.114-1.71 15.643H6.32a43.798 43.798 0 0 1 7.336-21.262 70.1 70.1 0 0 0 13.1 5.619Zm-1.711 21.884H6.312a43.799 43.799 0 0 0 8.9 23.54 72.727 72.727 0 0 1 12.186-4.885c-1.336-5.672-2.158-11.964-2.353-18.655Zm49.909-6.241H93.5a43.799 43.799 0 0 0-7.292-21.228 70.102 70.102 0 0 1-12.97 5.562c.959 4.864 1.552 10.129 1.715 15.666ZM28.21 25.093c1.86-6.612 4.451-12.24 7.57-16.48a43.791 43.791 0 0 0-18.206 11.984 64.075 64.075 0 0 0 10.636 4.496Zm.876 52.691a66.392 66.392 0 0 0-9.566 3.703 43.79 43.79 0 0 0 16.332 9.997c-2.687-3.624-4.985-8.276-6.766-13.7Z"/><path d="M62.737 62.41h-4.671v37.334h38.467v-4.672h-2.92v-7.846h-4.562v7.846h-3.54V91.68h-4.562v3.393h-3.504v-10.95h-4.562v10.95h-3.54v-4.671h-4.562v4.67h-2.044V79.344h4.647a3.394 3.394 0 1 0 6.257-2.608l3.376-3.375a3.394 3.394 0 0 0 2.915-.007l3.363 3.364.09-.09a3.393 3.393 0 0 0 3.002 4.978 3.395 3.395 0 0 0 3.063-4.857l.003.003 4.853-4.854v2.92h2.263V68.03h-6.788v2.263h2.92l-4.854 4.853.003.003a3.394 3.394 0 0 0-3.047.06l.092-.091-3.364-3.365a3.393 3.393 0 1 0-6.12.015l-3.377 3.375a3.394 3.394 0 0 0-4.65 1.938h-4.647V62.409Zm7.218 14.861a1.13 1.13 0 1 1 1.257 1.88 1.13 1.13 0 0 1-1.257-1.88Zm16.432-.19a1.13 1.13 0 1 0 0 2.26 1.13 1.13 0 0 0 0-2.26Zm-8.548-7.73a1.13 1.13 0 0 1 .628-.19v.182a1.094 1.094 0 0 1 1.132.95 1.131 1.131 0 1 1-1.76-.942Z"/></g></symbol></svg>