<svg xmlns="http://www.w3.org/2000/svg" xmlns:xlink="http://www.w3.org/1999/xlink"><defs>
<clipPath id="clip0_66_619">
<rect width="100" height="100" fill="white"/>
</clipPath>

<clipPath id="clip0_345_5425">
<rect width="100" height="100" fill="white"/>
</clipPath>

<clipPath id="clip0_66_1017">
<rect width="15.25" height="17.24" fill="white"/>
</clipPath>

<clipPath id="clip0_345_5427">
<rect width="100" height="100" fill="white"/>
</clipPath>

<clipPath id="clip0_345_5439">
<rect width="100" height="100" fill="white"/>
</clipPath>

<clipPath id="clip0_345_5447">
<rect width="100" height="100" fill="white"/>
</clipPath>

<clipPath id="clip0_345_5443">
<rect width="100" height="100" fill="white"/>
</clipPath>

<clipPath id="clip0_345_5445">
<rect width="100" height="100" fill="white"/>
</clipPath>
</defs><symbol id="icon-alarms" viewBox="0 0 100 100">
<path fill-rule="evenodd" clip-rule="evenodd" d="M50.1385 99.8918C46.5934 99.8879 43.1567 98.6691 40.4013 96.4385C37.6459 94.2079 35.7382 91.1004 34.9962 87.6338H5L16.1765 65.3169V35.0684C16.0281 30.5177 16.7963 25.9837 18.4354 21.7359C20.0745 17.4881 22.551 13.6132 25.7176 10.3416C28.8843 7.07011 32.6764 4.46871 36.8686 2.69211C41.0607 0.915515 45.5674 0 50.1204 0C54.6735 0 59.1801 0.915515 63.3723 2.69211C67.5645 4.46871 71.3566 7.07011 74.5232 10.3416C77.6899 13.6132 80.1664 17.4881 81.8054 21.7359C83.4445 25.9837 84.2127 30.5177 84.0644 35.0684V65.2088L95.1327 87.6338H65.2447C64.5257 91.1143 62.6326 94.2421 59.8826 96.4933C57.1325 98.7446 53.6924 99.9826 50.1385 100V99.8918ZM14.9867 81.3606H85.2542L78.0435 66.6509V35.0684C78.178 31.3362 77.5591 27.6152 76.2236 24.1275C74.8881 20.6399 72.8636 17.4571 70.2708 14.7692C67.678 12.0813 64.5702 9.94347 61.1329 8.48329C57.6956 7.02311 53.9992 6.27055 50.2646 6.27055C46.53 6.27055 42.8337 7.02311 39.3964 8.48329C35.9591 9.94347 32.8513 12.0813 30.2585 14.7692C27.6657 17.4571 25.6412 20.6399 24.3057 24.1275C22.9702 27.6152 22.3513 31.3362 22.4857 35.0684V66.6509L14.9867 81.3606Z"/>
</symbol><symbol id="icon-arrow" viewBox="0 0 15 24">
<path d="M12.7917 2.64203L3.3584 12.0655L12.7917 21.4889" stroke="white" stroke-width="4" stroke-linecap="round"/>
</symbol><symbol id="icon-client-security" viewBox="0 0 100 100">
<path fill-rule="evenodd" clip-rule="evenodd" d="M37.4173 97.9314C37.0142 97.8095 36.5971 97.6897 36.1811 97.5702C35.4232 97.3526 34.6685 97.1358 34.0063 96.9088C-0.0037908 84.7895 -0.00217215 60.2368 3.54571e-05 26.7166L7.11437e-05 15.8785L38.7053 3L77.3408 15.8785L77.3407 44.7675H41.6638V89.6185C41.6984 89.6004 41.7332 89.5824 41.7682 89.5648V98.3013H37.4173V97.9314ZM35.7118 38.8503V10.262L5.98684 20.1598V25.9377C5.95943 30.5292 5.93382 34.8821 5.98667 39.0034V38.8503H35.7118ZM6.12507 44.7675C6.97523 67.544 11.7518 82.5462 35.7118 91.1995V44.7675H6.12507ZM41.6638 38.8503H71.3889V20.299L41.6638 10.264V38.8503Z"/>
<path fill-rule="evenodd" clip-rule="evenodd" d="M80.8214 94.4033H46.9544V98.3013H99.8956V96.3521C99.8956 88.625 93.7348 86.2929 89.6624 84.7614C88.5257 84.3991 87.4294 83.9209 86.3905 83.3344C86.3905 83.1682 86.4565 83.0088 86.574 82.8913C86.6915 82.7738 86.8509 82.7078 87.0171 82.7078H94.6746L93.6304 79.9929C93.3898 79.3516 93.1288 78.7512 92.8788 78.1762C92.8032 78.0024 92.7285 77.8305 92.6558 77.6608C90.946 74.1729 90.0646 70.3374 90.0801 66.453C90.1551 63.6028 89.0989 60.8387 87.1423 58.7647C85.1858 56.6907 82.4878 55.4755 79.638 55.3845C77.66 55.3937 75.731 56.0003 74.1037 57.1248C73.2281 54.3856 71.5135 51.9909 69.2024 50.2794C66.8914 48.568 64.1007 47.6264 61.2252 47.5877C57.629 47.6681 54.2035 49.1373 51.6665 51.6873C49.1294 54.2373 47.6778 57.6703 47.6157 61.2668C46.8765 61.9121 46.3061 62.7282 45.9542 63.6443C45.6024 64.5603 45.4797 65.5484 45.5969 66.5227C45.5969 70.0033 46.8152 73.484 49.4605 73.484C50.068 75.6402 50.9949 77.6934 52.2102 79.5752C52.9026 80.3839 53.3813 81.3532 53.6025 82.3946C53.6025 84.0919 50.3579 85.5244 47.4206 86.8212L47.1981 86.9195H46.9544V90.9023C47.4326 90.681 47.9202 90.4787 48.4163 90.2961C52.6975 88.4514 57.118 86.5022 57.118 82.1861C56.9903 80.385 56.3502 78.658 55.2732 77.2088C54.0084 75.2822 53.1225 73.1322 52.6627 70.8739L52.3495 69.3424H49.7738C49.1254 67.7965 49.0392 66.0723 49.5301 64.4695H51.3053V61.9286C51.3023 59.2416 52.3353 56.6568 54.1894 54.712C56.0435 52.7672 58.5759 51.6119 61.26 51.4865C63.7994 51.5335 66.2284 52.5328 68.0657 54.2863C69.9031 56.0398 71.0146 58.4196 71.18 60.954V64.5739H72.9899C73.4808 66.1767 73.3946 67.9009 72.7463 69.4468H70.1706L69.8573 70.9783C69.4199 73.2542 68.5324 75.4198 67.2468 77.348C66.6945 78.1927 66.2281 79.0906 65.8545 80.0281C65.5665 80.7482 65.4131 81.5151 65.402 82.2906C65.5076 83.5686 65.954 84.795 66.6948 85.8418C67.4356 86.8887 68.4435 87.7177 69.6136 88.2425C71.0801 89.0056 72.5911 89.6798 74.1385 90.2613C76.6302 91.1173 78.9175 92.4802 80.8562 94.2641L80.8214 94.4033ZM70.6927 84.4138C71.5698 84.1126 72.3839 83.6524 73.0943 83.0563C73.0456 82.9182 72.9565 82.7979 72.8386 82.711C72.7207 82.6241 72.5794 82.5746 72.433 82.569H69.1612C69.4888 83.2895 70.0374 83.8869 70.7275 84.2745L70.6927 84.4138ZM70.7623 78.6706H70.8114L70.7275 78.8099L70.7623 78.6706ZM70.8114 78.6706H72.433C73.0123 78.7017 73.5798 78.8473 74.1024 79.0992C74.6251 79.351 75.0926 79.7041 75.4778 80.1379C75.8631 80.5717 76.1584 81.0776 76.3468 81.6264C76.5351 82.1751 76.6127 82.7558 76.575 83.3348C76.5797 83.977 76.4228 84.6101 76.1186 85.1757C75.8145 85.7414 75.373 86.2215 74.8347 86.5718L75.4085 86.8229C79.3722 88.5613 83.8164 90.5105 84.8938 94.4033H95.9972C95.1967 91.2359 92.2729 89.8784 88.4093 88.4166L88.3971 88.412C85.6163 87.3692 82.7358 86.289 82.7358 83.3348C82.7173 82.7559 82.8136 82.1791 83.0191 81.6377C83.2247 81.0962 83.5355 80.6009 83.9335 80.1802C84.3316 79.7595 84.809 79.4218 85.3382 79.1866C85.8675 78.9514 86.4381 78.8234 87.0171 78.8099H89.1055C87.2898 74.9453 86.3621 70.7232 86.3905 66.4534C86.4184 65.5392 86.2658 64.6284 85.9414 63.7731C85.6171 62.9178 85.1273 62.1349 84.5002 61.469C83.8731 60.8031 83.1209 60.2673 82.2866 59.8922C81.4523 59.5172 80.5523 59.3103 79.638 59.2832C78.7614 59.2881 77.8952 59.4729 77.0929 59.8262C76.2906 60.1794 75.5694 60.6936 74.9739 61.3368C75.6772 61.9908 76.2168 62.8008 76.5494 63.7017C76.8819 64.6026 76.998 65.5691 76.8883 66.5231C76.8883 69.7949 75.67 73.4844 73.0247 73.4844C72.5247 75.3055 71.7801 77.0501 70.8114 78.6706Z"/>
</symbol><symbol id="icon-component-1" viewBox="0 0 100 100">
<path fill-rule="evenodd" clip-rule="evenodd" d="M21.3599 29.7451C21.3599 30.4492 21.1511 31.1375 20.7599 31.7229C20.3688 32.3084 19.8128 32.7647 19.1623 33.0341C18.5118 33.3036 17.796 33.3741 17.1054 33.2367C16.4148 33.0993 15.7805 32.7603 15.2826 32.2624C14.7848 31.7645 14.4457 31.1302 14.3083 30.4396C14.171 29.7491 14.2415 29.0333 14.5109 28.3828C14.7804 27.7323 15.2367 27.1763 15.8221 26.7851C16.4075 26.3939 17.0958 26.1851 17.7999 26.1851C18.7441 26.1851 19.6496 26.5602 20.3172 27.2278C20.9848 27.8954 21.3599 28.8009 21.3599 29.7451ZM82.0933 33.3051H45.8526C44.965 33.2249 44.1398 32.8147 43.54 32.1556C42.9402 31.4964 42.6094 30.6363 42.613 29.7451C42.6094 28.8539 42.9402 27.9938 43.54 27.3346C44.1398 26.6755 44.965 26.2653 45.8526 26.1851H82.2713C83.2154 26.1851 84.1209 26.5602 84.7886 27.2278C85.4562 27.8954 85.8313 28.8009 85.8313 29.7451C85.8313 30.6893 85.4562 31.5948 84.7886 32.2624C84.1209 32.93 83.2154 33.3051 82.2713 33.3051H82.0933ZM89.2132 93.8249H10.68C7.84746 93.8249 5.13097 92.6996 3.12809 90.6968C1.12521 88.6939 0 85.9774 0 83.1449L0 57.0146C0.00593657 54.3847 0.981997 51.8495 2.74119 49.8946C0.981997 47.9398 0.00593657 45.4045 0 42.7747L0 16.68C0 13.8475 1.12521 11.131 3.12809 9.12809C5.13097 7.12521 7.84746 6 10.68 6L89.2844 6C92.1169 6 94.8334 7.12521 96.8363 9.12809C98.8392 11.131 99.9644 13.8475 99.9644 16.68V42.7035C99.9682 45.3286 99.0051 47.8633 97.2588 49.8234C99.0051 51.7836 99.9682 54.3182 99.9644 56.9434V83.0025C99.9785 84.414 99.7127 85.8142 99.1823 87.1223C98.6519 88.4304 97.8675 89.6204 96.8743 90.6235C95.8812 91.6266 94.6991 92.4228 93.3963 92.9662C92.0935 93.5096 90.696 93.7893 89.2844 93.7893L89.2132 93.8249ZM10.68 53.4546C9.77329 53.5091 8.92175 53.9081 8.29965 54.5699C7.67754 55.2317 7.33193 56.1063 7.33357 57.0146V83.0737C7.33357 84.0179 7.70864 84.9234 8.37627 85.591C9.04389 86.2586 9.94939 86.6337 10.8936 86.6337H89.2844C90.2286 86.6337 91.1341 86.2586 91.8017 85.591C92.4694 84.9234 92.8444 84.0179 92.8444 83.0737V57.0146C92.8456 56.1005 92.495 55.2209 91.8654 54.5582C91.2358 53.8955 90.3754 53.5003 89.4624 53.4546H10.68ZM33.0011 29.7451C33.0011 30.4492 32.7923 31.1375 32.4011 31.7229C32.0099 32.3084 31.4539 32.7647 30.8034 33.0341C30.1529 33.3036 29.4371 33.3741 28.7466 33.2367C28.056 33.0993 27.4217 32.7603 26.9238 32.2624C26.4259 31.7645 26.0869 31.1302 25.9495 30.4396C25.8121 29.7491 25.8826 29.0333 26.1521 28.3828C26.4215 27.7323 26.8778 27.1763 27.4633 26.7851C28.0487 26.3939 28.737 26.1851 29.4411 26.1851C30.3852 26.1851 31.2907 26.5602 31.9584 27.2278C32.626 27.8954 33.0011 28.8009 33.0011 29.7451ZM21.3599 70.0797C21.3599 70.7838 21.1511 71.4721 20.7599 72.0576C20.3688 72.643 19.8128 73.0993 19.1623 73.3687C18.5118 73.6382 17.796 73.7087 17.1054 73.5713C16.4148 73.434 15.7805 73.0949 15.2826 72.597C14.7848 72.0992 14.4457 71.4648 14.3083 70.7743C14.171 70.0837 14.2415 69.3679 14.5109 68.7174C14.7804 68.0669 15.2367 67.5109 15.8221 67.1197C16.4075 66.7285 17.0958 66.5198 17.7999 66.5198C18.7441 66.5198 19.6496 66.8948 20.3172 67.5625C20.9848 68.2301 21.3599 69.1356 21.3599 70.0797ZM82.0933 73.6397H45.8526C44.9084 73.6397 44.003 73.2647 43.3353 72.597C42.6677 71.9294 42.2926 71.0239 42.2926 70.0797C42.2926 69.1356 42.6677 68.2301 43.3353 67.5625C44.003 66.8948 44.9084 66.5198 45.8526 66.5198H82.2713C83.2154 66.5198 84.1209 66.8948 84.7886 67.5625C85.4562 68.2301 85.8313 69.1356 85.8313 70.0797C85.8313 71.0239 85.4562 71.9294 84.7886 72.597C84.1209 73.2647 83.2154 73.6397 82.2713 73.6397H82.0933ZM33.0011 70.0797C33.0011 70.7838 32.7923 71.4721 32.4011 72.0576C32.0099 72.643 31.4539 73.0993 30.8034 73.3687C30.1529 73.6382 29.4371 73.7087 28.7466 73.5713C28.056 73.434 27.4217 73.0949 26.9238 72.597C26.4259 72.0992 26.0869 71.4648 25.9495 70.7743C25.8121 70.0837 25.8826 69.3679 26.1521 68.7174C26.4215 68.0669 26.8778 67.5109 27.4633 67.1197C28.0487 66.7285 28.737 66.5198 29.4411 66.5198C30.3852 66.5198 31.2907 66.8948 31.9584 67.5625C32.626 68.2301 33.0011 69.1356 33.0011 70.0797ZM10.68 13.12C9.73579 13.12 8.83029 13.495 8.16267 14.1627C7.49504 14.8303 7.11997 15.7358 7.11997 16.68V42.7035C7.11833 43.6118 7.46394 44.4863 8.08605 45.1481C8.70815 45.81 9.55969 46.2089 10.4664 46.2634H89.4624C90.4066 46.2634 91.3121 45.8884 91.9797 45.2207C92.6474 44.5531 93.0224 43.6476 93.0224 42.7035V16.68C93.0224 15.7358 92.6474 14.8303 91.9797 14.1627C91.3121 13.495 90.4066 13.12 89.4624 13.12H10.68Z" fill="#003968"/>
</symbol><symbol id="icon-component-2" viewBox="0 0 100 100">
<g clip-path="url(#clip0_66_619)">
<path fill-rule="evenodd" clip-rule="evenodd" d="M73.337 52.0121C68.3508 51.9493 63.3789 52.557 58.5546 53.8188C54.421 55.0233 52.012 56.392 52.012 57.487C52.012 58.582 54.3389 59.8139 58.4725 60.991C63.2941 62.2664 68.268 62.8743 73.2549 62.7977C78.2506 62.872 83.2332 62.2641 88.0646 60.991C92.1708 59.8139 94.4977 58.4451 94.4977 57.487C94.4977 56.5289 92.1708 55.1601 88.0646 53.9557C83.2634 52.6571 78.3107 52.0034 73.337 52.0121V52.0121ZM94.5798 80.5639C93.4859 81.1234 92.3511 81.5993 91.1853 81.9874C85.3988 83.7278 79.379 84.568 73.337 84.4785V84.4785C66.9495 84.6365 60.5814 83.7109 54.5031 81.741C53.6817 81.4284 52.8775 81.072 52.0942 80.6734V89.4333C52.0942 90.4188 54.421 91.7876 58.5546 92.9647C63.3789 94.2265 68.3508 94.8342 73.337 94.7714C78.332 94.832 83.3128 94.2244 88.1467 92.9647C92.2529 91.7876 94.5798 90.4188 94.5798 89.4333V80.5639ZM52.012 73.9119C52.012 74.87 54.3937 76.2113 58.4725 77.3885C63.2968 78.6502 68.2687 79.2579 73.2549 79.1952C78.2499 79.2558 83.2306 78.6481 88.0646 77.3885C92.1708 76.184 94.4977 74.8152 94.4977 73.8571V64.1117C93.4029 64.6619 92.2682 65.1285 91.1032 65.5078C85.3166 67.2482 79.2968 68.0884 73.2549 67.9989V67.9989C66.8674 68.1569 60.4993 67.2313 54.421 65.2614C53.6001 64.9577 52.796 64.6105 52.012 64.2212V70.0794V73.9119V73.9119ZM73.2549 100.055C66.8674 100.213 60.4993 99.2871 54.421 97.3173C50.2601 95.7295 47.3583 93.4848 46.8108 90.5557C46.7552 89.8451 46.7552 89.1311 46.8108 88.4205V57.487C46.7839 57.0951 46.7839 56.7018 46.8108 56.3099C47.3583 53.3808 50.2601 51.1361 54.421 49.5483C60.4993 47.5785 66.8674 46.6529 73.2549 46.8108C79.6424 46.6529 86.0105 47.5785 92.0887 49.5483C96.2497 51.1361 99.1514 53.3808 99.7263 56.3099V89.3512V90.4188C99.1514 93.3479 96.277 95.5927 92.0887 97.1804C86.0414 99.1689 79.7017 100.122 73.337 100L73.2549 100.055ZM16.4249 18.3137C16.4249 18.8551 16.2643 19.3844 15.9635 19.8346C15.6627 20.2848 15.2352 20.6356 14.735 20.8428C14.2348 21.05 13.6843 21.1042 13.1533 20.9986C12.6223 20.893 12.1345 20.6322 11.7517 20.2494C11.3689 19.8666 11.1081 19.3788 11.0025 18.8478C10.8969 18.3168 10.9511 17.7663 11.1583 17.2661C11.3655 16.7659 11.7163 16.3384 12.1665 16.0376C12.6167 15.7368 13.146 15.5762 13.6874 15.5762C14.4134 15.5762 15.1097 15.8647 15.6231 16.378C16.1364 16.8914 16.4249 17.5877 16.4249 18.3137ZM63.1262 21.0512H35.2587C34.5327 21.0512 33.8364 20.7628 33.323 20.2494C32.8096 19.736 32.5212 19.0397 32.5212 18.3137C32.5212 17.5877 32.8096 16.8914 33.323 16.378C33.8364 15.8647 34.5327 15.5762 35.2587 15.5762H63.2631C63.9891 15.5762 64.6854 15.8647 65.1988 16.378C65.7121 16.8914 66.0006 17.5877 66.0006 18.3137C66.0006 19.0397 65.7121 19.736 65.1988 20.2494C64.6854 20.7628 63.9891 21.0512 63.2631 21.0512H63.1262ZM8.04818 36.6274C7.35587 36.676 6.70785 36.9857 6.23522 37.4939C5.76259 38.0021 5.50062 38.6709 5.50233 39.3649V59.458C5.50233 60.184 5.79074 60.8803 6.30412 61.3937C6.81749 61.9071 7.51378 62.1955 8.2398 62.1955H41.3359V67.6704H8.21243C6.03436 67.6704 3.94549 66.8052 2.40536 65.265C0.865235 63.7249 0 61.6361 0 59.458L0 39.3923C0.00456497 37.37 0.755114 35.4205 2.10786 33.9173C0.755114 32.4141 0.00456497 30.4646 0 28.4424L0 8.21243C0 6.03436 0.865235 3.94549 2.40536 2.40536C3.94549 0.865236 6.03436 0 8.21243 0L68.6559 0C70.834 0 72.9228 0.865236 74.463 2.40536C76.0031 3.94549 76.8683 6.03436 76.8683 8.21243V28.3055C76.8638 30.3278 76.1132 32.2772 74.7605 33.7805C76.1132 35.2837 76.8638 37.2331 76.8683 39.2554V41.3906H76.6493H75.1437H71.4208V39.3375C71.4216 38.6346 71.1521 37.9583 70.6679 37.4487C70.1838 36.9391 69.5222 36.6352 68.8201 36.6001H8.04818V36.6274ZM25.3764 18.3137C25.3764 19.0397 25.088 19.736 24.5746 20.2494C24.0612 20.7628 23.365 21.0512 22.6389 21.0512C21.9129 21.0512 21.2166 20.7628 20.7032 20.2494C20.1899 19.736 19.9015 19.0397 19.9015 18.3137C19.9015 17.5877 20.1899 16.8914 20.7032 16.378C21.2166 15.8647 21.9129 15.5762 22.6389 15.5762C23.365 15.5762 24.0612 15.8647 24.5746 16.378C25.088 16.8914 25.3764 17.5877 25.3764 18.3137ZM16.4249 49.4388C16.4249 49.9802 16.2643 50.5095 15.9635 50.9597C15.6627 51.4099 15.2352 51.7607 14.735 51.9679C14.2348 52.1751 13.6843 52.2293 13.1533 52.1237C12.6223 52.0181 12.1345 51.7574 11.7517 51.3745C11.3689 50.9917 11.1081 50.5039 11.0025 49.9729C10.8969 49.4419 10.9511 48.8914 11.1583 48.3912C11.3655 47.891 11.7163 47.4635 12.1665 47.1627C12.6167 46.8619 13.146 46.7013 13.6874 46.7013C14.4134 46.7013 15.1097 46.9898 15.6231 47.5031C16.1364 48.0165 16.4249 48.7128 16.4249 49.4388ZM41.637 52.1763H35.2587C34.5327 52.1763 33.8364 51.8879 33.323 51.3745C32.8096 50.8611 32.5212 50.1648 32.5212 49.4388C32.5212 48.7128 32.8096 48.0165 33.323 47.5031C33.8364 46.9898 34.5327 46.7013 35.2587 46.7013H46.674C45.9505 47.1271 45.2637 47.6124 44.6209 48.1522C43.2933 49.2103 42.2804 50.6113 41.6918 52.2037L41.637 52.1763ZM25.2122 49.4388C25.2122 49.9802 25.0516 50.5095 24.7508 50.9597C24.45 51.4099 24.0225 51.7607 23.5223 51.9679C23.0221 52.1751 22.4716 52.2293 21.9406 52.1237C21.4096 52.0181 20.9218 51.7574 20.539 51.3745C20.1561 50.9917 19.8954 50.5039 19.7898 49.9729C19.6842 49.4419 19.7384 48.8914 19.9456 48.3912C20.1528 47.891 20.5036 47.4635 20.9538 47.1627C21.404 46.8619 21.9333 46.7013 22.4747 46.7013C22.8477 46.6789 23.2215 46.7331 23.5728 46.8606C23.9241 46.9881 24.2456 47.1862 24.5174 47.4427C24.7893 47.6991 25.0058 48.0086 25.1535 48.3519C25.3012 48.6952 25.3771 49.0651 25.3764 49.4388H25.2122ZM8.21243 5.47495C7.4864 5.47495 6.79012 5.76336 6.27674 6.27674C5.76336 6.79012 5.47495 7.48641 5.47495 8.21243V28.3055C5.47369 29.0039 5.73945 29.6765 6.21782 30.1854C6.69619 30.6943 7.35099 31.0011 8.04818 31.043H68.8201C69.5222 31.0078 70.1838 30.704 70.6679 30.1944C71.1521 29.6847 71.4216 29.0084 71.4208 28.3055V8.21243C71.4208 7.48641 71.1323 6.79012 70.619 6.27674C70.1056 5.76336 69.4093 5.47495 68.6833 5.47495H8.21243Z" fill="#003968"/>
</g>

</symbol><symbol id="icon-data-transport" viewBox="0 0 100 100">
<path fill-rule="evenodd" clip-rule="evenodd" d="M32.1473 14.337C27.1464 14.2657 22.159 14.8747 17.3221 16.1472C13.2022 17.3332 10.8614 18.6753 10.8614 19.6428C10.8614 20.6104 13.2022 21.9837 17.3221 23.1385C22.1571 24.4234 27.1448 25.0429 32.1473 24.9799C37.1498 25.0429 42.1375 24.4234 46.9725 23.1385C51.0924 21.9837 53.4332 20.6104 53.4332 19.6428C53.4332 18.6753 51.0924 17.3332 46.9725 16.1472C42.1357 14.8747 37.1483 14.2657 32.1473 14.337V14.337ZM53.4332 42.8326C52.3365 43.3865 51.1992 43.856 50.0312 44.2371C44.234 45.9852 38.2016 46.8274 32.1473 46.734V46.734C25.7903 46.8402 19.4604 45.8801 13.4207 43.8938C12.5468 43.5504 11.7353 43.2071 10.9863 42.8326V51.5717C10.9863 52.5392 13.3271 53.9125 17.4469 55.0673C22.2838 56.3398 27.2712 56.9488 32.2722 56.8775C37.2731 56.9488 42.2605 56.3398 47.0974 55.0673C51.2172 53.9125 53.5581 52.5392 53.5581 51.5717L53.4332 42.8326ZM10.8614 36.1222C10.8614 37.0898 13.2647 38.4318 17.3221 39.5867C22.159 40.8591 27.1464 41.4681 32.1473 41.3969C37.1483 41.4681 42.1357 40.8591 46.9725 39.5867C51.0924 38.4006 53.4332 37.0273 53.4332 36.091V26.3844C52.3044 26.9214 51.1357 27.3701 49.9376 27.7265C44.1404 29.4746 38.108 30.3168 32.0537 30.2234V30.2234C25.6966 30.3296 19.3668 29.3695 13.3271 27.3832C12.4948 27.0791 11.6819 26.7247 10.8926 26.322V32.3457V36.1222H10.8614ZM85.4557 54.1622V42.0211H90.1997L93.633 54.1622H85.4557ZM11.4232 71.4219C12.5776 71.4219 13.706 71.7642 14.6658 72.4055C15.6256 73.0468 16.3737 73.9583 16.8154 75.0248C17.2571 76.0913 17.3727 77.2648 17.1475 78.397C16.9223 79.5291 16.3665 80.5691 15.5502 81.3853C14.734 82.2016 13.694 82.7574 12.5619 82.9826C11.4297 83.2078 10.2562 83.0922 9.18971 82.6505C8.12323 82.2087 7.2117 81.4607 6.57039 80.5009C5.92907 79.5411 5.58677 78.4127 5.58677 77.2583C5.58677 75.7104 6.20168 74.2259 7.29622 73.1313C8.39077 72.0368 9.8753 71.4219 11.4232 71.4219V71.4219ZM35.5805 71.4219C36.7349 71.4219 37.8633 71.7642 38.8231 72.4055C39.7829 73.0468 40.531 73.9583 40.9727 75.0248C41.4145 76.0913 41.53 77.2648 41.3048 78.397C41.0796 79.5291 40.5238 80.5691 39.7075 81.3853C38.8913 82.2016 37.8513 82.7574 36.7192 82.9826C35.587 83.2078 34.4135 83.0922 33.347 82.6505C32.2805 82.2087 31.369 81.4607 30.7277 80.5009C30.0864 79.5411 29.7441 78.4127 29.7441 77.2583C29.7441 75.7104 30.359 74.2259 31.4535 73.1313C32.5481 72.0368 34.0326 71.4219 35.5805 71.4219ZM11.4232 88.8064C13.6825 88.8064 15.8911 88.1364 17.7696 86.8812C19.6482 85.626 21.1123 83.842 21.9769 81.7546C22.8415 79.6673 23.0677 77.3705 22.6269 75.1546C22.1862 72.9387 21.0982 70.9033 19.5007 69.3057C17.9031 67.7082 15.8677 66.6202 13.6518 66.1794C11.4359 65.7387 9.13906 65.9649 7.05174 66.8295C4.96442 67.6941 3.18036 69.1582 1.92516 71.0368C0.66996 72.9153 0 75.1239 0 77.3832C0.00823704 80.4103 1.2144 83.311 3.35488 85.4515C5.49537 87.592 8.39613 88.7981 11.4232 88.8064V88.8064ZM82.1785 71.4219C83.3329 71.4219 84.4613 71.7642 85.4211 72.4055C86.3809 73.0468 87.129 73.9583 87.5707 75.0248C88.0125 76.0913 88.128 77.2648 87.9028 78.397C87.6776 79.5291 87.1218 80.5691 86.3055 81.3853C85.4893 82.2016 84.4493 82.7574 83.3172 82.9826C82.185 83.2078 81.0115 83.0922 79.945 82.6505C78.8785 82.2087 77.967 81.4607 77.3257 80.5009C76.6844 79.5411 76.3421 78.4127 76.3421 77.2583C76.3421 75.7104 76.957 74.2259 78.0515 73.1313C79.1461 72.0368 80.6306 71.4219 82.1785 71.4219V71.4219ZM91.5418 70.5167C90.4813 69.0656 89.0934 67.8852 87.4908 67.0715C85.8883 66.2577 84.1163 65.8336 82.319 65.8336C80.5216 65.8336 78.7497 66.2577 77.1471 67.0715C75.5446 67.8852 74.1566 69.0656 73.0961 70.5167H70.7241V42.0211H80.0874V59.6553H94.4757V70.6416L91.5418 70.5167ZM82.1785 88.6815C85.1896 88.6818 88.0797 87.4965 90.2233 85.382C92.367 83.2675 93.5919 80.3939 93.633 77.3832C93.633 76.9774 93.633 76.6029 93.633 76.2284H99.8752V70.6416V56.347L93.789 37.0898H64.9188V70.6416H44.819C43.217 68.4347 40.8803 66.8718 38.2289 66.2338C35.5776 65.5959 32.7857 65.9248 30.3552 67.1614C27.9247 68.398 26.0151 70.4611 24.9698 72.9798C23.9245 75.4985 23.8121 78.3076 24.6528 80.9017C25.4935 83.4959 27.2322 85.705 29.5561 87.1319C31.88 88.5587 34.6368 89.1096 37.3306 88.6855C40.0244 88.2615 42.4786 86.8902 44.2517 84.8184C46.0249 82.7466 47.0007 80.1102 47.0037 77.3832C47.0357 76.8635 47.0357 76.3423 47.0037 75.8226H70.9114C70.9114 76.2908 70.9114 76.7589 70.9114 77.2583C70.8863 80.2802 72.0564 83.1896 74.1668 85.3527C76.2772 87.5157 79.1569 88.7571 82.1785 88.8064V88.6815ZM32.2409 62.0898C25.8839 62.196 19.554 61.2359 13.5144 59.2496C9.11361 57.8139 6.2422 55.5667 5.64919 52.6953C5.60252 51.9886 5.60252 51.2796 5.64919 50.5729V19.7677C5.61703 19.373 5.61703 18.9763 5.64919 18.5817C6.2422 15.6478 9.11361 13.4006 13.2959 11.8401C19.3355 9.85371 25.6654 8.89368 32.0225 8.99988C38.3795 8.89368 44.7094 9.85371 50.7491 11.8401C54.9313 13.4006 57.834 15.6478 58.3958 18.5817V51.5717V52.6328C57.834 55.5667 54.9313 57.8139 50.7491 59.3744C44.7491 61.347 38.4626 62.3069 32.1473 62.2146L32.2409 62.0898Z" fill="#003968"/>
</symbol><symbol id="icon-feature-eye" viewBox="0 0 80 80">
<path d="M39.9993 6.66656C58.4093 6.66656 73.3327 21.5899 73.3327 39.9999C73.3327 58.4099 58.4093 73.3332 39.9993 73.3332C21.5893 73.3332 6.66602 58.4099 6.66602 39.9999C6.66602 21.5899 21.5893 6.66656 39.9993 6.66656ZM39.9993 13.3332C32.9269 13.3332 26.1441 16.1427 21.1432 21.1437C16.1422 26.1447 13.3327 32.9275 13.3327 39.9999C13.3327 47.0723 16.1422 53.8551 21.1432 58.8561C26.1441 63.857 32.9269 66.6666 39.9993 66.6666C47.0718 66.6666 53.8546 63.857 58.8555 58.8561C63.8565 53.8551 66.666 47.0723 66.666 39.9999C66.666 32.9275 63.8565 26.1447 58.8555 21.1437C53.8546 16.1427 47.0718 13.3332 39.9993 13.3332ZM39.9993 23.3332C43.508 23.3346 46.9267 24.4431 49.7684 26.501C52.6102 28.5589 54.73 31.4611 55.8259 34.7942C56.9217 38.1273 56.9378 41.7212 55.8717 45.064C54.8056 48.4067 52.7118 51.3277 49.8886 53.4109C47.0653 55.4941 43.6566 56.6332 40.1482 56.6658C36.6397 56.6985 33.2104 55.6231 30.3489 53.5928C27.4873 51.5626 25.3395 48.681 24.2114 45.3587C23.0832 42.0364 23.0324 38.4428 24.066 35.0899C24.8458 36.8323 26.2003 38.254 27.9029 39.1171C29.6055 39.9802 31.5529 40.2324 33.4192 39.8314C35.2855 39.4304 36.9574 38.4006 38.1553 36.9143C39.3531 35.428 40.0041 33.5754 39.9993 31.6666C39.9998 30.0615 39.5367 28.4904 38.6656 27.1421C37.7946 25.7939 36.5528 24.7259 35.0893 24.0666C36.6427 23.5899 38.2893 23.3332 39.9993 23.3332Z"/>
</symbol><symbol id="icon-feature-gear" viewBox="0 0 73 73">
<path fill-rule="evenodd" clip-rule="evenodd" d="M31.0225 21.8224L30.0073 22.2457C28.7301 21.4465 28.1627 19.792 25.9725 19.8582C24.1278 19.9129 23.0809 21.5027 22.1867 22.3955C21.2838 23.2969 19.7315 24.2934 19.7229 26.1827C19.7142 28.0662 21.1672 28.8928 22.0758 29.9872L21.6611 31.2414C17.6723 31.5481 16.2539 30.8498 16.2539 36.7019C16.2539 41.8197 16.7709 41.9104 21.6006 42.2099L22.1334 43.4008C18.8603 46.7488 18.7739 47.6992 22.1363 51.0587C22.9729 51.8939 24.1897 53.5513 25.9725 53.6061C28.3009 53.6766 28.6177 51.8925 30.0016 51.2344L31.0009 51.6088C31.5784 53.7414 30.6741 54.9467 32.3142 56.3248C33.3784 57.219 40.4186 58.2227 41.765 55.1886C42.5541 53.4088 41.3733 52.1329 42.544 51.4331C44.2245 50.4294 44.3541 54.0582 47.6848 53.5643C48.9361 53.3786 53.4995 49.5122 53.4822 47.2283C53.4678 45.3966 51.9155 44.2706 51.1091 43.4166L51.5685 42.1912C56.4069 41.9536 56.9498 41.7045 56.9512 36.7019C56.9541 30.9433 55.72 31.5611 51.5656 31.2357L51.0645 30.0102C52.0739 28.8122 53.4808 28.1512 53.4822 26.187C53.4837 24.2502 51.9472 23.3358 51.017 22.4027C50.0954 21.4782 49.1219 19.8971 47.2341 19.8568C45.0597 19.8121 44.4333 21.3673 43.2078 22.2313C40.695 21.4336 43.0048 20.2643 41.5835 17.956C40.06 15.4821 33.531 16.1459 32.3545 17.1179C30.7086 18.4758 31.4848 19.5933 31.0225 21.8224ZM35.2893 27.6069C23.1025 29.5393 25.899 47.6214 38.0296 45.8661C42.5944 45.2051 46.4737 40.865 45.7581 35.416C45.1662 30.9059 40.7008 26.7501 35.2893 27.6069Z"/>
<path fill-rule="evenodd" clip-rule="evenodd" d="M7.61891 44.7559C8.14451 45.558 8.76803 47.8102 9.25907 48.9305C12.2658 55.8007 17.5664 60.8451 24.2149 63.9857C26.0437 64.8511 31.5287 66.7404 33.7938 66.4798C35.637 66.2695 35.925 63.7769 33.7995 63.306C28.4759 62.1252 25.9904 62.095 20.7805 58.2343C16.773 55.2665 11.7272 49.0371 11.0173 44.1785C11.7906 44.5615 12.7367 45.5091 13.8224 44.4766C15.6195 42.7687 12.3795 41.1012 10.8085 40.0025C9.93155 39.3891 9.20003 38.7497 8.28995 38.2687C7.31939 39.1961 5.67635 41.7694 4.77635 43.0351C4.13987 43.9294 3.82451 45.3075 4.93475 45.8964C6.29123 46.6164 7.00835 45.3334 7.61891 44.7559Z"/>
<path fill-rule="evenodd" clip-rule="evenodd" d="M44.262 62.2591C45.7049 58.7369 42.8753 58.3668 41.5274 60.318C40.5309 61.7609 39.2753 63.738 38.1074 65.0916C38.6762 65.8836 40.8247 67.2069 41.7866 67.8953C43.1877 68.8961 44.1237 70.0956 45.8676 68.5217C46.134 66.7375 45.4298 66.5949 44.4794 65.8015C44.5802 65.7209 44.6321 65.6604 44.933 65.5149L46.6049 64.9505C54.2052 62.2649 60.3439 56.6085 63.725 49.3754C64.6913 47.3061 66.4308 42.4116 66.353 39.8225C66.2925 37.7676 63.8762 37.4551 63.27 39.0765C62.2893 41.6988 63.2455 45.1505 58.3092 52.2511C55.9145 55.6956 50.1055 61.0682 44.262 62.2591Z"/>
<path fill-rule="evenodd" clip-rule="evenodd" d="M62.2066 29.2787C61.249 28.7646 61.2072 28.4349 59.7255 28.6682C57.9773 30.749 59.2546 31.2803 60.9135 32.4309C62.2455 33.3554 63.4954 34.3778 64.9196 35.213L67.2567 32.0997C68.0861 30.9635 69.2698 29.9714 68.9444 28.1368C67.1559 26.6277 66.7383 27.5046 65.592 28.7819C65.2868 28.373 63.9 23.945 61.8912 20.7064C58.9652 15.9904 54.1181 11.7885 48.9471 9.46865C47.016 8.60321 41.6924 6.73553 39.4244 6.98177C37.6042 7.18049 37.3508 9.61265 39.0946 10.1166C43.0172 11.2514 46.2428 10.6394 52.2533 15.1235C56.0765 17.9762 60.794 23.0637 62.2066 29.2787Z"/>
<path fill-rule="evenodd" clip-rule="evenodd" d="M28.6368 7.84435C19.1011 11.008 13.0373 16.2252 9.2083 24.6463C8.24926 26.7573 6.40462 32.0565 6.99502 34.6845C8.38462 36.0612 9.81598 35.6032 10.1155 33.3597C10.3473 31.6317 10.6613 30.1629 11.1566 28.6034C13.5945 20.934 21.0264 12.7101 29.1192 11.1506C28.7203 12.0607 27.852 13.073 28.9349 14.0522C30.0221 15.0343 31.0545 14.1746 31.5859 13.4373C32.6803 11.9138 33.8712 9.97123 35.0966 8.52547C34.5163 7.74499 31.3094 5.63539 30.2625 4.87651C29.4979 4.32067 28.0651 3.88579 27.4373 5.06659C26.6625 6.52387 28.0622 7.19923 28.6368 7.84435Z"/>
<path fill-rule="evenodd" clip-rule="evenodd" d="M38.9421 49.1897C38.621 49.6029 38.6671 49.6217 38.6728 50.3445L38.6944 53.7516L34.4767 53.7703L34.5372 50.117C34.5271 49.7786 34.5257 49.8103 34.4637 49.5021L34.3025 49.1753L34.2578 53.8884C35.502 54.1231 37.7152 54.2037 38.8327 53.8265L38.9421 49.1897Z"/>
</symbol><symbol id="icon-feature-scada" viewBox="0 0 80 80">
<path d="M13.3327 63.3332H66.666V46.6666H73.3327V66.6666C73.3327 67.5506 72.9815 68.3985 72.3564 69.0236C71.7312 69.6487 70.8834 69.9999 69.9993 69.9999H9.99935C9.11529 69.9999 8.26745 69.6487 7.64233 69.0236C7.0172 68.3985 6.66602 67.5506 6.66602 66.6666V46.6666H13.3327V63.3332ZM39.9993 33.3332H29.9993C26.8429 33.331 23.7309 34.0769 20.9184 35.5098C18.1059 36.9427 15.6731 39.0218 13.8193 41.5766C15.0026 35.5015 18.2614 30.0268 23.0376 26.0905C27.8138 22.1541 33.8101 20.001 39.9993 19.9999V6.66656L66.666 26.6666L39.9993 46.6666V33.3332Z"/>
</symbol><symbol id="icon-history-server" viewBox="0 0 100 100">
<g clip-path="url(#clip0_345_5425)">
<path fill-rule="evenodd" clip-rule="evenodd" d="M73.337 52.0121C68.3508 51.9493 63.3789 52.557 58.5546 53.8188C54.421 55.0233 52.012 56.392 52.012 57.487C52.012 58.582 54.3389 59.8139 58.4725 60.991C63.2941 62.2664 68.268 62.8743 73.2549 62.7977C78.2506 62.872 83.2332 62.2641 88.0646 60.991C92.1708 59.8139 94.4977 58.4451 94.4977 57.487C94.4977 56.5289 92.1708 55.1601 88.0646 53.9557C83.2634 52.6571 78.3107 52.0034 73.337 52.0121V52.0121ZM94.5798 80.5639C93.4859 81.1234 92.3511 81.5993 91.1853 81.9874C85.3988 83.7278 79.379 84.568 73.337 84.4785V84.4785C66.9495 84.6365 60.5814 83.7109 54.5031 81.741C53.6817 81.4284 52.8775 81.072 52.0942 80.6734V89.4333C52.0942 90.4188 54.421 91.7876 58.5546 92.9647C63.3789 94.2265 68.3508 94.8342 73.337 94.7714C78.332 94.832 83.3128 94.2244 88.1467 92.9647C92.2529 91.7876 94.5798 90.4188 94.5798 89.4333V80.5639ZM52.012 73.9119C52.012 74.87 54.3937 76.2113 58.4725 77.3885C63.2968 78.6502 68.2687 79.2579 73.2549 79.1952C78.2499 79.2558 83.2306 78.6481 88.0646 77.3885C92.1708 76.184 94.4977 74.8152 94.4977 73.8571V64.1117C93.4029 64.6619 92.2682 65.1285 91.1032 65.5078C85.3166 67.2482 79.2968 68.0884 73.2549 67.9989V67.9989C66.8674 68.1569 60.4993 67.2313 54.421 65.2614C53.6001 64.9577 52.796 64.6105 52.012 64.2212V70.0794V73.9119V73.9119ZM73.2549 100.055C66.8674 100.213 60.4993 99.2871 54.421 97.3173C50.2601 95.7295 47.3583 93.4848 46.8108 90.5557C46.7552 89.8451 46.7552 89.1311 46.8108 88.4205V57.487C46.7839 57.0951 46.7839 56.7018 46.8108 56.3099C47.3583 53.3808 50.2601 51.1361 54.421 49.5483C60.4993 47.5785 66.8674 46.6529 73.2549 46.8108C79.6424 46.6529 86.0105 47.5785 92.0887 49.5483C96.2497 51.1361 99.1514 53.3808 99.7263 56.3099V89.3512V90.4188C99.1514 93.3479 96.277 95.5927 92.0887 97.1804C86.0414 99.1689 79.7017 100.122 73.337 100L73.2549 100.055ZM16.4249 18.3137C16.4249 18.8551 16.2643 19.3844 15.9635 19.8346C15.6627 20.2848 15.2352 20.6356 14.735 20.8428C14.2348 21.05 13.6843 21.1042 13.1533 20.9986C12.6223 20.893 12.1345 20.6322 11.7517 20.2494C11.3689 19.8666 11.1081 19.3788 11.0025 18.8478C10.8969 18.3168 10.9511 17.7663 11.1583 17.2661C11.3655 16.7659 11.7163 16.3384 12.1665 16.0376C12.6167 15.7368 13.146 15.5762 13.6874 15.5762C14.4134 15.5762 15.1097 15.8647 15.6231 16.378C16.1364 16.8914 16.4249 17.5877 16.4249 18.3137ZM63.1262 21.0512H35.2587C34.5327 21.0512 33.8364 20.7628 33.323 20.2494C32.8096 19.736 32.5212 19.0397 32.5212 18.3137C32.5212 17.5877 32.8096 16.8914 33.323 16.378C33.8364 15.8647 34.5327 15.5762 35.2587 15.5762H63.2631C63.9891 15.5762 64.6854 15.8647 65.1988 16.378C65.7121 16.8914 66.0006 17.5877 66.0006 18.3137C66.0006 19.0397 65.7121 19.736 65.1988 20.2494C64.6854 20.7628 63.9891 21.0512 63.2631 21.0512H63.1262ZM8.04818 36.6274C7.35587 36.676 6.70785 36.9857 6.23522 37.4939C5.76259 38.0021 5.50062 38.6709 5.50233 39.3649V59.458C5.50233 60.184 5.79074 60.8803 6.30412 61.3937C6.81749 61.9071 7.51378 62.1955 8.2398 62.1955H41.3359V67.6704H8.21243C6.03436 67.6704 3.94549 66.8052 2.40536 65.265C0.865235 63.7249 0 61.6361 0 59.458L0 39.3923C0.00456497 37.37 0.755114 35.4205 2.10786 33.9173C0.755114 32.4141 0.00456497 30.4646 0 28.4424L0 8.21243C0 6.03436 0.865235 3.94549 2.40536 2.40536C3.94549 0.865236 6.03436 0 8.21243 0L68.6559 0C70.834 0 72.9228 0.865236 74.463 2.40536C76.0031 3.94549 76.8683 6.03436 76.8683 8.21243V28.3055C76.8638 30.3278 76.1132 32.2772 74.7605 33.7805C76.1132 35.2837 76.8638 37.2331 76.8683 39.2554V41.3906H76.6493H75.1437H71.4208V39.3375C71.4216 38.6346 71.1521 37.9583 70.6679 37.4487C70.1838 36.9391 69.5222 36.6352 68.8201 36.6001H8.04818V36.6274ZM25.3764 18.3137C25.3764 19.0397 25.088 19.736 24.5746 20.2494C24.0612 20.7628 23.365 21.0512 22.6389 21.0512C21.9129 21.0512 21.2166 20.7628 20.7032 20.2494C20.1899 19.736 19.9015 19.0397 19.9015 18.3137C19.9015 17.5877 20.1899 16.8914 20.7032 16.378C21.2166 15.8647 21.9129 15.5762 22.6389 15.5762C23.365 15.5762 24.0612 15.8647 24.5746 16.378C25.088 16.8914 25.3764 17.5877 25.3764 18.3137ZM16.4249 49.4388C16.4249 49.9802 16.2643 50.5095 15.9635 50.9597C15.6627 51.4099 15.2352 51.7607 14.735 51.9679C14.2348 52.1751 13.6843 52.2293 13.1533 52.1237C12.6223 52.0181 12.1345 51.7574 11.7517 51.3745C11.3689 50.9917 11.1081 50.5039 11.0025 49.9729C10.8969 49.4419 10.9511 48.8914 11.1583 48.3912C11.3655 47.891 11.7163 47.4635 12.1665 47.1627C12.6167 46.8619 13.146 46.7013 13.6874 46.7013C14.4134 46.7013 15.1097 46.9898 15.6231 47.5031C16.1364 48.0165 16.4249 48.7128 16.4249 49.4388ZM41.637 52.1763H35.2587C34.5327 52.1763 33.8364 51.8879 33.323 51.3745C32.8096 50.8611 32.5212 50.1648 32.5212 49.4388C32.5212 48.7128 32.8096 48.0165 33.323 47.5031C33.8364 46.9898 34.5327 46.7013 35.2587 46.7013H46.674C45.9505 47.1271 45.2637 47.6124 44.6209 48.1522C43.2933 49.2103 42.2804 50.6113 41.6918 52.2037L41.637 52.1763ZM25.2122 49.4388C25.2122 49.9802 25.0516 50.5095 24.7508 50.9597C24.45 51.4099 24.0225 51.7607 23.5223 51.9679C23.0221 52.1751 22.4716 52.2293 21.9406 52.1237C21.4096 52.0181 20.9218 51.7574 20.539 51.3745C20.1561 50.9917 19.8954 50.5039 19.7898 49.9729C19.6842 49.4419 19.7384 48.8914 19.9456 48.3912C20.1528 47.891 20.5036 47.4635 20.9538 47.1627C21.404 46.8619 21.9333 46.7013 22.4747 46.7013C22.8477 46.6789 23.2215 46.7331 23.5728 46.8606C23.9241 46.9881 24.2456 47.1862 24.5174 47.4427C24.7893 47.6991 25.0058 48.0086 25.1535 48.3519C25.3012 48.6952 25.3771 49.0651 25.3764 49.4388H25.2122ZM8.21243 5.47495C7.4864 5.47495 6.79012 5.76336 6.27674 6.27674C5.76336 6.79012 5.47495 7.48641 5.47495 8.21243V28.3055C5.47369 29.0039 5.73945 29.6765 6.21782 30.1854C6.69619 30.6943 7.35099 31.0011 8.04818 31.043H68.8201C69.5222 31.0078 70.1838 30.704 70.6679 30.1944C71.1521 29.6847 71.4216 29.0084 71.4208 28.3055V8.21243C71.4208 7.48641 71.1323 6.79012 70.619 6.27674C70.1056 5.76336 69.4093 5.47495 68.6833 5.47495H8.21243Z" fill="#003968"/>
</g>

</symbol><symbol id="icon-hmi" viewBox="0 0 100 100">
<path fill-rule="evenodd" clip-rule="evenodd" d="M6.98457 78.6179C8.09185 79.0726 9.27802 79.3041 10.475 79.2992H89.5248C91.9393 79.2992 94.2555 78.3426 95.9663 76.6388C97.6771 74.935 98.6432 72.6227 98.6531 70.2082V15.4757C98.6531 13.0548 97.6913 10.7329 95.9795 9.02104C94.2676 7.30914 91.9457 6.34741 89.5248 6.34741H10.475C8.05402 6.34741 5.7322 7.30914 4.0203 9.02104C2.30841 10.7329 1.34668 13.0548 1.34668 15.4757V70.2082C1.34667 71.4052 1.58305 72.5904 2.04225 73.6958C2.50144 74.8012 3.17442 75.8051 4.02256 76.6497C4.87069 77.4944 5.87729 78.1633 6.98457 78.6179ZM93.8367 74.5202C92.6931 75.6638 91.1421 76.3063 89.5248 76.3063H10.475C8.85771 76.3063 7.30665 75.6638 6.16305 74.5202C5.01945 73.3766 4.37698 71.8255 4.37698 70.2082V15.4757C4.37698 13.8584 5.01945 12.3074 6.16305 11.1638C7.30665 10.0202 8.85771 9.37771 10.475 9.37771H89.5248C91.1421 9.37771 92.6931 10.0202 93.8367 11.1638C94.9803 12.3074 95.6228 13.8584 95.6228 15.4757V70.2082C95.6228 71.8255 94.9803 73.3766 93.8367 74.5202Z" fill="#003968" stroke="#003968" stroke-width="0.72" stroke-miterlimit="22.93"/>
<path d="M3.74121 61.2671V66.991H97.2691V61.2671H3.74121Z" fill="#003968"/>
<path fill-rule="evenodd" clip-rule="evenodd" d="M40.7034 88.9893H59.2969V76.3813H65.0208V88.9893H75.6455V96.2097H24.3174V88.9893H34.9795V76.3813H40.7034V88.9893Z" fill="#003968"/>
<path d="M22.7461 23.9307V52.9991H27.9837V40.429H33.109V52.9991H38.384V23.9307H33.109V35.7152H27.9837V23.9307H22.7461Z" fill="#003968"/>
<path d="M44.8185 23.9307V52.9991H50.0561V37.6699L54.231 52.9991H56.4293L60.7183 37.6035V52.9991H65.881V23.9307H59.547L55.3718 38.6134L51.2662 23.9307H44.8185Z" fill="#003968"/>
<path d="M71.4927 23.9307V52.9991H76.7303V23.9307H71.4927Z" fill="#003968"/>
</symbol><symbol id="icon-list-point" viewBox="0 0 16 18">
<g clip-path="url(#clip0_66_1017)">
<path d="M9.15086 1.99996C9.18476 2.02757 9.22714 2.04265 9.27086 2.04265C9.31458 2.04265 9.35697 2.02757 9.39086 1.99996C9.40699 1.97907 9.41833 1.95489 9.42407 1.92913C9.42982 1.90337 9.42983 1.87667 9.4241 1.8509C9.41838 1.82514 9.40706 1.80095 9.39095 1.78005C9.37483 1.75915 9.35432 1.74205 9.33086 1.72996L9.00086 1.49996C8.96098 1.48048 8.91575 1.47482 8.8723 1.48387C8.82885 1.49293 8.78965 1.51617 8.76086 1.54996C8.74461 1.57168 8.7332 1.59663 8.72739 1.62313C8.72159 1.64963 8.72152 1.67707 8.72721 1.7036C8.73289 1.73012 8.74419 1.75513 8.76035 1.77692C8.7765 1.79872 8.79714 1.8168 8.82086 1.82996L9.15086 1.99996ZM10.4409 2.73996C10.4846 2.76515 10.5366 2.77193 10.5854 2.7588C10.6341 2.74568 10.6757 2.71372 10.7009 2.66996C10.7261 2.6262 10.7328 2.57422 10.7197 2.52546C10.7066 2.4767 10.6746 2.43515 10.6309 2.40996L10.3009 2.22996C10.2679 2.20044 10.2251 2.18412 10.1809 2.18412C10.1366 2.18412 10.0939 2.20044 10.0609 2.22996C10.0463 2.25139 10.0363 2.27557 10.0314 2.30101C10.0266 2.32645 10.027 2.35262 10.0326 2.37791C10.0382 2.4032 10.0489 2.42707 10.0641 2.44806C10.0793 2.46905 10.0986 2.48671 10.1209 2.49996L10.4409 2.73996ZM11.7309 3.46996C11.7655 3.5002 11.8099 3.51687 11.8559 3.51687C11.9018 3.51687 11.9462 3.5002 11.9809 3.46996C11.9954 3.44853 12.0054 3.42435 12.0103 3.3989C12.0152 3.37346 12.0148 3.34729 12.0092 3.322C12.0035 3.29672 11.9928 3.27285 11.9776 3.25186C11.9624 3.23087 11.9431 3.21321 11.9209 3.19996L11.6009 2.99996C11.5662 2.96971 11.5218 2.95305 11.4759 2.95305C11.4299 2.95305 11.3855 2.96971 11.3509 2.99996C11.3363 3.02139 11.3263 3.04557 11.3214 3.07101C11.3166 3.09645 11.317 3.12262 11.3226 3.14791C11.3282 3.1732 11.3389 3.19707 11.3541 3.21806C11.3693 3.23905 11.3886 3.25671 11.4109 3.26996L11.7309 3.46996ZM13.0309 4.20996C13.0648 4.23757 13.1071 4.25265 13.1509 4.25265C13.1946 4.25265 13.237 4.23757 13.2709 4.20996C13.2854 4.18853 13.2954 4.16435 13.3003 4.1389C13.3052 4.11346 13.3048 4.08729 13.2992 4.062C13.2935 4.03672 13.2828 4.01285 13.2676 3.99186C13.2524 3.97087 13.2331 3.95321 13.2109 3.93996L12.8909 3.74996C12.86 3.74836 12.8291 3.75434 12.801 3.76737C12.773 3.7804 12.7485 3.8001 12.7298 3.82474C12.7111 3.84938 12.6986 3.87822 12.6936 3.90876C12.6886 3.9393 12.691 3.9706 12.7009 3.99996L13.0309 4.20996ZM14.2309 4.89996C14.2655 4.92592 14.3076 4.93996 14.3509 4.93996C14.3941 4.93996 14.4362 4.92592 14.4709 4.89996C14.4875 4.87887 14.4995 4.85448 14.5061 4.82841C14.5127 4.80234 14.5136 4.77517 14.5089 4.74871C14.5041 4.72224 14.4939 4.69708 14.4787 4.67489C14.4635 4.65269 14.4438 4.63397 14.4209 4.61996L14.1809 4.48996C14.1479 4.46044 14.1051 4.44412 14.0609 4.44412C14.0166 4.44412 13.9739 4.46044 13.9409 4.48996C13.9247 4.51085 13.9134 4.53503 13.9077 4.56078C13.9019 4.58654 13.9019 4.61325 13.9076 4.63901C13.9133 4.66477 13.9247 4.68896 13.9408 4.70986C13.9569 4.73076 13.9774 4.74787 14.0009 4.75996L14.2309 4.89996ZM7.72086 0.769957C7.68786 0.74044 7.64514 0.724121 7.60086 0.724121C7.55659 0.724121 7.51386 0.74044 7.48086 0.769957C7.46171 0.786849 7.44637 0.807622 7.43586 0.830898C7.42536 0.854174 7.41992 0.879419 7.41992 0.904957C7.41992 0.930495 7.42536 0.95574 7.43586 0.979016C7.44637 1.00229 7.46171 1.02307 7.48086 1.03996L7.81086 1.21996C7.84978 1.24348 7.89617 1.25141 7.94069 1.24213C7.98521 1.23285 8.02458 1.20707 8.05086 1.16996C8.05697 1.13969 8.05561 1.10839 8.0469 1.07877C8.03818 1.04915 8.02238 1.0221 8.00086 0.999957L7.72086 0.769957Z" fill="#871F14"/>
<path d="M6.10053 15.2299C6.07952 15.218 6.05638 15.2105 6.03245 15.2076C6.00851 15.2047 5.98425 15.2066 5.96103 15.2131C5.93782 15.2196 5.91611 15.2306 5.89715 15.2455C5.87819 15.2604 5.86235 15.2788 5.85053 15.2999C5.83871 15.3209 5.83115 15.344 5.82827 15.3679C5.82539 15.3919 5.82725 15.4161 5.83375 15.4394C5.84025 15.4626 5.85126 15.4843 5.86615 15.5032C5.88104 15.5222 5.89952 15.538 5.92053 15.5499L6.24053 15.7399C6.28041 15.7593 6.32564 15.765 6.36909 15.7559C6.41254 15.7469 6.45174 15.7236 6.48053 15.6899C6.49678 15.6681 6.5082 15.6432 6.514 15.6167C6.51981 15.5902 6.51987 15.5627 6.51418 15.5362C6.5085 15.5097 6.4972 15.4847 6.48105 15.4629C6.46489 15.4411 6.44426 15.423 6.42053 15.4099L6.10053 15.2299ZM4.81053 14.4899C4.78886 14.4774 4.76495 14.4693 4.74015 14.4661C4.71536 14.4628 4.69017 14.4645 4.66603 14.471C4.64189 14.4775 4.61926 14.4887 4.59944 14.5039C4.57963 14.5192 4.563 14.5382 4.55053 14.5599C4.53805 14.5815 4.52997 14.6054 4.52673 14.6302C4.5235 14.655 4.52518 14.6802 4.53168 14.7044C4.53818 14.7285 4.54937 14.7511 4.56462 14.7709C4.57986 14.7908 4.59886 14.8074 4.62053 14.8199L5.00053 14.9999C5.02941 15.0165 5.06218 15.0253 5.09553 15.0253C5.12888 15.0253 5.16165 15.0165 5.19053 14.9999C5.20666 14.979 5.218 14.9548 5.22374 14.929C5.22948 14.9033 5.22949 14.8766 5.22377 14.8508C5.21804 14.825 5.20672 14.8009 5.19061 14.78C5.1745 14.7591 5.15399 14.7419 5.13053 14.7299L4.81053 14.4899ZM3.52053 13.7599C3.48007 13.7357 3.43209 13.7275 3.3859 13.7367C3.3397 13.7459 3.29859 13.772 3.27053 13.8099C3.25598 13.8313 3.24596 13.8555 3.2411 13.8809C3.23623 13.9064 3.23662 13.9325 3.24224 13.9578C3.24786 13.9831 3.25859 14.007 3.27377 14.028C3.28896 14.0489 3.30827 14.0666 3.33053 14.0799L3.66053 14.2599C3.69353 14.2894 3.73625 14.3057 3.78053 14.3057C3.8248 14.3057 3.86753 14.2894 3.90053 14.2599C3.91508 14.2384 3.9251 14.2142 3.92996 14.1888C3.93483 14.1634 3.93444 14.1372 3.92882 14.1119C3.9232 14.0866 3.91247 14.0627 3.89729 14.0418C3.8821 14.0208 3.86279 14.0031 3.84053 13.9899L3.52053 13.7599ZM2.22053 12.9999C2.18161 12.9763 2.13522 12.9684 2.0907 12.9777C2.04618 12.987 2.00682 13.0127 1.98053 13.0499C1.96598 13.0713 1.95596 13.0955 1.9511 13.1209C1.94623 13.1464 1.94662 13.1725 1.95224 13.1978C1.95786 13.2231 1.96859 13.247 1.98377 13.268C1.99896 13.2889 2.01827 13.3066 2.04053 13.3199L2.36053 13.5099C2.40429 13.5351 2.45627 13.5418 2.50503 13.5287C2.55379 13.5156 2.59533 13.4836 2.62053 13.4399C2.64572 13.3961 2.6525 13.3441 2.63938 13.2954C2.62625 13.2466 2.59429 13.2051 2.55053 13.1799L2.22053 12.9999ZM1.00053 12.3299C0.960647 12.3104 0.91542 12.3047 0.87197 12.3138C0.828519 12.3228 0.789314 12.3461 0.760529 12.3799C0.744275 12.4016 0.732862 12.4265 0.727057 12.453C0.721252 12.4795 0.721189 12.507 0.726874 12.5335C0.732558 12.56 0.743858 12.585 0.760012 12.6068C0.776167 12.6286 0.796802 12.6467 0.820529 12.6599L1.05053 12.7899C1.08443 12.8175 1.12681 12.8325 1.17053 12.8325C1.21425 12.8325 1.25663 12.8175 1.29053 12.7899C1.30666 12.769 1.318 12.7448 1.32374 12.719C1.32948 12.6933 1.32949 12.6666 1.32377 12.6408C1.31804 12.615 1.30672 12.5909 1.29061 12.57C1.2745 12.5491 1.25399 12.5319 1.23053 12.5199L1.00053 12.3299ZM7.51053 16.4699C7.54353 16.4994 7.58625 16.5157 7.63053 16.5157C7.6748 16.5157 7.71753 16.4994 7.75053 16.4699C7.76968 16.453 7.78502 16.4322 7.79553 16.4089C7.80604 16.3856 7.81147 16.3604 7.81147 16.3349C7.81147 16.3093 7.80604 16.2841 7.79553 16.2608C7.78502 16.2375 7.76968 16.2167 7.75053 16.1999L7.39053 15.9999C7.35753 15.9703 7.3148 15.954 7.27053 15.954C7.22625 15.954 7.18353 15.9703 7.15053 15.9999C7.13598 16.0213 7.12596 16.0455 7.1211 16.0709C7.11623 16.0964 7.11662 16.1225 7.12224 16.1478C7.12786 16.1731 7.13859 16.197 7.15377 16.218C7.16896 16.2389 7.18827 16.2566 7.21053 16.2699L7.51053 16.4699Z" fill="#871F14"/>
<path d="M9.15086 9.75985C9.18476 9.78747 9.22714 9.80254 9.27086 9.80254C9.31458 9.80254 9.35697 9.78747 9.39086 9.75985C9.40699 9.73896 9.41833 9.71478 9.42407 9.68903C9.42982 9.66327 9.42983 9.63656 9.4241 9.6108C9.41838 9.58504 9.40706 9.56085 9.39095 9.53995C9.37483 9.51905 9.35432 9.50194 9.33086 9.48985L9.00086 9.24985C8.96098 9.23038 8.91575 9.22472 8.8723 9.23377C8.82885 9.24282 8.78965 9.26607 8.76086 9.29985C8.74461 9.32158 8.7332 9.34653 8.72739 9.37303C8.72159 9.39953 8.72152 9.42697 8.72721 9.45349C8.73289 9.48002 8.74419 9.50502 8.76035 9.52682C8.7765 9.54861 8.79714 9.5667 8.82086 9.57985L9.15086 9.75985ZM10.4409 10.4999C10.4846 10.525 10.5366 10.5318 10.5854 10.5187C10.6341 10.5056 10.6757 10.4736 10.7009 10.4299C10.7261 10.3861 10.7328 10.3341 10.7197 10.2854C10.7066 10.2366 10.6746 10.195 10.6309 10.1699L10.3009 9.99985C10.2679 9.97034 10.2251 9.95402 10.1809 9.95402C10.1366 9.95402 10.0939 9.97034 10.0609 9.99985C10.0463 10.0213 10.0363 10.0455 10.0314 10.0709C10.0266 10.0963 10.027 10.1225 10.0326 10.1478C10.0382 10.1731 10.0489 10.197 10.0641 10.218C10.0793 10.2389 10.0986 10.2566 10.1209 10.2699L10.4409 10.4999ZM11.7309 11.2299C11.7713 11.254 11.8193 11.2622 11.8655 11.253C11.9117 11.2438 11.9528 11.2177 11.9809 11.1799C11.9954 11.1584 12.0054 11.1342 12.0103 11.1088C12.0152 11.0834 12.0148 11.0572 12.0092 11.0319C12.0035 11.0066 11.9928 10.9827 11.9776 10.9618C11.9624 10.9408 11.9431 10.9231 11.9209 10.9099L11.6009 10.7299C11.5662 10.6996 11.5218 10.6829 11.4759 10.6829C11.4299 10.6829 11.3855 10.6996 11.3509 10.7299C11.3363 10.7513 11.3263 10.7755 11.3214 10.8009C11.3166 10.8263 11.317 10.8525 11.3226 10.8778C11.3282 10.9031 11.3389 10.927 11.3541 10.948C11.3693 10.9689 11.3886 10.9866 11.4109 10.9999L11.7309 11.2299ZM13.0009 11.9999C13.0403 12.0212 13.0861 12.0279 13.13 12.0187C13.1739 12.0096 13.2132 11.9852 13.2409 11.9499C13.2554 11.9284 13.2654 11.9042 13.2703 11.8788C13.2752 11.8534 13.2748 11.8272 13.2692 11.8019C13.2635 11.7766 13.2528 11.7527 13.2376 11.7318C13.2224 11.7108 13.2031 11.6931 13.1809 11.6799L12.8609 11.4899C12.8171 11.4647 12.7651 11.4579 12.7164 11.471C12.6676 11.4841 12.6261 11.5161 12.6009 11.5599C12.5757 11.6036 12.5689 11.6556 12.582 11.7044C12.5951 11.7531 12.6271 11.7947 12.6709 11.8199L13.0009 11.9999ZM14.2009 12.6899C14.2407 12.7093 14.286 12.715 14.3294 12.7059C14.3729 12.6969 14.4121 12.6736 14.4409 12.6399C14.4575 12.6188 14.4695 12.5944 14.4761 12.5683C14.4827 12.5422 14.4836 12.5151 14.4789 12.4886C14.4741 12.4621 14.4639 12.437 14.4487 12.4148C14.4335 12.3926 14.4138 12.3739 14.3909 12.3599L14.1509 12.2299C14.1119 12.2063 14.0656 12.1984 14.021 12.2077C13.9765 12.217 13.9372 12.2427 13.9109 12.2799C13.8947 12.3007 13.8834 12.3249 13.8777 12.3507C13.8719 12.3764 13.8719 12.4031 13.8776 12.4289C13.8833 12.4547 13.8947 12.4789 13.9108 12.4998C13.9269 12.5207 13.9474 12.5378 13.9709 12.5499L14.2009 12.6899ZM7.72086 8.51985C7.68194 8.49633 7.63556 8.4884 7.59104 8.49768C7.54651 8.50696 7.50715 8.53274 7.48086 8.56985C7.46171 8.58674 7.44637 8.60752 7.43586 8.63079C7.42536 8.65407 7.41992 8.67932 7.41992 8.70485C7.41992 8.73039 7.42536 8.75564 7.43586 8.77891C7.44637 8.80219 7.46171 8.82296 7.48086 8.83985L7.86086 8.99985C7.89386 9.02937 7.93659 9.04569 7.98086 9.04569C8.02514 9.04569 8.06786 9.02937 8.10086 8.99985C8.12008 8.97516 8.1329 8.94611 8.13818 8.91527C8.14347 8.88443 8.14106 8.85277 8.13116 8.82309C8.12127 8.79341 8.1042 8.76663 8.08147 8.74513C8.05874 8.72363 8.03105 8.70808 8.00086 8.69985L7.72086 8.51985Z" fill="#871F14"/>
<path d="M2.64037 11.74C2.67675 11.7125 2.70205 11.6729 2.71166 11.6284C2.72127 11.5838 2.71456 11.5373 2.69273 11.4973C2.67091 11.4573 2.63544 11.4265 2.59279 11.4104C2.55014 11.3944 2.50314 11.3942 2.46037 11.41L2.13037 11.6C2.08794 11.6225 2.0562 11.661 2.04213 11.7069C2.02807 11.7529 2.03283 11.8025 2.05537 11.845C2.07792 11.8874 2.11639 11.9191 2.16234 11.9332C2.20829 11.9473 2.25794 11.9425 2.30037 11.92L2.64037 11.74ZM3.93037 11C3.96675 10.9725 3.99205 10.9329 4.00166 10.8884C4.01127 10.8438 4.00455 10.7973 3.98273 10.7573C3.96091 10.7173 3.92544 10.6865 3.88279 10.6704C3.84014 10.6544 3.79314 10.6542 3.75037 10.67L3.42037 10.86C3.384 10.8874 3.3587 10.927 3.34909 10.9716C3.33948 11.0161 3.34619 11.0626 3.36801 11.1026C3.38983 11.1426 3.4253 11.1734 3.46796 11.1895C3.51061 11.2055 3.55761 11.2057 3.60037 11.19L3.93037 11ZM5.22037 10.26C5.25376 10.2323 5.27671 10.1941 5.2854 10.1517C5.2941 10.1092 5.28801 10.0651 5.26817 10.0266C5.24832 9.98803 5.21591 9.95745 5.17629 9.93988C5.13668 9.92231 5.09225 9.91881 5.05037 9.92996L4.71037 10.12C4.674 10.1474 4.6487 10.187 4.63909 10.2316C4.62948 10.2761 4.63619 10.3226 4.65801 10.3626C4.67983 10.4026 4.7153 10.4334 4.75796 10.4495C4.80061 10.4655 4.84761 10.4657 4.89037 10.45L5.22037 10.26ZM6.51037 9.52996C6.54376 9.50234 6.56671 9.46413 6.5754 9.42168C6.5841 9.37922 6.57801 9.33507 6.55817 9.29655C6.53832 9.25803 6.50591 9.22745 6.46629 9.20988C6.42668 9.19231 6.38225 9.18881 6.34037 9.19996L6.00037 9.38996C5.95794 9.4125 5.9262 9.45098 5.91213 9.49693C5.89807 9.54287 5.90283 9.59253 5.92537 9.63496C5.94792 9.6774 5.98639 9.70914 6.03234 9.7232C6.07829 9.73727 6.12794 9.7325 6.17037 9.70996L6.51037 9.52996ZM7.72037 8.83996C7.75675 8.81251 7.78205 8.77291 7.79166 8.72837C7.80127 8.68383 7.79456 8.63731 7.77274 8.59731C7.75092 8.55731 7.71544 8.52648 7.67279 8.51044C7.63014 8.49441 7.58314 8.49424 7.54037 8.50996L7.30037 8.64996C7.25396 8.6725 7.2184 8.71256 7.20153 8.76132C7.18465 8.81008 7.18783 8.86355 7.21037 8.90996C7.23292 8.95637 7.27298 8.99193 7.32173 9.00881C7.37049 9.02569 7.42396 9.0225 7.47037 8.99996L7.72037 8.83996ZM0.840374 12.33C0.806984 12.3576 0.78404 12.3958 0.775347 12.4382C0.766654 12.4807 0.772734 12.5248 0.792579 12.5634C0.812425 12.6019 0.844843 12.6325 0.884456 12.65C0.92407 12.6676 0.968499 12.6711 1.01037 12.66L1.34037 12.47C1.37376 12.4423 1.39671 12.4041 1.4054 12.3617C1.41409 12.3192 1.40801 12.2751 1.38817 12.2366C1.36832 12.198 1.33591 12.1674 1.29629 12.1499C1.25668 12.1323 1.21225 12.1288 1.17037 12.14L0.840374 12.33Z" fill="#871F14"/>
<path d="M7.81043 14.4199C7.80066 14.3781 7.77707 14.3409 7.74348 14.3143C7.7099 14.2877 7.66829 14.2732 7.62543 14.2732C7.58257 14.2732 7.54096 14.2877 7.50738 14.3143C7.47379 14.3409 7.4502 14.3781 7.44043 14.4199V14.8199C7.4502 14.8616 7.47379 14.8988 7.50738 14.9254C7.54096 14.9521 7.58257 14.9666 7.62543 14.9666C7.66829 14.9666 7.7099 14.9521 7.74348 14.9254C7.77707 14.8988 7.80066 14.8616 7.81043 14.8199V14.4299V14.4199ZM7.81043 12.9199C7.80066 12.8781 7.77707 12.8409 7.74348 12.8143C7.7099 12.7877 7.66829 12.7732 7.62543 12.7732C7.58257 12.7732 7.54096 12.7877 7.50738 12.8143C7.47379 12.8409 7.4502 12.8781 7.44043 12.9199V13.3199C7.4502 13.3616 7.47379 13.3988 7.50738 13.4254C7.54096 13.4521 7.58257 13.4666 7.62543 13.4666C7.66829 13.4666 7.7099 13.4521 7.74348 13.4254C7.77707 13.3988 7.80066 13.3616 7.81043 13.3199V12.9199ZM7.81043 11.4299C7.80066 11.3881 7.77707 11.3509 7.74348 11.3243C7.7099 11.2977 7.66829 11.2832 7.62543 11.2832C7.58257 11.2832 7.54096 11.2977 7.50738 11.3243C7.47379 11.3509 7.4502 11.3881 7.44043 11.4299V11.8299C7.4502 11.8716 7.47379 11.9088 7.50738 11.9354C7.54096 11.9621 7.58257 11.9766 7.62543 11.9766C7.66829 11.9766 7.7099 11.9621 7.74348 11.9354C7.77707 11.9088 7.80066 11.8716 7.81043 11.8299V11.4299ZM7.81043 9.93986C7.80066 9.89813 7.77707 9.86092 7.74348 9.83429C7.7099 9.80766 7.66829 9.79316 7.62543 9.79316C7.58257 9.79316 7.54096 9.80766 7.50738 9.83429C7.47379 9.86092 7.4502 9.89813 7.44043 9.93986V10.3399C7.4502 10.3816 7.47379 10.4188 7.50738 10.4454C7.54096 10.4721 7.58257 10.4866 7.62543 10.4866C7.66829 10.4866 7.7099 10.4721 7.74348 10.4454C7.77707 10.4188 7.80066 10.3816 7.81043 10.3399V9.93986ZM7.81043 8.44986C7.80066 8.40813 7.77707 8.37092 7.74348 8.34429C7.7099 8.31766 7.66829 8.30316 7.62543 8.30316C7.58257 8.30316 7.54096 8.31766 7.50738 8.34429C7.47379 8.37092 7.4502 8.40813 7.44043 8.44986V8.83986C7.4502 8.8816 7.47379 8.9188 7.50738 8.94544C7.54096 8.97207 7.58257 8.98656 7.62543 8.98656C7.66829 8.98656 7.7099 8.97207 7.74348 8.94544C7.77707 8.9188 7.80066 8.8816 7.81043 8.83986V8.43986V8.44986ZM7.81043 6.99986C7.80066 6.95813 7.77707 6.92092 7.74348 6.89429C7.7099 6.86766 7.66829 6.85316 7.62543 6.85316C7.58257 6.85316 7.54096 6.86766 7.50738 6.89429C7.47379 6.92092 7.4502 6.95813 7.44043 6.99986V7.38986C7.4502 7.4316 7.47379 7.4688 7.50738 7.49544C7.54096 7.52207 7.58257 7.53656 7.62543 7.53656C7.66829 7.53656 7.7099 7.52207 7.74348 7.49544C7.77707 7.4688 7.80066 7.4316 7.81043 7.38986V6.99986ZM7.81043 5.50986C7.80066 5.46813 7.77707 5.43092 7.74348 5.40429C7.7099 5.37766 7.66829 5.36316 7.62543 5.36316C7.58257 5.36316 7.54096 5.37766 7.50738 5.40429C7.47379 5.43092 7.4502 5.46813 7.44043 5.50986V5.89986C7.4502 5.9416 7.47379 5.9788 7.50738 6.00544C7.54096 6.03207 7.58257 6.04656 7.62543 6.04656C7.66829 6.04656 7.7099 6.03207 7.74348 6.00544C7.77707 5.9788 7.80066 5.9416 7.81043 5.89986V5.49986V5.50986ZM7.81043 3.99986C7.80066 3.95813 7.77707 3.92092 7.74348 3.89429C7.7099 3.86766 7.66829 3.85316 7.62543 3.85316C7.58257 3.85316 7.54096 3.86766 7.50738 3.89429C7.47379 3.92092 7.4502 3.95813 7.44043 3.99986V4.38986C7.4502 4.4316 7.47379 4.4688 7.50738 4.49544C7.54096 4.52207 7.58257 4.53656 7.62543 4.53656C7.66829 4.53656 7.7099 4.52207 7.74348 4.49544C7.77707 4.4688 7.80066 4.4316 7.81043 4.38986V3.99986ZM7.81043 2.50986C7.80066 2.46813 7.77707 2.43092 7.74348 2.40429C7.7099 2.37766 7.66829 2.36316 7.62543 2.36316C7.58257 2.36316 7.54096 2.37766 7.50738 2.40429C7.47379 2.43092 7.4502 2.46813 7.44043 2.50986V2.89986C7.4502 2.9416 7.47379 2.9788 7.50738 3.00544C7.54096 3.03207 7.58257 3.04656 7.62543 3.04656C7.66829 3.04656 7.7099 3.03207 7.74348 3.00544C7.77707 2.9788 7.80066 2.9416 7.81043 2.89986V2.48986V2.50986ZM7.81043 1.13986C7.80066 1.09813 7.77707 1.06092 7.74348 1.03429C7.7099 1.00766 7.66829 0.993164 7.62543 0.993164C7.58257 0.993164 7.54096 1.00766 7.50738 1.03429C7.47379 1.06092 7.4502 1.09813 7.44043 1.13986V1.40986C7.4502 1.4516 7.47379 1.4888 7.50738 1.51544C7.54096 1.54207 7.58257 1.55656 7.62543 1.55656C7.66829 1.55656 7.7099 1.54207 7.74348 1.51544C7.77707 1.4888 7.80066 1.4516 7.81043 1.40986V1.11986V1.13986ZM7.44043 16.2799C7.4502 16.3216 7.47379 16.3588 7.50738 16.3854C7.54096 16.4121 7.58257 16.4266 7.62543 16.4266C7.66829 16.4266 7.7099 16.4121 7.74348 16.3854C7.77707 16.3588 7.80066 16.3216 7.81043 16.2799V15.8899C7.80066 15.8481 7.77707 15.8109 7.74348 15.7843C7.7099 15.7577 7.66829 15.7432 7.62543 15.7432C7.58257 15.7432 7.54096 15.7577 7.50738 15.7843C7.47379 15.8109 7.4502 15.8481 7.44043 15.8899V16.2899V16.2799Z" fill="#871F14"/>
<path d="M0.740352 6.53989C0.74009 6.587 0.75734 6.63253 0.788753 6.66764C0.820166 6.70275 0.863502 6.72494 0.910352 6.72989C0.936131 6.73125 0.961917 6.72734 0.986136 6.71841C1.01035 6.70947 1.0325 6.69569 1.05121 6.67791C1.06993 6.66013 1.08483 6.63872 1.09499 6.61499C1.10516 6.59126 1.11039 6.56571 1.11035 6.53989V6.16989C1.11688 6.14202 1.11702 6.11302 1.11076 6.08508C1.10451 6.05714 1.09202 6.03098 1.07423 6.00854C1.05644 5.98611 1.03381 5.96798 1.00803 5.95552C0.982246 5.94306 0.953984 5.93659 0.925352 5.93659C0.896719 5.93659 0.868457 5.94306 0.842677 5.95552C0.816898 5.96798 0.794267 5.98611 0.776477 6.00854C0.758687 6.03098 0.746197 6.05714 0.739942 6.08508C0.733686 6.11302 0.733826 6.14202 0.740352 6.16989V6.53989ZM0.740352 7.99989C0.74028 8.04595 0.757866 8.09028 0.789489 8.12376C0.821112 8.15725 0.864367 8.17734 0.910352 8.17989C0.935614 8.18272 0.961188 8.18016 0.98539 8.17239C1.00959 8.16462 1.03187 8.15181 1.05077 8.1348C1.06966 8.1178 1.08474 8.09698 1.09501 8.07373C1.10528 8.05048 1.11051 8.02531 1.11035 7.99989V7.65989C1.11688 7.63202 1.11702 7.60302 1.11076 7.57508C1.10451 7.54714 1.09202 7.52098 1.07423 7.49854C1.05644 7.47611 1.03381 7.45798 1.00803 7.44552C0.982246 7.43306 0.953984 7.42659 0.925352 7.42659C0.896719 7.42659 0.868457 7.43306 0.842677 7.44552C0.816898 7.45798 0.794267 7.47611 0.776477 7.49854C0.758687 7.52098 0.746197 7.54714 0.739942 7.57508C0.733686 7.60302 0.733826 7.63202 0.740352 7.65989V7.99989ZM0.740352 9.48989C0.742495 9.53526 0.760821 9.57837 0.792007 9.61139C0.823194 9.64441 0.865178 9.66516 0.910352 9.66989C0.935614 9.67272 0.961188 9.67016 0.98539 9.66239C1.00959 9.65462 1.03187 9.64181 1.05077 9.6248C1.06966 9.6078 1.08474 9.58698 1.09501 9.56373C1.10528 9.54048 1.11051 9.51531 1.11035 9.48989V9.13989C1.10058 9.09816 1.07699 9.06095 1.0434 9.03432C1.00982 9.00769 0.968215 8.9932 0.925352 8.9932C0.882488 8.9932 0.840885 9.00769 0.807299 9.03432C0.773714 9.06095 0.75012 9.09816 0.740352 9.13989V9.48989ZM0.740352 10.9999C0.74009 11.047 0.75734 11.0925 0.788753 11.1276C0.820166 11.1627 0.863502 11.1849 0.910352 11.1899C0.936131 11.1913 0.961917 11.1873 0.986136 11.1784C1.01035 11.1695 1.0325 11.1557 1.05121 11.1379C1.06993 11.1201 1.08483 11.0987 1.09499 11.075C1.10516 11.0513 1.11039 11.0257 1.11035 10.9999V10.6299C1.11042 10.5838 1.09284 10.5395 1.06121 10.506C1.02959 10.4725 0.986336 10.4525 0.940352 10.4499C0.915089 10.4471 0.889515 10.4496 0.865313 10.4574C0.841111 10.4652 0.818829 10.478 0.799934 10.495C0.78104 10.512 0.765962 10.5328 0.755692 10.5561C0.745422 10.5793 0.740194 10.6045 0.740352 10.6299V10.9999ZM0.740352 12.3999C0.74028 12.4459 0.757866 12.4903 0.789489 12.5238C0.821112 12.5572 0.864367 12.5773 0.910352 12.5799C0.935614 12.5827 0.961188 12.5802 0.98539 12.5724C1.00959 12.5646 1.03187 12.5518 1.05077 12.5348C1.06966 12.5178 1.08474 12.497 1.09501 12.4737C1.10528 12.4505 1.11051 12.4253 1.11035 12.3999V12.1199C1.11061 12.0728 1.09336 12.0273 1.06195 11.9921C1.03054 11.957 0.987201 11.9349 0.940352 11.9299C0.914572 11.9285 0.888786 11.9324 0.864567 11.9414C0.840348 11.9503 0.818205 11.9641 0.799489 11.9819C0.780773 11.9997 0.765876 12.0211 0.755709 12.0448C0.745541 12.0685 0.740316 12.0941 0.740352 12.1199V12.3999ZM1.11035 4.67989C1.11172 4.65674 1.10833 4.63356 1.1004 4.61176C1.09247 4.58997 1.08016 4.57003 1.06424 4.55317C1.04831 4.53631 1.02911 4.52288 1.0078 4.51372C0.986498 4.50456 0.963543 4.49985 0.940352 4.49989C0.915089 4.49707 0.889515 4.49963 0.865313 4.5074C0.841111 4.51517 0.818829 4.52798 0.799934 4.54499C0.78104 4.56199 0.765962 4.5828 0.755692 4.60606C0.745422 4.62931 0.740194 4.65447 0.740352 4.67989V5.04989C0.74009 5.097 0.75734 5.14253 0.788753 5.17764C0.820166 5.21275 0.863502 5.23494 0.910352 5.23989C0.936131 5.24125 0.961917 5.23734 0.986136 5.22841C1.01035 5.21947 1.0325 5.20569 1.05121 5.18791C1.06993 5.17013 1.08483 5.14872 1.09499 5.12499C1.10516 5.10126 1.11039 5.07571 1.11035 5.04989V4.67989Z" fill="#871F14"/>
<path fill-rule="evenodd" clip-rule="evenodd" d="M0.930195 11.6699C1.07458 11.6699 1.21571 11.7127 1.33576 11.7929C1.45581 11.8732 1.54938 11.9872 1.60463 12.1206C1.65988 12.254 1.67434 12.4007 1.64617 12.5423C1.618 12.6839 1.54848 12.814 1.44638 12.9161C1.34429 13.0182 1.21422 13.0877 1.07261 13.1159C0.931005 13.1441 0.784226 13.1296 0.650836 13.0744C0.517446 13.0191 0.403436 12.9255 0.323223 12.8055C0.243009 12.6854 0.200195 12.5443 0.200195 12.3999C0.200195 12.2063 0.277106 12.0206 0.414007 11.8837C0.550909 11.7468 0.736587 11.6699 0.930195 11.6699Z" fill="#871F14"/>
<path d="M8.09043 17.1099C7.98516 17.1862 7.86507 17.2395 7.73792 17.2665C7.61076 17.2935 7.47936 17.2935 7.3522 17.2666C7.22504 17.2396 7.10493 17.1863 6.99963 17.1101C6.89434 17.0339 6.80618 16.9365 6.74086 16.8241C6.67554 16.7117 6.6345 16.5869 6.6204 16.4577C6.60629 16.3285 6.61943 16.1977 6.65896 16.0739C6.6985 15.9501 6.76355 15.8359 6.84992 15.7388C6.9363 15.6416 7.04207 15.5637 7.16043 15.5099L13.3904 11.8599V6.33993L8.08043 9.33993C7.93905 9.42156 7.77868 9.46453 7.61543 9.46453C7.45218 9.46453 7.29181 9.42156 7.15043 9.33993L0.470429 5.54993C0.364258 5.49064 0.270896 5.41088 0.195742 5.31528C0.120589 5.21967 0.0651345 5.11012 0.032587 4.99295C3.95589e-05 4.87577 -0.00895538 4.75331 0.00612238 4.63264C0.0212001 4.51198 0.0600514 4.39549 0.120429 4.28993C0.202815 4.13744 0.327935 4.01232 0.480429 3.92993L7.17043 0.119933C7.27614 0.0601819 7.39259 0.0218374 7.51312 0.00708934C7.63366 -0.00765877 7.75591 0.00147827 7.87292 0.0339788C7.98992 0.0664793 8.09937 0.121707 8.19503 0.196508C8.29069 0.271309 8.37068 0.364219 8.43043 0.469933C8.49018 0.575647 8.52852 0.692095 8.54327 0.812628C8.55802 0.933161 8.54888 1.05542 8.51638 1.17242C8.48388 1.28942 8.42866 1.39888 8.35385 1.49454C8.27905 1.59019 8.18614 1.67018 8.08043 1.72993L2.80043 4.72993L7.63043 7.48993L13.8004 3.99993C13.9542 3.89651 14.1351 3.84084 14.3204 3.83993C14.4426 3.83993 14.5635 3.86399 14.6763 3.91073C14.7892 3.95746 14.8917 4.02597 14.978 4.11232C15.0644 4.19868 15.1329 4.3012 15.1796 4.41404C15.2264 4.52687 15.2504 4.6478 15.2504 4.76993V12.3999C15.252 12.5622 15.2102 12.7219 15.1294 12.8626C15.0485 13.0032 14.9315 13.1197 14.7904 13.1999L8.09043 17.1099Z" fill="#871F14"/>
</g>

</symbol><symbol id="icon-phone" viewBox="0 0 16 16">
<path fill-rule="evenodd" clip-rule="evenodd" d="M8.43742e-05 3.98179C0.0602444 9.64385 6.33993 16.0484 12.0039 15.9997C13.9092 15.9831 16.5857 13.9176 15.8862 12.5428C15.2993 11.3877 12.4942 10.3364 10.3086 10.8066L9.04073 11.9854C6.53065 12.1091 3.88617 9.46959 3.97193 6.91404L5.21609 5.70834C5.83497 3.21942 4.28425 0.655538 3.29353 0.0802354C2.24777 -0.527741 -0.0159156 2.4705 8.43742e-05 3.98179Z" fill="white"/>
</symbol><symbol id="icon-reports" viewBox="0 0 100 100">
<g clip-path="url(#clip0_345_5427)">
<path fill-rule="evenodd" clip-rule="evenodd" d="M16.3532 18.1793C16.3532 18.7184 16.1934 19.2454 15.8939 19.6936C15.5944 20.1418 15.1687 20.4911 14.6707 20.6974C14.1727 20.9037 13.6247 20.9577 13.096 20.8525C12.5673 20.7473 12.0816 20.4878 11.7004 20.1066C11.3193 19.7254 11.0597 19.2398 10.9545 18.7111C10.8494 18.1824 10.9033 17.6344 11.1096 17.1363C11.3159 16.6383 11.6653 16.2126 12.1135 15.9131C12.5617 15.6137 13.0886 15.4538 13.6277 15.4538C14.3506 15.4538 15.0438 15.741 15.5549 16.2521C16.0661 16.7632 16.3532 17.4565 16.3532 18.1793ZM62.8509 20.9049H35.1049C34.4254 20.8435 33.7936 20.5294 33.3344 20.0248C32.8752 19.5202 32.6219 18.8616 32.6247 18.1793C32.6219 17.497 32.8752 16.8385 33.3344 16.3339C33.7936 15.8292 34.4254 15.5152 35.1049 15.4538H62.9872C63.7101 15.4538 64.4033 15.741 64.9144 16.2521C65.4256 16.7632 65.7127 17.4565 65.7127 18.1793C65.7127 18.9022 65.4256 19.5955 64.9144 20.1066C64.4033 20.6177 63.7101 20.9049 62.9872 20.9049H62.8509ZM8.01308 36.3314C7.32379 36.3798 6.6786 36.6882 6.20803 37.1942C5.73746 37.7001 5.47664 38.366 5.47833 39.057V59.0079C5.47833 59.7308 5.76549 60.424 6.27662 60.9352C6.78776 61.4463 7.48101 61.7334 8.20387 61.7334H54.0202V67.1845H8.17662C6.00804 67.1845 3.92829 66.3231 2.39488 64.7896C0.861462 63.2562 0 61.1765 0 59.0079L0 39.057C0.00454506 37.0435 0.751821 35.1025 2.09866 33.6059C0.751821 32.1092 0.00454506 30.1683 0 28.1548L0 8.17662C0 6.00804 0.861462 3.92829 2.39488 2.39488C3.92829 0.861462 6.00804 0 8.17662 0L68.3565 0C70.5251 0 72.6048 0.861462 74.1382 2.39488C75.6717 3.92829 76.5331 6.00804 76.5331 8.17662V28.1003C76.5286 30.1137 75.7813 32.0547 74.4345 33.5514C75.7813 35.048 76.5286 36.989 76.5331 39.0025V39.1387H71.082V39.0025C71.0829 38.3026 70.8145 37.6292 70.3325 37.1218C69.8505 36.6144 69.1918 36.3119 68.4928 36.2769H8.01308V36.3314ZM25.2657 18.1793C25.2657 18.7184 25.1059 19.2454 24.8064 19.6936C24.5069 20.1418 24.0812 20.4911 23.5832 20.6974C23.0852 20.9037 22.5372 20.9577 22.0085 20.8525C21.4798 20.7473 20.9941 20.4878 20.613 20.1066C20.2318 19.7254 19.9722 19.2398 19.867 18.7111C19.7619 18.1824 19.8158 17.6344 20.0221 17.1363C20.2284 16.6383 20.5778 16.2126 21.026 15.9131C21.4742 15.6137 22.0011 15.4538 22.5402 15.4538C23.2631 15.4538 23.9563 15.741 24.4675 16.2521C24.9786 16.7632 25.2657 17.4565 25.2657 18.1793ZM16.3532 49.0597C16.3532 49.5988 16.1934 50.1257 15.8939 50.5739C15.5944 51.0221 15.1687 51.3715 14.6707 51.5778C14.1727 51.7841 13.6247 51.838 13.096 51.7329C12.5673 51.6277 12.0816 51.3681 11.7004 50.9869C11.3193 50.6058 11.0597 50.1201 10.9545 49.5914C10.8494 49.0627 10.9033 48.5147 11.1096 48.0167C11.3159 47.5186 11.6653 47.093 12.1135 46.7935C12.5617 46.494 13.0886 46.3342 13.6277 46.3342C14.3506 46.3342 15.0438 46.6213 15.5549 47.1324C16.0661 47.6436 16.3532 48.3368 16.3532 49.0597ZM53.9657 51.7852H35.1049C34.3821 51.7852 33.6888 51.4981 33.1777 50.9869C32.6666 50.4758 32.3794 49.7826 32.3794 49.0597C32.3794 48.3368 32.6666 47.6436 33.1777 47.1324C33.6888 46.6213 34.3821 46.3342 35.1049 46.3342H54.0202L53.9657 51.7852ZM25.2657 49.0597C25.2657 49.5988 25.1059 50.1257 24.8064 50.5739C24.5069 51.0221 24.0812 51.3715 23.5832 51.5778C23.0852 51.7841 22.5372 51.838 22.0085 51.7329C21.4798 51.6277 20.9941 51.3681 20.613 50.9869C20.2318 50.6058 19.9722 50.1201 19.867 49.5914C19.7619 49.0627 19.8158 48.5147 20.0221 48.0167C20.2284 47.5186 20.5778 47.093 21.026 46.7935C21.4742 46.494 22.0011 46.3342 22.5402 46.3342C23.2631 46.3342 23.9563 46.6213 24.4675 47.1324C24.9786 47.6436 25.2657 48.3368 25.2657 49.0597ZM100 99.6457H59.2532V43.7721H88.5255L100 55.0831V99.6457ZM88.7435 91.4691H67.8932V65.7127H70.864V76.0425H74.0529L78.8771 71.0275H83.456L87.0537 67.2935H91.251L84.7097 74.0801H80.1308L75.2794 79.0406H70.864V88.3075H73.7531V83.6195H76.7239V88.3075H79.831V79.504H82.8019V88.3075H85.7727V76.7512H88.7435V88.2802V91.4691ZM64.2137 94.658H94.9032V59.6075H84.7915V48.8689H64.35L64.2137 94.658ZM8.17662 5.45108C7.45376 5.45108 6.76051 5.73823 6.24937 6.24937C5.73823 6.76051 5.45108 7.45376 5.45108 8.17662V28.1003C5.44982 28.7957 5.71442 29.4653 6.19071 29.972C6.66699 30.4786 7.31894 30.7841 8.01308 30.8258H68.52C69.219 30.7908 69.8778 30.4883 70.3598 29.9809C70.8418 29.4735 71.1102 28.8002 71.1093 28.1003V8.17662C71.1093 7.45376 70.8221 6.76051 70.311 6.24937C69.7999 5.73823 69.1066 5.45108 68.3838 5.45108H8.17662Z"/>
</g>

</symbol><symbol id="icon-server" viewBox="0 0 100 100">
<path fill-rule="evenodd" clip-rule="evenodd" d="M21.3599 29.7451C21.3599 30.4492 21.1511 31.1375 20.7599 31.7229C20.3688 32.3084 19.8128 32.7647 19.1623 33.0341C18.5118 33.3036 17.796 33.3741 17.1054 33.2367C16.4148 33.0993 15.7805 32.7603 15.2826 32.2624C14.7848 31.7645 14.4457 31.1302 14.3083 30.4396C14.171 29.7491 14.2415 29.0333 14.5109 28.3828C14.7804 27.7323 15.2367 27.1763 15.8221 26.7851C16.4075 26.3939 17.0958 26.1851 17.7999 26.1851C18.7441 26.1851 19.6496 26.5602 20.3172 27.2278C20.9848 27.8954 21.3599 28.8009 21.3599 29.7451ZM82.0933 33.3051H45.8526C44.965 33.2249 44.1398 32.8147 43.54 32.1556C42.9402 31.4964 42.6094 30.6363 42.613 29.7451C42.6094 28.8539 42.9402 27.9938 43.54 27.3346C44.1398 26.6755 44.965 26.2653 45.8526 26.1851H82.2713C83.2154 26.1851 84.1209 26.5602 84.7886 27.2278C85.4562 27.8954 85.8313 28.8009 85.8313 29.7451C85.8313 30.6893 85.4562 31.5948 84.7886 32.2624C84.1209 32.93 83.2154 33.3051 82.2713 33.3051H82.0933ZM89.2132 93.8249H10.68C7.84746 93.8249 5.13097 92.6996 3.12809 90.6968C1.12521 88.6939 0 85.9774 0 83.1449L0 57.0146C0.00593657 54.3847 0.981997 51.8495 2.74119 49.8946C0.981997 47.9398 0.00593657 45.4045 0 42.7747L0 16.68C0 13.8475 1.12521 11.131 3.12809 9.12809C5.13097 7.12521 7.84746 6 10.68 6L89.2844 6C92.1169 6 94.8334 7.12521 96.8363 9.12809C98.8392 11.131 99.9644 13.8475 99.9644 16.68V42.7035C99.9682 45.3286 99.0051 47.8633 97.2588 49.8234C99.0051 51.7836 99.9682 54.3182 99.9644 56.9434V83.0025C99.9785 84.414 99.7127 85.8142 99.1823 87.1223C98.6519 88.4304 97.8675 89.6204 96.8743 90.6235C95.8812 91.6266 94.6991 92.4228 93.3963 92.9662C92.0935 93.5096 90.696 93.7893 89.2844 93.7893L89.2132 93.8249ZM10.68 53.4546C9.77329 53.5091 8.92175 53.9081 8.29965 54.5699C7.67754 55.2317 7.33193 56.1063 7.33357 57.0146V83.0737C7.33357 84.0179 7.70864 84.9234 8.37627 85.591C9.04389 86.2586 9.94939 86.6337 10.8936 86.6337H89.2844C90.2286 86.6337 91.1341 86.2586 91.8017 85.591C92.4694 84.9234 92.8444 84.0179 92.8444 83.0737V57.0146C92.8456 56.1005 92.495 55.2209 91.8654 54.5582C91.2358 53.8955 90.3754 53.5003 89.4624 53.4546H10.68ZM33.0011 29.7451C33.0011 30.4492 32.7923 31.1375 32.4011 31.7229C32.0099 32.3084 31.4539 32.7647 30.8034 33.0341C30.1529 33.3036 29.4371 33.3741 28.7466 33.2367C28.056 33.0993 27.4217 32.7603 26.9238 32.2624C26.4259 31.7645 26.0869 31.1302 25.9495 30.4396C25.8121 29.7491 25.8826 29.0333 26.1521 28.3828C26.4215 27.7323 26.8778 27.1763 27.4633 26.7851C28.0487 26.3939 28.737 26.1851 29.4411 26.1851C30.3852 26.1851 31.2907 26.5602 31.9584 27.2278C32.626 27.8954 33.0011 28.8009 33.0011 29.7451ZM21.3599 70.0797C21.3599 70.7838 21.1511 71.4721 20.7599 72.0576C20.3688 72.643 19.8128 73.0993 19.1623 73.3687C18.5118 73.6382 17.796 73.7087 17.1054 73.5713C16.4148 73.434 15.7805 73.0949 15.2826 72.597C14.7848 72.0992 14.4457 71.4648 14.3083 70.7743C14.171 70.0837 14.2415 69.3679 14.5109 68.7174C14.7804 68.0669 15.2367 67.5109 15.8221 67.1197C16.4075 66.7285 17.0958 66.5198 17.7999 66.5198C18.7441 66.5198 19.6496 66.8948 20.3172 67.5625C20.9848 68.2301 21.3599 69.1356 21.3599 70.0797ZM82.0933 73.6397H45.8526C44.9084 73.6397 44.003 73.2647 43.3353 72.597C42.6677 71.9294 42.2926 71.0239 42.2926 70.0797C42.2926 69.1356 42.6677 68.2301 43.3353 67.5625C44.003 66.8948 44.9084 66.5198 45.8526 66.5198H82.2713C83.2154 66.5198 84.1209 66.8948 84.7886 67.5625C85.4562 68.2301 85.8313 69.1356 85.8313 70.0797C85.8313 71.0239 85.4562 71.9294 84.7886 72.597C84.1209 73.2647 83.2154 73.6397 82.2713 73.6397H82.0933ZM33.0011 70.0797C33.0011 70.7838 32.7923 71.4721 32.4011 72.0576C32.0099 72.643 31.4539 73.0993 30.8034 73.3687C30.1529 73.6382 29.4371 73.7087 28.7466 73.5713C28.056 73.434 27.4217 73.0949 26.9238 72.597C26.4259 72.0992 26.0869 71.4648 25.9495 70.7743C25.8121 70.0837 25.8826 69.3679 26.1521 68.7174C26.4215 68.0669 26.8778 67.5109 27.4633 67.1197C28.0487 66.7285 28.737 66.5198 29.4411 66.5198C30.3852 66.5198 31.2907 66.8948 31.9584 67.5625C32.626 68.2301 33.0011 69.1356 33.0011 70.0797ZM10.68 13.12C9.73579 13.12 8.83029 13.495 8.16267 14.1627C7.49504 14.8303 7.11997 15.7358 7.11997 16.68V42.7035C7.11833 43.6118 7.46394 44.4863 8.08605 45.1481C8.70815 45.81 9.55969 46.2089 10.4664 46.2634H89.4624C90.4066 46.2634 91.3121 45.8884 91.9797 45.2207C92.6474 44.5531 93.0224 43.6476 93.0224 42.7035V16.68C93.0224 15.7358 92.6474 14.8303 91.9797 14.1627C91.3121 13.495 90.4066 13.12 89.4624 13.12H10.68Z"/>
</symbol><symbol id="icon-trends" viewBox="0 0 100 100">
<g clip-path="url(#clip0_345_5439)">
<path fill-rule="evenodd" clip-rule="evenodd" d="M0 0H6.24311V40.5795H19.2261C19.6892 39.2641 20.4412 38.0625 21.4333 37.0665C22.7467 35.748 24.4218 34.8489 26.2464 34.4832C28.0711 34.1174 29.9633 34.3015 31.6833 35.0119C31.841 35.0771 31.9965 35.1463 32.1499 35.2197L41.5029 25.8699C41.4266 25.7104 41.3547 25.5485 41.2873 25.3843C40.577 23.6541 40.3989 21.7515 40.7757 19.9196C41.1525 18.0877 42.0671 16.4098 43.4026 15.1005C44.7381 13.7912 46.4338 12.9099 48.2728 12.5695C50.1118 12.229 52.0106 12.4447 53.7263 13.1892C55.442 13.9336 56.8967 15.1728 57.9044 16.7484C58.9121 18.324 59.4269 20.1643 59.3831 22.034C59.3517 23.3719 59.0358 24.6742 58.4703 25.8602L67.8246 35.2144C68.5245 34.8808 69.2666 34.6334 70.0352 34.4805C71.8589 34.1177 73.7492 34.3039 75.4671 35.0155C75.6265 35.0815 75.7838 35.1518 75.9388 35.2262L89.3141 21.8509H81.2707V15.6078H100V34.3371H93.7569V26.2848L80.3571 39.6584C80.9561 40.9162 81.2707 42.2968 81.2707 43.7012C81.2707 46.1946 80.2802 48.5859 78.5171 50.349C76.754 52.1121 74.3627 53.1026 71.8693 53.1026C70.0099 53.1026 68.1922 52.5512 66.6462 51.5182C65.1001 50.4852 63.8951 49.0169 63.1835 47.299C62.472 45.5811 62.2858 43.6908 62.6486 41.8671C62.8041 41.0849 63.0577 40.3301 63.4003 39.6192L54.0646 30.2835C52.8134 30.8863 51.4326 31.2099 50.0184 31.2151C48.592 31.2203 47.1892 30.9009 45.9137 30.2882L36.5684 39.6302C37.1762 40.8955 37.4955 42.2862 37.4955 43.7012C37.4955 46.1882 36.5101 48.5739 34.7549 50.336C32.9997 52.098 30.6179 53.0928 28.1308 53.1026C26.2699 53.1098 24.4486 52.5646 22.8977 51.536C21.3469 50.5074 20.1361 49.0417 19.4189 47.3244C19.3497 47.1587 19.2854 46.9914 19.226 46.8226H6.24311V93.7561H12.1189V77.4884H24.6786V93.7561H34.4841V60.0803H47.0438V93.7561H56.849V80.9403H69.4087V93.7561H79.2509V68.7108H91.8106V93.7561H99.9999V99.9992L0 100V0ZM28.1308 40.5796C27.5031 40.5723 26.8875 40.7523 26.3625 41.0965C25.8376 41.4408 25.4271 41.9336 25.1835 42.5122C24.9399 43.0908 24.8743 43.7288 24.995 44.3449C25.1157 44.9609 25.4172 45.527 25.8611 45.9709C26.305 46.4148 26.8711 46.7163 27.4871 46.837C28.1032 46.9577 28.7412 46.8921 29.3198 46.6485C29.8984 46.4049 30.3912 45.9944 30.7355 45.4695C31.0797 44.9445 31.2597 44.3289 31.2524 43.7012C31.2429 42.8762 30.9109 42.0878 30.3276 41.5044C29.7442 40.9211 28.9558 40.5891 28.1308 40.5796ZM69.859 41.61C70.3791 41.0305 71.0951 40.6635 71.8693 40.5797C72.3102 40.5319 72.7561 40.5776 73.1782 40.7136C73.6003 40.8496 73.989 41.073 74.319 41.3692C74.649 41.6654 74.9129 42.0278 75.0936 42.4327C75.2743 42.8377 75.3677 43.2762 75.3677 43.7196C75.3677 44.163 75.2743 44.6015 75.0936 45.0065C74.9129 45.4114 74.649 45.7738 74.319 46.07C73.989 46.3662 73.6003 46.5896 73.1782 46.7256C72.7561 46.8616 72.3102 46.9073 71.8693 46.8595C71.0951 46.7757 70.3791 46.4087 69.859 45.8292C69.3388 45.2496 69.0511 44.4983 69.0511 43.7196C69.0511 42.9408 69.3388 42.1896 69.859 41.61ZM50.0184 18.7289C49.401 18.7289 48.7975 18.9119 48.2842 19.2549C47.7709 19.5979 47.3708 20.0855 47.1345 20.6558C46.8982 21.2262 46.8364 21.8539 46.9569 22.4594C47.0773 23.0649 47.3746 23.6211 47.8112 24.0577C48.2477 24.4942 48.8039 24.7915 49.4094 24.912C50.015 25.0324 50.6426 24.9706 51.213 24.7344C51.7834 24.4981 52.2709 24.098 52.6139 23.5847C52.9569 23.0713 53.14 22.4678 53.14 21.8504C53.14 21.0225 52.8111 20.2285 52.2257 19.6431C51.6403 19.0577 50.8463 18.7289 50.0184 18.7289Z" fill="#003968"/>
</g>

</symbol><symbol id="icon-user" viewBox="0 0 28 28">
<path fill-rule="evenodd" clip-rule="evenodd" d="M14.0001 7.75C15.9723 7.75 17.5716 9.34929 17.5716 11.3214C17.5716 13.2936 15.9723 14.8929 14.0001 14.8929C12.028 14.8929 10.4287 13.2936 10.4287 11.3214C10.4287 9.34929 12.028 7.75 14.0001 7.75ZM14.0001 9.25C15.1444 9.25 16.0716 10.1771 16.0716 11.3214C16.0716 12.4657 15.1444 13.3929 14.0001 13.3929C12.8559 13.3929 11.9287 12.4657 11.9287 11.3214C11.9287 10.1771 12.8559 9.25 14.0001 9.25Z" fill="#E3E3E4"/>
<path fill-rule="evenodd" clip-rule="evenodd" d="M14 16.3928C18.8321 16.3928 22.75 19.895 22.75 24.2143L22.7493 24.25H20.6757C20.5721 21.3578 17.3414 18.4643 14.1071 18.4643C10.8736 18.4643 7.71929 21.3585 7.61571 24.25H5.25071L5.25 24.2143C5.25 19.895 9.16786 16.3928 14 16.3928Z" fill="#E3E3E4"/>
<circle cx="14" cy="14" r="13" stroke="#E3E3E4" stroke-width="2"/>
</symbol><symbol id="icon-web-alarms" viewBox="0 0 100 100">
<g clip-path="url(#clip0_345_5447)">
<path fill-rule="evenodd" clip-rule="evenodd" d="M99.9999 53.1014V49.9992C99.9783 40.1149 97.0274 30.4587 91.5202 22.2506C86.013 14.0426 78.1965 7.651 69.0583 3.8834C63.6027 1.63409 57.8221 0.38029 51.9868 0.148206C51.332 0.0499721 50.6694 0 49.9999 0C49.3327 0 48.6724 0.0498802 48.0197 0.147924C45.3966 0.251886 42.7747 0.56274 40.1784 1.08285C30.4866 3.02446 21.5877 7.79511 14.606 14.7921C7.62436 21.789 2.87318 30.6984 0.95278 40.3944C0.528369 42.5373 0.246425 44.6973 0.105591 46.8607H0V53.1016H0.0896729C0.421274 58.6311 1.67117 64.0968 3.81649 69.2681C7.60407 78.398 14.0127 86.2005 22.2328 91.6898C30.4066 97.1481 40.0067 100.076 49.8329 100.108L49.9999 100.109L50.0873 100.109H53.1021L53.1021 93.1387C52.1624 93.5804 51.1397 93.8164 50.1022 93.8314H49.9999L49.8915 93.8312C44.5475 93.7433 38.8492 87.1623 35.1777 76.2861C40.0353 75.3196 45.0065 74.8957 50.0001 75.0363H53.1023V68.7224H50.0001C44.422 68.5888 38.8721 69.0978 33.4562 70.2235C32.2595 65.1337 31.4805 59.3746 31.2877 53.1016L99.9999 53.1014ZM31.2911 46.8607H68.6369C68.4784 41.8221 67.942 37.114 67.1151 32.8181C61.5245 34.0325 55.7776 34.5643 50 34.3802C44.2008 34.5708 38.4321 34.04 32.8206 32.8215C31.9908 37.1145 31.4517 41.8212 31.2911 46.8607ZM34.2703 26.7102C37.8811 14.0218 44.1619 6.24088 49.9999 6.24088L49.9634 6.20438C55.8052 6.20438 62.0745 14.0112 65.6734 26.7146C60.5523 27.816 55.289 28.2888 50 28.1028C44.6921 28.2898 39.4099 27.8155 34.2703 26.7102ZM73.2392 31.1949C74.1977 36.0593 74.7906 41.3235 74.9538 46.8607H93.5005C92.9535 39.2424 90.4249 31.9296 86.2092 25.6331C82.0689 27.9269 77.7224 29.7871 73.2392 31.1949ZM82.3032 20.6269C78.9262 22.4282 75.4053 23.9164 71.7849 25.0798C69.9303 18.4913 67.3494 12.8811 64.2448 8.64819C70.4119 10.8 76.0792 14.3246 80.7856 19.0311C81.306 19.5515 81.812 20.0836 82.3032 20.6269ZM28.2323 25.1002C24.563 23.9274 20.995 22.4224 17.5742 20.5971C18.0466 20.0768 18.5325 19.5668 19.0317 19.0676C23.8 14.2993 29.5546 10.744 35.8161 8.60051C32.6939 12.845 30.0978 18.4812 28.2323 25.1002ZM13.6556 25.5988C17.841 27.9235 22.2376 29.8046 26.7736 31.2229C25.8138 36.0817 25.2178 41.3368 25.0492 46.8607H6.31943C6.874 39.227 9.41816 31.9012 13.6556 25.5988ZM25.0417 53.1016C25.2296 59.7933 26.0448 66.0883 27.3743 71.764C23.1947 73.0167 19.1233 74.6469 15.212 76.6416C10.0187 69.8515 6.91247 61.6682 6.31164 53.1016H25.0417ZM29.059 77.8087C25.7993 78.7864 22.6115 80.0157 19.5251 81.4896C24.1762 85.9961 29.7248 89.3739 35.744 91.4462C33.0903 87.824 30.8198 83.1949 29.059 77.8087Z" fill="#003968"/>
<path d="M76.6424 93.3937C75.4249 93.3863 74.2466 92.9622 73.3037 92.1919C72.3608 91.4216 71.7101 90.3517 71.46 89.1601H61.241L64.8906 81.5688V71.2769C64.8906 68.2085 66.1095 65.2658 68.2792 63.0961C70.4489 60.9264 73.3916 59.7075 76.46 59.7075C79.5283 59.7075 82.4711 60.9264 84.6407 63.0961C86.8104 65.2658 88.0293 68.2085 88.0293 71.2769V81.5688L91.6789 89.1601H81.46C81.2311 90.2958 80.6358 91.325 79.7656 92.0898C78.8953 92.8546 77.7982 93.3126 76.6424 93.3937Z" fill="#003968"/>
</g>

</symbol><symbol id="icon-web-hmi" viewBox="0 0 100 100">
<g clip-path="url(#clip0_345_5443)">
<path fill-rule="evenodd" clip-rule="evenodd" d="M97.0942 50.5464V53.5584L30.3785 53.5586C30.5658 59.6493 31.3221 65.2411 32.4841 70.183C37.7426 69.09 43.1312 68.5958 48.5472 68.7255H51.5593V74.8559H48.5472C43.6988 74.7194 38.872 75.131 34.1555 76.0694C37.7204 86.6296 43.2531 93.0193 48.4418 93.1047L48.547 93.1049H48.6464C49.6537 93.0903 50.6467 92.8612 51.5591 92.4323L51.5591 99.1998H48.6319L48.547 99.2006L48.3848 99.1996C38.8442 99.1677 29.523 96.3252 21.5868 91.0255C13.6056 85.6958 7.38312 78.12 3.7056 69.2554C1.62261 64.2343 0.409033 58.9274 0.0870673 53.5586H0V47.4991H0.102522C0.239265 45.3985 0.513016 43.3012 0.925094 41.2207C2.7897 31.8064 7.40282 23.1559 14.1816 16.3623C20.9604 9.56861 29.6008 4.93658 39.011 3.05139C41.5317 2.54639 44.0775 2.24457 46.6244 2.14363C47.2581 2.04843 47.8992 2 48.547 2C49.1971 2 49.8404 2.04852 50.4762 2.1439C56.142 2.36924 61.7546 3.58661 67.0517 5.77056C75.9243 9.42868 83.5137 15.6345 88.8609 23.6041C94.2081 31.5736 97.0732 40.9492 97.0942 50.5464ZM66.6425 47.4991H30.3819C30.5378 42.606 31.0612 38.036 31.8669 33.8678C37.3153 35.0509 42.9165 35.5662 48.5471 35.3812C54.1569 35.56 59.7367 35.0436 65.1649 33.8645C65.9678 38.0355 66.4886 42.6069 66.6425 47.4991ZM48.547 8.05953C42.8787 8.05953 36.7804 15.6143 33.2745 27.9341C38.2648 29.0073 43.3934 29.4678 48.5471 29.2862C53.6825 29.4668 58.7928 29.0077 63.7651 27.9383C60.2708 15.6041 54.1836 8.0241 48.5116 8.0241L48.547 8.05953ZM72.7759 47.4991C72.6174 42.1227 72.0417 37.0116 71.1111 32.2885C75.464 30.9215 79.6842 29.1155 83.7042 26.8883C87.7974 33.0018 90.2525 40.1021 90.7837 47.4991H72.7759ZM69.699 26.351C73.2142 25.2214 76.6328 23.7765 79.9117 22.0275C79.4347 21.5 78.9435 20.9834 78.4382 20.4781C73.8685 15.9084 68.3659 12.4862 62.378 10.3969C65.3924 14.5068 67.8983 19.954 69.699 26.351ZM17.0635 21.9986C20.3849 23.7709 23.8493 25.2322 27.412 26.3709C29.2233 19.9441 31.7439 14.4717 34.7753 10.3506C28.6959 12.4318 23.1085 15.8838 18.4787 20.5135C17.994 20.9982 17.5222 21.4934 17.0635 21.9986ZM25.9956 32.3157C21.5914 30.9385 17.3225 29.1121 13.2588 26.855C9.14449 32.9742 6.67426 40.0871 6.1358 47.4991H24.3214C24.485 42.1357 25.0637 37.0332 25.9956 32.3157ZM26.5789 71.6787C25.288 66.168 24.4965 60.0558 24.3141 53.5586H6.12824C6.71161 61.8763 9.72756 69.8218 14.77 76.4146C18.5677 74.4778 22.5207 72.895 26.5789 71.6787ZM18.9577 81.1217C21.9545 79.6907 25.0497 78.4971 28.2146 77.5478C29.9243 82.7775 32.1288 87.272 34.7054 90.789C28.8611 88.777 23.4737 85.4973 18.9577 81.1217Z" fill="#003968"/>
<path d="M73.2814 67.4508V81.1999H71.1198V75.0695H68.2141V81.1999H66.0525V67.4508H68.2141V73.1914H71.1198V67.4508H73.2814Z" fill="#003968"/>
<path d="M86.6406 67.4508V81.1999H84.5145V72.4473L82.1048 81.1999H81.3252L78.951 72.4473V81.1999H76.7895V67.4508H79.5889L81.715 75.1404L83.9121 67.4508H86.6406Z" fill="#003968"/>
<path d="M89.7946 67.4508H91.9207V81.1999H89.7946V67.4508Z" fill="#003968"/>
<path fill-rule="evenodd" clip-rule="evenodd" d="M73.1751 91.0141H62.0483C61.5317 91.0094 61.0211 90.9031 60.5457 90.7011C60.0702 90.4992 59.6392 90.2055 59.2773 89.837C58.9153 89.4684 58.6295 89.0322 58.4361 88.5532C58.2428 88.0742 58.1456 87.5618 58.1503 87.0452V63.5513C58.1503 62.5142 58.5598 61.519 59.2898 60.7824C60.0198 60.0458 61.0112 59.6272 62.0483 59.6179H96.0667C97.1099 59.6179 98.1104 60.0323 98.848 60.7699C99.5857 61.5076 100 62.5081 100 63.5513V87.0452C100.005 87.5648 99.9065 88.0801 99.7109 88.5614C99.5153 89.0427 99.2263 89.4805 98.8606 89.8495C98.4949 90.2185 98.0597 90.5114 97.5802 90.7113C97.1006 90.9112 96.5862 91.0141 96.0667 91.0141H84.9751V95.7632H89.5464V97.7121H68.6038V95.7632H73.1751V91.0141ZM96.0667 89.7029C96.7622 89.7029 97.4291 89.4267 97.9209 88.9349C98.4127 88.4431 98.6889 87.7761 98.6889 87.0807V86.0539H59.426V87.0452C59.426 87.7407 59.7023 88.4077 60.194 88.8995C60.6858 89.3912 61.3528 89.6675 62.0483 89.6675L96.0667 89.7029ZM59.426 84.6365H98.6889V63.5513C98.689 62.8525 98.4139 62.1818 97.9231 61.6844C97.4323 61.187 96.7654 60.9029 96.0667 60.8936H62.0483C61.3496 60.9029 60.6826 61.187 60.1919 61.6844C59.7011 62.1818 59.4259 62.8525 59.426 63.5513V84.6365ZM74.4863 95.7632H83.664V91.0141H74.4863V95.7632Z" fill="#003968"/>
</g>

</symbol><symbol id="icon-web-trends" viewBox="0 0 100 100">
<g clip-path="url(#clip0_345_5445)">
<path fill-rule="evenodd" clip-rule="evenodd" d="M100 50V53.1022L31.2877 53.1016C31.4805 59.3746 32.2595 65.1337 33.4562 70.2235C38.8721 69.0978 44.422 68.5888 50.0001 68.7224V74.9998C45.0036 74.8639 40.03 75.2931 35.1707 76.2653C38.8668 87.2275 44.6214 93.8321 50 93.8321V100C40.111 100 30.444 97.0676 22.2215 91.5735C13.9991 86.0794 7.59043 78.2705 3.80605 69.1342C1.68109 64.0041 0.437127 58.5849 0.0963106 53.1016H0V46.8607H0.0986329C0.237874 44.6474 0.524767 42.4374 0.960758 40.2455C2.89002 30.5465 7.65206 21.6373 14.6447 14.6447C21.6373 7.65206 30.5465 2.89002 40.2455 0.960758C43.4734 0.318698 46.7404 -1.6469e-05 49.9999 6.3731e-10C56.5345 3.30227e-05 63.0385 1.28111 69.1342 3.80605C78.2705 7.59043 86.0794 13.9991 91.5735 22.2215C97.0676 30.444 100 40.111 100 50ZM49.9812 6.2409C44.1485 6.25752 37.8773 14.0353 34.2703 26.7102C39.4099 27.8155 44.6921 28.2898 50 28.1028C55.289 28.2888 60.5522 27.816 65.6734 26.7146C62.0939 14.0798 55.8728 6.28882 50.0581 6.20506L49.9637 6.20465L50 6.2409L49.9812 6.2409ZM64.2455 8.64916C67.3498 12.8819 69.9304 18.4918 71.7849 25.0798C75.4052 23.9164 78.9259 22.4283 82.3028 20.6271C81.8117 20.084 81.3059 19.5521 80.7857 19.0318C76.0794 14.3256 70.4123 10.801 64.2455 8.64916ZM67.115 32.8181C67.942 37.114 68.4784 41.8221 68.6369 46.8607H31.2911C31.4517 41.8212 31.9908 37.1145 32.8206 32.8215C38.4321 34.04 44.2008 34.5708 50 34.3802C55.7776 34.5643 61.5245 34.0325 67.115 32.8181ZM26.7562 31.2175C25.8003 36.0756 25.2089 41.332 25.046 46.8607H6.3196C6.87431 39.227 9.41856 31.9014 13.6561 25.5991C17.8359 27.9207 22.2265 29.7998 26.7562 31.2175ZM25.0449 53.1016H6.3117C6.91238 61.6682 10.0185 69.8516 15.2117 76.6418C19.1306 74.6431 23.2102 73.0105 27.3983 71.7568C26.0619 66.0854 25.2397 59.7927 25.0449 53.1016ZM74.9538 46.8607H93.5006C92.9534 39.2424 90.4247 31.9297 86.2089 25.6333C82.0687 27.927 77.7223 29.7871 73.2392 31.1949C74.1977 36.0593 74.7906 41.3235 74.9538 46.8607ZM28.2111 25.0934C30.0711 18.481 32.6624 12.8533 35.7805 8.61352C29.5329 10.7583 23.7911 14.3091 19.0318 19.0683C18.5328 19.5674 18.047 20.0773 17.5747 20.5974C20.9888 22.4191 24.5494 23.9217 28.2111 25.0934ZM29.087 77.7845C25.816 78.7676 22.6175 80.0041 19.5215 81.4867C24.2014 86.0222 29.7901 89.4147 35.8527 91.4842C33.1664 87.8595 30.8679 83.2076 29.087 77.7845Z" fill="#003968"/>
<path fill-rule="evenodd" clip-rule="evenodd" d="M62.7371 62.4091H58.0656V99.7438H96.5328V95.0723H93.6132V87.2259H89.0512V95.0723H85.5109V91.6793H80.9489V95.0723H77.4451V84.1234H72.8831V95.0723H69.3431V90.4015H64.781V95.0723H62.7371V79.3435H67.3839C67.4038 79.3996 67.4252 79.4553 67.448 79.5106C67.7049 80.1308 68.14 80.6609 68.6982 81.0338C69.2563 81.4068 69.9125 81.6058 70.5838 81.6058C71.484 81.6058 72.3474 81.2482 72.9839 80.6117C73.6204 79.9752 73.978 79.1119 73.978 78.2117C73.978 77.6986 73.8617 77.1943 73.6404 76.7358L77.0174 73.3612C77.4688 73.5745 77.9638 73.6864 78.4672 73.6864C78.9789 73.6864 79.4787 73.5709 79.9317 73.3542L83.2952 76.7177L83.3847 76.6282C83.2327 76.9164 83.1221 77.2265 83.0579 77.5495C82.9269 78.2079 82.9941 78.8904 83.251 79.5106C83.5079 80.1308 83.943 80.6609 84.5011 81.0338C85.0593 81.4068 85.7155 81.6058 86.3868 81.6058C87.287 81.6058 88.1503 81.2482 88.7869 80.6117C89.4234 79.9752 89.781 79.1119 89.781 78.2117C89.781 77.7034 89.6668 77.2037 89.4495 76.7487L89.4526 76.7518L94.3065 71.8979V74.818H96.5693V68.0297H89.7809V70.2925H92.7002L87.8467 75.1459L87.8498 75.149C87.7959 75.1232 87.7412 75.0988 87.6857 75.0759C87.0655 74.819 86.3831 74.7518 85.7247 74.8827C85.4016 74.947 85.0915 75.0575 84.8033 75.2095L84.8952 75.1176L81.5308 71.7532C81.7464 71.3012 81.8613 70.8026 81.8613 70.2923C81.8613 69.621 81.6623 68.9647 81.2893 68.4066C80.9164 67.8484 80.3863 67.4134 79.7661 67.1565C79.1459 66.8996 78.4634 66.8324 77.805 66.9633C77.1466 67.0943 76.5418 67.4175 76.0671 67.8922C75.5925 68.3669 75.2692 68.9717 75.1382 69.6301C75.0073 70.2885 75.0745 70.9709 75.3314 71.5911C75.3562 71.6509 75.3826 71.7099 75.4106 71.7679L72.0335 75.1427C71.9839 75.1192 71.9336 75.097 71.8827 75.0759C71.2625 74.819 70.5801 74.7518 69.9217 74.8827C69.2633 75.0137 68.6585 75.337 68.1838 75.8116C67.8243 76.1711 67.5517 76.6052 67.3836 77.0807H62.7371V62.4091ZM69.9553 77.271C70.1413 77.1466 70.3601 77.0803 70.5838 77.0803C70.8839 77.0803 71.1717 77.1995 71.3839 77.4117C71.596 77.6238 71.7152 77.9116 71.7152 78.2117C71.7152 78.4354 71.6489 78.6542 71.5246 78.8402C71.4002 79.0263 71.2235 79.1713 71.0168 79.2569C70.8101 79.3426 70.5826 79.365 70.3631 79.3213C70.1437 79.2777 69.9421 79.1699 69.7838 79.0117C69.6256 78.8535 69.5179 78.6519 69.4742 78.4324C69.4305 78.2129 69.4529 77.9855 69.5386 77.7787C69.6242 77.572 69.7692 77.3953 69.9553 77.271ZM86.3868 77.0803C86.1631 77.0803 85.9443 77.1466 85.7583 77.271C85.5722 77.3953 85.4272 77.572 85.3416 77.7787C85.2559 77.9855 85.2335 78.2129 85.2772 78.4324C85.3208 78.6519 85.4286 78.8535 85.5868 79.0117C85.745 79.1699 85.9466 79.2777 86.1661 79.3213C86.3856 79.365 86.6131 79.3426 86.8198 79.2569C87.0265 79.1713 87.2032 79.0263 87.3275 78.8402C87.4519 78.6542 87.5182 78.4354 87.5182 78.2117C87.5182 77.9116 87.399 77.6238 87.1868 77.4117C86.9747 77.1995 86.6869 77.0803 86.3868 77.0803ZM77.8386 69.3515C78.0247 69.2272 78.2434 69.1609 78.4672 69.1609V69.3434C78.7402 69.3318 79.0076 69.4228 79.2169 69.5984C79.4263 69.7739 79.5624 70.0214 79.5986 70.2923C79.5986 70.516 79.5322 70.7348 79.4079 70.9208C79.2836 71.1069 79.1069 71.2519 78.9001 71.3375C78.6934 71.4232 78.4659 71.4456 78.2465 71.4019C78.027 71.3582 77.8254 71.2505 77.6672 71.0923C77.5089 70.934 77.4012 70.7325 77.3575 70.513C77.3139 70.2935 77.3363 70.066 77.4219 69.8593C77.5075 69.6526 77.6526 69.4759 77.8386 69.3515Z" fill="#003968"/>
</g>

</symbol></svg>