<svg viewBox="0 0 100 100" fill="none" xmlns="http://www.w3.org/2000/svg"><path clip-rule="evenodd" d="M6.985 78.618a9.09 9.09 0 0 0 3.49.681h79.05a9.128 9.128 0 0 0 9.128-9.09V15.475a9.129 9.129 0 0 0-9.128-9.129h-79.05a9.128 9.128 0 0 0-9.128 9.129v54.732a9.09 9.09 0 0 0 5.638 8.41Zm86.852-4.098a6.098 6.098 0 0 1-4.312 1.786h-79.05a6.098 6.098 0 0 1-6.098-6.098V15.476a6.098 6.098 0 0 1 6.098-6.098h79.05a6.098 6.098 0 0 1 6.098 6.098v54.732a6.098 6.098 0 0 1-1.786 4.312Z" stroke="#003968" stroke-width=".72" stroke-miterlimit="22.93"/><path d="M3.741 61.267v5.724H97.27v-5.724H3.741Z"/><path clip-rule="evenodd" d="M40.703 88.99h18.594V76.38h5.724v12.61h10.624v7.22H24.317v-7.22H34.98V76.381h5.723V88.99Z"/><path d="M22.746 23.93V53h5.238V40.428h5.125v12.57h5.275V23.931h-5.275v11.784h-5.125V23.931h-5.238Zm22.073 0V53h5.237V37.67L54.231 53h2.198l4.29-15.397V53h5.162V23.931h-6.334l-4.175 14.682-4.106-14.682H44.82Zm26.674 0V53h5.237V23.93h-5.237Z"/></svg>