<svg width="40" height="40" fill="#34547A" xmlns="http://www.w3.org/2000/svg"><path d="M38.634 10.825 28.443.235A.77.77 0 0 0 27.889 0H12.7a3.086 3.086 0 0 0-3.083 3.081v10.765H3.463a2.309 2.309 0 0 0-2.307 2.306v11.542A2.309 2.309 0 0 0 3.463 30h6.155v6.924A3.083 3.083 0 0 0 12.7 40h23.066c1.7 0 3.083-1.38 3.083-3.074V11.358a.77.77 0 0 0-.215-.533ZM28.079 2.077l8.366 8.692h-8.366V2.077ZM3.463 28.462a.768.768 0 0 1-.768-.768V16.152c0-.423.344-.767.768-.767h20.772c.423 0 .767.344.767.767v11.542a.768.768 0 0 1-.767.768H3.463Zm33.847 8.464c0 .847-.693 1.536-1.544 1.536H12.7c-.851 0-1.544-.69-1.544-1.538V30h13.079a2.309 2.309 0 0 0 2.306-2.306V16.152a2.309 2.309 0 0 0-2.306-2.306H11.156V3.081c0-.85.693-1.543 1.544-1.543h13.84v10c0 .425.345.77.77.77h10v24.618Z"/><path d="M10.35 19.523a1.732 1.732 0 0 0-.95-.646c-.247-.067-.776-.1-1.587-.1H5.672v6.608h1.334v-2.493h.87c.604 0 1.065-.031 1.384-.094.234-.051.465-.156.692-.314.226-.157.414-.374.56-.65.148-.277.222-.618.222-1.024 0-.526-.128-.955-.384-1.287Zm-1.142 1.819a.876.876 0 0 1-.417.325c-.177.069-.529.103-1.055.103h-.73v-1.875h.645c.48 0 .8.015.96.045.216.04.395.137.536.293a.853.853 0 0 1 .212.595c0 .195-.05.367-.151.514Zm7.939-.76a2.888 2.888 0 0 0-.63-1.07 2.21 2.21 0 0 0-.997-.608c-.288-.085-.707-.127-1.257-.127h-2.439v6.608h2.51c.494 0 .887-.047 1.182-.14.393-.126.706-.302.937-.527.307-.298.543-.687.708-1.168.135-.393.203-.862.203-1.406 0-.619-.073-1.14-.217-1.561Zm-1.298 2.714c-.09.296-.206.508-.35.638-.142.129-.321.22-.538.274-.165.043-.434.064-.806.064h-.997v-4.377h.6c.544 0 .909.021 1.095.063.25.054.455.158.617.311.163.154.289.367.38.64.09.274.134.666.134 1.177 0 .51-.045.914-.135 1.21Zm7.185-3.401v-1.118h-4.53v6.608h1.334v-2.808h2.758v-1.118h-2.758v-1.564h3.196Z"/></svg>