<svg width="100" height="100" fill="none" xmlns="http://www.w3.org/2000/svg"><g clip-path="url(#a)"><path clip-rule="evenodd" d="M0 0h6.243v40.58h12.983a9.402 9.402 0 0 1 12.924-5.36l9.353-9.35a9.402 9.402 0 1 1 16.967-.01l9.355 9.354a9.4 9.4 0 0 1 8.114.012l13.375-13.375h-8.043v-6.243H100v18.73h-6.243v-8.053l-13.4 13.373a9.403 9.403 0 0 1-13.71 11.86A9.401 9.401 0 0 1 63.4 39.62l-9.335-9.335a9.4 9.4 0 0 1-8.151.004l-9.346 9.342a9.402 9.402 0 1 1-17.342 7.193H6.243v46.933h5.876V77.488h12.56v16.268h9.805V60.08h12.56v33.676h9.805V80.94h12.56v12.816h9.842V68.711h12.56v25.045H100V100H0V0Zm28.13 40.58a3.158 3.158 0 1 0-.072 6.315 3.158 3.158 0 0 0 .073-6.315Zm41.729 1.03a3.158 3.158 0 1 1 4.7 4.219 3.158 3.158 0 0 1-4.7-4.219Zm-19.84-22.881a3.121 3.121 0 1 0 0 6.242 3.121 3.121 0 0 0 0-6.242Z"/></g><defs><clipPath id="a"><path fill="#fff" d="M0 0h100v100H0z"/></clipPath></defs></svg>