<svg width="16" height="18" fill="none" xmlns="http://www.w3.org/2000/svg"><g clip-path="url(#a)" fill="#871F14"><path d="M9.15 2a.19.19 0 0 0 .24 0 .18.18 0 0 0-.06-.27L9 1.5a.2.2 0 0 0-.24.05.19.19 0 0 0 .06.28l.33.17Zm1.29.74a.19.19 0 1 0 .19-.33l-.33-.18a.18.18 0 0 0-.24 0 .19.19 0 0 0 .06.27l.32.24Zm1.29.73a.19.19 0 0 0 .25 0 .191.191 0 0 0-.002-.218.19.19 0 0 0-.057-.052L11.6 3a.19.19 0 0 0-.25 0 .19.19 0 0 0 .06.27l.32.2Zm1.3.74a.19.19 0 0 0 .24 0 .191.191 0 0 0-.002-.218.19.19 0 0 0-.057-.052l-.32-.19a.19.19 0 0 0-.19.25l.33.21Zm1.2.69a.2.2 0 0 0 .24 0 .192.192 0 0 0 .009-.225.19.19 0 0 0-.058-.055l-.24-.13a.18.18 0 0 0-.24 0 .178.178 0 0 0 0 .22.18.18 0 0 0 .06.05l.23.14ZM7.72.77a.18.18 0 0 0-.284.06.18.18 0 0 0 .045.21l.33.18a.18.18 0 0 0 .24-.05A.19.19 0 0 0 8 1L7.72.77ZM6.1 15.23a.183.183 0 0 0-.25.07.183.183 0 0 0 .07.25l.32.19a.2.2 0 0 0 .24-.05.19.19 0 0 0-.06-.28l-.32-.18Zm-1.29-.74a.19.19 0 0 0-.26.07.19.19 0 0 0 .07.26L5 15a.19.19 0 0 0 .19 0 .18.18 0 0 0-.06-.27l-.32-.24Zm-1.29-.73a.19.19 0 0 0-.25.05.19.19 0 0 0 .06.27l.33.18a.18.18 0 0 0 .24 0 .19.19 0 0 0-.06-.27l-.32-.23ZM2.22 13a.18.18 0 0 0-.269.12.19.19 0 0 0 .09.2l.32.19a.19.19 0 0 0 .19-.33L2.22 13ZM1 12.33a.2.2 0 0 0-.24.05.19.19 0 0 0 .06.28l.23.13a.19.19 0 0 0 .24 0 .18.18 0 0 0-.06-.27L1 12.33Zm6.51 4.14a.18.18 0 0 0 .286-.061.18.18 0 0 0-.045-.21l-.36-.2a.18.18 0 0 0-.24 0 .19.19 0 0 0 .06.27l.3.2Zm1.64-6.71a.19.19 0 0 0 .24 0 .18.18 0 0 0-.06-.27L9 9.25a.2.2 0 0 0-.24.05.19.19 0 0 0 .06.28l.33.18Zm1.29.74a.19.19 0 0 0 .28-.215.19.19 0 0 0-.09-.115L10.3 10a.18.18 0 0 0-.24 0 .19.19 0 0 0 .06.27l.32.23Zm1.29.73a.19.19 0 0 0 .25-.05.192.192 0 0 0 .03-.148.19.19 0 0 0-.09-.122l-.32-.18a.19.19 0 0 0-.25 0 .19.19 0 0 0 .06.27l.32.23ZM13 12a.19.19 0 0 0 .24-.05.192.192 0 0 0 .03-.148.19.19 0 0 0-.09-.122l-.32-.19a.19.19 0 0 0-.19.33L13 12Zm1.2.69a.2.2 0 0 0 .24-.05.192.192 0 0 0 .009-.225.19.19 0 0 0-.058-.055l-.24-.13a.18.18 0 0 0-.24.05.177.177 0 0 0-.033.149.18.18 0 0 0 .093.12l.23.14ZM7.72 8.52a.18.18 0 0 0-.24.05.18.18 0 0 0 0 .27l.38.16a.18.18 0 0 0 .24 0 .19.19 0 0 0-.1-.3l-.28-.18Z"/><path d="M2.64 11.74a.19.19 0 0 0-.18-.33l-.33.19a.181.181 0 1 0 .17.32l.34-.18ZM3.93 11a.19.19 0 0 0-.18-.33l-.33.19a.19.19 0 0 0 .18.33l.33-.19Zm1.29-.74a.19.19 0 0 0-.17-.33l-.34.19a.19.19 0 0 0 .18.33l.33-.19Zm1.29-.73a.19.19 0 0 0-.17-.33L6 9.39a.181.181 0 0 0 .17.32l.34-.18Zm1.21-.69a.19.19 0 0 0-.18-.33l-.24.14a.195.195 0 1 0 .17.35l.25-.16ZM.84 12.33a.19.19 0 0 0 .17.33l.33-.19a.19.19 0 0 0-.17-.33l-.33.19Z"/><path d="M7.81 14.42a.19.19 0 0 0-.37 0v.4a.19.19 0 0 0 .37 0v-.4Zm0-1.5a.19.19 0 0 0-.37 0v.4a.19.19 0 0 0 .37 0v-.4Zm0-1.49a.19.19 0 0 0-.37 0v.4a.19.19 0 0 0 .37 0v-.4Zm0-1.49a.19.19 0 0 0-.37 0v.4a.19.19 0 0 0 .37 0v-.4Zm0-1.49a.19.19 0 0 0-.37 0v.39a.19.19 0 0 0 .37 0v-.4.01Zm0-1.45a.19.19 0 0 0-.37 0v.39a.19.19 0 0 0 .37 0V7Zm0-1.49a.19.19 0 0 0-.37 0v.39a.19.19 0 0 0 .37 0v-.4.01Zm0-1.51a.19.19 0 0 0-.37 0v.39a.19.19 0 0 0 .37 0V4Zm0-1.49a.19.19 0 0 0-.37 0v.39a.19.19 0 0 0 .37 0v-.41.02Zm0-1.37a.19.19 0 0 0-.37 0v.27a.19.19 0 0 0 .37 0v-.29.02Zm-.37 15.14a.19.19 0 0 0 .37 0v-.39a.19.19 0 0 0-.37 0v.4-.01ZM.74 6.54a.19.19 0 0 0 .17.19.19.19 0 0 0 .2-.19v-.37a.19.19 0 1 0-.37 0v.37ZM.74 8a.18.18 0 0 0 .17.18.18.18 0 0 0 .2-.18v-.34a.19.19 0 1 0-.37 0V8Zm0 1.49a.19.19 0 0 0 .245.172.18.18 0 0 0 .125-.172v-.35a.19.19 0 0 0-.37 0v.35Zm0 1.51a.19.19 0 0 0 .17.19.19.19 0 0 0 .2-.19v-.37a.18.18 0 0 0-.17-.18.18.18 0 0 0-.2.18V11Zm0 1.4a.18.18 0 0 0 .17.18.18.18 0 0 0 .2-.18v-.28a.19.19 0 0 0-.17-.19.188.188 0 0 0-.184.115.19.19 0 0 0-.016.075v.28Zm.37-7.72a.17.17 0 0 0-.17-.18.18.18 0 0 0-.2.18v.37a.19.19 0 0 0 .17.19.19.19 0 0 0 .2-.19v-.37Z"/><path fill-rule="evenodd" clip-rule="evenodd" d="M.93 11.67a.73.73 0 1 1 0 1.46.73.73 0 0 1 0-1.46Z"/><path d="M8.09 17.11a.93.93 0 1 1-.93-1.6l6.23-3.65V6.34l-5.31 3a.93.93 0 0 1-.93 0L.47 5.55a.92.92 0 0 1-.35-1.26.89.89 0 0 1 .36-.36L7.17.12a.925.925 0 1 1 .91 1.61l-5.28 3 4.83 2.76L13.8 4a.93.93 0 0 1 1.45.77v7.63a.911.911 0 0 1-.46.8l-6.7 3.91Z"/></g><defs><clipPath id="a"><path fill="#fff" d="M0 0h15.25v17.24H0z"/></clipPath></defs></svg>