<svg width="250" height="82" fill="none" xmlns="http://www.w3.org/2000/svg"><path fill-rule="evenodd" clip-rule="evenodd" d="M27.447 74.685c.192.13-.052-.005.336.194.018.01.282.135.323.152.236.095.538.166.79.261 1.714.644 3.178.908 4.923 1.379 3.293.887 8.145 1.103 11.449.595.85-.13 1.818.02 2.633-.282 1.188-.44 2.5-.536 3.635-.882l3.552-1.114a3.21 3.21 0 0 0 .186-.138l.19-.165c-.022-.291-.013-.618-.063-.893l-.322-2.62c-.093-1.144-.3-2.215-.38-3.472l-.461-3.446c-.305-1.083-.043-2.469-.271-3.647-.132-.68-.056.072-.182-.655-.05-.291-.046-.71-.06-1.019-.034-.734-.163-1.034-.245-1.646l-.421-3.392c-.076-1.752-.292-2.32-.344-3.572l-.84-7.975c-.068-.28-.15-.355-.189-.792-.054-.609-.051-1.32-.08-1.941-.044-.908-.2-.915-.27-1.62-.059-.611.002-1.262-.13-1.857l-.96-8.708c-.022-.679.004-1.218-.746-1.187-.72.031-1.214 1.738-1.491 2.41-.049.12-.188.436-.274.637L43.9 37.867c-.015.032-.033.07-.049.1l-2.418 5.354-.045.107-.856 1.82c-.015.028-.038.064-.053.093-.017.03-.038.067-.053.097L35.418 56.57c-.02.042-.079.16-.099.204-.181.396 0-.02-.092.21-1.357 3.358-2.96 6.682-4.49 9.978-.104.222-.039.091-.134.323l-2.927 6.512c-.172.406-.166.358-.23.887ZM5.721 51.36c.134 1.003.579 1.698.932 2.64l4.765 8.538 2.11 2.532c.024.023.054.055.076.078l1.858 1.899c.258.263.388.343.638.569l.076.07 2.351 1.99.09.062 1.831 1.34c.03.02.067.04.096.058.22.135.145.076.382.23.766.498 1.536 1.117 2.41 1.42l4.502-8.798.047-.105 2.529-4.954c.095-.2.275-.581.386-.798l.264-.465.054-.095 5.699-11.231c.236-.455.481-1.048.703-1.523.309-.663.47-.743.786-1.432l.338-.725 4.221-8.36c.017-.033.035-.071.05-.104l1.158-2.274c.015-.031.036-.068.053-.1.02-.041.083-.159.104-.2l1.191-2.398c.117-.245.091-.205.196-.398l.053-.092c.015-.027.039-.064.054-.09l.865-1.686c.244-.5.622-1.064.641-1.597-.027-.026-.071-.1-.083-.075l-.532-.442-9.924 6.366c-.037.024-.141.098-.177.122l-.182.12c-.241.15-.479.275-.676.397l-7.04 4.547c-.357.267-.31.17-.657.385a5.143 5.143 0 0 0-.094.06l-9.292 6.038-.187.12-1.83 1.175c-.03.018-.068.04-.097.06-.188.118-.42.292-.612.42l-3.86 2.467c-.354.22-.283.203-.611.43L9.173 48.96c-1.097.668-2.594 1.459-3.452 2.4Zm53.924 21.398c.735-.062 1.406-.641 1.949-1.044.312-.232.023-.039.362-.229l7.398-6.152 2.219-2.717c.228-.27.383-.37.58-.633l2.794-4.676c.871-1.674 1.28-2.787 1.885-4.27.125-.31.216-.473.307-.825.052-.196.058-.284.12-.495l-.585-1.447a3.506 3.506 0 0 1-.08-.076l-1.834-1.923c-.125-.13-.072-.076-.225-.226l-3.718-3.929a12.474 12.474 0 0 1-.757-.75l-4.156-4.393c-.128-.12-.013.005-.227-.212l-2.023-2.18c-.142-.127-.228-.194-.38-.363l-1.5-1.636-.15-.157-.077-.079-.155-.16c-.168-.175-.256-.275-.433-.468-.745-.811-1.61-1.533-2.253-2.395l-.806-.83-.08-.077-.23-.236-2.278-2.356c-.195-.21-.22-.256-.432-.464l-1.477-1.644c-2.31.193-1.103 1.14-.71 5.147l1.264 7.323c.47 2.239.793 6.053 1.217 7.613l1.006 5.983c.29 1.265.399 3.037.75 4.316.144.53.158 1.07.194 1.656l.406 2.218c.026.1.09.283.103.328.073.247-.001-.155.093.32.09.452.081 1.118.118 1.596l1.801 10.542ZM4.607 46.482c.878.045 1.387-.438 2.053-.852l2.566-1.52c.028-.016.068-.036.1-.052l.609-.299c.387-.212.216-.144.545-.33l16.392-9.485c.222-.122.446-.23.69-.366l2.34-1.411c.028-.016.066-.039.096-.055l.402-.214.101-.053.197-.106c.197-.108.474-.264.668-.365l6.637-3.78c.12-.069.166-.09.283-.157.224-.129.087-.044.268-.163l4.853-2.822c.132-.066.202-.093.314-.149l1.68-1.022-.044-1.412-6.78-.164c-.909-.02-1.12-.196-1.953-.248-1.452-.09-2.974-.09-4.4-.14-2.81-.096-5.724-.478-8.488-.533l-13.171-.627-1.238 1.915s-.108.135-.192.261l-.944 1.734c-.28.527-.452.869-.702 1.424-.207.462-.447 1.117-.62 1.473-.107.222-.27.53-.328.698l-.8 2.314c-.141.578-.162.468-.255.796l-1.033 4.145c-.127.644.003 1.274-.177 1.965-.432 1.659-.213 4.276-.176 6.01.027 1.392.244 2.408.507 3.59Zm50.902-25.023c-.144.542-.099.89-.282 1.366-.349.903-.783 1.096-.233 1.741l3.356 3.106c.216.21.198.175.398.35.023.022.058.05.08.07l.08.072 1.307 1.243c.024.024.057.054.081.076l3.696 3.498c.227.19.1.082.26.205.393.308.47.386.791.69l3.634 3.411c.183.19.218.238.371.385l8.585 7.955c.076.06.407.32.421.328l.452.105c.794-2.581.513-10.13-.453-13.33-.178-.59-.194-1.182-.388-1.719-1.15-3.196-1.241-4.125-3.037-7.396l-1.759-2.892c-.14-.203-.07-.108-.236-.38l-.412-.613c-.93-.08-2.232-.026-3.114.207l-4.166.513c-.66.088-.478.14-.94.214-.671.107-1.527.024-2.212.144-1.943.342-4.349.54-6.28.65ZM13.804 16.3l3.87.433c.314.012.745.018 1.05.061l10.73 1.342c1.526.33 2.443.056 4.903.539.358.071.762.073 1.084.12.63.092 1.233.23 1.939.281.923.065 1.259.083 2.035.251.701.153 1.466.055 2.19.151 1.161.155 2.798.64 3.95.457l.343-.74.052-.104c1.153-2.319 1.613-.6.498-2.772l-2.49-4.25c-.139-.26-.04-.076-.155-.301l-4.011-6.91c-.344-.656-.371-.718-1.35-.677l-4.84.702c-.293.059-1.157.274-1.546.387-4.52 1.32-1.821.44-5.405 1.832l-3.645 1.784a9.72 9.72 0 0 0-1.241.716l-3.89 2.733c-.024.022-.059.05-.083.071l-2.559 2.243-.077.076c-.024.022-.056.054-.08.074-.4.372-1.15.996-1.272 1.5Zm35.538.347c.229-.053.665-.448 1.87-.122 1.023.278 1.788.511 2.647 1.276l1.168 1.642c.824-.066 1.132-.226 1.858-.379l12.263-2.913c-.072-.484-1.622-1.877-2.157-2.287l-7.893-5.509c-1.468-.747-3.679-1.767-5.303-2.232l-3.547-1.1-6.159-.86c-.09.824 1.495 3.906 1.867 4.748l.79 1.91c.122.232.087.139.204.39.156.332.18.469.33.854l1.367 3.109c.35.806.224.783.695 1.473Zm75.684 8.402c-.293.128-2.26.297-3.929 1.693-.578.483-.958.868-1.399 1.457-.206.277-.342.482-.538.794l-.474.879c-1.063 2.277-.673 7.608-.67 10.627.003 3.547-.119 8.093 3.556 10.344 2.134 1.308 4.504 1.749 6.973 1.207.755-.167.9.038 1.688-.324l1.392-.693c.164-.086.355-.175.494-.264.759-.481 2.566-2.538 2.825-3.611l.487-2.243c.387-1.636.166-11.793-.127-13.48l-.463-1.66c-.014-.032-.035-.068-.049-.1-.015-.03-.038-.066-.053-.094-.007-.017-.133-.235-.162-.287a4.242 4.242 0 0 0-.547-.795c-.602-.72-.244-.597-1.323-1.522-.601-.517-1.869-1.316-2.589-1.582-.882-.324-4.132-.77-5.092-.346Zm.669 5.347c-.932.64-1.38.817-1.769 1.79l-.305 1.622c-.005 2.34-.25 8.97.315 11.143.371 1.429 2.347 2.748 4.659 1.332l.529-.392c.686-.707.688-1.662.685-2.717-.003-1.765.263-10.159-.27-11.178-.27-.514-.621-.792-.998-1.074-.87-.65-2.215-.957-2.846-.526Zm101.629 21.585 5.393-.015 6.298-12.125.053-.101.811-1.738c.229-.297-.249-.104.413-.308.252.655.106 12.512.081 14.28l5.615.004-.011-26.793-5.08-.001-3.952 7.732c-.178.306-.228.51-.424.923l-2.954 5.868c-.294.493-.305.625-.643.812l-.026-15.344-5.54.009-.034 26.797ZM180.519 45.7l-5.077-1.584c-.362.486-.389 1.026-.741 1.46l-.554.493c-1.038.79-2.475 1.151-3.567.534l-.526-.37c-1.476-1.236-1.007-5.167-1.007-7.814 0-1.436-.006-2.873-.003-4.307.004-1.53-.076-2.392 1.177-3.182.995-.629 2.06-1.005 3.254-.233 1.064.687 1.505 1.075 1.89 2.596l3.895-1.23c.446-.114.291 0 .702-.2l.572-.427c-.156-1.383-.839-2.49-1.451-3.28l-.789-.845c-.206-.187-.131-.119-.319-.297-1.062-1.014-3.621-2.034-4.948-2.077-2.049-.066-2.644-.032-4.168.497-.718.25-.961.347-1.576.662l-1.124.838c-.024.02-.058.05-.08.071-.023.02-.058.048-.081.069l-1.151 1.252c-1.947 2.613-1.576 6.797-1.576 10.242 0 3.733-.358 8.048 1.924 10.787l.577.637c.19.197.31.306.537.49l2.344 1.274c1.63.662 4.275.652 6.144.14 1.391-.38 1.842-.632 2.947-1.43 1.4-1.011 2.647-2.962 2.775-4.767Zm-22.119 0-.249-.127c-.157-.068-.197-.086-.354-.142-.918-.338-4.009-1.293-4.779-1.236-.318.61-.142 1.534-1.959 2.409-1.373.661-2.956.146-3.808-1.026-.863-1.187-.536-5.155-.536-7.01 0-.9-.143-5.545.15-6.202l1.564-1.72c1.78-.92 3.521.125 4.31 1.503l.099.208c.016.033.03.076.045.107.374.758.824.602 1.641.33.165-.055.379-.116.574-.186l2.071-.529c.911-.26.535.039 1.199-.494.03-.848-.523-1.823-.926-2.55-.836-1.51-1.07-1.385-2.201-2.437-.428-.396-.426-.215-1.193-.755l-.171-.121c-.268-.16.005-.02-.411-.19-2.222-.917-5.381-.805-7.301-.039-.841.336-.315.16-.902.553-1.591 1.062-2.434 1.495-3.395 3.666-1.139 2.578-.764 9.557-.75 13.312.004 1.13.106 3.237.623 4.228.519.998.956 1.959 1.774 2.727.117.108.151.153.298.293 1.061 1.004 2.422 1.491 3.569 1.729.407.083.437.162.937.214 2.355.25 4.794-.091 6.757-1.377l.348-.257.086-.07 1.429-1.435c.626-.798 1.326-2.193 1.461-3.377Z" fill="#015998"/><path fill-rule="evenodd" clip-rule="evenodd" d="M202.063 51.966c-.018-.901-.01-1.799-.01-2.702-.002-.457.006-.892.016-1.349.019-.718.173-.932-.413-1.036-.05.297-.156.022-.061.946l-.239 3.722c-.805-.044-1.002-.18-1.817-.161l-11.985.041c-.75-.05-.642-.13-.763-.273-.382-.545-.196-17.903-.181-20.164.005-.711-.066-4.662.081-5.01.248-.591 4.012-.357 4.812-.357l7.727.008c1.147-.002 1.506-.079 2.406.21-.008.678-.014 1.353-.017 2.03-.006 1.376.241 1.484-.207 1.88-.428.378-4.049.167-4.909.161l-4.82.028c-.511 1.451-.338.995-.33 2.983.013 4.002-.24 3.5 4.392 3.509.758.001 1.524.023 2.279.008 1.001-.019 2.253-.469 2.176.914-.032.58-.105.16-.166.92-.109 1.378.304 1.93-.659 2.128h-3.478c-.719-.001-1.419.021-2.129.031-.802.012-1.208-.294-1.4-.252-.346.073-.779.633-.905.964-.233.613-.094 4.994-.025 5.705l.425.02-.047-5.84h8.64l.042-.086.03-4.955-8.727-.031.064-5.646c2.006-.11 8.894.255 10.183-.14l-.035-4.978c-2.483-.006-14.488-.194-15.921.061l-.023 26.642c1.315.254 13.7.1 15.994.07Zm-.407-5.087-9.793-.01-.425-.019c-.069-.711-.208-5.092.025-5.705.126-.331.559-.891.905-.964.192-.042.598.264 1.4.252.71-.01 1.41-.032 2.129-.03h3.478c.963-.2.55-.751.659-2.13.061-.759.134-.338.166-.919.077-1.383-1.175-.933-2.176-.913-.755.014-1.521-.008-2.279-.01-4.632-.008-4.379.494-4.392-3.508-.008-1.988-.181-1.532.33-2.983l4.82-.028c.86.006 4.481.217 4.909-.162.448-.395.201-.503.207-1.879.003-.677.009-1.352.017-2.03-.9-.289-1.259-.212-2.406-.21l-7.727-.008c-.8 0-4.564-.234-4.812.357-.147.348-.076 4.299-.081 5.01-.015 2.261-.201 19.619.181 20.164.121.144.013.223.763.273l11.985-.041c.815-.02 1.012.117 1.817.161l.239-3.722c-.095-.924.011-.65.061-.946Zm-1.158-5.935c.415 0 .435.306.414-1.182-.021-1.642.113-2.868-.287-4.342.07.551.152.196-.604.24-.305.019-.773-.004-1.094-.005l-6.709-.039-.055-4.991c1.834-.04 8.943.258 10.061-.264l.103-4.577c-.135-.752.13-.306-.314-.59l.035 4.978c-1.289.395-8.177.03-10.183.14l-.064 5.646 8.727.03-.03 4.956Z" fill="#1B5C8B"/><path fill-rule="evenodd" clip-rule="evenodd" d="m101.889 33.666.011 3.314c1.766.117 4.253.305 5.463-.826l.21-.24c.706-.99 1.074-4.078-.76-5.203-.978-.601-1.783-.41-3.189-.408-2.076.002-1.735-.637-1.735 3.363Zm-5.59 18.32 5.608-.006-.013-9.75c2.671-.34 4.388.427 6.647-.49.95-.387 2.333-1.173 3.035-1.918.554-.587 1.063-1.466 1.397-2.21.157-.356.051-.056.228-.53.084-.22.102-.314.184-.537.909-2.503.477-6.861-1.859-9.139l-.734-.623c-.268-.213.017-.042-.432-.303a4.279 4.279 0 0 0-.306-.16l-1.134-.52c-2.385-1.04-9.514-.562-12.588-.628l-.034 26.814Z" fill="#015998"/><path fill-rule="evenodd" clip-rule="evenodd" d="M216.712 30.42c-.494.055-.333.22-.351.85-.137 4.362.28 18.208-.153 20.074-.84.408.098.188-.761.304l-3.489-.01c-.655-.798-.438-1.068-.432-2.374l.006-18.425c-.085-.807-.197-.324-.332-1.035-1.014 0-2.02.008-3.03.02-1.285.015-1.484.2-2.45-.309l.05-3.667c1.769-.578 5.989-.225 8.157-.225 1.931 0 6.756-.206 8.232.186.132 2.837.402 3.66-.747 3.942a4.294 4.294 0 0 1-.603.076l-4.153-.024c-.12.19-.018.262-.018.522l5.93-.052.017-5.074-17.315-.026-.019 5.1 5.778.01.065 21.606c.883.261 4.473.114 5.632.102l-.014-21.571Zm0 0-.074-.095c0-.26-.102-.331.018-.521l4.153.023c.2-.013.455-.04.603-.076 1.149-.282.879-1.105.747-3.942-1.476-.392-6.301-.186-8.232-.186-2.168 0-6.388-.353-8.157.225l-.05 3.667c.966.508 1.165.324 2.45.31 1.01-.013 2.016-.021 3.03-.021.135.711.247.228.332 1.035l-.006 18.425c-.006 1.306-.223 1.576.432 2.374l3.489.01c.859-.116-.079.104.761-.304.433-1.866.016-15.712.153-20.074.018-.63-.143-.795.351-.85Z" fill="#1B5C8B"/></svg>