<svg width="450" height="115" fill="none" xmlns="http://www.w3.org/2000/svg"><g clip-path="url(#a)"><path d="M61.024 13.409a1.258 1.258 0 0 0 1.61-.344 1.249 1.249 0 0 0-.384-1.819L60.1 10.02a1.238 1.238 0 1 0-1.227 2.152l2.152 1.236Zm8.616 4.905a1.238 1.238 0 1 0 1.227-2.151l-2.162-1.227a1.238 1.238 0 1 0-1.227 2.152l2.162 1.226Zm8.617 4.917a1.239 1.239 0 0 0 1.226-2.152l-2.151-1.237a1.257 1.257 0 0 0-1.611.343 1.245 1.245 0 0 0 .384 1.82l2.152 1.226Zm8.627 4.916a1.248 1.248 0 0 0 1.237-2.162l-2.152-1.226a1.247 1.247 0 0 0-1.237 2.162l2.152 1.226Zm8.024 4.574a1.241 1.241 0 1 0 1.237-2.152l-1.559-.894a1.236 1.236 0 0 0-1.842.921 1.24 1.24 0 0 0 .615 1.23l1.55.895ZM51.471 5.104a1.257 1.257 0 0 0-1.58.343 1.249 1.249 0 0 0 .354 1.829l2.162 1.226a1.243 1.243 0 1 0 1.226-2.162l-2.162-1.236Zm-10.768 96.467a1.259 1.259 0 0 0-1.61.343 1.236 1.236 0 0 0 .405 1.819l2.13 1.247a1.24 1.24 0 0 0 1.842-.921 1.241 1.241 0 0 0-.615-1.23l-2.152-1.258Zm-8.627-4.906a1.238 1.238 0 1 0-1.226 2.151l2.15 1.228a1.24 1.24 0 0 0 1.69-.463 1.238 1.238 0 0 0-.463-1.689l-2.152-1.226Zm-8.627-4.916a1.247 1.247 0 0 0-1.226 2.162l2.162 1.226a1.247 1.247 0 0 0 1.226-2.162l-2.162-1.226Zm-8.617-4.917a1.248 1.248 0 0 0-1.226 2.162l2.152 1.227a1.239 1.239 0 0 0 1.226-2.152l-2.152-1.237ZM6.798 82.26a1.238 1.238 0 0 0-1.228 2.15l1.56.894a1.24 1.24 0 0 0 1.236-2.151l-1.57-.894Zm43.447 27.617a1.25 1.25 0 0 0 1.606-.518 1.247 1.247 0 0 0-.38-1.644l-2.151-1.227a1.25 1.25 0 0 0-1.606.518 1.248 1.248 0 0 0 .38 1.644l2.151 1.227Zm10.778-44.779a1.238 1.238 0 0 0 1.227-2.151l-2.152-1.237a1.258 1.258 0 0 0-1.61.343 1.247 1.247 0 0 0 .384 1.819l2.151 1.226Zm8.617 4.916a1.247 1.247 0 0 0 1.227-2.161l-2.152-1.227a1.247 1.247 0 0 0-1.227 2.162l2.152 1.227Zm8.617 4.907a1.246 1.246 0 0 0 1.237-2.163l-2.152-1.226a1.24 1.24 0 0 0-1.227 2.152l2.142 1.237Zm8.627 4.916a1.238 1.238 0 1 0 1.226-2.152l-2.15-1.225a1.24 1.24 0 1 0-1.237 2.151l2.162 1.227Zm8.024 4.573a1.24 1.24 0 1 0 1.237-2.151l-1.56-.894a1.258 1.258 0 0 0-1.61.343 1.248 1.248 0 0 0 .384 1.819l1.549.883ZM51.471 56.804a1.24 1.24 0 0 0-1.842.92 1.238 1.238 0 0 0 .616 1.231l2.162 1.227a1.239 1.239 0 0 0 1.226-2.152l-2.162-1.226Z" fill="#1F4478"/><path d="M17.576 78.278a1.247 1.247 0 0 0-1.164-2.193l-2.214 1.257a1.242 1.242 0 0 0 1.165 2.194l2.213-1.258Zm8.627-4.917a1.248 1.248 0 0 0-1.174-2.193l-2.162 1.268a1.237 1.237 0 1 0 1.164 2.183l2.172-1.258Zm8.617-4.916a1.237 1.237 0 0 0-1.164-2.183l-2.214 1.3a1.247 1.247 0 0 0 1.164 2.193l2.214-1.31Zm8.627-4.906a1.25 1.25 0 1 0-1.164-2.214l-2.224 1.258a1.248 1.248 0 0 0 1.164 2.193l2.224-1.237Zm8.024-4.584a1.237 1.237 0 1 0-1.164-2.182l-1.621.924a1.247 1.247 0 0 0 1.206 2.183l1.58-.925ZM5.572 82.26a1.248 1.248 0 0 0 1.164 2.193l2.225-1.3a1.239 1.239 0 1 0-1.175-2.182L5.572 82.26Z" fill="#1F4478"/><path d="M52.105 96.145A1.239 1.239 0 1 0 49.633 96v2.63a1.24 1.24 0 1 0 2.474.155v-2.64Zm0-9.936a1.24 1.24 0 0 0-2.473-.156v2.64a1.239 1.239 0 1 0 2.474.145v-2.63Zm0-9.948a1.24 1.24 0 0 0-2.473-.155v2.64a1.24 1.24 0 1 0 2.474.156v-2.64Zm0-9.947a1.24 1.24 0 0 0-1.642-1.243 1.24 1.24 0 0 0-.831 1.098v2.63a1.24 1.24 0 1 0 2.474.155v-2.64Zm0-9.936a1.24 1.24 0 0 0-2.473-.156v2.64a1.239 1.239 0 1 0 2.474.145v-2.63Zm0-9.948a1.239 1.239 0 1 0-2.473-.145v2.63a1.24 1.24 0 1 0 2.474.156v-2.64Zm0-9.947a1.238 1.238 0 1 0-2.473-.104v2.599a1.24 1.24 0 1 0 2.474.145v-2.64Zm0-9.936a1.24 1.24 0 0 0-2.473-.156v2.64a1.247 1.247 0 0 0 2.474.156v-2.64Zm0-9.948a1.24 1.24 0 0 0-2.351-.613 1.238 1.238 0 0 0-.122.468v2.63a1.24 1.24 0 1 0 2.474.155V16.6Zm0-9.146a1.24 1.24 0 0 0-2.473-.177v1.87a1.239 1.239 0 1 0 2.474.146v-1.84Zm-2.484 101.124a1.24 1.24 0 1 0 2.474.145v-2.63a1.24 1.24 0 0 0-2.474-.156v2.641ZM4.948 43.655a1.237 1.237 0 0 0 1.64 1.175 1.249 1.249 0 0 0 .844-1.175V41.14a1.258 1.258 0 0 0-1.143-1.237 1.237 1.237 0 0 0-1.341 1.237v2.515Zm0 9.926a1.247 1.247 0 0 0 2.484 0v-2.515a1.247 1.247 0 0 0-2.484 0v2.515Zm0 9.927a1.247 1.247 0 0 0 2.484 0v-2.516a1.248 1.248 0 0 0-2.484 0v2.516Zm0 9.916a1.247 1.247 0 0 0 2.484 0v-2.505a1.247 1.247 0 0 0-2.484 0v2.505Zm0 9.354a1.247 1.247 0 0 0 2.484 0v-1.943a1.257 1.257 0 0 0-1.143-1.237 1.249 1.249 0 0 0-1.341 1.237v1.944Zm2.484-51.596a1.257 1.257 0 0 0-1.143-1.237 1.249 1.249 0 0 0-1.341 1.237v2.485a1.237 1.237 0 0 0 1.64 1.174 1.249 1.249 0 0 0 .844-1.175v-2.484Z" fill="#1F4478"/><path fill-rule="evenodd" clip-rule="evenodd" d="M6.236 77.841a4.854 4.854 0 1 1 0 9.708 4.854 4.854 0 0 1 0-9.708Z" fill="#1F4478"/><path d="M53.987 114.148a6.24 6.24 0 0 1-7.372.078 6.235 6.235 0 0 1-2.296-7.006 6.235 6.235 0 0 1 3.431-3.778L89.39 79.13V42.294L53.914 62.479a6.237 6.237 0 0 1-6.236 0L3.117 37.024a6.237 6.237 0 0 1-2.307-8.43 6.101 6.101 0 0 1 2.38-2.36L47.813.812a6.184 6.184 0 1 1 6.101 10.758L18.709 31.64l32.222 18.346 41.13-23.48a6.237 6.237 0 0 1 9.676 5.135v51.055a6.232 6.232 0 0 1-3.118 5.353l-44.632 26.1Z" fill="#871F14"/></g><g clip-path="url(#b)"><path d="M301.613 70.539h7.605v-9.982l9.346-15.147h-8.557l-4.592 8.475-4.673-8.475h-8.557l9.428 15.147v9.982Zm-24.503 0h7.614V52.092h6.702V45.41h-21.06v6.63h6.744v18.5Zm-17.833 0h7.615v-25.13h-7.615v25.13Zm-11.58-16.613a2.295 2.295 0 0 1-.765 1.642 2.307 2.307 0 0 1-1.715.582h-4.632v-4.407h4.632a2.306 2.306 0 0 1 2.48 2.183Zm-.902 16.613h8.67l-4.56-8.886a8.112 8.112 0 0 0 4.519-7.614c0-4.704-3.167-8.63-9.039-8.63H232.98v25.13h7.605v-8.066h2.746l3.464 8.066Zm-43.289-12.544c0 8.024 6.211 13.005 13.825 13.005a14.944 14.944 0 0 0 11.488-5.124V55.812h-12.298v6.252h4.858v1.096a7.172 7.172 0 0 1-4.099 1.127 6.003 6.003 0 0 1-6.149-6.292 6.002 6.002 0 0 1 3.738-5.853 6.003 6.003 0 0 1 2.411-.44 5.216 5.216 0 0 1 4.632 2.747l6.457-3.3C226.657 47.941 223.162 45 217.331 45c-7.614 0-13.825 4.93-13.825 12.995Zm-21.86 12.544h19.052v-6.334h-11.447v-3.197h11.191v-6.323h-11.191v-2.942h11.447V45.41h-19.052v25.129Zm-17.801 0h7.615V52.092h6.702V45.41h-21.05v6.63h6.733v18.5Zm-17.525 0h7.308v-25.13h-7.605v12.658l-8.742-12.657h-7.84v25.129h7.615V57.052l9.264 13.487Zm-29.32 0h7.604v-25.13H117v25.13Z" fill="#1F4478"/></g><g clip-path="url(#c)"><path d="M449.385 45H326v26h123.385V45Z" fill="#871F14"/><path d="m434.695 53.91 2.264 5.843h-4.539l2.275-5.843Zm3.589 9.328h1.44l-4.174-10.496h-1.627l-4.173 10.495h1.45l.928-2.326h5.321l.835 2.326Zm-29.433-1.159V53.91h2.285a3.844 3.844 0 0 1 3.796 2.498c.189.508.268 1.05.232 1.592a3.875 3.875 0 0 1-1.107 2.935 3.865 3.865 0 0 1-2.921 1.144h-2.285Zm-1.304 1.158h3.589a5.08 5.08 0 0 0 5.384-5.216 5.124 5.124 0 0 0-1.554-3.783 5.106 5.106 0 0 0-3.83-1.434h-3.589v10.433Zm-18.582-9.327 2.264 5.843h-4.549l2.285-5.843Zm3.589 9.328h1.451l-4.236-10.496h-1.617l-4.174 10.495h1.45l.929-2.326h5.321l.876 2.326Zm-25.426.198a4.755 4.755 0 0 0 4.038-2.087l-1.116-.605a3.54 3.54 0 0 1-2.922 1.523 4.031 4.031 0 0 1-3.764-2.66 4.052 4.052 0 0 1-.232-1.607 4.023 4.023 0 0 1 1.077-2.996 4.028 4.028 0 0 1 2.919-1.271 3.538 3.538 0 0 1 2.922 1.533l1.106-.615a4.736 4.736 0 0 0-4.028-2.087 5.22 5.22 0 0 0-5.005 3.333 5.21 5.21 0 0 0-.347 2.093 5.205 5.205 0 0 0 1.491 3.887 5.218 5.218 0 0 0 3.861 1.559Zm-26.96-1.67a5.226 5.226 0 0 0 4.028 1.67c2.838 0 3.871-1.565 3.871-3.13 0-2.202-1.952-2.744-3.663-3.193-1.335-.323-2.545-.636-2.545-1.68 0-1.043.897-1.669 2.149-1.669a4.003 4.003 0 0 1 3.036 1.252l.793-.96a4.963 4.963 0 0 0-3.735-1.471c-2.087 0-3.6 1.179-3.6 2.91 0 2.088 1.868 2.536 3.558 2.974 1.377.386 2.661.73 2.661 1.983 0 .803-.606 1.815-2.473 1.815a4.465 4.465 0 0 1-3.307-1.492l-.773.991Z" fill="#fff"/></g><defs><clipPath id="a"><path fill="#fff" d="M0 0h101.737v115H0z"/></clipPath><clipPath id="b"><path fill="#fff" transform="translate(117 45)" d="M0 0h201.564v26H0z"/></clipPath><clipPath id="c"><path fill="#fff" transform="translate(326 45)" d="M0 0h123.385v26H0z"/></clipPath></defs></svg>