<svg width="28" height="28" viewBox="0 0 28 28" fill="none" xmlns="http://www.w3.org/2000/svg">
<path fill-rule="evenodd" clip-rule="evenodd" d="M14.0001 7.75C15.9723 7.75 17.5716 9.34929 17.5716 11.3214C17.5716 13.2936 15.9723 14.8929 14.0001 14.8929C12.028 14.8929 10.4287 13.2936 10.4287 11.3214C10.4287 9.34929 12.028 7.75 14.0001 7.75ZM14.0001 9.25C15.1444 9.25 16.0716 10.1771 16.0716 11.3214C16.0716 12.4657 15.1444 13.3929 14.0001 13.3929C12.8559 13.3929 11.9287 12.4657 11.9287 11.3214C11.9287 10.1771 12.8559 9.25 14.0001 9.25Z" fill="#E3E3E4"/>
<path fill-rule="evenodd" clip-rule="evenodd" d="M14 16.3928C18.8321 16.3928 22.75 19.895 22.75 24.2143L22.7493 24.25H20.6757C20.5721 21.3578 17.3414 18.4643 14.1071 18.4643C10.8736 18.4643 7.71929 21.3585 7.61571 24.25H5.25071L5.25 24.2143C5.25 19.895 9.16786 16.3928 14 16.3928Z" fill="#E3E3E4"/>
<circle cx="14" cy="14" r="13" stroke="#E3E3E4" stroke-width="2"/>
</svg>
