<svg width="100" height="100" viewBox="0 0 100 100" fill="none" xmlns="http://www.w3.org/2000/svg">
<g clip-path="url(#clip0_345_5425)">
<path fill-rule="evenodd" clip-rule="evenodd" d="M73.337 52.0121C68.3508 51.9493 63.3789 52.557 58.5546 53.8188C54.421 55.0233 52.012 56.392 52.012 57.487C52.012 58.582 54.3389 59.8139 58.4725 60.991C63.2941 62.2664 68.268 62.8743 73.2549 62.7977C78.2506 62.872 83.2332 62.2641 88.0646 60.991C92.1708 59.8139 94.4977 58.4451 94.4977 57.487C94.4977 56.5289 92.1708 55.1601 88.0646 53.9557C83.2634 52.6571 78.3107 52.0034 73.337 52.0121V52.0121ZM94.5798 80.5639C93.4859 81.1234 92.3511 81.5993 91.1853 81.9874C85.3988 83.7278 79.379 84.568 73.337 84.4785V84.4785C66.9495 84.6365 60.5814 83.7109 54.5031 81.741C53.6817 81.4284 52.8775 81.072 52.0942 80.6734V89.4333C52.0942 90.4188 54.421 91.7876 58.5546 92.9647C63.3789 94.2265 68.3508 94.8342 73.337 94.7714C78.332 94.832 83.3128 94.2244 88.1467 92.9647C92.2529 91.7876 94.5798 90.4188 94.5798 89.4333V80.5639ZM52.012 73.9119C52.012 74.87 54.3937 76.2113 58.4725 77.3885C63.2968 78.6502 68.2687 79.2579 73.2549 79.1952C78.2499 79.2558 83.2306 78.6481 88.0646 77.3885C92.1708 76.184 94.4977 74.8152 94.4977 73.8571V64.1117C93.4029 64.6619 92.2682 65.1285 91.1032 65.5078C85.3166 67.2482 79.2968 68.0884 73.2549 67.9989V67.9989C66.8674 68.1569 60.4993 67.2313 54.421 65.2614C53.6001 64.9577 52.796 64.6105 52.012 64.2212V70.0794V73.9119V73.9119ZM73.2549 100.055C66.8674 100.213 60.4993 99.2871 54.421 97.3173C50.2601 95.7295 47.3583 93.4848 46.8108 90.5557C46.7552 89.8451 46.7552 89.1311 46.8108 88.4205V57.487C46.7839 57.0951 46.7839 56.7018 46.8108 56.3099C47.3583 53.3808 50.2601 51.1361 54.421 49.5483C60.4993 47.5785 66.8674 46.6529 73.2549 46.8108C79.6424 46.6529 86.0105 47.5785 92.0887 49.5483C96.2497 51.1361 99.1514 53.3808 99.7263 56.3099V89.3512V90.4188C99.1514 93.3479 96.277 95.5927 92.0887 97.1804C86.0414 99.1689 79.7017 100.122 73.337 100L73.2549 100.055ZM16.4249 18.3137C16.4249 18.8551 16.2643 19.3844 15.9635 19.8346C15.6627 20.2848 15.2352 20.6356 14.735 20.8428C14.2348 21.05 13.6843 21.1042 13.1533 20.9986C12.6223 20.893 12.1345 20.6322 11.7517 20.2494C11.3689 19.8666 11.1081 19.3788 11.0025 18.8478C10.8969 18.3168 10.9511 17.7663 11.1583 17.2661C11.3655 16.7659 11.7163 16.3384 12.1665 16.0376C12.6167 15.7368 13.146 15.5762 13.6874 15.5762C14.4134 15.5762 15.1097 15.8647 15.6231 16.378C16.1364 16.8914 16.4249 17.5877 16.4249 18.3137ZM63.1262 21.0512H35.2587C34.5327 21.0512 33.8364 20.7628 33.323 20.2494C32.8096 19.736 32.5212 19.0397 32.5212 18.3137C32.5212 17.5877 32.8096 16.8914 33.323 16.378C33.8364 15.8647 34.5327 15.5762 35.2587 15.5762H63.2631C63.9891 15.5762 64.6854 15.8647 65.1988 16.378C65.7121 16.8914 66.0006 17.5877 66.0006 18.3137C66.0006 19.0397 65.7121 19.736 65.1988 20.2494C64.6854 20.7628 63.9891 21.0512 63.2631 21.0512H63.1262ZM8.04818 36.6274C7.35587 36.676 6.70785 36.9857 6.23522 37.4939C5.76259 38.0021 5.50062 38.6709 5.50233 39.3649V59.458C5.50233 60.184 5.79074 60.8803 6.30412 61.3937C6.81749 61.9071 7.51378 62.1955 8.2398 62.1955H41.3359V67.6704H8.21243C6.03436 67.6704 3.94549 66.8052 2.40536 65.265C0.865235 63.7249 0 61.6361 0 59.458L0 39.3923C0.00456497 37.37 0.755114 35.4205 2.10786 33.9173C0.755114 32.4141 0.00456497 30.4646 0 28.4424L0 8.21243C0 6.03436 0.865235 3.94549 2.40536 2.40536C3.94549 0.865236 6.03436 0 8.21243 0L68.6559 0C70.834 0 72.9228 0.865236 74.463 2.40536C76.0031 3.94549 76.8683 6.03436 76.8683 8.21243V28.3055C76.8638 30.3278 76.1132 32.2772 74.7605 33.7805C76.1132 35.2837 76.8638 37.2331 76.8683 39.2554V41.3906H76.6493H75.1437H71.4208V39.3375C71.4216 38.6346 71.1521 37.9583 70.6679 37.4487C70.1838 36.9391 69.5222 36.6352 68.8201 36.6001H8.04818V36.6274ZM25.3764 18.3137C25.3764 19.0397 25.088 19.736 24.5746 20.2494C24.0612 20.7628 23.365 21.0512 22.6389 21.0512C21.9129 21.0512 21.2166 20.7628 20.7032 20.2494C20.1899 19.736 19.9015 19.0397 19.9015 18.3137C19.9015 17.5877 20.1899 16.8914 20.7032 16.378C21.2166 15.8647 21.9129 15.5762 22.6389 15.5762C23.365 15.5762 24.0612 15.8647 24.5746 16.378C25.088 16.8914 25.3764 17.5877 25.3764 18.3137ZM16.4249 49.4388C16.4249 49.9802 16.2643 50.5095 15.9635 50.9597C15.6627 51.4099 15.2352 51.7607 14.735 51.9679C14.2348 52.1751 13.6843 52.2293 13.1533 52.1237C12.6223 52.0181 12.1345 51.7574 11.7517 51.3745C11.3689 50.9917 11.1081 50.5039 11.0025 49.9729C10.8969 49.4419 10.9511 48.8914 11.1583 48.3912C11.3655 47.891 11.7163 47.4635 12.1665 47.1627C12.6167 46.8619 13.146 46.7013 13.6874 46.7013C14.4134 46.7013 15.1097 46.9898 15.6231 47.5031C16.1364 48.0165 16.4249 48.7128 16.4249 49.4388ZM41.637 52.1763H35.2587C34.5327 52.1763 33.8364 51.8879 33.323 51.3745C32.8096 50.8611 32.5212 50.1648 32.5212 49.4388C32.5212 48.7128 32.8096 48.0165 33.323 47.5031C33.8364 46.9898 34.5327 46.7013 35.2587 46.7013H46.674C45.9505 47.1271 45.2637 47.6124 44.6209 48.1522C43.2933 49.2103 42.2804 50.6113 41.6918 52.2037L41.637 52.1763ZM25.2122 49.4388C25.2122 49.9802 25.0516 50.5095 24.7508 50.9597C24.45 51.4099 24.0225 51.7607 23.5223 51.9679C23.0221 52.1751 22.4716 52.2293 21.9406 52.1237C21.4096 52.0181 20.9218 51.7574 20.539 51.3745C20.1561 50.9917 19.8954 50.5039 19.7898 49.9729C19.6842 49.4419 19.7384 48.8914 19.9456 48.3912C20.1528 47.891 20.5036 47.4635 20.9538 47.1627C21.404 46.8619 21.9333 46.7013 22.4747 46.7013C22.8477 46.6789 23.2215 46.7331 23.5728 46.8606C23.9241 46.9881 24.2456 47.1862 24.5174 47.4427C24.7893 47.6991 25.0058 48.0086 25.1535 48.3519C25.3012 48.6952 25.3771 49.0651 25.3764 49.4388H25.2122ZM8.21243 5.47495C7.4864 5.47495 6.79012 5.76336 6.27674 6.27674C5.76336 6.79012 5.47495 7.48641 5.47495 8.21243V28.3055C5.47369 29.0039 5.73945 29.6765 6.21782 30.1854C6.69619 30.6943 7.35099 31.0011 8.04818 31.043H68.8201C69.5222 31.0078 70.1838 30.704 70.6679 30.1944C71.1521 29.6847 71.4216 29.0084 71.4208 28.3055V8.21243C71.4208 7.48641 71.1323 6.79012 70.619 6.27674C70.1056 5.76336 69.4093 5.47495 68.6833 5.47495H8.21243Z" fill="#003968"/>
</g>
<defs>
<clipPath id="clip0_345_5425">
<rect width="100" height="100" fill="white"/>
</clipPath>
</defs>
</svg>
