<svg width="100" height="100" viewBox="0 0 100 100" fill="none" xmlns="http://www.w3.org/2000/svg">
<path fill-rule="evenodd" clip-rule="evenodd" d="M21.3599 29.7451C21.3599 30.4492 21.1511 31.1375 20.7599 31.7229C20.3688 32.3084 19.8128 32.7647 19.1623 33.0341C18.5118 33.3036 17.796 33.3741 17.1054 33.2367C16.4148 33.0993 15.7805 32.7603 15.2826 32.2624C14.7848 31.7645 14.4457 31.1302 14.3083 30.4396C14.171 29.7491 14.2415 29.0333 14.5109 28.3828C14.7804 27.7323 15.2367 27.1763 15.8221 26.7851C16.4075 26.3939 17.0958 26.1851 17.7999 26.1851C18.7441 26.1851 19.6496 26.5602 20.3172 27.2278C20.9848 27.8954 21.3599 28.8009 21.3599 29.7451ZM82.0933 33.3051H45.8526C44.965 33.2249 44.1398 32.8147 43.54 32.1556C42.9402 31.4964 42.6094 30.6363 42.613 29.7451C42.6094 28.8539 42.9402 27.9938 43.54 27.3346C44.1398 26.6755 44.965 26.2653 45.8526 26.1851H82.2713C83.2154 26.1851 84.1209 26.5602 84.7886 27.2278C85.4562 27.8954 85.8313 28.8009 85.8313 29.7451C85.8313 30.6893 85.4562 31.5948 84.7886 32.2624C84.1209 32.93 83.2154 33.3051 82.2713 33.3051H82.0933ZM89.2132 93.8249H10.68C7.84746 93.8249 5.13097 92.6996 3.12809 90.6968C1.12521 88.6939 0 85.9774 0 83.1449L0 57.0146C0.00593657 54.3847 0.981997 51.8495 2.74119 49.8946C0.981997 47.9398 0.00593657 45.4045 0 42.7747L0 16.68C0 13.8475 1.12521 11.131 3.12809 9.12809C5.13097 7.12521 7.84746 6 10.68 6L89.2844 6C92.1169 6 94.8334 7.12521 96.8363 9.12809C98.8392 11.131 99.9644 13.8475 99.9644 16.68V42.7035C99.9682 45.3286 99.0051 47.8633 97.2588 49.8234C99.0051 51.7836 99.9682 54.3182 99.9644 56.9434V83.0025C99.9785 84.414 99.7127 85.8142 99.1823 87.1223C98.6519 88.4304 97.8675 89.6204 96.8743 90.6235C95.8812 91.6266 94.6991 92.4228 93.3963 92.9662C92.0935 93.5096 90.696 93.7893 89.2844 93.7893L89.2132 93.8249ZM10.68 53.4546C9.77329 53.5091 8.92175 53.9081 8.29965 54.5699C7.67754 55.2317 7.33193 56.1063 7.33357 57.0146V83.0737C7.33357 84.0179 7.70864 84.9234 8.37627 85.591C9.04389 86.2586 9.94939 86.6337 10.8936 86.6337H89.2844C90.2286 86.6337 91.1341 86.2586 91.8017 85.591C92.4694 84.9234 92.8444 84.0179 92.8444 83.0737V57.0146C92.8456 56.1005 92.495 55.2209 91.8654 54.5582C91.2358 53.8955 90.3754 53.5003 89.4624 53.4546H10.68ZM33.0011 29.7451C33.0011 30.4492 32.7923 31.1375 32.4011 31.7229C32.0099 32.3084 31.4539 32.7647 30.8034 33.0341C30.1529 33.3036 29.4371 33.3741 28.7466 33.2367C28.056 33.0993 27.4217 32.7603 26.9238 32.2624C26.4259 31.7645 26.0869 31.1302 25.9495 30.4396C25.8121 29.7491 25.8826 29.0333 26.1521 28.3828C26.4215 27.7323 26.8778 27.1763 27.4633 26.7851C28.0487 26.3939 28.737 26.1851 29.4411 26.1851C30.3852 26.1851 31.2907 26.5602 31.9584 27.2278C32.626 27.8954 33.0011 28.8009 33.0011 29.7451ZM21.3599 70.0797C21.3599 70.7838 21.1511 71.4721 20.7599 72.0576C20.3688 72.643 19.8128 73.0993 19.1623 73.3687C18.5118 73.6382 17.796 73.7087 17.1054 73.5713C16.4148 73.434 15.7805 73.0949 15.2826 72.597C14.7848 72.0992 14.4457 71.4648 14.3083 70.7743C14.171 70.0837 14.2415 69.3679 14.5109 68.7174C14.7804 68.0669 15.2367 67.5109 15.8221 67.1197C16.4075 66.7285 17.0958 66.5198 17.7999 66.5198C18.7441 66.5198 19.6496 66.8948 20.3172 67.5625C20.9848 68.2301 21.3599 69.1356 21.3599 70.0797ZM82.0933 73.6397H45.8526C44.9084 73.6397 44.003 73.2647 43.3353 72.597C42.6677 71.9294 42.2926 71.0239 42.2926 70.0797C42.2926 69.1356 42.6677 68.2301 43.3353 67.5625C44.003 66.8948 44.9084 66.5198 45.8526 66.5198H82.2713C83.2154 66.5198 84.1209 66.8948 84.7886 67.5625C85.4562 68.2301 85.8313 69.1356 85.8313 70.0797C85.8313 71.0239 85.4562 71.9294 84.7886 72.597C84.1209 73.2647 83.2154 73.6397 82.2713 73.6397H82.0933ZM33.0011 70.0797C33.0011 70.7838 32.7923 71.4721 32.4011 72.0576C32.0099 72.643 31.4539 73.0993 30.8034 73.3687C30.1529 73.6382 29.4371 73.7087 28.7466 73.5713C28.056 73.434 27.4217 73.0949 26.9238 72.597C26.4259 72.0992 26.0869 71.4648 25.9495 70.7743C25.8121 70.0837 25.8826 69.3679 26.1521 68.7174C26.4215 68.0669 26.8778 67.5109 27.4633 67.1197C28.0487 66.7285 28.737 66.5198 29.4411 66.5198C30.3852 66.5198 31.2907 66.8948 31.9584 67.5625C32.626 68.2301 33.0011 69.1356 33.0011 70.0797ZM10.68 13.12C9.73579 13.12 8.83029 13.495 8.16267 14.1627C7.49504 14.8303 7.11997 15.7358 7.11997 16.68V42.7035C7.11833 43.6118 7.46394 44.4863 8.08605 45.1481C8.70815 45.81 9.55969 46.2089 10.4664 46.2634H89.4624C90.4066 46.2634 91.3121 45.8884 91.9797 45.2207C92.6474 44.5531 93.0224 43.6476 93.0224 42.7035V16.68C93.0224 15.7358 92.6474 14.8303 91.9797 14.1627C91.3121 13.495 90.4066 13.12 89.4624 13.12H10.68Z" fill="#003968"/>
</svg>
