<svg width="100" height="100" viewBox="0 0 100 100" fill="none" xmlns="http://www.w3.org/2000/svg">
<g clip-path="url(#clip0_345_5439)">
<path fill-rule="evenodd" clip-rule="evenodd" d="M0 0H6.24311V40.5795H19.2261C19.6892 39.2641 20.4412 38.0625 21.4333 37.0665C22.7467 35.748 24.4218 34.8489 26.2464 34.4832C28.0711 34.1174 29.9633 34.3015 31.6833 35.0119C31.841 35.0771 31.9965 35.1463 32.1499 35.2197L41.5029 25.8699C41.4266 25.7104 41.3547 25.5485 41.2873 25.3843C40.577 23.6541 40.3989 21.7515 40.7757 19.9196C41.1525 18.0877 42.0671 16.4098 43.4026 15.1005C44.7381 13.7912 46.4338 12.9099 48.2728 12.5695C50.1118 12.229 52.0106 12.4447 53.7263 13.1892C55.442 13.9336 56.8967 15.1728 57.9044 16.7484C58.9121 18.324 59.4269 20.1643 59.3831 22.034C59.3517 23.3719 59.0358 24.6742 58.4703 25.8602L67.8246 35.2144C68.5245 34.8808 69.2666 34.6334 70.0352 34.4805C71.8589 34.1177 73.7492 34.3039 75.4671 35.0155C75.6265 35.0815 75.7838 35.1518 75.9388 35.2262L89.3141 21.8509H81.2707V15.6078H100V34.3371H93.7569V26.2848L80.3571 39.6584C80.9561 40.9162 81.2707 42.2968 81.2707 43.7012C81.2707 46.1946 80.2802 48.5859 78.5171 50.349C76.754 52.1121 74.3627 53.1026 71.8693 53.1026C70.0099 53.1026 68.1922 52.5512 66.6462 51.5182C65.1001 50.4852 63.8951 49.0169 63.1835 47.299C62.472 45.5811 62.2858 43.6908 62.6486 41.8671C62.8041 41.0849 63.0577 40.3301 63.4003 39.6192L54.0646 30.2835C52.8134 30.8863 51.4326 31.2099 50.0184 31.2151C48.592 31.2203 47.1892 30.9009 45.9137 30.2882L36.5684 39.6302C37.1762 40.8955 37.4955 42.2862 37.4955 43.7012C37.4955 46.1882 36.5101 48.5739 34.7549 50.336C32.9997 52.098 30.6179 53.0928 28.1308 53.1026C26.2699 53.1098 24.4486 52.5646 22.8977 51.536C21.3469 50.5074 20.1361 49.0417 19.4189 47.3244C19.3497 47.1587 19.2854 46.9914 19.226 46.8226H6.24311V93.7561H12.1189V77.4884H24.6786V93.7561H34.4841V60.0803H47.0438V93.7561H56.849V80.9403H69.4087V93.7561H79.2509V68.7108H91.8106V93.7561H99.9999V99.9992L0 100V0ZM28.1308 40.5796C27.5031 40.5723 26.8875 40.7523 26.3625 41.0965C25.8376 41.4408 25.4271 41.9336 25.1835 42.5122C24.9399 43.0908 24.8743 43.7288 24.995 44.3449C25.1157 44.9609 25.4172 45.527 25.8611 45.9709C26.305 46.4148 26.8711 46.7163 27.4871 46.837C28.1032 46.9577 28.7412 46.8921 29.3198 46.6485C29.8984 46.4049 30.3912 45.9944 30.7355 45.4695C31.0797 44.9445 31.2597 44.3289 31.2524 43.7012C31.2429 42.8762 30.9109 42.0878 30.3276 41.5044C29.7442 40.9211 28.9558 40.5891 28.1308 40.5796ZM69.859 41.61C70.3791 41.0305 71.0951 40.6635 71.8693 40.5797C72.3102 40.5319 72.7561 40.5776 73.1782 40.7136C73.6003 40.8496 73.989 41.073 74.319 41.3692C74.649 41.6654 74.9129 42.0278 75.0936 42.4327C75.2743 42.8377 75.3677 43.2762 75.3677 43.7196C75.3677 44.163 75.2743 44.6015 75.0936 45.0065C74.9129 45.4114 74.649 45.7738 74.319 46.07C73.989 46.3662 73.6003 46.5896 73.1782 46.7256C72.7561 46.8616 72.3102 46.9073 71.8693 46.8595C71.0951 46.7757 70.3791 46.4087 69.859 45.8292C69.3388 45.2496 69.0511 44.4983 69.0511 43.7196C69.0511 42.9408 69.3388 42.1896 69.859 41.61ZM50.0184 18.7289C49.401 18.7289 48.7975 18.9119 48.2842 19.2549C47.7709 19.5979 47.3708 20.0855 47.1345 20.6558C46.8982 21.2262 46.8364 21.8539 46.9569 22.4594C47.0773 23.0649 47.3746 23.6211 47.8112 24.0577C48.2477 24.4942 48.8039 24.7915 49.4094 24.912C50.015 25.0324 50.6426 24.9706 51.213 24.7344C51.7834 24.4981 52.2709 24.098 52.6139 23.5847C52.9569 23.0713 53.14 22.4678 53.14 21.8504C53.14 21.0225 52.8111 20.2285 52.2257 19.6431C51.6403 19.0577 50.8463 18.7289 50.0184 18.7289Z" fill="#003968"/>
</g>
<defs>
<clipPath id="clip0_345_5439">
<rect width="100" height="100" fill="white"/>
</clipPath>
</defs>
</svg>
