<svg width="250" height="82" viewBox="0 0 250 82" fill="none" xmlns="http://www.w3.org/2000/svg">
<path fill-rule="evenodd" clip-rule="evenodd" d="M27.4468 74.6848C27.6392 74.8155 27.3953 74.6803 27.7831 74.8794C27.8013 74.8883 28.065 75.0145 28.1059 75.0309C28.3422 75.126 28.6437 75.1973 28.8968 75.2923C30.6104 75.9355 32.0741 76.1999 33.8195 76.6708C37.1119 77.5576 41.9635 77.7745 45.268 77.2665C46.118 77.1358 47.0862 77.2858 47.9014 76.9843C49.0892 76.5446 50.4014 76.448 51.5362 76.1019L55.0877 74.9878C55.1271 74.9641 55.2423 74.8749 55.2741 74.8497L55.4635 74.6848C55.4423 74.3936 55.4514 74.0668 55.4014 73.792L55.0786 71.1717C54.9862 70.0279 54.7786 68.9569 54.6998 67.7002L54.2377 64.254C53.9332 63.1711 54.1953 61.7852 53.9665 60.6072C53.8347 59.9269 53.9105 60.6785 53.7847 59.9522C53.7347 59.661 53.7392 59.2421 53.7256 58.9331C53.6908 58.1993 53.562 57.8993 53.4802 57.2873L53.0589 53.8945C52.9832 52.1432 52.7665 51.5743 52.715 50.3235L51.8741 42.3482C51.8074 42.0689 51.7256 41.9931 51.6862 41.5564C51.6317 40.9474 51.6347 40.2359 51.6059 39.615C51.562 38.7073 51.4059 38.6999 51.3362 37.9958C51.2771 37.3838 51.3377 36.7332 51.2059 36.1375L50.2453 27.4299C50.2241 26.751 50.2498 26.2118 49.4998 26.243C48.7801 26.2742 48.2862 27.981 48.0089 28.6539C47.9604 28.7727 47.821 29.0891 47.7347 29.2896L43.8998 37.8666C43.8847 37.8993 43.8665 37.9364 43.8514 37.9676L41.4332 43.3211C41.4195 43.3553 41.4029 43.3939 41.3877 43.4281L40.5316 45.2477C40.5165 45.276 40.4938 45.3116 40.4786 45.3413C40.462 45.371 40.4407 45.4082 40.4256 45.4379L35.418 56.5713C35.3983 56.6129 35.3392 56.7317 35.3195 56.7748C35.1377 57.1714 35.3195 56.7555 35.2271 56.9842C33.8695 60.3428 32.2665 63.6672 30.7362 66.9634C30.6331 67.1848 30.6983 67.0541 30.6028 67.2858L27.6756 73.798C27.5044 74.2035 27.5104 74.156 27.4468 74.6848Z" fill="#015998"/>
<path fill-rule="evenodd" clip-rule="evenodd" d="M5.72119 51.3604C5.85452 52.3631 6.29998 53.0582 6.65301 54L11.4182 62.5383L13.5288 65.0695C13.5515 65.0933 13.5818 65.1245 13.6045 65.1483L15.4621 67.0466C15.7197 67.3096 15.85 67.3898 16.1 67.6156C16.1212 67.6364 16.1545 67.6646 16.1757 67.6854L18.5272 69.6759C18.5545 69.6937 18.5894 69.719 18.6166 69.7383L20.4485 71.0781C20.4772 71.0975 20.5151 71.1182 20.5439 71.1361C20.7636 71.2712 20.6894 71.2118 20.9257 71.3663C21.6924 71.8639 22.4621 72.4834 23.3363 72.7864L27.8378 63.9881C27.853 63.9554 27.8712 63.9153 27.8848 63.8827L30.4136 58.9287C30.5091 58.7297 30.6894 58.3479 30.8 58.131L31.0636 57.6661C31.0803 57.6379 31.1015 57.5992 31.1181 57.571L36.8166 46.3396C37.053 45.885 37.2984 45.2923 37.5197 44.817C37.8287 44.1545 37.9909 44.0743 38.306 43.385C38.4424 43.0909 38.4984 42.9706 38.6439 42.6601L42.8651 34.3001C42.8818 34.2674 42.9 34.2288 42.9151 34.1961L44.0727 31.9219C44.0878 31.8907 44.109 31.8536 44.1257 31.8224C44.1469 31.7808 44.209 31.6634 44.2303 31.6218L45.4212 29.2243C45.5378 28.9792 45.5121 29.0193 45.6166 28.8262C45.6318 28.7995 45.6545 28.7609 45.6697 28.7341C45.6848 28.7074 45.709 28.6702 45.7242 28.6435L46.5893 26.9575C46.8333 26.4584 47.2106 25.894 47.2303 25.3607C47.203 25.3354 47.159 25.2612 47.1469 25.2864L46.6151 24.8438L36.6909 31.2104C36.6545 31.2341 36.55 31.3084 36.5136 31.3322L36.3318 31.4525C36.0909 31.6025 35.853 31.7273 35.656 31.8491L28.6151 36.396C28.2591 36.6634 28.306 36.5669 27.9591 36.7808C27.9303 36.7986 27.8924 36.8224 27.8651 36.8402L18.5727 42.8785C18.5333 42.9038 18.4242 42.9751 18.3863 42.9988L16.556 44.1738C16.5257 44.1916 16.4879 44.2139 16.4591 44.2332C16.2712 44.3521 16.0394 44.5259 15.8469 44.6536L11.9879 47.1209C11.6333 47.3408 11.7045 47.3244 11.3757 47.5502L9.1727 48.9599C8.07574 49.6284 6.57877 50.4186 5.72119 51.3604Z" fill="#015998"/>
<path fill-rule="evenodd" clip-rule="evenodd" d="M59.6453 72.7583C60.3801 72.6959 61.0513 72.1166 61.5938 71.714C61.9059 71.4823 61.6165 71.6754 61.9559 71.4853L69.3544 65.3326L71.5726 62.6157C71.8013 62.3468 71.9559 62.2458 72.1529 61.9829L74.9468 57.3067C75.818 55.6326 76.2271 54.52 76.8316 53.0361C76.9574 52.7271 77.0483 52.5637 77.1392 52.2117C77.1907 52.0156 77.1968 51.9279 77.2589 51.717L76.6741 50.2702C76.6498 50.2479 76.618 50.2182 76.5938 50.1944L74.7604 48.2708C74.6347 48.1401 74.6877 48.195 74.5347 48.045L70.8165 44.116C70.5044 43.8234 70.3438 43.6733 70.0604 43.3658L65.9044 38.9734C65.7756 38.8531 65.8907 38.9779 65.6771 38.761L63.6544 36.5803C63.5119 36.4541 63.4256 36.3872 63.2741 36.2179L61.7741 34.5824C61.7438 34.5497 61.6544 34.4562 61.6241 34.425C61.6013 34.3997 61.5695 34.37 61.5468 34.3462L61.3923 34.1858C61.2241 34.0105 61.1362 33.911 60.9589 33.7179C60.2135 32.9068 59.3498 32.1849 58.7059 31.3234L57.8998 30.493C57.8756 30.4692 57.8438 30.4395 57.8195 30.4158C57.8165 30.4113 57.6468 30.2375 57.5907 30.1796L55.312 27.8237C55.1165 27.6142 55.0923 27.5682 54.8801 27.3602L53.4029 25.7158C51.0923 25.9089 52.2998 26.8566 52.6938 30.8629L53.9574 38.1861C54.4271 40.4247 54.7498 44.2393 55.1741 45.799L56.1801 51.7824C56.4695 53.0465 56.5786 54.8186 56.9301 56.0976C57.0741 56.6279 57.0877 57.1686 57.1241 57.7538L57.5301 59.9716C57.5559 60.0726 57.6195 60.2553 57.6332 60.2999C57.7059 60.5465 57.6316 60.1454 57.7256 60.6193C57.8165 61.0723 57.8074 61.7378 57.8438 62.2161L59.6453 72.7583Z" fill="#015998"/>
<path fill-rule="evenodd" clip-rule="evenodd" d="M4.60736 46.4822C5.48463 46.5268 5.99372 46.044 6.66039 45.6296L9.22554 44.11C9.25433 44.0936 9.29373 44.0743 9.32554 44.058L9.93464 43.7594C10.3225 43.547 10.1513 43.6153 10.4801 43.4281L26.8725 33.9436C27.0937 33.8218 27.318 33.7148 27.5619 33.5782L29.9013 32.167C29.9301 32.1507 29.968 32.1284 29.9983 32.1121L30.3998 31.8981C30.4316 31.8818 30.471 31.861 30.5013 31.8447C30.5422 31.8224 30.6589 31.76 30.6983 31.7392C30.8952 31.6308 31.1725 31.4748 31.3665 31.3738L38.0028 27.5933C38.1225 27.525 38.1695 27.5042 38.2862 27.4374C38.5104 27.3081 38.3725 27.3928 38.5543 27.274L43.4074 24.4516C43.5392 24.3863 43.6089 24.3595 43.721 24.3031L45.4013 23.2811L45.3574 21.8685L38.5771 21.7051C37.668 21.6857 37.4574 21.509 36.624 21.457C35.1725 21.3679 33.6498 21.3664 32.224 21.3174C29.4149 21.2208 26.4998 20.839 23.7362 20.7841L10.5649 20.1572L9.32706 22.072C9.32706 22.072 9.21948 22.2071 9.13463 22.3334L8.1907 24.0669C7.91191 24.5942 7.73918 24.9359 7.48918 25.4914C7.2816 25.9534 7.04221 26.6085 6.86948 26.9635C6.76191 27.1863 6.59827 27.4938 6.54069 27.6617L5.74069 29.976C5.59979 30.5538 5.57857 30.4439 5.48615 30.7722L4.45282 34.9166C4.32554 35.5612 4.45585 36.1911 4.27554 36.8818C3.84372 38.541 4.06342 41.1584 4.09978 42.8919C4.12706 44.2838 4.34372 45.2998 4.60736 46.4822Z" fill="#015998"/>
<path fill-rule="evenodd" clip-rule="evenodd" d="M55.5087 21.4585C55.3647 22.0007 55.4102 22.3498 55.2268 22.8251C54.8784 23.7283 54.4435 23.9214 54.9935 24.5661L58.3496 27.6721C58.5662 27.8816 58.5481 27.8474 58.7481 28.0227C58.7708 28.0435 58.8056 28.0717 58.8284 28.0925C58.8511 28.1133 58.8844 28.1415 58.9072 28.1638L60.2147 29.4071C60.239 29.4309 60.2723 29.4606 60.2965 29.4829L63.992 32.9811C64.2193 33.1712 64.092 33.0628 64.2511 33.1861C64.645 33.4936 64.7223 33.5723 65.0435 33.8768L68.6768 37.2874C68.8602 37.4761 68.895 37.5251 69.0481 37.6721L77.6329 45.6267C77.7087 45.6861 78.0405 45.9475 78.0541 45.955L78.5056 46.0604C79.2996 43.4787 79.0193 35.9297 78.0526 32.7301C77.8753 32.1403 77.8587 31.5477 77.6647 31.0114C76.5147 27.8147 76.4238 26.8863 74.6284 23.6154L72.8693 20.7232C72.7284 20.5197 72.7996 20.6148 72.6329 20.343L72.2208 19.7295C71.2905 19.6493 69.989 19.7042 69.1071 19.9374L64.9405 20.4499C64.2814 20.5376 64.4632 20.5895 64.0011 20.6638C63.3299 20.7708 62.4738 20.6876 61.789 20.8079C59.8465 21.1496 57.4405 21.3486 55.5087 21.4585Z" fill="#015998"/>
<path fill-rule="evenodd" clip-rule="evenodd" d="M13.8042 16.2997L17.6739 16.7334C17.9875 16.7453 18.4193 16.7513 18.7239 16.7943L29.4542 18.1357C30.9799 18.4655 31.8966 18.1921 34.3572 18.6749C34.7148 18.7462 35.1193 18.7477 35.4405 18.7952C36.0708 18.8873 36.6739 19.0255 37.3799 19.076C38.3027 19.1413 38.639 19.1592 39.4148 19.327C40.1163 19.48 40.8814 19.382 41.6042 19.4785C42.7663 19.633 44.4026 20.1187 45.5542 19.9346L45.8981 19.1948C45.9148 19.1621 45.9329 19.1235 45.9496 19.0908C47.1026 16.772 47.5632 18.4907 46.4481 16.319L43.9587 12.0691C43.8193 11.8092 43.9178 11.9934 43.8026 11.7676L39.792 4.85731C39.4481 4.20223 39.4208 4.13984 38.442 4.18144L33.6011 4.88257C33.3087 4.94198 32.4451 5.15737 32.0557 5.27027C27.536 6.58934 30.2345 5.70996 26.6512 7.10182L23.0057 8.88583C22.5299 9.12499 22.1587 9.3285 21.7648 9.60182L17.8754 12.335C17.8512 12.3573 17.8163 12.3855 17.7921 12.4063L15.233 14.6494C15.2103 14.6716 15.1784 14.7028 15.1557 14.7251C15.1315 14.7474 15.0997 14.7786 15.0754 14.7994C14.6754 15.1707 13.9269 15.7946 13.8042 16.2997Z" fill="#015998"/>
<path fill-rule="evenodd" clip-rule="evenodd" d="M49.3421 16.6472C49.5709 16.5938 50.0073 16.1986 51.2118 16.5254C52.2346 16.8032 52.9997 17.0364 53.8588 17.8014L55.027 19.4428C55.8513 19.3775 56.1588 19.2171 56.8846 19.0641L69.1483 16.1511C69.0756 15.6668 67.5256 14.2735 66.9907 13.8635L59.0982 8.35549C57.6301 7.60832 55.4194 6.58782 53.7952 6.12287L50.2482 5.02365L44.0891 4.16357C43.9997 4.98651 45.5845 8.0688 45.9558 8.91105L46.7452 10.8213C46.8679 11.0531 46.833 10.9595 46.9497 11.2105C47.1058 11.5433 47.13 11.6799 47.28 12.0646L48.6467 15.1737C48.9967 15.9803 48.8709 15.9565 49.3421 16.6472Z" fill="#015998"/>
<path fill-rule="evenodd" clip-rule="evenodd" d="M125.026 25.0487C124.733 25.1765 122.766 25.3458 121.097 26.7421C120.519 27.2249 120.139 27.6096 119.698 28.1994C119.492 28.4756 119.356 28.6806 119.16 28.9926L118.686 29.872C117.623 32.1491 118.013 37.4804 118.016 40.4988C118.019 44.046 117.897 48.5915 121.572 50.8434C123.706 52.1506 126.076 52.5918 128.545 52.0496C129.3 51.8832 129.445 52.0882 130.233 51.7258L131.625 51.0335C131.789 50.9474 131.98 50.8583 132.119 50.7691C132.878 50.2879 134.685 48.2305 134.944 47.158L135.431 44.915C135.818 43.2795 135.597 33.1221 135.304 31.4346L134.841 29.7754C134.827 29.7427 134.806 29.7071 134.792 29.6759C134.777 29.6447 134.754 29.609 134.739 29.5808C134.732 29.5645 134.606 29.3461 134.577 29.2941C134.392 28.9673 134.307 28.8307 134.03 28.4994C133.428 27.779 133.786 27.9023 132.707 26.9768C132.106 26.4599 130.838 25.6607 130.118 25.3948C129.236 25.071 125.986 24.6254 125.026 25.0487ZM125.695 30.3963C124.763 31.0351 124.315 31.2133 123.926 32.1863L123.621 33.8084C123.616 36.1479 123.371 42.7775 123.936 44.9507C124.307 46.3797 126.283 47.6987 128.595 46.2831L129.124 45.8909C129.81 45.1839 129.812 44.2287 129.809 43.1741C129.806 41.4094 130.072 33.0151 129.539 31.9961C129.269 31.4822 128.918 31.2044 128.541 30.9222C127.671 30.2715 126.326 29.9655 125.695 30.3963Z" fill="#015998"/>
<path fill-rule="evenodd" clip-rule="evenodd" d="M227.324 51.9811L232.717 51.9663L239.015 39.8406C239.032 39.8094 239.051 39.7708 239.068 39.7396L239.879 38.0016C240.108 37.7045 239.63 37.8976 240.292 37.6941C240.544 38.3492 240.398 50.206 240.373 51.9737L245.988 51.9782L245.977 25.1852L240.897 25.1837L236.945 32.9155C236.767 33.2215 236.717 33.4264 236.521 33.8394L233.567 39.7069C233.273 40.2001 233.262 40.3323 232.924 40.5194L232.898 25.1748L227.358 25.1837L227.324 51.9811Z" fill="#015998"/>
<path fill-rule="evenodd" clip-rule="evenodd" d="M180.519 45.6994L175.442 44.116C175.08 44.6017 175.053 45.1424 174.701 45.5762L174.147 46.0693C173.109 46.8596 171.672 47.2205 170.58 46.6026L170.054 46.2327C168.578 44.9968 169.047 41.0664 169.047 38.4193C169.047 36.9829 169.041 35.5464 169.044 34.1115C169.048 32.5815 168.968 31.7199 170.221 30.9297C171.216 30.3013 172.281 29.9255 173.475 30.6965C174.539 31.3842 174.98 31.7719 175.365 33.293L179.26 32.0631C179.706 31.9487 179.551 32.0631 179.962 31.8625L180.534 31.4362C180.378 30.0533 179.695 28.9451 179.083 28.1564L178.294 27.3112C178.088 27.124 178.163 27.1923 177.975 27.0141C176.913 25.9995 174.354 24.9805 173.027 24.9374C170.978 24.8706 170.383 24.9047 168.859 25.4336C168.141 25.6831 167.898 25.7811 167.283 26.0961L166.159 26.9338C166.135 26.9546 166.101 26.9844 166.079 27.0051C166.056 27.0245 166.021 27.0527 165.998 27.0735L164.847 28.3257C162.9 30.9386 163.271 35.1231 163.271 38.5678C163.271 42.3008 162.913 46.616 165.195 49.3551L165.772 49.9924C165.962 50.1885 166.082 50.2984 166.309 50.4826L168.653 51.7556C170.283 52.4181 172.928 52.4077 174.797 51.8967C176.188 51.5164 176.639 51.2639 177.744 50.4662C179.144 49.4546 180.391 47.5043 180.519 45.6994Z" fill="#015998"/>
<path fill-rule="evenodd" clip-rule="evenodd" d="M158.4 45.6994L158.151 45.5732C157.994 45.5048 157.954 45.487 157.797 45.4306C156.879 45.0934 153.788 44.1382 153.018 44.1947C152.7 44.8052 152.876 45.7291 151.059 46.604C149.686 47.2651 148.103 46.7496 147.251 45.5776C146.388 44.3907 146.715 40.4231 146.715 38.5678C146.715 37.6676 146.572 33.0227 146.865 32.3661L148.429 30.646C150.209 29.7265 151.95 30.7707 152.739 32.1492L152.838 32.3572C152.854 32.3899 152.868 32.4329 152.883 32.4641C153.257 33.2217 153.707 33.0657 154.524 32.7939C154.689 32.7389 154.903 32.678 155.098 32.6082L157.169 32.0794C158.08 31.8195 157.704 32.118 158.368 31.5848C158.398 30.7366 157.845 29.7621 157.442 29.0357C156.606 27.5251 156.372 27.6498 155.241 26.5981C154.813 26.2015 154.815 26.3827 154.048 25.8435L153.877 25.7217C153.609 25.5613 153.882 25.7024 153.466 25.5316C151.244 24.6151 148.085 24.7265 146.165 25.493C145.324 25.8287 145.85 25.6534 145.263 26.0456C143.672 27.1076 142.829 27.5414 141.868 29.7116C140.729 32.2903 141.104 39.2689 141.118 43.0241C141.122 44.1531 141.224 46.2609 141.741 47.2517C142.26 48.2499 142.697 49.211 143.515 49.979C143.632 50.0874 143.666 50.132 143.813 50.2716C144.874 51.2758 146.235 51.763 147.382 52.0007C147.789 52.0838 147.819 52.1626 148.319 52.2146C150.674 52.4641 153.113 52.1239 155.076 50.8376L155.424 50.5806C155.45 50.5613 155.485 50.5316 155.51 50.5108L156.939 49.0758C157.565 48.2781 158.265 46.8833 158.4 45.6994Z" fill="#015998"/>
<path fill-rule="evenodd" clip-rule="evenodd" d="M202.063 51.9663C202.045 51.0647 202.053 50.1675 202.053 49.2643C202.051 48.8068 202.059 48.3716 202.069 47.9155C202.088 47.1966 202.242 46.9827 201.656 46.8787C201.606 47.1758 201.5 46.901 201.595 47.8249L201.356 51.5474C200.551 51.5029 200.354 51.3662 199.539 51.3855L187.554 51.4271C186.804 51.3766 186.912 51.2979 186.791 51.1538C186.409 50.6086 186.595 33.2512 186.61 30.9904C186.615 30.2789 186.544 26.3276 186.691 25.98C186.939 25.3888 190.703 25.6235 191.503 25.6235L199.23 25.6309C200.377 25.6294 200.736 25.5522 201.636 25.8419C201.628 26.5192 201.622 27.1936 201.619 27.871C201.613 29.2465 201.86 29.3549 201.412 29.7501C200.984 30.1288 197.363 29.9179 196.503 29.912L191.683 29.9402C191.172 31.3915 191.345 30.9354 191.353 32.923C191.366 36.9247 191.113 36.4227 195.745 36.4316C196.503 36.4331 197.269 36.4553 198.024 36.4405C199.025 36.4212 200.277 35.9711 200.2 37.354C200.168 37.9348 200.095 37.5145 200.034 38.2735C199.925 39.652 200.338 40.2031 199.375 40.4022H195.897C195.178 40.4007 194.478 40.423 193.768 40.4334C192.966 40.4452 192.56 40.1392 192.368 40.1808C192.022 40.2536 191.589 40.8136 191.463 41.1449C191.23 41.7584 191.369 46.1389 191.438 46.8505L191.863 46.8698L191.816 41.0305H200.456L200.498 40.9444L200.528 35.9889L191.801 35.9577L191.865 30.3116C193.871 30.2016 200.759 30.567 202.048 30.1719L202.013 25.1942C199.53 25.1883 187.525 24.9996 186.092 25.2551L186.069 51.8965C187.384 52.1505 199.769 51.9975 202.063 51.9663ZM201.656 46.8787L191.863 46.8698L191.438 46.8505C191.369 46.1389 191.23 41.7584 191.463 41.1449C191.589 40.8136 192.022 40.2536 192.368 40.1808C192.56 40.1392 192.966 40.4452 193.768 40.4334C194.478 40.423 195.178 40.4007 195.897 40.4022H199.375C200.338 40.2031 199.925 39.652 200.034 38.2735C200.095 37.5145 200.168 37.9348 200.2 37.354C200.277 35.9711 199.025 36.4212 198.024 36.4405C197.269 36.4553 196.503 36.4331 195.745 36.4316C191.113 36.4227 191.366 36.9247 191.353 32.923C191.345 30.9354 191.172 31.3915 191.683 29.9402L196.503 29.912C197.363 29.9179 200.984 30.1288 201.412 29.7501C201.86 29.3549 201.613 29.2465 201.619 27.871C201.622 27.1936 201.628 26.5192 201.636 25.8419C200.736 25.5522 200.377 25.6294 199.23 25.6309L191.503 25.6235C190.703 25.6235 186.939 25.3888 186.691 25.98C186.544 26.3276 186.615 30.2789 186.61 30.9904C186.595 33.2512 186.409 50.6086 186.791 51.1538C186.912 51.2979 186.804 51.3766 187.554 51.4271L199.539 51.3855C200.354 51.3662 200.551 51.5029 201.356 51.5474L201.595 47.8249C201.5 46.901 201.606 47.1758 201.656 46.8787ZM200.498 40.9444C200.913 40.9444 200.933 41.2504 200.912 39.7619C200.891 38.1205 201.025 36.8935 200.625 35.42C200.695 35.9711 200.777 35.6161 200.021 35.6606C199.716 35.6785 199.248 35.6562 198.927 35.6547L192.218 35.6161L192.163 30.625C193.997 30.5849 201.106 30.8834 202.224 30.3606L202.327 25.7839C202.192 25.0323 202.457 25.4779 202.013 25.1942L202.048 30.1719C200.759 30.567 193.871 30.2016 191.865 30.3116L191.801 35.9577L200.528 35.9889L200.498 40.9444Z" fill="#1B5C8B"/>
<path fill-rule="evenodd" clip-rule="evenodd" d="M101.889 33.666L101.9 36.98C103.666 37.0974 106.153 37.2846 107.363 36.1541L107.573 35.9135C108.279 34.9242 108.647 31.836 106.813 30.7115C105.835 30.1099 105.03 30.3015 103.624 30.303C101.548 30.3045 101.889 29.6657 101.889 33.666ZM96.2983 51.986L101.907 51.98L101.894 42.2296C104.565 41.8909 106.282 42.6574 108.541 41.7394C109.491 41.3532 110.874 40.5674 111.576 39.8217C112.13 39.2349 112.639 38.3556 112.973 37.6114C113.13 37.2563 113.024 37.5564 113.201 37.0825C113.285 36.8612 113.303 36.7676 113.385 36.5448C114.294 34.0418 113.862 29.6836 111.526 27.4064L110.792 26.7825C110.524 26.5701 110.809 26.7409 110.36 26.4795C110.321 26.4557 110.201 26.3918 110.159 26.371C110.127 26.3547 110.088 26.3354 110.054 26.3205L108.92 25.8006C106.535 24.7593 99.4059 25.2376 96.3317 25.1723L96.2983 51.986Z" fill="#015998"/>
<path fill-rule="evenodd" clip-rule="evenodd" d="M216.712 30.4199C216.218 30.4749 216.379 30.6398 216.361 31.2696C216.224 35.6323 216.641 49.4782 216.208 51.3439C215.368 51.7524 216.306 51.5325 215.447 51.6484L211.958 51.638C211.303 50.8403 211.52 50.57 211.526 49.2642L211.532 30.8388C211.447 30.0322 211.335 30.515 211.2 29.8035C210.186 29.8035 209.18 29.8124 208.17 29.8243C206.885 29.8391 206.686 30.0233 205.72 29.5153L205.77 25.8477C207.539 25.2699 211.759 25.6234 213.927 25.6234C215.858 25.6234 220.683 25.417 222.159 25.8091C222.291 28.6463 222.561 29.4692 221.412 29.7515C221.264 29.7871 221.009 29.8139 220.809 29.8272L216.656 29.8035C216.536 29.9936 216.638 30.0649 216.638 30.3249L222.568 30.2729L222.585 25.1986L205.27 25.1733L205.251 30.2729L211.029 30.2833L211.094 51.889C211.977 52.1505 215.567 52.0034 216.726 51.9915L216.712 30.4199ZM216.712 30.4199L216.638 30.3249C216.638 30.0649 216.536 29.9936 216.656 29.8035L220.809 29.8272C221.009 29.8139 221.264 29.7871 221.412 29.7515C222.561 29.4692 222.291 28.6463 222.159 25.8091C220.683 25.417 215.858 25.6234 213.927 25.6234C211.759 25.6234 207.539 25.2699 205.77 25.8477L205.72 29.5153C206.686 30.0233 206.885 29.8391 208.17 29.8243C209.18 29.8124 210.186 29.8035 211.2 29.8035C211.335 30.515 211.447 30.0322 211.532 30.8388L211.526 49.2642C211.52 50.57 211.303 50.8403 211.958 51.638L215.447 51.6484C216.306 51.5325 215.368 51.7524 216.208 51.3439C216.641 49.4782 216.224 35.6323 216.361 31.2696C216.379 30.6398 216.218 30.4749 216.712 30.4199Z" fill="#1B5C8B"/>
</svg>
