<svg width="200" height="51" viewBox="0 0 200 51" fill="none" xmlns="http://www.w3.org/2000/svg">
<g clip-path="url(#clip0_274_3945)">
<path fill-rule="evenodd" clip-rule="evenodd" d="M142.451 46.5528C142.357 47.6584 142.032 48.9576 141.935 50.0949H148.387C148.387 48.9993 148.774 47.9051 148.774 46.6793H154.193C155.699 46.6793 156.791 46.3263 157.583 45.5749C158.655 44.5578 158.789 44.2302 158.991 42.401C159.133 41.1069 159.335 39.7331 159.507 38.3529L160 34.2821C160 32.7906 158.611 31.499 157.161 31.499H137.935C137.037 31.499 135.927 32.1277 135.445 32.5996C134.769 33.2637 134.46 33.9785 134.299 35.1448C134.01 37.227 133.798 39.3763 133.476 41.5484C133.209 43.3523 132.676 45.5104 135.235 46.4174C136.207 46.7615 140.952 46.5528 142.451 46.5528Z" fill="#005A9C"/>
<path fill-rule="evenodd" clip-rule="evenodd" d="M37.5483 50.0949H44L45.0516 46.9387L51.0967 46.8058L51.4838 50.0949H57.9354C57.9354 49.2511 57.7638 48.4402 57.689 47.68L56.04 32.9779C55.9703 32.4225 56.0516 32.2163 55.7767 31.8444C55.578 31.5775 55.2722 31.3726 54.8387 31.3726H45.6774C43.8967 31.3726 43.8335 33.1537 42.9677 35.2941C42.3161 36.907 41.7754 38.549 41.1432 40.21L39.3071 45.1145C39.0154 45.9621 38.7006 46.6717 38.4025 47.5155C38.1561 48.2113 37.6051 49.4282 37.5483 50.0949Z" fill="#005A9C"/>
<path fill-rule="evenodd" clip-rule="evenodd" d="M102.192 50.0949C102.911 49.9697 102.737 49.5939 102.849 48.587L103.331 45.012C103.632 42.945 102.818 43.3903 106.967 43.3903C106.967 44.6338 106.734 45.6407 106.604 46.7021L106.193 50.0949H112.903C113.287 48.4782 114.6 36.8096 115.057 33.7369C115.164 33.0247 115.355 32.0456 115.355 31.3726H108.903C108.384 31.3726 108.547 31.8356 108.395 32.8982C108.2 34.2581 107.742 37.2777 107.742 38.3302H104.129C104.262 38.0595 105.032 32.0911 105.032 31.3726H98.7094L96.2578 50.0949H102.192Z" fill="#005A9C"/>
<path fill-rule="evenodd" clip-rule="evenodd" d="M59.6128 50.0949H65.9354C66.0231 49.0639 66.2412 47.8444 66.3973 46.7527L66.8386 43.3903H70.3225C70.3225 43.8634 70.1986 44.5743 70.1212 45.0905L69.5096 49.58C69.4838 49.9178 69.3534 50.0949 69.8064 50.0949H76.258C76.258 49.05 78.0644 36.1214 78.3328 33.7862C78.4309 32.9336 78.5806 32.3884 78.5806 31.3726H71.8709L71.2025 36.5364C71.138 36.9766 70.978 37.8609 70.9676 38.3302H67.4838L68.387 31.3726H61.9354C61.9354 33.5965 59.6128 47.3548 59.6128 50.0949Z" fill="#005A9C"/>
<path fill-rule="evenodd" clip-rule="evenodd" d="M21.4189 50.0949H27.7415L28.2577 46.5528C30.1944 46.5528 32.1325 46.5554 34.0693 46.5566C38.7364 46.5617 38.397 42.1303 38.7648 39.5231C38.8938 38.6135 38.9983 37.8001 39.0964 36.9387C39.3183 34.9817 39.9041 33.2271 38.2177 31.981C37.7028 31.6015 36.7544 31.3726 35.8706 31.3726H23.4835C23.4835 32.6439 22.6241 38.8387 22.4628 40.7451L21.4189 50.0949Z" fill="#005A9C"/>
<path fill-rule="evenodd" clip-rule="evenodd" d="M179.613 50.0949H191.097C192.524 50.0949 193.746 49.6964 194.488 48.9918C195.511 48.0215 195.619 47.4864 195.834 45.8836C196.112 43.7875 196.774 39.4864 196.774 37.6977C196.774 37.3523 196.592 37.0335 196.432 36.7679C196.277 36.506 196.364 36.63 196.17 36.3909L195.862 36.062C195.462 35.6901 194.828 35.2941 194.065 35.2941H187.613C187.613 34.0936 188.102 32.5541 188.129 31.3726H181.677L181.071 36.0911C180.844 37.7748 180.703 39.2461 180.462 40.9336C180.23 42.5503 180.05 44.0152 179.848 45.6445C179.759 46.3492 179.61 47.3169 179.521 47.981C179.361 49.1815 179.045 50.0949 179.613 50.0949Z" fill="#005A9C"/>
<path fill-rule="evenodd" clip-rule="evenodd" d="M114.967 50.0949H130.58C130.58 49.3788 130.774 48.4933 130.85 47.7027C130.934 46.8324 131.096 46.1859 131.096 45.1613H122.064C122.064 44.3479 122.305 43.6167 122.322 42.8842H131.483C131.507 41.8608 132 39.6774 132 38.5831H126.451C125.113 38.5831 124.287 38.7097 122.967 38.7097C122.967 37.9266 123.074 37.0677 123.225 36.4326H132.387C132.387 35.8583 132.901 31.7659 133.032 31.499H117.419L114.967 50.0949Z" fill="#005A9C"/>
<path fill-rule="evenodd" clip-rule="evenodd" d="M82.4516 50.0949H90.0645C91.7742 50.0949 93.5162 48.8336 94.191 47.8153C94.9458 46.678 95.0168 45.5066 95.2052 43.9974C95.3987 42.4491 95.9975 42.8842 88.9033 42.8842C88.9033 43.5395 88.6955 44.1834 88.6452 44.7818H85.1613C85.1613 43.6255 86.1949 37.943 86.3226 36.4326H89.8065C89.8065 37.2346 89.6774 37.4889 89.6774 38.3301C97.0426 38.3301 95.8723 38.8425 96.1845 36.6135L96.3871 34.2821C96.3871 32.6439 94.4465 31.499 92.7742 31.499H84.7742C83.7445 31.499 82.7729 32.0038 82.1136 32.4326C81.3329 32.9424 80.8568 33.4763 80.4258 34.32C79.7703 35.6015 79.222 41.7027 78.96 43.5091C78.7007 45.3093 78.0529 47.5939 79.7923 49.0335C80.4052 49.5395 81.3845 50.0949 82.4516 50.0949Z" fill="#005A9C"/>
<path fill-rule="evenodd" clip-rule="evenodd" d="M161.29 36.4326H166.838L166.379 39.7774C166.201 40.9829 166.062 42.0582 165.925 43.2536C165.802 44.3175 165.647 45.4586 165.476 46.6085L165.032 50.0949H171.355L173.161 36.4326C178.174 36.4326 177.422 36.8286 178.347 35.3182L180.774 31.3726H161.935L161.29 36.4326Z" fill="#005A9C"/>
<path fill-rule="evenodd" clip-rule="evenodd" d="M3.22559 36.4326H9.54817C9.46043 37.4636 9.24365 38.6831 9.08623 39.7748L7.74172 50.0949H14.0643L15.8707 36.4326H21.032L21.6772 31.3726H6.32236C6.2372 31.6838 5.77913 32.3403 5.57397 32.6629L3.95849 35.1271C3.68365 35.5838 3.34301 35.938 3.22559 36.4326Z" fill="#005A9C"/>
<path fill-rule="evenodd" clip-rule="evenodd" d="M105.361 21.7089C104.516 21.8316 102.206 21.4432 101.52 21.28C97.4371 20.3098 93.508 17.3268 91.9609 13.447C91.259 11.6886 91.0397 10.0795 92.0835 8.30469C92.3442 7.8594 92.6835 7.38628 93.29 7.33695C92.8719 6.77654 89.8538 6.07193 88.6461 7.97072C87.4577 9.84043 87.2964 13.8037 87.9532 15.9846C88.25 16.9714 88.4255 17.5368 88.859 18.3857C89.3829 19.4154 90.7984 21.3876 91.6848 22.0669C92.6009 22.769 91.9622 22.4628 93.4938 23.4559C95.5648 24.7955 98.6951 25.5735 101.531 25.2838C104.165 25.0131 107.613 23.4786 109.29 21.6317C109.806 21.0624 109.705 21.1535 109.806 20.9992C109.304 21.3509 105.815 21.6431 105.361 21.7089Z" fill="#005A9C"/>
<path fill-rule="evenodd" clip-rule="evenodd" d="M100.7 20.1138C101.161 20.1138 102.185 20.105 102.709 19.8608C104.654 19.3333 106.985 17.3763 108.262 16.0695C109.403 14.8994 111.083 14.0139 112.774 13.5395C113.296 12.759 113.889 12.0367 114.469 11.2764C115.029 10.5465 115.698 9.77985 116.129 8.98162C114.367 8.83741 112.003 8.19478 110.22 9.6407C108.815 10.7817 109.367 10.4415 108.419 11.4168C108.099 11.7457 107.876 12.0341 107.596 12.3807L103.517 17.1107C103.006 17.6609 101.998 18.2707 101.262 18.4415C99.7996 18.7818 98.9763 18.4921 97.9351 18.4693C98.1841 18.8033 100.153 19.9152 100.7 20.1138Z" fill="#005A9C"/>
<path fill-rule="evenodd" clip-rule="evenodd" d="M100.7 20.1136C101.954 20.6006 102.98 20.908 104.522 21.1193C105.286 21.223 105.798 21.2686 106.714 21.2572C107.539 21.2471 108.172 21.0156 108.903 20.9991C109.045 20.8701 108.677 20.8726 109.29 20.8726L109.548 20.7461H109.677C109.703 20.7284 109.747 20.6765 109.76 20.7006C109.812 20.803 111.616 19.6949 112.478 18.6854L114.68 16.0364C115.157 15.4697 115.73 14.7524 116.129 14.168C115.107 13.638 114.345 13.5216 112.774 13.5393C111.083 14.0137 109.403 14.8992 108.261 16.0693C106.985 17.3761 104.783 19.2066 102.838 19.7341C102.513 19.8226 100.709 20.1085 100.7 20.1136Z" fill="#EB1C2B"/>
<path fill-rule="evenodd" clip-rule="evenodd" d="M112.645 5.94546L114.606 3.0612C115.147 2.21237 115.659 1.5027 116.129 0.632362C115.604 0.620976 115.599 0.53116 115.079 0.505859H113.433C112.706 0.54634 111.711 0.795549 111.224 1.0106C108.451 2.23767 108.737 2.97898 108.129 3.41541C107.453 2.97139 106.911 2.50459 106.11 2.10611C105.339 1.72281 104.548 1.38378 103.716 1.16367C100.135 0.212374 96.0656 0.639952 92.9934 2.87145C92.1263 3.50017 89.9482 5.32939 89.6772 6.32496C90.8321 5.78227 91.8411 6.08334 92.2837 5.84425C92.4747 5.74179 92.7689 5.25981 92.9972 5.02578C93.3456 4.66525 93.5056 4.56911 93.894 4.26171C96.565 2.14786 99.9405 1.05994 103.521 1.7342C104.4 1.89991 105.244 2.15292 106.011 2.45526C106.388 2.602 106.702 2.76519 107.055 2.95115C107.476 3.17253 107.668 3.42174 108.129 3.54191L105.934 7.33571C105.213 8.69308 104.55 9.93913 103.783 11.299C102.795 13.0524 100.796 16.2997 98.9934 17.2295C98.4966 17.4863 98.374 17.4572 97.6772 17.4572V17.5837C100.08 17.5837 101.183 16.1694 102.599 14.3123C104.888 11.3142 106.808 7.46981 108.978 4.3743C110.351 2.41478 112.45 2.02389 114.839 2.02389L112.645 5.94546Z" fill="#005A9C"/>
<path fill-rule="evenodd" clip-rule="evenodd" d="M112.903 5.56592H112.774L112.881 5.71393L112.903 5.56592Z" fill="#005A9C"/>
<path fill-rule="evenodd" clip-rule="evenodd" d="M112.903 5.56599L113.032 5.31299L112.903 5.56599Z" fill="#005A9C"/>
<path fill-rule="evenodd" clip-rule="evenodd" d="M29.6771 36.4326H32.9029L32.0371 41.5092L28.7739 41.6192L29.6771 36.4326Z" fill="white"/>
<path fill-rule="evenodd" clip-rule="evenodd" d="M46.8384 42.1253H50.7093L50.0642 37.0652L48.7764 37.0146L46.8384 42.1253Z" fill="white"/>
<path fill-rule="evenodd" clip-rule="evenodd" d="M139.742 41.6192H143.226L143.871 36.4326H140.404L139.742 41.6192Z" fill="white"/>
<path fill-rule="evenodd" clip-rule="evenodd" d="M149.419 41.6192H152.903L153.548 36.4326H150.081L149.419 41.6192Z" fill="white"/>
<path fill-rule="evenodd" clip-rule="evenodd" d="M186.193 45.1611H189.548L190.193 40.2275H186.839L186.193 45.1611Z" fill="white"/>
</g>
<defs>
<clipPath id="clip0_274_3945">
<rect width="200" height="50.6009" fill="white"/>
</clipPath>
</defs>
</svg>
