<svg width="100" height="100" viewBox="0 0 100 100" fill="none" xmlns="http://www.w3.org/2000/svg">
<path fill-rule="evenodd" clip-rule="evenodd" d="M50.1385 99.8918C46.5934 99.8879 43.1567 98.6691 40.4013 96.4385C37.6459 94.2079 35.7382 91.1004 34.9962 87.6338H5L16.1765 65.3169V35.0684C16.0281 30.5177 16.7963 25.9837 18.4354 21.7359C20.0745 17.4881 22.551 13.6132 25.7176 10.3416C28.8843 7.07011 32.6764 4.46871 36.8686 2.69211C41.0607 0.915515 45.5674 0 50.1204 0C54.6735 0 59.1801 0.915515 63.3723 2.69211C67.5645 4.46871 71.3566 7.07011 74.5232 10.3416C77.6899 13.6132 80.1664 17.4881 81.8054 21.7359C83.4445 25.9837 84.2127 30.5177 84.0644 35.0684V65.2088L95.1327 87.6338H65.2447C64.5257 91.1143 62.6326 94.2421 59.8826 96.4933C57.1325 98.7446 53.6924 99.9826 50.1385 100V99.8918ZM14.9867 81.3606H85.2542L78.0435 66.6509V35.0684C78.178 31.3362 77.5591 27.6152 76.2236 24.1275C74.8881 20.6399 72.8636 17.4571 70.2708 14.7692C67.678 12.0813 64.5702 9.94347 61.1329 8.48329C57.6956 7.02311 53.9992 6.27055 50.2646 6.27055C46.53 6.27055 42.8337 7.02311 39.3964 8.48329C35.9591 9.94347 32.8513 12.0813 30.2585 14.7692C27.6657 17.4571 25.6412 20.6399 24.3057 24.1275C22.9702 27.6152 22.3513 31.3362 22.4857 35.0684V66.6509L14.9867 81.3606Z" fill="#003968"/>
</svg>
