<svg width="100" height="100" viewBox="0 0 100 100" fill="none" xmlns="http://www.w3.org/2000/svg">
<g clip-path="url(#clip0_345_5443)">
<path fill-rule="evenodd" clip-rule="evenodd" d="M97.0942 50.5464V53.5584L30.3785 53.5586C30.5658 59.6493 31.3221 65.2411 32.4841 70.183C37.7426 69.09 43.1312 68.5958 48.5472 68.7255H51.5593V74.8559H48.5472C43.6988 74.7194 38.872 75.131 34.1555 76.0694C37.7204 86.6296 43.2531 93.0193 48.4418 93.1047L48.547 93.1049H48.6464C49.6537 93.0903 50.6467 92.8612 51.5591 92.4323L51.5591 99.1998H48.6319L48.547 99.2006L48.3848 99.1996C38.8442 99.1677 29.523 96.3252 21.5868 91.0255C13.6056 85.6958 7.38312 78.12 3.7056 69.2554C1.62261 64.2343 0.409033 58.9274 0.0870673 53.5586H0V47.4991H0.102522C0.239265 45.3985 0.513016 43.3012 0.925094 41.2207C2.7897 31.8064 7.40282 23.1559 14.1816 16.3623C20.9604 9.56861 29.6008 4.93658 39.011 3.05139C41.5317 2.54639 44.0775 2.24457 46.6244 2.14363C47.2581 2.04843 47.8992 2 48.547 2C49.1971 2 49.8404 2.04852 50.4762 2.1439C56.142 2.36924 61.7546 3.58661 67.0517 5.77056C75.9243 9.42868 83.5137 15.6345 88.8609 23.6041C94.2081 31.5736 97.0732 40.9492 97.0942 50.5464ZM66.6425 47.4991H30.3819C30.5378 42.606 31.0612 38.036 31.8669 33.8678C37.3153 35.0509 42.9165 35.5662 48.5471 35.3812C54.1569 35.56 59.7367 35.0436 65.1649 33.8645C65.9678 38.0355 66.4886 42.6069 66.6425 47.4991ZM48.547 8.05953C42.8787 8.05953 36.7804 15.6143 33.2745 27.9341C38.2648 29.0073 43.3934 29.4678 48.5471 29.2862C53.6825 29.4668 58.7928 29.0077 63.7651 27.9383C60.2708 15.6041 54.1836 8.0241 48.5116 8.0241L48.547 8.05953ZM72.7759 47.4991C72.6174 42.1227 72.0417 37.0116 71.1111 32.2885C75.464 30.9215 79.6842 29.1155 83.7042 26.8883C87.7974 33.0018 90.2525 40.1021 90.7837 47.4991H72.7759ZM69.699 26.351C73.2142 25.2214 76.6328 23.7765 79.9117 22.0275C79.4347 21.5 78.9435 20.9834 78.4382 20.4781C73.8685 15.9084 68.3659 12.4862 62.378 10.3969C65.3924 14.5068 67.8983 19.954 69.699 26.351ZM17.0635 21.9986C20.3849 23.7709 23.8493 25.2322 27.412 26.3709C29.2233 19.9441 31.7439 14.4717 34.7753 10.3506C28.6959 12.4318 23.1085 15.8838 18.4787 20.5135C17.994 20.9982 17.5222 21.4934 17.0635 21.9986ZM25.9956 32.3157C21.5914 30.9385 17.3225 29.1121 13.2588 26.855C9.14449 32.9742 6.67426 40.0871 6.1358 47.4991H24.3214C24.485 42.1357 25.0637 37.0332 25.9956 32.3157ZM26.5789 71.6787C25.288 66.168 24.4965 60.0558 24.3141 53.5586H6.12824C6.71161 61.8763 9.72756 69.8218 14.77 76.4146C18.5677 74.4778 22.5207 72.895 26.5789 71.6787ZM18.9577 81.1217C21.9545 79.6907 25.0497 78.4971 28.2146 77.5478C29.9243 82.7775 32.1288 87.272 34.7054 90.789C28.8611 88.777 23.4737 85.4973 18.9577 81.1217Z" fill="#003968"/>
<path d="M73.2814 67.4508V81.1999H71.1198V75.0695H68.2141V81.1999H66.0525V67.4508H68.2141V73.1914H71.1198V67.4508H73.2814Z" fill="#003968"/>
<path d="M86.6406 67.4508V81.1999H84.5145V72.4473L82.1048 81.1999H81.3252L78.951 72.4473V81.1999H76.7895V67.4508H79.5889L81.715 75.1404L83.9121 67.4508H86.6406Z" fill="#003968"/>
<path d="M89.7946 67.4508H91.9207V81.1999H89.7946V67.4508Z" fill="#003968"/>
<path fill-rule="evenodd" clip-rule="evenodd" d="M73.1751 91.0141H62.0483C61.5317 91.0094 61.0211 90.9031 60.5457 90.7011C60.0702 90.4992 59.6392 90.2055 59.2773 89.837C58.9153 89.4684 58.6295 89.0322 58.4361 88.5532C58.2428 88.0742 58.1456 87.5618 58.1503 87.0452V63.5513C58.1503 62.5142 58.5598 61.519 59.2898 60.7824C60.0198 60.0458 61.0112 59.6272 62.0483 59.6179H96.0667C97.1099 59.6179 98.1104 60.0323 98.848 60.7699C99.5857 61.5076 100 62.5081 100 63.5513V87.0452C100.005 87.5648 99.9065 88.0801 99.7109 88.5614C99.5153 89.0427 99.2263 89.4805 98.8606 89.8495C98.4949 90.2185 98.0597 90.5114 97.5802 90.7113C97.1006 90.9112 96.5862 91.0141 96.0667 91.0141H84.9751V95.7632H89.5464V97.7121H68.6038V95.7632H73.1751V91.0141ZM96.0667 89.7029C96.7622 89.7029 97.4291 89.4267 97.9209 88.9349C98.4127 88.4431 98.6889 87.7761 98.6889 87.0807V86.0539H59.426V87.0452C59.426 87.7407 59.7023 88.4077 60.194 88.8995C60.6858 89.3912 61.3528 89.6675 62.0483 89.6675L96.0667 89.7029ZM59.426 84.6365H98.6889V63.5513C98.689 62.8525 98.4139 62.1818 97.9231 61.6844C97.4323 61.187 96.7654 60.9029 96.0667 60.8936H62.0483C61.3496 60.9029 60.6826 61.187 60.1919 61.6844C59.7011 62.1818 59.4259 62.8525 59.426 63.5513V84.6365ZM74.4863 95.7632H83.664V91.0141H74.4863V95.7632Z" fill="#003968"/>
</g>
<defs>
<clipPath id="clip0_345_5443">
<rect width="100" height="100" fill="white"/>
</clipPath>
</defs>
</svg>
