<svg width="100" height="100" viewBox="0 0 100 100" fill="none" xmlns="http://www.w3.org/2000/svg">
<path fill-rule="evenodd" clip-rule="evenodd" d="M37.4173 97.9314C37.0142 97.8095 36.5971 97.6897 36.1811 97.5702C35.4232 97.3526 34.6685 97.1358 34.0063 96.9088C-0.0037908 84.7895 -0.00217215 60.2368 3.54571e-05 26.7166L7.11437e-05 15.8785L38.7053 3L77.3408 15.8785L77.3407 44.7675H41.6638V89.6185C41.6984 89.6004 41.7332 89.5824 41.7682 89.5648V98.3013H37.4173V97.9314ZM35.7118 38.8503V10.262L5.98684 20.1598V25.9377C5.95943 30.5292 5.93382 34.8821 5.98667 39.0034V38.8503H35.7118ZM6.12507 44.7675C6.97523 67.544 11.7518 82.5462 35.7118 91.1995V44.7675H6.12507ZM41.6638 38.8503H71.3889V20.299L41.6638 10.264V38.8503Z" fill="#003968"/>
<path fill-rule="evenodd" clip-rule="evenodd" d="M80.8214 94.4033H46.9544V98.3013H99.8956V96.3521C99.8956 88.625 93.7348 86.2929 89.6624 84.7614C88.5257 84.3991 87.4294 83.9209 86.3905 83.3344C86.3905 83.1682 86.4565 83.0088 86.574 82.8913C86.6915 82.7738 86.8509 82.7078 87.0171 82.7078H94.6746L93.6304 79.9929C93.3898 79.3516 93.1288 78.7512 92.8788 78.1762C92.8032 78.0024 92.7285 77.8305 92.6558 77.6608C90.946 74.1729 90.0646 70.3374 90.0801 66.453C90.1551 63.6028 89.0989 60.8387 87.1423 58.7647C85.1858 56.6907 82.4878 55.4755 79.638 55.3845C77.66 55.3937 75.731 56.0003 74.1037 57.1248C73.2281 54.3856 71.5135 51.9909 69.2024 50.2794C66.8914 48.568 64.1007 47.6264 61.2252 47.5877C57.629 47.6681 54.2035 49.1373 51.6665 51.6873C49.1294 54.2373 47.6778 57.6703 47.6157 61.2668C46.8765 61.9121 46.3061 62.7282 45.9542 63.6443C45.6024 64.5603 45.4797 65.5484 45.5969 66.5227C45.5969 70.0033 46.8152 73.484 49.4605 73.484C50.068 75.6402 50.9949 77.6934 52.2102 79.5752C52.9026 80.3839 53.3813 81.3532 53.6025 82.3946C53.6025 84.0919 50.3579 85.5244 47.4206 86.8212L47.1981 86.9195H46.9544V90.9023C47.4326 90.681 47.9202 90.4787 48.4163 90.2961C52.6975 88.4514 57.118 86.5022 57.118 82.1861C56.9903 80.385 56.3502 78.658 55.2732 77.2088C54.0084 75.2822 53.1225 73.1322 52.6627 70.8739L52.3495 69.3424H49.7738C49.1254 67.7965 49.0392 66.0723 49.5301 64.4695H51.3053V61.9286C51.3023 59.2416 52.3353 56.6568 54.1894 54.712C56.0435 52.7672 58.5759 51.6119 61.26 51.4865C63.7994 51.5335 66.2284 52.5328 68.0657 54.2863C69.9031 56.0398 71.0146 58.4196 71.18 60.954V64.5739H72.9899C73.4808 66.1767 73.3946 67.9009 72.7463 69.4468H70.1706L69.8573 70.9783C69.4199 73.2542 68.5324 75.4198 67.2468 77.348C66.6945 78.1927 66.2281 79.0906 65.8545 80.0281C65.5665 80.7482 65.4131 81.5151 65.402 82.2906C65.5076 83.5686 65.954 84.795 66.6948 85.8418C67.4356 86.8887 68.4435 87.7177 69.6136 88.2425C71.0801 89.0056 72.5911 89.6798 74.1385 90.2613C76.6302 91.1173 78.9175 92.4802 80.8562 94.2641L80.8214 94.4033ZM70.6927 84.4138C71.5698 84.1126 72.3839 83.6524 73.0943 83.0563C73.0456 82.9182 72.9565 82.7979 72.8386 82.711C72.7207 82.6241 72.5794 82.5746 72.433 82.569H69.1612C69.4888 83.2895 70.0374 83.8869 70.7275 84.2745L70.6927 84.4138ZM70.7623 78.6706H70.8114L70.7275 78.8099L70.7623 78.6706ZM70.8114 78.6706H72.433C73.0123 78.7017 73.5798 78.8473 74.1024 79.0992C74.6251 79.351 75.0926 79.7041 75.4778 80.1379C75.8631 80.5717 76.1584 81.0776 76.3468 81.6264C76.5351 82.1751 76.6127 82.7558 76.575 83.3348C76.5797 83.977 76.4228 84.6101 76.1186 85.1757C75.8145 85.7414 75.373 86.2215 74.8347 86.5718L75.4085 86.8229C79.3722 88.5613 83.8164 90.5105 84.8938 94.4033H95.9972C95.1967 91.2359 92.2729 89.8784 88.4093 88.4166L88.3971 88.412C85.6163 87.3692 82.7358 86.289 82.7358 83.3348C82.7173 82.7559 82.8136 82.1791 83.0191 81.6377C83.2247 81.0962 83.5355 80.6009 83.9335 80.1802C84.3316 79.7595 84.809 79.4218 85.3382 79.1866C85.8675 78.9514 86.4381 78.8234 87.0171 78.8099H89.1055C87.2898 74.9453 86.3621 70.7232 86.3905 66.4534C86.4184 65.5392 86.2658 64.6284 85.9414 63.7731C85.6171 62.9178 85.1273 62.1349 84.5002 61.469C83.8731 60.8031 83.1209 60.2673 82.2866 59.8922C81.4523 59.5172 80.5523 59.3103 79.638 59.2832C78.7614 59.2881 77.8952 59.4729 77.0929 59.8262C76.2906 60.1794 75.5694 60.6936 74.9739 61.3368C75.6772 61.9908 76.2168 62.8008 76.5494 63.7017C76.8819 64.6026 76.998 65.5691 76.8883 66.5231C76.8883 69.7949 75.67 73.4844 73.0247 73.4844C72.5247 75.3055 71.7801 77.0501 70.8114 78.6706Z" fill="#003968"/>
</svg>
