<svg width="100" height="100" viewBox="0 0 100 100" fill="none" xmlns="http://www.w3.org/2000/svg">
<path fill-rule="evenodd" clip-rule="evenodd" d="M6.98457 78.6179C8.09185 79.0726 9.27802 79.3041 10.475 79.2992H89.5248C91.9393 79.2992 94.2555 78.3426 95.9663 76.6388C97.6771 74.935 98.6432 72.6227 98.6531 70.2082V15.4757C98.6531 13.0548 97.6913 10.7329 95.9795 9.02104C94.2676 7.30914 91.9457 6.34741 89.5248 6.34741H10.475C8.05402 6.34741 5.7322 7.30914 4.0203 9.02104C2.30841 10.7329 1.34668 13.0548 1.34668 15.4757V70.2082C1.34667 71.4052 1.58305 72.5904 2.04225 73.6958C2.50144 74.8012 3.17442 75.8051 4.02256 76.6497C4.87069 77.4944 5.87729 78.1633 6.98457 78.6179ZM93.8367 74.5202C92.6931 75.6638 91.1421 76.3063 89.5248 76.3063H10.475C8.85771 76.3063 7.30665 75.6638 6.16305 74.5202C5.01945 73.3766 4.37698 71.8255 4.37698 70.2082V15.4757C4.37698 13.8584 5.01945 12.3074 6.16305 11.1638C7.30665 10.0202 8.85771 9.37771 10.475 9.37771H89.5248C91.1421 9.37771 92.6931 10.0202 93.8367 11.1638C94.9803 12.3074 95.6228 13.8584 95.6228 15.4757V70.2082C95.6228 71.8255 94.9803 73.3766 93.8367 74.5202Z" fill="#003968" stroke="#003968" stroke-width="0.72" stroke-miterlimit="22.93"/>
<path d="M3.74121 61.2671V66.991H97.2691V61.2671H3.74121Z" fill="#003968"/>
<path fill-rule="evenodd" clip-rule="evenodd" d="M40.7034 88.9893H59.2969V76.3813H65.0208V88.9893H75.6455V96.2097H24.3174V88.9893H34.9795V76.3813H40.7034V88.9893Z" fill="#003968"/>
<path d="M22.7461 23.9307V52.9991H27.9837V40.429H33.109V52.9991H38.384V23.9307H33.109V35.7152H27.9837V23.9307H22.7461Z" fill="#003968"/>
<path d="M44.8185 23.9307V52.9991H50.0561V37.6699L54.231 52.9991H56.4293L60.7183 37.6035V52.9991H65.881V23.9307H59.547L55.3718 38.6134L51.2662 23.9307H44.8185Z" fill="#003968"/>
<path d="M71.4927 23.9307V52.9991H76.7303V23.9307H71.4927Z" fill="#003968"/>
</svg>
