<svg width="16" height="18" viewBox="0 0 16 18" fill="none" xmlns="http://www.w3.org/2000/svg">
<g clip-path="url(#clip0_66_1017)">
<path d="M9.15086 1.99996C9.18476 2.02757 9.22714 2.04265 9.27086 2.04265C9.31458 2.04265 9.35697 2.02757 9.39086 1.99996C9.40699 1.97907 9.41833 1.95489 9.42407 1.92913C9.42982 1.90337 9.42983 1.87667 9.4241 1.8509C9.41838 1.82514 9.40706 1.80095 9.39095 1.78005C9.37483 1.75915 9.35432 1.74205 9.33086 1.72996L9.00086 1.49996C8.96098 1.48048 8.91575 1.47482 8.8723 1.48387C8.82885 1.49293 8.78965 1.51617 8.76086 1.54996C8.74461 1.57168 8.7332 1.59663 8.72739 1.62313C8.72159 1.64963 8.72152 1.67707 8.72721 1.7036C8.73289 1.73012 8.74419 1.75513 8.76035 1.77692C8.7765 1.79872 8.79714 1.8168 8.82086 1.82996L9.15086 1.99996ZM10.4409 2.73996C10.4846 2.76515 10.5366 2.77193 10.5854 2.7588C10.6341 2.74568 10.6757 2.71372 10.7009 2.66996C10.7261 2.6262 10.7328 2.57422 10.7197 2.52546C10.7066 2.4767 10.6746 2.43515 10.6309 2.40996L10.3009 2.22996C10.2679 2.20044 10.2251 2.18412 10.1809 2.18412C10.1366 2.18412 10.0939 2.20044 10.0609 2.22996C10.0463 2.25139 10.0363 2.27557 10.0314 2.30101C10.0266 2.32645 10.027 2.35262 10.0326 2.37791C10.0382 2.4032 10.0489 2.42707 10.0641 2.44806C10.0793 2.46905 10.0986 2.48671 10.1209 2.49996L10.4409 2.73996ZM11.7309 3.46996C11.7655 3.5002 11.8099 3.51687 11.8559 3.51687C11.9018 3.51687 11.9462 3.5002 11.9809 3.46996C11.9954 3.44853 12.0054 3.42435 12.0103 3.3989C12.0152 3.37346 12.0148 3.34729 12.0092 3.322C12.0035 3.29672 11.9928 3.27285 11.9776 3.25186C11.9624 3.23087 11.9431 3.21321 11.9209 3.19996L11.6009 2.99996C11.5662 2.96971 11.5218 2.95305 11.4759 2.95305C11.4299 2.95305 11.3855 2.96971 11.3509 2.99996C11.3363 3.02139 11.3263 3.04557 11.3214 3.07101C11.3166 3.09645 11.317 3.12262 11.3226 3.14791C11.3282 3.1732 11.3389 3.19707 11.3541 3.21806C11.3693 3.23905 11.3886 3.25671 11.4109 3.26996L11.7309 3.46996ZM13.0309 4.20996C13.0648 4.23757 13.1071 4.25265 13.1509 4.25265C13.1946 4.25265 13.237 4.23757 13.2709 4.20996C13.2854 4.18853 13.2954 4.16435 13.3003 4.1389C13.3052 4.11346 13.3048 4.08729 13.2992 4.062C13.2935 4.03672 13.2828 4.01285 13.2676 3.99186C13.2524 3.97087 13.2331 3.95321 13.2109 3.93996L12.8909 3.74996C12.86 3.74836 12.8291 3.75434 12.801 3.76737C12.773 3.7804 12.7485 3.8001 12.7298 3.82474C12.7111 3.84938 12.6986 3.87822 12.6936 3.90876C12.6886 3.9393 12.691 3.9706 12.7009 3.99996L13.0309 4.20996ZM14.2309 4.89996C14.2655 4.92592 14.3076 4.93996 14.3509 4.93996C14.3941 4.93996 14.4362 4.92592 14.4709 4.89996C14.4875 4.87887 14.4995 4.85448 14.5061 4.82841C14.5127 4.80234 14.5136 4.77517 14.5089 4.74871C14.5041 4.72224 14.4939 4.69708 14.4787 4.67489C14.4635 4.65269 14.4438 4.63397 14.4209 4.61996L14.1809 4.48996C14.1479 4.46044 14.1051 4.44412 14.0609 4.44412C14.0166 4.44412 13.9739 4.46044 13.9409 4.48996C13.9247 4.51085 13.9134 4.53503 13.9077 4.56078C13.9019 4.58654 13.9019 4.61325 13.9076 4.63901C13.9133 4.66477 13.9247 4.68896 13.9408 4.70986C13.9569 4.73076 13.9774 4.74787 14.0009 4.75996L14.2309 4.89996ZM7.72086 0.769957C7.68786 0.74044 7.64514 0.724121 7.60086 0.724121C7.55659 0.724121 7.51386 0.74044 7.48086 0.769957C7.46171 0.786849 7.44637 0.807622 7.43586 0.830898C7.42536 0.854174 7.41992 0.879419 7.41992 0.904957C7.41992 0.930495 7.42536 0.95574 7.43586 0.979016C7.44637 1.00229 7.46171 1.02307 7.48086 1.03996L7.81086 1.21996C7.84978 1.24348 7.89617 1.25141 7.94069 1.24213C7.98521 1.23285 8.02458 1.20707 8.05086 1.16996C8.05697 1.13969 8.05561 1.10839 8.0469 1.07877C8.03818 1.04915 8.02238 1.0221 8.00086 0.999957L7.72086 0.769957Z" fill="#871F14"/>
<path d="M6.10053 15.2299C6.07952 15.218 6.05638 15.2105 6.03245 15.2076C6.00851 15.2047 5.98425 15.2066 5.96103 15.2131C5.93782 15.2196 5.91611 15.2306 5.89715 15.2455C5.87819 15.2604 5.86235 15.2788 5.85053 15.2999C5.83871 15.3209 5.83115 15.344 5.82827 15.3679C5.82539 15.3919 5.82725 15.4161 5.83375 15.4394C5.84025 15.4626 5.85126 15.4843 5.86615 15.5032C5.88104 15.5222 5.89952 15.538 5.92053 15.5499L6.24053 15.7399C6.28041 15.7593 6.32564 15.765 6.36909 15.7559C6.41254 15.7469 6.45174 15.7236 6.48053 15.6899C6.49678 15.6681 6.5082 15.6432 6.514 15.6167C6.51981 15.5902 6.51987 15.5627 6.51418 15.5362C6.5085 15.5097 6.4972 15.4847 6.48105 15.4629C6.46489 15.4411 6.44426 15.423 6.42053 15.4099L6.10053 15.2299ZM4.81053 14.4899C4.78886 14.4774 4.76495 14.4693 4.74015 14.4661C4.71536 14.4628 4.69017 14.4645 4.66603 14.471C4.64189 14.4775 4.61926 14.4887 4.59944 14.5039C4.57963 14.5192 4.563 14.5382 4.55053 14.5599C4.53805 14.5815 4.52997 14.6054 4.52673 14.6302C4.5235 14.655 4.52518 14.6802 4.53168 14.7044C4.53818 14.7285 4.54937 14.7511 4.56462 14.7709C4.57986 14.7908 4.59886 14.8074 4.62053 14.8199L5.00053 14.9999C5.02941 15.0165 5.06218 15.0253 5.09553 15.0253C5.12888 15.0253 5.16165 15.0165 5.19053 14.9999C5.20666 14.979 5.218 14.9548 5.22374 14.929C5.22948 14.9033 5.22949 14.8766 5.22377 14.8508C5.21804 14.825 5.20672 14.8009 5.19061 14.78C5.1745 14.7591 5.15399 14.7419 5.13053 14.7299L4.81053 14.4899ZM3.52053 13.7599C3.48007 13.7357 3.43209 13.7275 3.3859 13.7367C3.3397 13.7459 3.29859 13.772 3.27053 13.8099C3.25598 13.8313 3.24596 13.8555 3.2411 13.8809C3.23623 13.9064 3.23662 13.9325 3.24224 13.9578C3.24786 13.9831 3.25859 14.007 3.27377 14.028C3.28896 14.0489 3.30827 14.0666 3.33053 14.0799L3.66053 14.2599C3.69353 14.2894 3.73625 14.3057 3.78053 14.3057C3.8248 14.3057 3.86753 14.2894 3.90053 14.2599C3.91508 14.2384 3.9251 14.2142 3.92996 14.1888C3.93483 14.1634 3.93444 14.1372 3.92882 14.1119C3.9232 14.0866 3.91247 14.0627 3.89729 14.0418C3.8821 14.0208 3.86279 14.0031 3.84053 13.9899L3.52053 13.7599ZM2.22053 12.9999C2.18161 12.9763 2.13522 12.9684 2.0907 12.9777C2.04618 12.987 2.00682 13.0127 1.98053 13.0499C1.96598 13.0713 1.95596 13.0955 1.9511 13.1209C1.94623 13.1464 1.94662 13.1725 1.95224 13.1978C1.95786 13.2231 1.96859 13.247 1.98377 13.268C1.99896 13.2889 2.01827 13.3066 2.04053 13.3199L2.36053 13.5099C2.40429 13.5351 2.45627 13.5418 2.50503 13.5287C2.55379 13.5156 2.59533 13.4836 2.62053 13.4399C2.64572 13.3961 2.6525 13.3441 2.63938 13.2954C2.62625 13.2466 2.59429 13.2051 2.55053 13.1799L2.22053 12.9999ZM1.00053 12.3299C0.960647 12.3104 0.91542 12.3047 0.87197 12.3138C0.828519 12.3228 0.789314 12.3461 0.760529 12.3799C0.744275 12.4016 0.732862 12.4265 0.727057 12.453C0.721252 12.4795 0.721189 12.507 0.726874 12.5335C0.732558 12.56 0.743858 12.585 0.760012 12.6068C0.776167 12.6286 0.796802 12.6467 0.820529 12.6599L1.05053 12.7899C1.08443 12.8175 1.12681 12.8325 1.17053 12.8325C1.21425 12.8325 1.25663 12.8175 1.29053 12.7899C1.30666 12.769 1.318 12.7448 1.32374 12.719C1.32948 12.6933 1.32949 12.6666 1.32377 12.6408C1.31804 12.615 1.30672 12.5909 1.29061 12.57C1.2745 12.5491 1.25399 12.5319 1.23053 12.5199L1.00053 12.3299ZM7.51053 16.4699C7.54353 16.4994 7.58625 16.5157 7.63053 16.5157C7.6748 16.5157 7.71753 16.4994 7.75053 16.4699C7.76968 16.453 7.78502 16.4322 7.79553 16.4089C7.80604 16.3856 7.81147 16.3604 7.81147 16.3349C7.81147 16.3093 7.80604 16.2841 7.79553 16.2608C7.78502 16.2375 7.76968 16.2167 7.75053 16.1999L7.39053 15.9999C7.35753 15.9703 7.3148 15.954 7.27053 15.954C7.22625 15.954 7.18353 15.9703 7.15053 15.9999C7.13598 16.0213 7.12596 16.0455 7.1211 16.0709C7.11623 16.0964 7.11662 16.1225 7.12224 16.1478C7.12786 16.1731 7.13859 16.197 7.15377 16.218C7.16896 16.2389 7.18827 16.2566 7.21053 16.2699L7.51053 16.4699Z" fill="#871F14"/>
<path d="M9.15086 9.75985C9.18476 9.78747 9.22714 9.80254 9.27086 9.80254C9.31458 9.80254 9.35697 9.78747 9.39086 9.75985C9.40699 9.73896 9.41833 9.71478 9.42407 9.68903C9.42982 9.66327 9.42983 9.63656 9.4241 9.6108C9.41838 9.58504 9.40706 9.56085 9.39095 9.53995C9.37483 9.51905 9.35432 9.50194 9.33086 9.48985L9.00086 9.24985C8.96098 9.23038 8.91575 9.22472 8.8723 9.23377C8.82885 9.24282 8.78965 9.26607 8.76086 9.29985C8.74461 9.32158 8.7332 9.34653 8.72739 9.37303C8.72159 9.39953 8.72152 9.42697 8.72721 9.45349C8.73289 9.48002 8.74419 9.50502 8.76035 9.52682C8.7765 9.54861 8.79714 9.5667 8.82086 9.57985L9.15086 9.75985ZM10.4409 10.4999C10.4846 10.525 10.5366 10.5318 10.5854 10.5187C10.6341 10.5056 10.6757 10.4736 10.7009 10.4299C10.7261 10.3861 10.7328 10.3341 10.7197 10.2854C10.7066 10.2366 10.6746 10.195 10.6309 10.1699L10.3009 9.99985C10.2679 9.97034 10.2251 9.95402 10.1809 9.95402C10.1366 9.95402 10.0939 9.97034 10.0609 9.99985C10.0463 10.0213 10.0363 10.0455 10.0314 10.0709C10.0266 10.0963 10.027 10.1225 10.0326 10.1478C10.0382 10.1731 10.0489 10.197 10.0641 10.218C10.0793 10.2389 10.0986 10.2566 10.1209 10.2699L10.4409 10.4999ZM11.7309 11.2299C11.7713 11.254 11.8193 11.2622 11.8655 11.253C11.9117 11.2438 11.9528 11.2177 11.9809 11.1799C11.9954 11.1584 12.0054 11.1342 12.0103 11.1088C12.0152 11.0834 12.0148 11.0572 12.0092 11.0319C12.0035 11.0066 11.9928 10.9827 11.9776 10.9618C11.9624 10.9408 11.9431 10.9231 11.9209 10.9099L11.6009 10.7299C11.5662 10.6996 11.5218 10.6829 11.4759 10.6829C11.4299 10.6829 11.3855 10.6996 11.3509 10.7299C11.3363 10.7513 11.3263 10.7755 11.3214 10.8009C11.3166 10.8263 11.317 10.8525 11.3226 10.8778C11.3282 10.9031 11.3389 10.927 11.3541 10.948C11.3693 10.9689 11.3886 10.9866 11.4109 10.9999L11.7309 11.2299ZM13.0009 11.9999C13.0403 12.0212 13.0861 12.0279 13.13 12.0187C13.1739 12.0096 13.2132 11.9852 13.2409 11.9499C13.2554 11.9284 13.2654 11.9042 13.2703 11.8788C13.2752 11.8534 13.2748 11.8272 13.2692 11.8019C13.2635 11.7766 13.2528 11.7527 13.2376 11.7318C13.2224 11.7108 13.2031 11.6931 13.1809 11.6799L12.8609 11.4899C12.8171 11.4647 12.7651 11.4579 12.7164 11.471C12.6676 11.4841 12.6261 11.5161 12.6009 11.5599C12.5757 11.6036 12.5689 11.6556 12.582 11.7044C12.5951 11.7531 12.6271 11.7947 12.6709 11.8199L13.0009 11.9999ZM14.2009 12.6899C14.2407 12.7093 14.286 12.715 14.3294 12.7059C14.3729 12.6969 14.4121 12.6736 14.4409 12.6399C14.4575 12.6188 14.4695 12.5944 14.4761 12.5683C14.4827 12.5422 14.4836 12.5151 14.4789 12.4886C14.4741 12.4621 14.4639 12.437 14.4487 12.4148C14.4335 12.3926 14.4138 12.3739 14.3909 12.3599L14.1509 12.2299C14.1119 12.2063 14.0656 12.1984 14.021 12.2077C13.9765 12.217 13.9372 12.2427 13.9109 12.2799C13.8947 12.3007 13.8834 12.3249 13.8777 12.3507C13.8719 12.3764 13.8719 12.4031 13.8776 12.4289C13.8833 12.4547 13.8947 12.4789 13.9108 12.4998C13.9269 12.5207 13.9474 12.5378 13.9709 12.5499L14.2009 12.6899ZM7.72086 8.51985C7.68194 8.49633 7.63556 8.4884 7.59104 8.49768C7.54651 8.50696 7.50715 8.53274 7.48086 8.56985C7.46171 8.58674 7.44637 8.60752 7.43586 8.63079C7.42536 8.65407 7.41992 8.67932 7.41992 8.70485C7.41992 8.73039 7.42536 8.75564 7.43586 8.77891C7.44637 8.80219 7.46171 8.82296 7.48086 8.83985L7.86086 8.99985C7.89386 9.02937 7.93659 9.04569 7.98086 9.04569C8.02514 9.04569 8.06786 9.02937 8.10086 8.99985C8.12008 8.97516 8.1329 8.94611 8.13818 8.91527C8.14347 8.88443 8.14106 8.85277 8.13116 8.82309C8.12127 8.79341 8.1042 8.76663 8.08147 8.74513C8.05874 8.72363 8.03105 8.70808 8.00086 8.69985L7.72086 8.51985Z" fill="#871F14"/>
<path d="M2.64037 11.74C2.67675 11.7125 2.70205 11.6729 2.71166 11.6284C2.72127 11.5838 2.71456 11.5373 2.69273 11.4973C2.67091 11.4573 2.63544 11.4265 2.59279 11.4104C2.55014 11.3944 2.50314 11.3942 2.46037 11.41L2.13037 11.6C2.08794 11.6225 2.0562 11.661 2.04213 11.7069C2.02807 11.7529 2.03283 11.8025 2.05537 11.845C2.07792 11.8874 2.11639 11.9191 2.16234 11.9332C2.20829 11.9473 2.25794 11.9425 2.30037 11.92L2.64037 11.74ZM3.93037 11C3.96675 10.9725 3.99205 10.9329 4.00166 10.8884C4.01127 10.8438 4.00455 10.7973 3.98273 10.7573C3.96091 10.7173 3.92544 10.6865 3.88279 10.6704C3.84014 10.6544 3.79314 10.6542 3.75037 10.67L3.42037 10.86C3.384 10.8874 3.3587 10.927 3.34909 10.9716C3.33948 11.0161 3.34619 11.0626 3.36801 11.1026C3.38983 11.1426 3.4253 11.1734 3.46796 11.1895C3.51061 11.2055 3.55761 11.2057 3.60037 11.19L3.93037 11ZM5.22037 10.26C5.25376 10.2323 5.27671 10.1941 5.2854 10.1517C5.2941 10.1092 5.28801 10.0651 5.26817 10.0266C5.24832 9.98803 5.21591 9.95745 5.17629 9.93988C5.13668 9.92231 5.09225 9.91881 5.05037 9.92996L4.71037 10.12C4.674 10.1474 4.6487 10.187 4.63909 10.2316C4.62948 10.2761 4.63619 10.3226 4.65801 10.3626C4.67983 10.4026 4.7153 10.4334 4.75796 10.4495C4.80061 10.4655 4.84761 10.4657 4.89037 10.45L5.22037 10.26ZM6.51037 9.52996C6.54376 9.50234 6.56671 9.46413 6.5754 9.42168C6.5841 9.37922 6.57801 9.33507 6.55817 9.29655C6.53832 9.25803 6.50591 9.22745 6.46629 9.20988C6.42668 9.19231 6.38225 9.18881 6.34037 9.19996L6.00037 9.38996C5.95794 9.4125 5.9262 9.45098 5.91213 9.49693C5.89807 9.54287 5.90283 9.59253 5.92537 9.63496C5.94792 9.6774 5.98639 9.70914 6.03234 9.7232C6.07829 9.73727 6.12794 9.7325 6.17037 9.70996L6.51037 9.52996ZM7.72037 8.83996C7.75675 8.81251 7.78205 8.77291 7.79166 8.72837C7.80127 8.68383 7.79456 8.63731 7.77274 8.59731C7.75092 8.55731 7.71544 8.52648 7.67279 8.51044C7.63014 8.49441 7.58314 8.49424 7.54037 8.50996L7.30037 8.64996C7.25396 8.6725 7.2184 8.71256 7.20153 8.76132C7.18465 8.81008 7.18783 8.86355 7.21037 8.90996C7.23292 8.95637 7.27298 8.99193 7.32173 9.00881C7.37049 9.02569 7.42396 9.0225 7.47037 8.99996L7.72037 8.83996ZM0.840374 12.33C0.806984 12.3576 0.78404 12.3958 0.775347 12.4382C0.766654 12.4807 0.772734 12.5248 0.792579 12.5634C0.812425 12.6019 0.844843 12.6325 0.884456 12.65C0.92407 12.6676 0.968499 12.6711 1.01037 12.66L1.34037 12.47C1.37376 12.4423 1.39671 12.4041 1.4054 12.3617C1.41409 12.3192 1.40801 12.2751 1.38817 12.2366C1.36832 12.198 1.33591 12.1674 1.29629 12.1499C1.25668 12.1323 1.21225 12.1288 1.17037 12.14L0.840374 12.33Z" fill="#871F14"/>
<path d="M7.81043 14.4199C7.80066 14.3781 7.77707 14.3409 7.74348 14.3143C7.7099 14.2877 7.66829 14.2732 7.62543 14.2732C7.58257 14.2732 7.54096 14.2877 7.50738 14.3143C7.47379 14.3409 7.4502 14.3781 7.44043 14.4199V14.8199C7.4502 14.8616 7.47379 14.8988 7.50738 14.9254C7.54096 14.9521 7.58257 14.9666 7.62543 14.9666C7.66829 14.9666 7.7099 14.9521 7.74348 14.9254C7.77707 14.8988 7.80066 14.8616 7.81043 14.8199V14.4299V14.4199ZM7.81043 12.9199C7.80066 12.8781 7.77707 12.8409 7.74348 12.8143C7.7099 12.7877 7.66829 12.7732 7.62543 12.7732C7.58257 12.7732 7.54096 12.7877 7.50738 12.8143C7.47379 12.8409 7.4502 12.8781 7.44043 12.9199V13.3199C7.4502 13.3616 7.47379 13.3988 7.50738 13.4254C7.54096 13.4521 7.58257 13.4666 7.62543 13.4666C7.66829 13.4666 7.7099 13.4521 7.74348 13.4254C7.77707 13.3988 7.80066 13.3616 7.81043 13.3199V12.9199ZM7.81043 11.4299C7.80066 11.3881 7.77707 11.3509 7.74348 11.3243C7.7099 11.2977 7.66829 11.2832 7.62543 11.2832C7.58257 11.2832 7.54096 11.2977 7.50738 11.3243C7.47379 11.3509 7.4502 11.3881 7.44043 11.4299V11.8299C7.4502 11.8716 7.47379 11.9088 7.50738 11.9354C7.54096 11.9621 7.58257 11.9766 7.62543 11.9766C7.66829 11.9766 7.7099 11.9621 7.74348 11.9354C7.77707 11.9088 7.80066 11.8716 7.81043 11.8299V11.4299ZM7.81043 9.93986C7.80066 9.89813 7.77707 9.86092 7.74348 9.83429C7.7099 9.80766 7.66829 9.79316 7.62543 9.79316C7.58257 9.79316 7.54096 9.80766 7.50738 9.83429C7.47379 9.86092 7.4502 9.89813 7.44043 9.93986V10.3399C7.4502 10.3816 7.47379 10.4188 7.50738 10.4454C7.54096 10.4721 7.58257 10.4866 7.62543 10.4866C7.66829 10.4866 7.7099 10.4721 7.74348 10.4454C7.77707 10.4188 7.80066 10.3816 7.81043 10.3399V9.93986ZM7.81043 8.44986C7.80066 8.40813 7.77707 8.37092 7.74348 8.34429C7.7099 8.31766 7.66829 8.30316 7.62543 8.30316C7.58257 8.30316 7.54096 8.31766 7.50738 8.34429C7.47379 8.37092 7.4502 8.40813 7.44043 8.44986V8.83986C7.4502 8.8816 7.47379 8.9188 7.50738 8.94544C7.54096 8.97207 7.58257 8.98656 7.62543 8.98656C7.66829 8.98656 7.7099 8.97207 7.74348 8.94544C7.77707 8.9188 7.80066 8.8816 7.81043 8.83986V8.43986V8.44986ZM7.81043 6.99986C7.80066 6.95813 7.77707 6.92092 7.74348 6.89429C7.7099 6.86766 7.66829 6.85316 7.62543 6.85316C7.58257 6.85316 7.54096 6.86766 7.50738 6.89429C7.47379 6.92092 7.4502 6.95813 7.44043 6.99986V7.38986C7.4502 7.4316 7.47379 7.4688 7.50738 7.49544C7.54096 7.52207 7.58257 7.53656 7.62543 7.53656C7.66829 7.53656 7.7099 7.52207 7.74348 7.49544C7.77707 7.4688 7.80066 7.4316 7.81043 7.38986V6.99986ZM7.81043 5.50986C7.80066 5.46813 7.77707 5.43092 7.74348 5.40429C7.7099 5.37766 7.66829 5.36316 7.62543 5.36316C7.58257 5.36316 7.54096 5.37766 7.50738 5.40429C7.47379 5.43092 7.4502 5.46813 7.44043 5.50986V5.89986C7.4502 5.9416 7.47379 5.9788 7.50738 6.00544C7.54096 6.03207 7.58257 6.04656 7.62543 6.04656C7.66829 6.04656 7.7099 6.03207 7.74348 6.00544C7.77707 5.9788 7.80066 5.9416 7.81043 5.89986V5.49986V5.50986ZM7.81043 3.99986C7.80066 3.95813 7.77707 3.92092 7.74348 3.89429C7.7099 3.86766 7.66829 3.85316 7.62543 3.85316C7.58257 3.85316 7.54096 3.86766 7.50738 3.89429C7.47379 3.92092 7.4502 3.95813 7.44043 3.99986V4.38986C7.4502 4.4316 7.47379 4.4688 7.50738 4.49544C7.54096 4.52207 7.58257 4.53656 7.62543 4.53656C7.66829 4.53656 7.7099 4.52207 7.74348 4.49544C7.77707 4.4688 7.80066 4.4316 7.81043 4.38986V3.99986ZM7.81043 2.50986C7.80066 2.46813 7.77707 2.43092 7.74348 2.40429C7.7099 2.37766 7.66829 2.36316 7.62543 2.36316C7.58257 2.36316 7.54096 2.37766 7.50738 2.40429C7.47379 2.43092 7.4502 2.46813 7.44043 2.50986V2.89986C7.4502 2.9416 7.47379 2.9788 7.50738 3.00544C7.54096 3.03207 7.58257 3.04656 7.62543 3.04656C7.66829 3.04656 7.7099 3.03207 7.74348 3.00544C7.77707 2.9788 7.80066 2.9416 7.81043 2.89986V2.48986V2.50986ZM7.81043 1.13986C7.80066 1.09813 7.77707 1.06092 7.74348 1.03429C7.7099 1.00766 7.66829 0.993164 7.62543 0.993164C7.58257 0.993164 7.54096 1.00766 7.50738 1.03429C7.47379 1.06092 7.4502 1.09813 7.44043 1.13986V1.40986C7.4502 1.4516 7.47379 1.4888 7.50738 1.51544C7.54096 1.54207 7.58257 1.55656 7.62543 1.55656C7.66829 1.55656 7.7099 1.54207 7.74348 1.51544C7.77707 1.4888 7.80066 1.4516 7.81043 1.40986V1.11986V1.13986ZM7.44043 16.2799C7.4502 16.3216 7.47379 16.3588 7.50738 16.3854C7.54096 16.4121 7.58257 16.4266 7.62543 16.4266C7.66829 16.4266 7.7099 16.4121 7.74348 16.3854C7.77707 16.3588 7.80066 16.3216 7.81043 16.2799V15.8899C7.80066 15.8481 7.77707 15.8109 7.74348 15.7843C7.7099 15.7577 7.66829 15.7432 7.62543 15.7432C7.58257 15.7432 7.54096 15.7577 7.50738 15.7843C7.47379 15.8109 7.4502 15.8481 7.44043 15.8899V16.2899V16.2799Z" fill="#871F14"/>
<path d="M0.740352 6.53989C0.74009 6.587 0.75734 6.63253 0.788753 6.66764C0.820166 6.70275 0.863502 6.72494 0.910352 6.72989C0.936131 6.73125 0.961917 6.72734 0.986136 6.71841C1.01035 6.70947 1.0325 6.69569 1.05121 6.67791C1.06993 6.66013 1.08483 6.63872 1.09499 6.61499C1.10516 6.59126 1.11039 6.56571 1.11035 6.53989V6.16989C1.11688 6.14202 1.11702 6.11302 1.11076 6.08508C1.10451 6.05714 1.09202 6.03098 1.07423 6.00854C1.05644 5.98611 1.03381 5.96798 1.00803 5.95552C0.982246 5.94306 0.953984 5.93659 0.925352 5.93659C0.896719 5.93659 0.868457 5.94306 0.842677 5.95552C0.816898 5.96798 0.794267 5.98611 0.776477 6.00854C0.758687 6.03098 0.746197 6.05714 0.739942 6.08508C0.733686 6.11302 0.733826 6.14202 0.740352 6.16989V6.53989ZM0.740352 7.99989C0.74028 8.04595 0.757866 8.09028 0.789489 8.12376C0.821112 8.15725 0.864367 8.17734 0.910352 8.17989C0.935614 8.18272 0.961188 8.18016 0.98539 8.17239C1.00959 8.16462 1.03187 8.15181 1.05077 8.1348C1.06966 8.1178 1.08474 8.09698 1.09501 8.07373C1.10528 8.05048 1.11051 8.02531 1.11035 7.99989V7.65989C1.11688 7.63202 1.11702 7.60302 1.11076 7.57508C1.10451 7.54714 1.09202 7.52098 1.07423 7.49854C1.05644 7.47611 1.03381 7.45798 1.00803 7.44552C0.982246 7.43306 0.953984 7.42659 0.925352 7.42659C0.896719 7.42659 0.868457 7.43306 0.842677 7.44552C0.816898 7.45798 0.794267 7.47611 0.776477 7.49854C0.758687 7.52098 0.746197 7.54714 0.739942 7.57508C0.733686 7.60302 0.733826 7.63202 0.740352 7.65989V7.99989ZM0.740352 9.48989C0.742495 9.53526 0.760821 9.57837 0.792007 9.61139C0.823194 9.64441 0.865178 9.66516 0.910352 9.66989C0.935614 9.67272 0.961188 9.67016 0.98539 9.66239C1.00959 9.65462 1.03187 9.64181 1.05077 9.6248C1.06966 9.6078 1.08474 9.58698 1.09501 9.56373C1.10528 9.54048 1.11051 9.51531 1.11035 9.48989V9.13989C1.10058 9.09816 1.07699 9.06095 1.0434 9.03432C1.00982 9.00769 0.968215 8.9932 0.925352 8.9932C0.882488 8.9932 0.840885 9.00769 0.807299 9.03432C0.773714 9.06095 0.75012 9.09816 0.740352 9.13989V9.48989ZM0.740352 10.9999C0.74009 11.047 0.75734 11.0925 0.788753 11.1276C0.820166 11.1627 0.863502 11.1849 0.910352 11.1899C0.936131 11.1913 0.961917 11.1873 0.986136 11.1784C1.01035 11.1695 1.0325 11.1557 1.05121 11.1379C1.06993 11.1201 1.08483 11.0987 1.09499 11.075C1.10516 11.0513 1.11039 11.0257 1.11035 10.9999V10.6299C1.11042 10.5838 1.09284 10.5395 1.06121 10.506C1.02959 10.4725 0.986336 10.4525 0.940352 10.4499C0.915089 10.4471 0.889515 10.4496 0.865313 10.4574C0.841111 10.4652 0.818829 10.478 0.799934 10.495C0.78104 10.512 0.765962 10.5328 0.755692 10.5561C0.745422 10.5793 0.740194 10.6045 0.740352 10.6299V10.9999ZM0.740352 12.3999C0.74028 12.4459 0.757866 12.4903 0.789489 12.5238C0.821112 12.5572 0.864367 12.5773 0.910352 12.5799C0.935614 12.5827 0.961188 12.5802 0.98539 12.5724C1.00959 12.5646 1.03187 12.5518 1.05077 12.5348C1.06966 12.5178 1.08474 12.497 1.09501 12.4737C1.10528 12.4505 1.11051 12.4253 1.11035 12.3999V12.1199C1.11061 12.0728 1.09336 12.0273 1.06195 11.9921C1.03054 11.957 0.987201 11.9349 0.940352 11.9299C0.914572 11.9285 0.888786 11.9324 0.864567 11.9414C0.840348 11.9503 0.818205 11.9641 0.799489 11.9819C0.780773 11.9997 0.765876 12.0211 0.755709 12.0448C0.745541 12.0685 0.740316 12.0941 0.740352 12.1199V12.3999ZM1.11035 4.67989C1.11172 4.65674 1.10833 4.63356 1.1004 4.61176C1.09247 4.58997 1.08016 4.57003 1.06424 4.55317C1.04831 4.53631 1.02911 4.52288 1.0078 4.51372C0.986498 4.50456 0.963543 4.49985 0.940352 4.49989C0.915089 4.49707 0.889515 4.49963 0.865313 4.5074C0.841111 4.51517 0.818829 4.52798 0.799934 4.54499C0.78104 4.56199 0.765962 4.5828 0.755692 4.60606C0.745422 4.62931 0.740194 4.65447 0.740352 4.67989V5.04989C0.74009 5.097 0.75734 5.14253 0.788753 5.17764C0.820166 5.21275 0.863502 5.23494 0.910352 5.23989C0.936131 5.24125 0.961917 5.23734 0.986136 5.22841C1.01035 5.21947 1.0325 5.20569 1.05121 5.18791C1.06993 5.17013 1.08483 5.14872 1.09499 5.12499C1.10516 5.10126 1.11039 5.07571 1.11035 5.04989V4.67989Z" fill="#871F14"/>
<path fill-rule="evenodd" clip-rule="evenodd" d="M0.930195 11.6699C1.07458 11.6699 1.21571 11.7127 1.33576 11.7929C1.45581 11.8732 1.54938 11.9872 1.60463 12.1206C1.65988 12.254 1.67434 12.4007 1.64617 12.5423C1.618 12.6839 1.54848 12.814 1.44638 12.9161C1.34429 13.0182 1.21422 13.0877 1.07261 13.1159C0.931005 13.1441 0.784226 13.1296 0.650836 13.0744C0.517446 13.0191 0.403436 12.9255 0.323223 12.8055C0.243009 12.6854 0.200195 12.5443 0.200195 12.3999C0.200195 12.2063 0.277106 12.0206 0.414007 11.8837C0.550909 11.7468 0.736587 11.6699 0.930195 11.6699Z" fill="#871F14"/>
<path d="M8.09043 17.1099C7.98516 17.1862 7.86507 17.2395 7.73792 17.2665C7.61076 17.2935 7.47936 17.2935 7.3522 17.2666C7.22504 17.2396 7.10493 17.1863 6.99963 17.1101C6.89434 17.0339 6.80618 16.9365 6.74086 16.8241C6.67554 16.7117 6.6345 16.5869 6.6204 16.4577C6.60629 16.3285 6.61943 16.1977 6.65896 16.0739C6.6985 15.9501 6.76355 15.8359 6.84992 15.7388C6.9363 15.6416 7.04207 15.5637 7.16043 15.5099L13.3904 11.8599V6.33993L8.08043 9.33993C7.93905 9.42156 7.77868 9.46453 7.61543 9.46453C7.45218 9.46453 7.29181 9.42156 7.15043 9.33993L0.470429 5.54993C0.364258 5.49064 0.270896 5.41088 0.195742 5.31528C0.120589 5.21967 0.0651345 5.11012 0.032587 4.99295C3.95589e-05 4.87577 -0.00895538 4.75331 0.00612238 4.63264C0.0212001 4.51198 0.0600514 4.39549 0.120429 4.28993C0.202815 4.13744 0.327935 4.01232 0.480429 3.92993L7.17043 0.119933C7.27614 0.0601819 7.39259 0.0218374 7.51312 0.00708934C7.63366 -0.00765877 7.75591 0.00147827 7.87292 0.0339788C7.98992 0.0664793 8.09937 0.121707 8.19503 0.196508C8.29069 0.271309 8.37068 0.364219 8.43043 0.469933C8.49018 0.575647 8.52852 0.692095 8.54327 0.812628C8.55802 0.933161 8.54888 1.05542 8.51638 1.17242C8.48388 1.28942 8.42866 1.39888 8.35385 1.49454C8.27905 1.59019 8.18614 1.67018 8.08043 1.72993L2.80043 4.72993L7.63043 7.48993L13.8004 3.99993C13.9542 3.89651 14.1351 3.84084 14.3204 3.83993C14.4426 3.83993 14.5635 3.86399 14.6763 3.91073C14.7892 3.95746 14.8917 4.02597 14.978 4.11232C15.0644 4.19868 15.1329 4.3012 15.1796 4.41404C15.2264 4.52687 15.2504 4.6478 15.2504 4.76993V12.3999C15.252 12.5622 15.2102 12.7219 15.1294 12.8626C15.0485 13.0032 14.9315 13.1197 14.7904 13.1999L8.09043 17.1099Z" fill="#871F14"/>
</g>
<defs>
<clipPath id="clip0_66_1017">
<rect width="15.25" height="17.24" fill="white"/>
</clipPath>
</defs>
</svg>
