<svg width="67" height="40" viewBox="0 0 67 40" fill="none" xmlns="http://www.w3.org/2000/svg">
<g clip-path="url(#clip0_345_2986)">
<path fill-rule="evenodd" clip-rule="evenodd" d="M31.7506 3.73274C31.9713 3.35522 32.0876 2.9258 32.0876 2.4885C32.0876 2.05121 31.9713 1.62178 31.7506 1.24426C31.5886 0.952243 31.3689 0.696179 31.105 0.491607C30.841 0.287034 30.5383 0.138218 30.2151 0.0541852C29.8919 -0.0298472 29.5549 -0.0473434 29.2248 0.00275813C28.8946 0.0528596 28.5781 0.169514 28.2943 0.345645C27.7968 0.639704 27.4147 1.09497 27.2114 1.63597C24.7805 6.08297 23.4902 12.9724 23.4902 20.6567C23.4374 26.6365 24.4799 32.5755 26.5662 38.1797C26.628 38.3534 26.7092 38.5196 26.8082 38.6751C26.7961 38.6982 26.7897 38.7239 26.7897 38.75C26.7897 38.7761 26.7961 38.8018 26.8082 38.8249C26.8082 38.8249 26.8082 38.8249 26.8082 38.9286C27.1775 39.4377 27.7231 39.7913 28.3386 39.9207C28.9542 40.05 29.5959 39.9457 30.1389 39.6283C30.682 39.3108 31.0875 38.8027 31.2768 38.2028C31.4661 37.603 31.4255 36.9541 31.163 36.3825C31.0708 36.2327 31.163 36.2788 31.0708 36.2327C29.2448 31.2422 28.3051 25.9708 28.2943 20.6567C28.2598 14.8367 29.4369 9.0732 31.7506 3.73274Z" fill="#9D231F"/>
<path fill-rule="evenodd" clip-rule="evenodd" d="M6.28953 1.64758C6.10687 1.09191 5.71972 0.626497 5.20658 0.345737C4.73298 0.0490277 4.17328 -0.0796202 3.61766 -0.0194834C3.06203 0.0406534 2.54282 0.286074 2.14367 0.677243C1.74452 1.06841 1.48866 1.58256 1.41731 2.13686C1.34596 2.69115 1.46328 3.25333 1.75036 3.73283C3.59224 8.06075 4.69061 12.6684 4.99921 17.3619H2.47617C1.80701 17.3619 1.16527 17.6277 0.692107 18.1008C0.218945 18.574 -0.046875 19.2158 -0.046875 19.8849C-0.046875 20.5541 0.218945 21.1958 0.692107 21.669C1.16527 22.1421 1.80701 22.4079 2.47617 22.4079H5.10289C4.88218 27.1173 3.93795 31.7647 2.30335 36.1867C2.30335 36.2789 2.30335 36.1867 2.30335 36.3826C2.02911 36.9567 1.97867 37.6123 2.16187 38.2216C2.34507 38.8308 2.74877 39.3499 3.29414 39.6775C3.84221 39.9837 4.4841 40.0767 5.09652 39.9384C5.70893 39.8002 6.24869 39.4406 6.61211 38.9287L6.7158 38.825C6.7158 38.825 6.7158 38.7328 6.7158 38.6752C6.81349 38.5082 6.87987 38.3247 6.91165 38.1338C9.03146 32.5366 10.0978 26.5957 10.0568 20.6107C10.0568 12.9725 8.76649 6.03698 6.28953 1.64758Z" fill="#003968"/>
<path fill-rule="evenodd" clip-rule="evenodd" d="M50.7839 27.2351H57.5005C58.9982 26.6936 59.6779 23.7789 57.5005 23.0531H55.0351L50.7839 27.2351ZM50.7839 26.2213V20.3572L52.8231 18.5715C53.3823 18.3524 54.0035 18.3524 54.5627 18.5715C55.0616 18.8983 55.42 19.4001 55.5671 19.978C55.7143 20.556 55.6395 21.1681 55.3576 21.6936L50.7839 26.2213ZM50.0696 26.2213V20.3572L48.0305 18.5715C47.4713 18.3524 46.85 18.3524 46.2908 18.5715C45.7919 18.8983 45.4336 19.4001 45.2864 19.978C45.1393 20.556 45.214 21.1681 45.4959 21.6936L50.0696 26.2213ZM50.0696 27.2351H43.353C41.8553 26.6936 41.1871 23.7789 43.353 23.0531H45.7839L50.0696 27.2351ZM50.4268 19.7812L48.4682 17.8572V13.56C48.6231 13.1613 48.8967 12.8199 49.2521 12.582C49.6075 12.3441 50.0274 12.2213 50.455 12.2301C50.8825 12.2389 51.2971 12.3789 51.6424 12.6312C51.9877 12.8836 52.247 13.2359 52.3853 13.6406V17.8572L50.4268 19.7812ZM40.4844 9.86182H60.1618V29.666H40.4844V9.86182Z" fill="#003968"/>
<path fill-rule="evenodd" clip-rule="evenodd" d="M32.1543 10.2766V29.4586H34.3893L35.7718 20.1614V29.4932L38.3525 29.4586V10.2766H36.0137L34.5852 19.0093V10.2766H32.1543Z" fill="#9D231F"/>
<path fill-rule="evenodd" clip-rule="evenodd" d="M11.3711 29.8387V28.0646C12.408 27.5461 12.5232 27.2927 12.5232 25.8756V9.93091H22.1199V11.9125H18.9287V18.2719H22.0623V20.1959H18.9287V27.8572H22.166V29.7811H16.325V11.9586H14.9771V27.0046C15.0692 28.6291 14.4471 29.5622 13.1107 29.8272L11.3711 29.8387Z" fill="#003968"/>
<path d="M64.332 7.4079H64.7122C64.8406 7.42318 64.9705 7.39477 65.0808 7.32726C65.1141 7.30414 65.141 7.27303 65.1591 7.2368C65.1773 7.20057 65.186 7.16037 65.1845 7.11989C65.1963 7.07065 65.1963 7.01935 65.1845 6.97012C65.1308 6.93184 65.0662 6.91167 65.0002 6.91251C64.8972 6.89532 64.7921 6.89532 64.6891 6.91251H64.332V7.4079ZM64.0209 8.49085V6.56689H64.6891C64.8494 6.54087 65.0128 6.54087 65.173 6.56689C65.2748 6.60002 65.3636 6.66455 65.4265 6.75122C65.4811 6.83722 65.5091 6.9374 65.5071 7.03924C65.5081 7.10588 65.4953 7.17199 65.4695 7.23345C65.4437 7.29491 65.4056 7.35038 65.3573 7.39638C65.2495 7.50438 65.1063 7.56983 64.9541 7.58071C65.0163 7.60194 65.0747 7.63306 65.1269 7.67288C65.2321 7.79378 65.3247 7.92502 65.4034 8.06459L65.6454 8.43325H65.2652L65.0924 8.13371C65.0119 7.96624 64.9027 7.81417 64.7698 7.6844C64.6889 7.65255 64.5998 7.6485 64.5163 7.67288H64.332V8.49085H64.0209ZM64.8159 6.01389C64.5568 6.01055 64.3018 6.07829 64.0785 6.20975C63.8402 6.33468 63.6438 6.527 63.514 6.76274C63.3862 6.99168 63.3188 7.24939 63.3182 7.51159C63.3217 7.76975 63.389 8.02303 63.514 8.24892C63.6461 8.47897 63.837 8.66981 64.067 8.80191C64.2937 8.93014 64.5497 8.99753 64.8101 8.99753C65.0705 8.99753 65.3265 8.93014 65.5532 8.80191C65.7858 8.6731 65.9774 8.48147 66.1062 8.24892C66.2312 8.02303 66.2985 7.76975 66.302 7.51159C66.3014 7.24939 66.234 6.99168 66.1062 6.76274C65.9764 6.527 65.78 6.33468 65.5417 6.20975C65.3213 6.08135 65.0709 6.01376 64.8159 6.01389ZM64.8159 5.71436C65.1222 5.7186 65.4227 5.7977 65.6914 5.94477C65.9731 6.09959 66.2048 6.33135 66.3596 6.61297C66.5175 6.88405 66.6007 7.19214 66.6007 7.50583C66.6007 7.81952 66.5175 8.12761 66.3596 8.39869C66.2121 8.67891 65.9832 8.90787 65.703 9.05537C65.4319 9.21324 65.1238 9.29641 64.8101 9.29641C64.4964 9.29641 64.1883 9.21324 63.9173 9.05537C63.6395 8.90451 63.4114 8.67642 63.2606 8.39869C63.1027 8.12761 63.0195 7.81952 63.0195 7.50583C63.0195 7.19214 63.1027 6.88405 63.2606 6.61297C63.4154 6.33135 63.6472 6.09959 63.9288 5.94477C64.2051 5.81229 64.5096 5.74902 64.8159 5.76044V5.71436Z" fill="#003968"/>
</g>
<defs>
<clipPath id="clip0_345_2986">
<rect width="66.6014" height="40" fill="white"/>
</clipPath>
</defs>
</svg>
