<svg width="180" height="87" viewBox="0 0 180 87" fill="none" xmlns="http://www.w3.org/2000/svg">
<path d="M56.3037 55.8438H67.5257V59.4381H62.1878V84.6973H56.3037V55.8438Z" fill="#0079C2"/>
<path d="M74.1793 73.8657L75.1876 59.4386H75.5257L76.5339 73.8657H74.1793ZM67.6641 84.6978H73.4247L73.9695 77.0356H76.7443L77.2916 84.6978H83.0498L79.9813 55.8442H70.7326L67.6641 84.6978Z" fill="#0079C2"/>
<path d="M91.4758 74.5985V80.0381C91.4758 80.7714 92.0548 80.9842 92.3929 80.9842C92.9475 80.9842 93.3336 80.5347 93.3336 80.0381V73.3209C93.3336 72.4224 93.1652 71.4292 90.9693 71.4292H88.5812V68.2605H91.066C92.7304 68.2605 93.333 67.8813 93.333 66.1083V60.3849C93.333 59.8883 92.9468 59.4381 92.3923 59.4381C92.0541 59.4381 91.4752 59.6271 91.4752 60.3849V65.0906H85.5894V60.999C85.5894 58.9892 85.8308 55.8438 89.9556 55.8438H94.8283C98.9525 55.8438 99.2189 58.9892 99.2189 60.999V65.6105C99.2189 68.7559 96.9762 69.6079 95.2145 69.5369V69.8213C99.1708 69.7265 99.2189 72.7062 99.2189 73.7233V79.5415C99.2189 81.5751 98.9525 84.6973 94.8283 84.6973H89.9556C85.8308 84.6973 85.5894 81.5751 85.5894 79.5415V74.5985H91.4758Z" fill="#0079C2"/>
<path d="M103.08 55.8438H116.709V84.6973H110.823V59.4381H108.965V84.6973H103.079V55.8438" fill="#0079C2"/>
<path d="M126.455 71.7136V59.4381H127.228C127.855 59.4381 128.312 59.9586 128.312 60.8815V70.2702C128.312 71.1931 127.855 71.7136 127.228 71.7136H126.455ZM120.569 84.6979H126.455V74.8823H129.833C133.933 74.8823 134.2 71.7607 134.2 69.7265V60.999C134.2 58.9892 133.933 55.8438 129.833 55.8438H120.569V84.6979" fill="#0079C2"/>
<path d="M145.802 80.0381C145.802 80.5347 145.416 80.9843 144.862 80.9843C144.523 80.9843 143.944 80.7714 143.944 80.0381V60.3849C143.944 59.6271 144.523 59.4381 144.862 59.4381C145.416 59.4381 145.802 59.8883 145.802 60.3849V80.0381ZM138.059 79.5415C138.059 81.5751 138.324 84.6973 142.425 84.6973H147.323C151.423 84.6973 151.689 81.5751 151.689 79.5415V60.999C151.689 58.9892 151.423 55.8438 147.323 55.8438H142.425C138.324 55.8438 138.059 58.9892 138.059 60.999V79.5415Z" fill="#0079C2"/>
<path d="M170.842 55.8438H178.513V84.6973H172.627V66.6043H172.409L169.371 84.6979H164.666L161.651 66.6043H161.434V84.6979H155.548V55.8444H163.195L167.031 76.1367L170.842 55.8438Z" fill="#0079C2"/>
<path d="M48.6765 16.3948C46.8747 8.66105 42.3583 2.37012 41.7362 1.35303C40.7517 2.7952 37.1505 8.35343 35.3195 14.5031C33.3194 21.3854 33.0257 27.4868 33.7153 33.4707C34.4 39.4778 36.9887 45.6507 36.9887 45.6507C38.3642 48.8677 40.4239 52.3441 41.7654 54.0468C43.7308 51.5398 48.2497 44.0667 49.6587 34.3226C50.4425 28.8825 50.4759 24.1285 48.6765 16.3948ZM41.7362 52.1074C40.8508 50.4757 39.4759 47.3773 39.3457 42.5523C39.3123 37.917 41.2102 33.9202 41.7654 33.0921C42.2598 33.9196 43.895 37.3965 44.0908 42.1499C44.2234 46.7859 42.6502 50.4512 41.7362 52.1074ZM48.153 29.521C48.0855 32.4768 47.7261 35.599 47.2676 37.4675C47.4318 34.2511 47.0383 29.7338 46.2855 26.1865C45.5332 22.6624 43.403 16.7501 41.7022 14.0297C40.1314 16.6314 38.197 21.7396 37.1839 26.1627C36.1659 30.5852 36.1367 35.9538 36.1367 37.5623C35.8667 36.2143 35.1912 31.3662 35.3815 26.518C35.5408 22.5206 36.4962 18.3825 37.0197 16.4902C39.0174 10.1754 41.2771 6.13144 41.7022 5.49233C42.1272 6.13144 44.9732 11.1209 46.4497 16.3477C47.9188 21.5744 48.2156 26.5883 48.153 29.521Z" fill="#0079C2"/>
<path d="M44.7924 55.8436H31.0929V64.8544C31.1051 64.8544 31.1148 64.8311 31.127 64.8311C34.3548 61.6618 39.5894 61.6618 42.8197 64.8311C46.0475 67.976 46.0475 73.1086 42.8197 76.2773C42.8051 76.3011 42.7905 76.3011 42.7765 76.325C42.7595 76.325 42.7425 76.3482 42.7279 76.3715C39.5073 79.4931 35.3004 81.0545 31.0929 81.0545C26.8666 81.0545 22.6402 79.4931 19.4173 76.3244C13.7333 70.7662 13.0607 62.134 17.3929 55.8431C17.9767 54.9917 18.6498 54.188 19.4173 53.4303C22.6402 50.2616 26.8666 48.7002 31.0929 48.7002V27.0366C14.8528 27.0366 1.68848 39.9261 1.68848 55.8425C1.68848 71.7588 14.8528 84.6722 31.0929 84.6722C39.5602 84.6722 47.1883 81.1487 52.5531 75.5422V55.8419H44.7924" fill="#0079C2"/>
</svg>
