<svg width="100" height="100" viewBox="0 0 100 100" fill="none" xmlns="http://www.w3.org/2000/svg">
<g clip-path="url(#clip0_345_5445)">
<path fill-rule="evenodd" clip-rule="evenodd" d="M100 50V53.1022L31.2877 53.1016C31.4805 59.3746 32.2595 65.1337 33.4562 70.2235C38.8721 69.0978 44.422 68.5888 50.0001 68.7224V74.9998C45.0036 74.8639 40.03 75.2931 35.1707 76.2653C38.8668 87.2275 44.6214 93.8321 50 93.8321V100C40.111 100 30.444 97.0676 22.2215 91.5735C13.9991 86.0794 7.59043 78.2705 3.80605 69.1342C1.68109 64.0041 0.437127 58.5849 0.0963106 53.1016H0V46.8607H0.0986329C0.237874 44.6474 0.524767 42.4374 0.960758 40.2455C2.89002 30.5465 7.65206 21.6373 14.6447 14.6447C21.6373 7.65206 30.5465 2.89002 40.2455 0.960758C43.4734 0.318698 46.7404 -1.6469e-05 49.9999 6.3731e-10C56.5345 3.30227e-05 63.0385 1.28111 69.1342 3.80605C78.2705 7.59043 86.0794 13.9991 91.5735 22.2215C97.0676 30.444 100 40.111 100 50ZM49.9812 6.2409C44.1485 6.25752 37.8773 14.0353 34.2703 26.7102C39.4099 27.8155 44.6921 28.2898 50 28.1028C55.289 28.2888 60.5522 27.816 65.6734 26.7146C62.0939 14.0798 55.8728 6.28882 50.0581 6.20506L49.9637 6.20465L50 6.2409L49.9812 6.2409ZM64.2455 8.64916C67.3498 12.8819 69.9304 18.4918 71.7849 25.0798C75.4052 23.9164 78.9259 22.4283 82.3028 20.6271C81.8117 20.084 81.3059 19.5521 80.7857 19.0318C76.0794 14.3256 70.4123 10.801 64.2455 8.64916ZM67.115 32.8181C67.942 37.114 68.4784 41.8221 68.6369 46.8607H31.2911C31.4517 41.8212 31.9908 37.1145 32.8206 32.8215C38.4321 34.04 44.2008 34.5708 50 34.3802C55.7776 34.5643 61.5245 34.0325 67.115 32.8181ZM26.7562 31.2175C25.8003 36.0756 25.2089 41.332 25.046 46.8607H6.3196C6.87431 39.227 9.41856 31.9014 13.6561 25.5991C17.8359 27.9207 22.2265 29.7998 26.7562 31.2175ZM25.0449 53.1016H6.3117C6.91238 61.6682 10.0185 69.8516 15.2117 76.6418C19.1306 74.6431 23.2102 73.0105 27.3983 71.7568C26.0619 66.0854 25.2397 59.7927 25.0449 53.1016ZM74.9538 46.8607H93.5006C92.9534 39.2424 90.4247 31.9297 86.2089 25.6333C82.0687 27.927 77.7223 29.7871 73.2392 31.1949C74.1977 36.0593 74.7906 41.3235 74.9538 46.8607ZM28.2111 25.0934C30.0711 18.481 32.6624 12.8533 35.7805 8.61352C29.5329 10.7583 23.7911 14.3091 19.0318 19.0683C18.5328 19.5674 18.047 20.0773 17.5747 20.5974C20.9888 22.4191 24.5494 23.9217 28.2111 25.0934ZM29.087 77.7845C25.816 78.7676 22.6175 80.0041 19.5215 81.4867C24.2014 86.0222 29.7901 89.4147 35.8527 91.4842C33.1664 87.8595 30.8679 83.2076 29.087 77.7845Z" />
<path fill-rule="evenodd" clip-rule="evenodd" d="M62.7371 62.4091H58.0656V99.7438H96.5328V95.0723H93.6132V87.2259H89.0512V95.0723H85.5109V91.6793H80.9489V95.0723H77.4451V84.1234H72.8831V95.0723H69.3431V90.4015H64.781V95.0723H62.7371V79.3435H67.3839C67.4038 79.3996 67.4252 79.4553 67.448 79.5106C67.7049 80.1308 68.14 80.6609 68.6982 81.0338C69.2563 81.4068 69.9125 81.6058 70.5838 81.6058C71.484 81.6058 72.3474 81.2482 72.9839 80.6117C73.6204 79.9752 73.978 79.1119 73.978 78.2117C73.978 77.6986 73.8617 77.1943 73.6404 76.7358L77.0174 73.3612C77.4688 73.5745 77.9638 73.6864 78.4672 73.6864C78.9789 73.6864 79.4787 73.5709 79.9317 73.3542L83.2952 76.7177L83.3847 76.6282C83.2327 76.9164 83.1221 77.2265 83.0579 77.5495C82.9269 78.2079 82.9941 78.8904 83.251 79.5106C83.5079 80.1308 83.943 80.6609 84.5011 81.0338C85.0593 81.4068 85.7155 81.6058 86.3868 81.6058C87.287 81.6058 88.1503 81.2482 88.7869 80.6117C89.4234 79.9752 89.781 79.1119 89.781 78.2117C89.781 77.7034 89.6668 77.2037 89.4495 76.7487L89.4526 76.7518L94.3065 71.8979V74.818H96.5693V68.0297H89.7809V70.2925H92.7002L87.8467 75.1459L87.8498 75.149C87.7959 75.1232 87.7412 75.0988 87.6857 75.0759C87.0655 74.819 86.3831 74.7518 85.7247 74.8827C85.4016 74.947 85.0915 75.0575 84.8033 75.2095L84.8952 75.1176L81.5308 71.7532C81.7464 71.3012 81.8613 70.8026 81.8613 70.2923C81.8613 69.621 81.6623 68.9647 81.2893 68.4066C80.9164 67.8484 80.3863 67.4134 79.7661 67.1565C79.1459 66.8996 78.4634 66.8324 77.805 66.9633C77.1466 67.0943 76.5418 67.4175 76.0671 67.8922C75.5925 68.3669 75.2692 68.9717 75.1382 69.6301C75.0073 70.2885 75.0745 70.9709 75.3314 71.5911C75.3562 71.6509 75.3826 71.7099 75.4106 71.7679L72.0335 75.1427C71.9839 75.1192 71.9336 75.097 71.8827 75.0759C71.2625 74.819 70.5801 74.7518 69.9217 74.8827C69.2633 75.0137 68.6585 75.337 68.1838 75.8116C67.8243 76.1711 67.5517 76.6052 67.3836 77.0807H62.7371V62.4091ZM69.9553 77.271C70.1413 77.1466 70.3601 77.0803 70.5838 77.0803C70.8839 77.0803 71.1717 77.1995 71.3839 77.4117C71.596 77.6238 71.7152 77.9116 71.7152 78.2117C71.7152 78.4354 71.6489 78.6542 71.5246 78.8402C71.4002 79.0263 71.2235 79.1713 71.0168 79.2569C70.8101 79.3426 70.5826 79.365 70.3631 79.3213C70.1437 79.2777 69.9421 79.1699 69.7838 79.0117C69.6256 78.8535 69.5179 78.6519 69.4742 78.4324C69.4305 78.2129 69.4529 77.9855 69.5386 77.7787C69.6242 77.572 69.7692 77.3953 69.9553 77.271ZM86.3868 77.0803C86.1631 77.0803 85.9443 77.1466 85.7583 77.271C85.5722 77.3953 85.4272 77.572 85.3416 77.7787C85.2559 77.9855 85.2335 78.2129 85.2772 78.4324C85.3208 78.6519 85.4286 78.8535 85.5868 79.0117C85.745 79.1699 85.9466 79.2777 86.1661 79.3213C86.3856 79.365 86.6131 79.3426 86.8198 79.2569C87.0265 79.1713 87.2032 79.0263 87.3275 78.8402C87.4519 78.6542 87.5182 78.4354 87.5182 78.2117C87.5182 77.9116 87.399 77.6238 87.1868 77.4117C86.9747 77.1995 86.6869 77.0803 86.3868 77.0803ZM77.8386 69.3515C78.0247 69.2272 78.2434 69.1609 78.4672 69.1609V69.3434C78.7402 69.3318 79.0076 69.4228 79.2169 69.5984C79.4263 69.7739 79.5624 70.0214 79.5986 70.2923C79.5986 70.516 79.5322 70.7348 79.4079 70.9208C79.2836 71.1069 79.1069 71.2519 78.9001 71.3375C78.6934 71.4232 78.4659 71.4456 78.2465 71.4019C78.027 71.3582 77.8254 71.2505 77.6672 71.0923C77.5089 70.934 77.4012 70.7325 77.3575 70.513C77.3139 70.2935 77.3363 70.066 77.4219 69.8593C77.5075 69.6526 77.6526 69.4759 77.8386 69.3515Z" />
</g>
<defs>
<clipPath id="clip0_345_5445">
<rect width="100" height="100" fill="white"/>
</clipPath>
</defs>
</svg>
