<svg width="80" height="80" viewBox="0 0 80 80" fill="none" xmlns="http://www.w3.org/2000/svg">
<path d="M13.3327 63.3332H66.666V46.6666H73.3327V66.6666C73.3327 67.5506 72.9815 68.3985 72.3564 69.0236C71.7312 69.6487 70.8834 69.9999 69.9993 69.9999H9.99935C9.11529 69.9999 8.26745 69.6487 7.64233 69.0236C7.0172 68.3985 6.66602 67.5506 6.66602 66.6666V46.6666H13.3327V63.3332ZM39.9993 33.3332H29.9993C26.8429 33.331 23.7309 34.0769 20.9184 35.5098C18.1059 36.9427 15.6731 39.0218 13.8193 41.5766C15.0026 35.5015 18.2614 30.0268 23.0376 26.0905C27.8138 22.1541 33.8101 20.001 39.9993 19.9999V6.66656L66.666 26.6666L39.9993 46.6666V33.3332Z"/>
</svg>
