<svg width="100" height="100" viewBox="0 0 100 100" xmlns="http://www.w3.org/2000/svg">
<g clip-path="url(#clip0_345_5427)">
<path fill-rule="evenodd" clip-rule="evenodd" d="M16.3532 18.1793C16.3532 18.7184 16.1934 19.2454 15.8939 19.6936C15.5944 20.1418 15.1687 20.4911 14.6707 20.6974C14.1727 20.9037 13.6247 20.9577 13.096 20.8525C12.5673 20.7473 12.0816 20.4878 11.7004 20.1066C11.3193 19.7254 11.0597 19.2398 10.9545 18.7111C10.8494 18.1824 10.9033 17.6344 11.1096 17.1363C11.3159 16.6383 11.6653 16.2126 12.1135 15.9131C12.5617 15.6137 13.0886 15.4538 13.6277 15.4538C14.3506 15.4538 15.0438 15.741 15.5549 16.2521C16.0661 16.7632 16.3532 17.4565 16.3532 18.1793ZM62.8509 20.9049H35.1049C34.4254 20.8435 33.7936 20.5294 33.3344 20.0248C32.8752 19.5202 32.6219 18.8616 32.6247 18.1793C32.6219 17.497 32.8752 16.8385 33.3344 16.3339C33.7936 15.8292 34.4254 15.5152 35.1049 15.4538H62.9872C63.7101 15.4538 64.4033 15.741 64.9144 16.2521C65.4256 16.7632 65.7127 17.4565 65.7127 18.1793C65.7127 18.9022 65.4256 19.5955 64.9144 20.1066C64.4033 20.6177 63.7101 20.9049 62.9872 20.9049H62.8509ZM8.01308 36.3314C7.32379 36.3798 6.6786 36.6882 6.20803 37.1942C5.73746 37.7001 5.47664 38.366 5.47833 39.057V59.0079C5.47833 59.7308 5.76549 60.424 6.27662 60.9352C6.78776 61.4463 7.48101 61.7334 8.20387 61.7334H54.0202V67.1845H8.17662C6.00804 67.1845 3.92829 66.3231 2.39488 64.7896C0.861462 63.2562 0 61.1765 0 59.0079L0 39.057C0.00454506 37.0435 0.751821 35.1025 2.09866 33.6059C0.751821 32.1092 0.00454506 30.1683 0 28.1548L0 8.17662C0 6.00804 0.861462 3.92829 2.39488 2.39488C3.92829 0.861462 6.00804 0 8.17662 0L68.3565 0C70.5251 0 72.6048 0.861462 74.1382 2.39488C75.6717 3.92829 76.5331 6.00804 76.5331 8.17662V28.1003C76.5286 30.1137 75.7813 32.0547 74.4345 33.5514C75.7813 35.048 76.5286 36.989 76.5331 39.0025V39.1387H71.082V39.0025C71.0829 38.3026 70.8145 37.6292 70.3325 37.1218C69.8505 36.6144 69.1918 36.3119 68.4928 36.2769H8.01308V36.3314ZM25.2657 18.1793C25.2657 18.7184 25.1059 19.2454 24.8064 19.6936C24.5069 20.1418 24.0812 20.4911 23.5832 20.6974C23.0852 20.9037 22.5372 20.9577 22.0085 20.8525C21.4798 20.7473 20.9941 20.4878 20.613 20.1066C20.2318 19.7254 19.9722 19.2398 19.867 18.7111C19.7619 18.1824 19.8158 17.6344 20.0221 17.1363C20.2284 16.6383 20.5778 16.2126 21.026 15.9131C21.4742 15.6137 22.0011 15.4538 22.5402 15.4538C23.2631 15.4538 23.9563 15.741 24.4675 16.2521C24.9786 16.7632 25.2657 17.4565 25.2657 18.1793ZM16.3532 49.0597C16.3532 49.5988 16.1934 50.1257 15.8939 50.5739C15.5944 51.0221 15.1687 51.3715 14.6707 51.5778C14.1727 51.7841 13.6247 51.838 13.096 51.7329C12.5673 51.6277 12.0816 51.3681 11.7004 50.9869C11.3193 50.6058 11.0597 50.1201 10.9545 49.5914C10.8494 49.0627 10.9033 48.5147 11.1096 48.0167C11.3159 47.5186 11.6653 47.093 12.1135 46.7935C12.5617 46.494 13.0886 46.3342 13.6277 46.3342C14.3506 46.3342 15.0438 46.6213 15.5549 47.1324C16.0661 47.6436 16.3532 48.3368 16.3532 49.0597ZM53.9657 51.7852H35.1049C34.3821 51.7852 33.6888 51.4981 33.1777 50.9869C32.6666 50.4758 32.3794 49.7826 32.3794 49.0597C32.3794 48.3368 32.6666 47.6436 33.1777 47.1324C33.6888 46.6213 34.3821 46.3342 35.1049 46.3342H54.0202L53.9657 51.7852ZM25.2657 49.0597C25.2657 49.5988 25.1059 50.1257 24.8064 50.5739C24.5069 51.0221 24.0812 51.3715 23.5832 51.5778C23.0852 51.7841 22.5372 51.838 22.0085 51.7329C21.4798 51.6277 20.9941 51.3681 20.613 50.9869C20.2318 50.6058 19.9722 50.1201 19.867 49.5914C19.7619 49.0627 19.8158 48.5147 20.0221 48.0167C20.2284 47.5186 20.5778 47.093 21.026 46.7935C21.4742 46.494 22.0011 46.3342 22.5402 46.3342C23.2631 46.3342 23.9563 46.6213 24.4675 47.1324C24.9786 47.6436 25.2657 48.3368 25.2657 49.0597ZM100 99.6457H59.2532V43.7721H88.5255L100 55.0831V99.6457ZM88.7435 91.4691H67.8932V65.7127H70.864V76.0425H74.0529L78.8771 71.0275H83.456L87.0537 67.2935H91.251L84.7097 74.0801H80.1308L75.2794 79.0406H70.864V88.3075H73.7531V83.6195H76.7239V88.3075H79.831V79.504H82.8019V88.3075H85.7727V76.7512H88.7435V88.2802V91.4691ZM64.2137 94.658H94.9032V59.6075H84.7915V48.8689H64.35L64.2137 94.658ZM8.17662 5.45108C7.45376 5.45108 6.76051 5.73823 6.24937 6.24937C5.73823 6.76051 5.45108 7.45376 5.45108 8.17662V28.1003C5.44982 28.7957 5.71442 29.4653 6.19071 29.972C6.66699 30.4786 7.31894 30.7841 8.01308 30.8258H68.52C69.219 30.7908 69.8778 30.4883 70.3598 29.9809C70.8418 29.4735 71.1102 28.8002 71.1093 28.1003V8.17662C71.1093 7.45376 70.8221 6.76051 70.311 6.24937C69.7999 5.73823 69.1066 5.45108 68.3838 5.45108H8.17662Z" />
</g>
<defs>
<clipPath id="clip0_345_5427">
<rect width="100" height="100" fill="white"/>
</clipPath>
</defs>
</svg>
