<svg width="100" height="100" viewBox="0 0 100 100" fill="none" xmlns="http://www.w3.org/2000/svg">
<g clip-path="url(#clip0_345_5447)">
<path fill-rule="evenodd" clip-rule="evenodd" d="M99.9999 53.1014V49.9992C99.9783 40.1149 97.0274 30.4587 91.5202 22.2506C86.013 14.0426 78.1965 7.651 69.0583 3.8834C63.6027 1.63409 57.8221 0.38029 51.9868 0.148206C51.332 0.0499721 50.6694 0 49.9999 0C49.3327 0 48.6724 0.0498802 48.0197 0.147924C45.3966 0.251886 42.7747 0.56274 40.1784 1.08285C30.4866 3.02446 21.5877 7.79511 14.606 14.7921C7.62436 21.789 2.87318 30.6984 0.95278 40.3944C0.528369 42.5373 0.246425 44.6973 0.105591 46.8607H0V53.1016H0.0896729C0.421274 58.6311 1.67117 64.0968 3.81649 69.2681C7.60407 78.398 14.0127 86.2005 22.2328 91.6898C30.4066 97.1481 40.0067 100.076 49.8329 100.108L49.9999 100.109L50.0873 100.109H53.1021L53.1021 93.1387C52.1624 93.5804 51.1397 93.8164 50.1022 93.8314H49.9999L49.8915 93.8312C44.5475 93.7433 38.8492 87.1623 35.1777 76.2861C40.0353 75.3196 45.0065 74.8957 50.0001 75.0363H53.1023V68.7224H50.0001C44.422 68.5888 38.8721 69.0978 33.4562 70.2235C32.2595 65.1337 31.4805 59.3746 31.2877 53.1016L99.9999 53.1014ZM31.2911 46.8607H68.6369C68.4784 41.8221 67.942 37.114 67.1151 32.8181C61.5245 34.0325 55.7776 34.5643 50 34.3802C44.2008 34.5708 38.4321 34.04 32.8206 32.8215C31.9908 37.1145 31.4517 41.8212 31.2911 46.8607ZM34.2703 26.7102C37.8811 14.0218 44.1619 6.24088 49.9999 6.24088L49.9634 6.20438C55.8052 6.20438 62.0745 14.0112 65.6734 26.7146C60.5523 27.816 55.289 28.2888 50 28.1028C44.6921 28.2898 39.4099 27.8155 34.2703 26.7102ZM73.2392 31.1949C74.1977 36.0593 74.7906 41.3235 74.9538 46.8607H93.5005C92.9535 39.2424 90.4249 31.9296 86.2092 25.6331C82.0689 27.9269 77.7224 29.7871 73.2392 31.1949ZM82.3032 20.6269C78.9262 22.4282 75.4053 23.9164 71.7849 25.0798C69.9303 18.4913 67.3494 12.8811 64.2448 8.64819C70.4119 10.8 76.0792 14.3246 80.7856 19.0311C81.306 19.5515 81.812 20.0836 82.3032 20.6269ZM28.2323 25.1002C24.563 23.9274 20.995 22.4224 17.5742 20.5971C18.0466 20.0768 18.5325 19.5668 19.0317 19.0676C23.8 14.2993 29.5546 10.744 35.8161 8.60051C32.6939 12.845 30.0978 18.4812 28.2323 25.1002ZM13.6556 25.5988C17.841 27.9235 22.2376 29.8046 26.7736 31.2229C25.8138 36.0817 25.2178 41.3368 25.0492 46.8607H6.31943C6.874 39.227 9.41816 31.9012 13.6556 25.5988ZM25.0417 53.1016C25.2296 59.7933 26.0448 66.0883 27.3743 71.764C23.1947 73.0167 19.1233 74.6469 15.212 76.6416C10.0187 69.8515 6.91247 61.6682 6.31164 53.1016H25.0417ZM29.059 77.8087C25.7993 78.7864 22.6115 80.0157 19.5251 81.4896C24.1762 85.9961 29.7248 89.3739 35.744 91.4462C33.0903 87.824 30.8198 83.1949 29.059 77.8087Z" />
<path d="M76.6424 93.3937C75.4249 93.3863 74.2466 92.9622 73.3037 92.1919C72.3608 91.4216 71.7101 90.3517 71.46 89.1601H61.241L64.8906 81.5688V71.2769C64.8906 68.2085 66.1095 65.2658 68.2792 63.0961C70.4489 60.9264 73.3916 59.7075 76.46 59.7075C79.5283 59.7075 82.4711 60.9264 84.6407 63.0961C86.8104 65.2658 88.0293 68.2085 88.0293 71.2769V81.5688L91.6789 89.1601H81.46C81.2311 90.2958 80.6358 91.325 79.7656 92.0898C78.8953 92.8546 77.7982 93.3126 76.6424 93.3937Z"/>
</g>
<defs>
<clipPath id="clip0_345_5447">
<rect width="100" height="100" fill="white"/>
</clipPath>
</defs>
</svg>
