<svg viewBox="0 0 100 100" fill="none" xmlns="http://www.w3.org/2000/svg">
<path fill-rule="evenodd" clip-rule="evenodd" d="M32.1473 14.337C27.1464 14.2657 22.159 14.8747 17.3221 16.1472C13.2022 17.3332 10.8614 18.6753 10.8614 19.6428C10.8614 20.6104 13.2022 21.9837 17.3221 23.1385C22.1571 24.4234 27.1448 25.0429 32.1473 24.9799C37.1498 25.0429 42.1375 24.4234 46.9725 23.1385C51.0924 21.9837 53.4332 20.6104 53.4332 19.6428C53.4332 18.6753 51.0924 17.3332 46.9725 16.1472C42.1357 14.8747 37.1483 14.2657 32.1473 14.337V14.337ZM53.4332 42.8326C52.3365 43.3865 51.1992 43.856 50.0312 44.2371C44.234 45.9852 38.2016 46.8274 32.1473 46.734V46.734C25.7903 46.8402 19.4604 45.8801 13.4207 43.8938C12.5468 43.5504 11.7353 43.2071 10.9863 42.8326V51.5717C10.9863 52.5392 13.3271 53.9125 17.4469 55.0673C22.2838 56.3398 27.2712 56.9488 32.2722 56.8775C37.2731 56.9488 42.2605 56.3398 47.0974 55.0673C51.2172 53.9125 53.5581 52.5392 53.5581 51.5717L53.4332 42.8326ZM10.8614 36.1222C10.8614 37.0898 13.2647 38.4318 17.3221 39.5867C22.159 40.8591 27.1464 41.4681 32.1473 41.3969C37.1483 41.4681 42.1357 40.8591 46.9725 39.5867C51.0924 38.4006 53.4332 37.0273 53.4332 36.091V26.3844C52.3044 26.9214 51.1357 27.3701 49.9376 27.7265C44.1404 29.4746 38.108 30.3168 32.0537 30.2234V30.2234C25.6966 30.3296 19.3668 29.3695 13.3271 27.3832C12.4948 27.0791 11.6819 26.7247 10.8926 26.322V32.3457V36.1222H10.8614ZM85.4557 54.1622V42.0211H90.1997L93.633 54.1622H85.4557ZM11.4232 71.4219C12.5776 71.4219 13.706 71.7642 14.6658 72.4055C15.6256 73.0468 16.3737 73.9583 16.8154 75.0248C17.2571 76.0913 17.3727 77.2648 17.1475 78.397C16.9223 79.5291 16.3665 80.5691 15.5502 81.3853C14.734 82.2016 13.694 82.7574 12.5619 82.9826C11.4297 83.2078 10.2562 83.0922 9.18971 82.6505C8.12323 82.2087 7.2117 81.4607 6.57039 80.5009C5.92907 79.5411 5.58677 78.4127 5.58677 77.2583C5.58677 75.7104 6.20168 74.2259 7.29622 73.1313C8.39077 72.0368 9.8753 71.4219 11.4232 71.4219V71.4219ZM35.5805 71.4219C36.7349 71.4219 37.8633 71.7642 38.8231 72.4055C39.7829 73.0468 40.531 73.9583 40.9727 75.0248C41.4145 76.0913 41.53 77.2648 41.3048 78.397C41.0796 79.5291 40.5238 80.5691 39.7075 81.3853C38.8913 82.2016 37.8513 82.7574 36.7192 82.9826C35.587 83.2078 34.4135 83.0922 33.347 82.6505C32.2805 82.2087 31.369 81.4607 30.7277 80.5009C30.0864 79.5411 29.7441 78.4127 29.7441 77.2583C29.7441 75.7104 30.359 74.2259 31.4535 73.1313C32.5481 72.0368 34.0326 71.4219 35.5805 71.4219ZM11.4232 88.8064C13.6825 88.8064 15.8911 88.1364 17.7696 86.8812C19.6482 85.626 21.1123 83.842 21.9769 81.7546C22.8415 79.6673 23.0677 77.3705 22.6269 75.1546C22.1862 72.9387 21.0982 70.9033 19.5007 69.3057C17.9031 67.7082 15.8677 66.6202 13.6518 66.1794C11.4359 65.7387 9.13906 65.9649 7.05174 66.8295C4.96442 67.6941 3.18036 69.1582 1.92516 71.0368C0.66996 72.9153 0 75.1239 0 77.3832C0.00823704 80.4103 1.2144 83.311 3.35488 85.4515C5.49537 87.592 8.39613 88.7981 11.4232 88.8064V88.8064ZM82.1785 71.4219C83.3329 71.4219 84.4613 71.7642 85.4211 72.4055C86.3809 73.0468 87.129 73.9583 87.5707 75.0248C88.0125 76.0913 88.128 77.2648 87.9028 78.397C87.6776 79.5291 87.1218 80.5691 86.3055 81.3853C85.4893 82.2016 84.4493 82.7574 83.3172 82.9826C82.185 83.2078 81.0115 83.0922 79.945 82.6505C78.8785 82.2087 77.967 81.4607 77.3257 80.5009C76.6844 79.5411 76.3421 78.4127 76.3421 77.2583C76.3421 75.7104 76.957 74.2259 78.0515 73.1313C79.1461 72.0368 80.6306 71.4219 82.1785 71.4219V71.4219ZM91.5418 70.5167C90.4813 69.0656 89.0934 67.8852 87.4908 67.0715C85.8883 66.2577 84.1163 65.8336 82.319 65.8336C80.5216 65.8336 78.7497 66.2577 77.1471 67.0715C75.5446 67.8852 74.1566 69.0656 73.0961 70.5167H70.7241V42.0211H80.0874V59.6553H94.4757V70.6416L91.5418 70.5167ZM82.1785 88.6815C85.1896 88.6818 88.0797 87.4965 90.2233 85.382C92.367 83.2675 93.5919 80.3939 93.633 77.3832C93.633 76.9774 93.633 76.6029 93.633 76.2284H99.8752V70.6416V56.347L93.789 37.0898H64.9188V70.6416H44.819C43.217 68.4347 40.8803 66.8718 38.2289 66.2338C35.5776 65.5959 32.7857 65.9248 30.3552 67.1614C27.9247 68.398 26.0151 70.4611 24.9698 72.9798C23.9245 75.4985 23.8121 78.3076 24.6528 80.9017C25.4935 83.4959 27.2322 85.705 29.5561 87.1319C31.88 88.5587 34.6368 89.1096 37.3306 88.6855C40.0244 88.2615 42.4786 86.8902 44.2517 84.8184C46.0249 82.7466 47.0007 80.1102 47.0037 77.3832C47.0357 76.8635 47.0357 76.3423 47.0037 75.8226H70.9114C70.9114 76.2908 70.9114 76.7589 70.9114 77.2583C70.8863 80.2802 72.0564 83.1896 74.1668 85.3527C76.2772 87.5157 79.1569 88.7571 82.1785 88.8064V88.6815ZM32.2409 62.0898C25.8839 62.196 19.554 61.2359 13.5144 59.2496C9.11361 57.8139 6.2422 55.5667 5.64919 52.6953C5.60252 51.9886 5.60252 51.2796 5.64919 50.5729V19.7677C5.61703 19.373 5.61703 18.9763 5.64919 18.5817C6.2422 15.6478 9.11361 13.4006 13.2959 11.8401C19.3355 9.85371 25.6654 8.89368 32.0225 8.99988C38.3795 8.89368 44.7094 9.85371 50.7491 11.8401C54.9313 13.4006 57.834 15.6478 58.3958 18.5817V51.5717V52.6328C57.834 55.5667 54.9313 57.8139 50.7491 59.3744C44.7491 61.347 38.4626 62.3069 32.1473 62.2146L32.2409 62.0898Z" />
</svg>
