<svg  viewBox="0 0 80 80" fill="none" xmlns="http://www.w3.org/2000/svg">
<path d="M39.9993 6.66656C58.4093 6.66656 73.3327 21.5899 73.3327 39.9999C73.3327 58.4099 58.4093 73.3332 39.9993 73.3332C21.5893 73.3332 6.66602 58.4099 6.66602 39.9999C6.66602 21.5899 21.5893 6.66656 39.9993 6.66656ZM39.9993 13.3332C32.9269 13.3332 26.1441 16.1427 21.1432 21.1437C16.1422 26.1447 13.3327 32.9275 13.3327 39.9999C13.3327 47.0723 16.1422 53.8551 21.1432 58.8561C26.1441 63.857 32.9269 66.6666 39.9993 66.6666C47.0718 66.6666 53.8546 63.857 58.8555 58.8561C63.8565 53.8551 66.666 47.0723 66.666 39.9999C66.666 32.9275 63.8565 26.1447 58.8555 21.1437C53.8546 16.1427 47.0718 13.3332 39.9993 13.3332ZM39.9993 23.3332C43.508 23.3346 46.9267 24.4431 49.7684 26.501C52.6102 28.5589 54.73 31.4611 55.8259 34.7942C56.9217 38.1273 56.9378 41.7212 55.8717 45.064C54.8056 48.4067 52.7118 51.3277 49.8886 53.4109C47.0653 55.4941 43.6566 56.6332 40.1482 56.6658C36.6397 56.6985 33.2104 55.6231 30.3489 53.5928C27.4873 51.5626 25.3395 48.681 24.2114 45.3587C23.0832 42.0364 23.0324 38.4428 24.066 35.0899C24.8458 36.8323 26.2003 38.254 27.9029 39.1171C29.6055 39.9802 31.5529 40.2324 33.4192 39.8314C35.2855 39.4304 36.9574 38.4006 38.1553 36.9143C39.3531 35.428 40.0041 33.5754 39.9993 31.6666C39.9998 30.0615 39.5367 28.4904 38.6656 27.1421C37.7946 25.7939 36.5528 24.7259 35.0893 24.0666C36.6427 23.5899 38.2893 23.3332 39.9993 23.3332Z" />
</svg>
