<svg width="73" height="73" viewBox="0 0 73 73" fill="none" xmlns="http://www.w3.org/2000/svg">
<path fill-rule="evenodd" clip-rule="evenodd" d="M31.0225 21.8224L30.0073 22.2457C28.7301 21.4465 28.1627 19.792 25.9725 19.8582C24.1278 19.9129 23.0809 21.5027 22.1867 22.3955C21.2838 23.2969 19.7315 24.2934 19.7229 26.1827C19.7142 28.0662 21.1672 28.8928 22.0758 29.9872L21.6611 31.2414C17.6723 31.5481 16.2539 30.8498 16.2539 36.7019C16.2539 41.8197 16.7709 41.9104 21.6006 42.2099L22.1334 43.4008C18.8603 46.7488 18.7739 47.6992 22.1363 51.0587C22.9729 51.8939 24.1897 53.5513 25.9725 53.6061C28.3009 53.6766 28.6177 51.8925 30.0016 51.2344L31.0009 51.6088C31.5784 53.7414 30.6741 54.9467 32.3142 56.3248C33.3784 57.219 40.4186 58.2227 41.765 55.1886C42.5541 53.4088 41.3733 52.1329 42.544 51.4331C44.2245 50.4294 44.3541 54.0582 47.6848 53.5643C48.9361 53.3786 53.4995 49.5122 53.4822 47.2283C53.4678 45.3966 51.9155 44.2706 51.1091 43.4166L51.5685 42.1912C56.4069 41.9536 56.9498 41.7045 56.9512 36.7019C56.9541 30.9433 55.72 31.5611 51.5656 31.2357L51.0645 30.0102C52.0739 28.8122 53.4808 28.1512 53.4822 26.187C53.4837 24.2502 51.9472 23.3358 51.017 22.4027C50.0954 21.4782 49.1219 19.8971 47.2341 19.8568C45.0597 19.8121 44.4333 21.3673 43.2078 22.2313C40.695 21.4336 43.0048 20.2643 41.5835 17.956C40.06 15.4821 33.531 16.1459 32.3545 17.1179C30.7086 18.4758 31.4848 19.5933 31.0225 21.8224ZM35.2893 27.6069C23.1025 29.5393 25.899 47.6214 38.0296 45.8661C42.5944 45.2051 46.4737 40.865 45.7581 35.416C45.1662 30.9059 40.7008 26.7501 35.2893 27.6069Z" fill="white"/>
<path fill-rule="evenodd" clip-rule="evenodd" d="M7.61891 44.7559C8.14451 45.558 8.76803 47.8102 9.25907 48.9305C12.2658 55.8007 17.5664 60.8451 24.2149 63.9857C26.0437 64.8511 31.5287 66.7404 33.7938 66.4798C35.637 66.2695 35.925 63.7769 33.7995 63.306C28.4759 62.1252 25.9904 62.095 20.7805 58.2343C16.773 55.2665 11.7272 49.0371 11.0173 44.1785C11.7906 44.5615 12.7367 45.5091 13.8224 44.4766C15.6195 42.7687 12.3795 41.1012 10.8085 40.0025C9.93155 39.3891 9.20003 38.7497 8.28995 38.2687C7.31939 39.1961 5.67635 41.7694 4.77635 43.0351C4.13987 43.9294 3.82451 45.3075 4.93475 45.8964C6.29123 46.6164 7.00835 45.3334 7.61891 44.7559Z" fill="white"/>
<path fill-rule="evenodd" clip-rule="evenodd" d="M44.262 62.2591C45.7049 58.7369 42.8753 58.3668 41.5274 60.318C40.5309 61.7609 39.2753 63.738 38.1074 65.0916C38.6762 65.8836 40.8247 67.2069 41.7866 67.8953C43.1877 68.8961 44.1237 70.0956 45.8676 68.5217C46.134 66.7375 45.4298 66.5949 44.4794 65.8015C44.5802 65.7209 44.6321 65.6604 44.933 65.5149L46.6049 64.9505C54.2052 62.2649 60.3439 56.6085 63.725 49.3754C64.6913 47.3061 66.4308 42.4116 66.353 39.8225C66.2925 37.7676 63.8762 37.4551 63.27 39.0765C62.2893 41.6988 63.2455 45.1505 58.3092 52.2511C55.9145 55.6956 50.1055 61.0682 44.262 62.2591Z" fill="white"/>
<path fill-rule="evenodd" clip-rule="evenodd" d="M62.2066 29.2787C61.249 28.7646 61.2072 28.4349 59.7255 28.6682C57.9773 30.749 59.2546 31.2803 60.9135 32.4309C62.2455 33.3554 63.4954 34.3778 64.9196 35.213L67.2567 32.0997C68.0861 30.9635 69.2698 29.9714 68.9444 28.1368C67.1559 26.6277 66.7383 27.5046 65.592 28.7819C65.2868 28.373 63.9 23.945 61.8912 20.7064C58.9652 15.9904 54.1181 11.7885 48.9471 9.46865C47.016 8.60321 41.6924 6.73553 39.4244 6.98177C37.6042 7.18049 37.3508 9.61265 39.0946 10.1166C43.0172 11.2514 46.2428 10.6394 52.2533 15.1235C56.0765 17.9762 60.794 23.0637 62.2066 29.2787Z" fill="white"/>
<path fill-rule="evenodd" clip-rule="evenodd" d="M28.6368 7.84435C19.1011 11.008 13.0373 16.2252 9.2083 24.6463C8.24926 26.7573 6.40462 32.0565 6.99502 34.6845C8.38462 36.0612 9.81598 35.6032 10.1155 33.3597C10.3473 31.6317 10.6613 30.1629 11.1566 28.6034C13.5945 20.934 21.0264 12.7101 29.1192 11.1506C28.7203 12.0607 27.852 13.073 28.9349 14.0522C30.0221 15.0343 31.0545 14.1746 31.5859 13.4373C32.6803 11.9138 33.8712 9.97123 35.0966 8.52547C34.5163 7.74499 31.3094 5.63539 30.2625 4.87651C29.4979 4.32067 28.0651 3.88579 27.4373 5.06659C26.6625 6.52387 28.0622 7.19923 28.6368 7.84435Z" fill="white"/>
<path fill-rule="evenodd" clip-rule="evenodd" d="M38.9421 49.1897C38.621 49.6029 38.6671 49.6217 38.6728 50.3445L38.6944 53.7516L34.4767 53.7703L34.5372 50.117C34.5271 49.7786 34.5257 49.8103 34.4637 49.5021L34.3025 49.1753L34.2578 53.8884C35.502 54.1231 37.7152 54.2037 38.8327 53.8265L38.9421 49.1897Z" fill="white"/>
</svg>
