<svg width="100" height="118" viewBox="0 0 100 118" fill="none" xmlns="http://www.w3.org/2000/svg">
<path fill-rule="evenodd" clip-rule="evenodd" d="M4.46196 91.8335L95.462 91.8864L95.512 2.3962L4.45996 2.34521L4.46196 91.8335ZM37.316 12.3825C32.024 13.4589 33.096 18.1491 33.096 23.5805C33.096 28.7413 32.81 51.2531 33.232 54.4237C35.15 68.8178 56.04 69.5491 59.79 56.6374C60.8 53.1648 60.37 45.8884 60.368 41.8158V18.6786C60.372 15.8923 60.03 14.3001 58.29 13.1609C56.52 12.0021 54.192 11.904 52.358 13.0805C50.446 14.306 50.184 15.8609 50.188 18.8746C50.2 29.2021 50.19 39.5276 50.192 49.855C50.192 52.404 50.266 54.6511 48.152 55.4472C45.624 56.3962 43.546 54.6197 43.352 52.5864L43.33 21.6197C43.336 19.4021 43.694 16.3001 42.624 14.5982C41.718 13.157 39.714 11.8923 37.316 12.3825ZM90.362 79.1001C90.09 77.3786 87.91 72.606 87.162 70.7452L77.266 45.9256C73.648 36.5766 73.302 38.855 79.036 29.8354C80.45 27.6099 82.018 25.1433 83.486 22.8158C84.902 20.5668 87.326 17.7021 85.288 14.5315C83.674 12.0217 79.664 11.4511 77.266 13.7805C76.36 14.6589 69.146 26.5746 68.308 27.9433C63.448 35.8923 62.29 36.4119 65.834 44.5923C67.002 47.2903 68.24 50.0197 69.358 52.7041C70.332 55.0433 76.162 67.9393 76.32 69.108C65.538 69.2472 54.654 69.1158 43.862 69.1158C26.338 69.1158 26.234 70.7472 26.228 62.4041C26.226 59.7237 26.228 57.0452 26.23 54.3648C26.238 43.7766 26.228 33.1884 26.232 22.6001C26.232 19.1295 27.382 11.7001 20.456 12.3707C14.9 12.9099 15.956 19.0511 15.974 24.1687C16.01 34.755 15.992 45.3472 15.992 55.9335C15.992 59.5393 15.58 68.655 16.3 71.5727C17.242 75.3844 20.648 78.5884 25.064 79.0511C27.654 79.3217 89.856 79.1099 90.362 79.1001Z" fill="#E03A3E"/>
<path fill-rule="evenodd" clip-rule="evenodd" d="M66.8384 114.606L70.9464 114.649L76.3244 106.321L76.4384 114.616L80.3824 114.655L80.3884 100.392L76.4604 100.408C75.3184 101.569 72.4184 106.682 71.3744 108.002L70.7924 108.563L70.7884 100.512L66.8544 100.394L66.8384 114.606Z" fill="#232021"/>
<path fill-rule="evenodd" clip-rule="evenodd" d="M81.9343 111.282L81.9043 114.655C84.8623 115.296 87.5703 114.408 88.4403 112.37C89.3623 110.218 88.6283 106.39 88.9343 103.865L91.7503 103.847L91.7903 114.641L95.8463 114.635L95.8583 100.447L84.8183 100.396C84.7723 102.702 84.8043 105.02 84.8083 107.306C84.8123 110.116 85.1403 111.445 81.9343 111.282Z" fill="#232021"/>
<path fill-rule="evenodd" clip-rule="evenodd" d="M10.8081 111.839C11.2881 109.227 10.6941 106.284 11.0981 103.827L14.0181 103.769L14.0921 114.58L18.1321 114.529L18.1001 100.423L7.04214 100.398C7.00814 101.898 7.23214 109.327 6.77214 110.353C6.29814 111.404 5.37214 111.28 4.16414 111.314L4.14014 114.631C7.29814 115.519 10.2741 114.131 10.8081 111.839Z" fill="#232021"/>
<path fill-rule="evenodd" clip-rule="evenodd" d="M35.2842 114.643L39.3182 114.651L39.3982 108.837C39.6022 108.986 39.5762 108.955 39.7542 109.159L43.4382 114.586L48.5182 114.651C47.8142 113.051 44.0022 109.029 43.0842 107.306C43.8122 105.89 47.6762 101.829 48.4002 100.472L43.6222 100.398L39.4022 106.031L39.3802 100.496L35.2862 100.402L35.2842 114.643Z" fill="#232021"/>
<path fill-rule="evenodd" clip-rule="evenodd" d="M23.158 114.645L27.494 114.638L33.932 100.438L29.452 100.408L27.282 106.134C26.146 105.193 25.418 101.661 24.262 100.432L19.646 100.402C20.244 102.228 22.294 105.532 23.216 107.345C23.562 108.024 24.906 110.222 24.864 110.814C24.82 111.404 23.436 113.598 23.158 114.645Z" fill="#232021"/>
<path fill-rule="evenodd" clip-rule="evenodd" d="M55.6862 103.526C51.2422 105.033 52.8482 113.098 57.9722 111.547C62.3222 110.232 60.8102 101.786 55.6862 103.526ZM54.8962 99.9943C45.2022 101.9 47.3902 117.481 58.9402 115.043C68.2342 113.081 66.3262 97.7472 54.8962 99.9943Z" fill="#232021"/>
<path fill-rule="evenodd" clip-rule="evenodd" d="M69.354 97.2729C70.098 100.304 76.252 100.504 77.874 97.5023C77.44 97.0023 76.308 96.7082 75.624 96.5454C74.536 98.518 72.742 97.667 71.46 96.5552L69.354 97.2729Z" fill="#232021"/>
<path fill-rule="evenodd" clip-rule="evenodd" d="M10.8081 111.839C11.6221 111.206 11.2441 105.3 11.2761 103.98L13.8901 103.959L13.8881 114.657C14.9261 115.074 16.3761 114.831 17.4601 114.831C18.8321 114.794 17.7461 114.853 18.1321 114.529L14.0921 114.58L14.0181 103.769L11.0981 103.827C10.6941 106.284 11.2881 109.227 10.8081 111.839Z" fill="#B1AEAF"/>
</svg>
