<svg width="450" height="115" viewBox="0 0 450 115" fill="none" xmlns="http://www.w3.org/2000/svg">
<g clip-path="url(#clip0_311_3893)">
<path d="M61.0236 13.4085C61.2885 13.5546 61.5972 13.6004 61.8931 13.5374C62.189 13.4744 62.4523 13.3068 62.6346 13.0655C62.7384 12.9239 62.8111 12.7621 62.8481 12.5906C62.885 12.4191 62.8853 12.2417 62.849 12.07C62.8127 11.8983 62.7406 11.7362 62.6374 11.5943C62.5342 11.4524 62.4022 11.3339 62.2501 11.2465L60.0985 10.02C59.8132 9.85735 59.4749 9.81471 59.1582 9.90145C58.8414 9.9882 58.5721 10.1972 58.4095 10.4825C58.2468 10.7678 58.2042 11.1061 58.2909 11.4228C58.3777 11.7396 58.5867 12.0089 58.872 12.1716L61.0236 13.4085ZM69.6403 18.3145C69.9256 18.4771 70.2638 18.5198 70.5806 18.433C70.8973 18.3463 71.1666 18.1372 71.3293 17.8519C71.4919 17.5666 71.5346 17.2284 71.4478 16.9116C71.3611 16.5949 71.1521 16.3255 70.8668 16.1629L68.7048 14.9364C68.5635 14.8559 68.4078 14.8039 68.2464 14.7836C68.0851 14.7633 67.9213 14.7749 67.7645 14.8179C67.6076 14.8608 67.4608 14.9342 67.3323 15.0339C67.2039 15.1336 67.0963 15.2577 67.0157 15.3989C66.8531 15.6842 66.8105 16.0225 66.8972 16.3392C66.9839 16.656 67.193 16.9253 67.4783 17.088L69.6403 18.3145ZM78.2569 23.2309C78.3982 23.3114 78.554 23.3633 78.7153 23.3836C78.8766 23.404 79.0404 23.3924 79.1972 23.3494C79.3541 23.3065 79.5009 23.233 79.6294 23.1333C79.7579 23.0336 79.8654 22.9096 79.946 22.7683C80.0265 22.6271 80.0784 22.4713 80.0988 22.31C80.1191 22.1486 80.1075 21.9849 80.0645 21.828C80.0216 21.6712 79.9481 21.5243 79.8484 21.3959C79.7487 21.2674 79.6247 21.1598 79.4834 21.0793L77.3319 19.8424C77.067 19.6962 76.7583 19.6505 76.4624 19.7135C76.1664 19.7765 75.9032 19.944 75.7208 20.1854C75.617 20.3269 75.5443 20.4887 75.5074 20.6603C75.4704 20.8318 75.4701 21.0092 75.5064 21.1809C75.5427 21.3525 75.6148 21.5146 75.718 21.6565C75.8212 21.7984 75.9532 21.9169 76.1054 22.0044L78.2569 23.2309ZM86.884 28.1473C87.1691 28.2901 87.4981 28.3184 87.8034 28.2262C88.1087 28.1339 88.3671 27.9283 88.5254 27.6515C88.6838 27.3747 88.7301 27.0478 88.6549 26.7379C88.5796 26.428 88.3886 26.1587 88.1209 25.9853L85.9693 24.7588C85.6842 24.6159 85.3552 24.5877 85.0499 24.6799C84.7447 24.7721 84.4863 24.9777 84.3279 25.2545C84.1696 25.5313 84.1232 25.8583 84.1985 26.1682C84.2737 26.4781 84.4648 26.7474 84.7324 26.9208L86.884 28.1473ZM94.9082 32.7206C95.1935 32.8847 95.5323 32.9286 95.8501 32.8429C96.1678 32.7571 96.4384 32.5486 96.6025 32.2633C96.7665 31.978 96.8105 31.6392 96.7247 31.3215C96.6389 31.0037 96.4304 30.7331 96.1451 30.5691L94.586 29.6752C94.4447 29.5946 94.289 29.5427 94.1276 29.5224C93.9663 29.5021 93.8025 29.5137 93.6457 29.5566C93.4889 29.5996 93.342 29.673 93.2135 29.7727C93.0851 29.8724 92.9775 29.9964 92.897 30.1377C92.8164 30.279 92.7645 30.4347 92.7442 30.5961C92.7239 30.7574 92.7355 30.9212 92.7784 31.078C92.8214 31.2349 92.8948 31.3817 92.9945 31.5102C93.0942 31.6387 93.2182 31.7462 93.3595 31.8268L94.9082 32.7206ZM51.4714 5.1036C51.2098 4.96596 50.908 4.92489 50.6191 4.98762C50.3301 5.05034 50.0725 5.21285 49.8915 5.44661C49.7847 5.58642 49.7086 5.74727 49.6683 5.91858C49.6281 6.08988 49.6245 6.26777 49.6579 6.44055C49.6913 6.61333 49.7608 6.77709 49.862 6.92108C49.9632 7.06506 50.0937 7.186 50.2449 7.27596L52.4069 8.50246C52.6936 8.66511 53.0331 8.7072 53.3509 8.61948C53.6686 8.53177 53.9385 8.32142 54.1011 8.03473C54.2638 7.74803 54.3059 7.40847 54.2181 7.09074C54.1304 6.77301 53.9201 6.50314 53.6334 6.3405L51.4714 5.1036Z" fill="#1F4478"/>
<path d="M40.7033 101.571C40.4384 101.425 40.1297 101.379 39.8338 101.442C39.5379 101.505 39.2746 101.673 39.0922 101.914C38.9877 102.056 38.9148 102.219 38.8784 102.392C38.8421 102.565 38.8432 102.743 38.8816 102.915C38.92 103.088 38.9948 103.25 39.1011 103.391C39.2073 103.532 39.3425 103.648 39.4976 103.733L41.6284 104.98C41.9137 105.143 42.2519 105.185 42.5687 105.099C42.7255 105.056 42.8724 104.982 43.0008 104.883C43.1293 104.783 43.2369 104.659 43.3174 104.518C43.3979 104.376 43.4499 104.221 43.4702 104.059C43.4905 103.898 43.4789 103.734 43.436 103.577C43.393 103.42 43.3196 103.274 43.2199 103.145C43.1202 103.017 42.9961 102.909 42.8549 102.829L40.7033 101.571ZM32.0762 96.6649C31.9349 96.5844 31.7792 96.5324 31.6179 96.5121C31.4565 96.4918 31.2928 96.5034 31.1359 96.5463C30.9791 96.5893 30.8322 96.6627 30.7038 96.7624C30.5753 96.8621 30.4677 96.9861 30.3872 97.1274C30.3067 97.2687 30.2547 97.4244 30.2344 97.5858C30.2141 97.7471 30.2257 97.9109 30.2686 98.0677C30.3116 98.2246 30.385 98.3714 30.4847 98.4999C30.5844 98.6284 30.7084 98.7359 30.8497 98.8165L33.0013 100.043C33.2866 100.206 33.6249 100.248 33.9416 100.162C34.2584 100.075 34.5277 99.8657 34.6903 99.5804C34.853 99.2951 34.8956 98.9569 34.8089 98.6401C34.7221 98.3234 34.5131 98.054 34.2278 97.8914L32.0762 96.6649ZM23.4491 91.7485C23.1652 91.6178 22.8426 91.5985 22.5451 91.6943C22.2477 91.7902 21.997 91.9942 21.8428 92.2661C21.6886 92.5379 21.642 92.8577 21.7124 93.1623C21.7827 93.4668 21.9648 93.7338 22.2226 93.9105L24.3846 95.137C24.6685 95.2676 24.9911 95.287 25.2886 95.1911C25.5861 95.0953 25.8368 94.8912 25.991 94.6194C26.1452 94.3475 26.1917 94.0277 26.1214 93.7232C26.051 93.4187 25.8689 93.1516 25.6111 92.975L23.4491 91.7485ZM14.8325 86.8321C14.5485 86.7014 14.2259 86.6821 13.9284 86.7779C13.631 86.8738 13.3803 87.0778 13.2261 87.3497C13.0719 87.6215 13.0253 87.9414 13.0957 88.2459C13.166 88.5504 13.3481 88.8174 13.606 88.9941L15.7575 90.2206C16.0428 90.3832 16.3811 90.4258 16.6978 90.3391C17.0146 90.2524 17.2839 90.0433 17.4466 89.758C17.6092 89.4727 17.6519 89.1345 17.5651 88.8177C17.4784 88.501 17.2693 88.2316 16.984 88.069L14.8325 86.8321ZM6.79784 82.2587C6.51253 82.0961 6.17429 82.0534 5.85753 82.1402C5.54078 82.2269 5.27145 82.4359 5.10881 82.7212C4.94616 83.0066 4.90352 83.3448 4.99026 83.6616C5.07701 83.9783 5.28603 84.2476 5.57134 84.4103L7.13045 85.3042C7.41577 85.4682 7.75456 85.5122 8.07229 85.4264C8.39002 85.3406 8.66067 85.1321 8.82469 84.8468C8.98871 84.5615 9.03267 84.2227 8.94691 83.905C8.86114 83.5873 8.65267 83.3166 8.36735 83.1526L6.79784 82.2587ZM50.2451 109.876C50.529 110.006 50.8516 110.026 51.1491 109.93C51.4465 109.834 51.6972 109.63 51.8514 109.358C52.0056 109.086 52.0522 108.766 51.9818 108.462C51.9115 108.157 51.7294 107.89 51.4716 107.714L49.32 106.487C49.0361 106.357 48.7134 106.337 48.416 106.433C48.1185 106.529 47.8678 106.733 47.7136 107.005C47.5594 107.277 47.5129 107.597 47.5832 107.901C47.6535 108.206 47.8357 108.473 48.0935 108.649L50.2451 109.876Z" fill="#1F4478"/>
<path d="M61.0233 65.0981C61.3086 65.2607 61.6469 65.3034 61.9636 65.2166C62.2804 65.1299 62.5497 64.9209 62.7124 64.6356C62.875 64.3503 62.9177 64.012 62.8309 63.6953C62.7442 63.3785 62.5351 63.1092 62.2498 62.9465L60.0983 61.7096C59.8334 61.5635 59.5247 61.5177 59.2288 61.5807C58.9328 61.6437 58.6696 61.8112 58.4872 62.0526C58.3834 62.1942 58.3107 62.356 58.2738 62.5275C58.2368 62.699 58.2365 62.8764 58.2728 63.0481C58.3091 63.2198 58.3812 63.3819 58.4844 63.5238C58.5876 63.6657 58.7196 63.7842 58.8718 63.8716L61.0233 65.0981ZM69.64 70.0145C69.9239 70.1452 70.2466 70.1645 70.544 70.0686C70.8415 69.9728 71.0922 69.7688 71.2464 69.4969C71.4006 69.2251 71.4471 68.9052 71.3768 68.6007C71.3065 68.2962 71.1243 68.0292 70.8665 67.8525L68.7149 66.626C68.431 66.4954 68.1084 66.476 67.8109 66.5719C67.5134 66.6677 67.2628 66.8718 67.1086 67.1436C66.9544 67.4155 66.9078 67.7353 66.9782 68.0398C67.0485 68.3443 67.2306 68.6113 67.4884 68.788L69.64 70.0145ZM78.2567 74.9205C78.5434 75.0845 78.8835 75.1279 79.2022 75.0412C79.5209 74.9545 79.7921 74.7447 79.9561 74.458C80.1202 74.1713 80.1636 73.8312 80.0768 73.5125C79.9901 73.1937 79.7803 72.9226 79.4936 72.7585L77.342 71.532C77.2008 71.4515 77.045 71.3996 76.8837 71.3792C76.7223 71.3589 76.5586 71.3705 76.4017 71.4135C76.2449 71.4564 76.098 71.5299 75.9696 71.6296C75.8411 71.7293 75.7335 71.8533 75.653 71.9946C75.5725 72.1358 75.5205 72.2916 75.5002 72.4529C75.4799 72.6143 75.4915 72.778 75.5344 72.9349C75.5774 73.0917 75.6508 73.2386 75.7505 73.367C75.8502 73.4955 75.9743 73.6031 76.1155 73.6836L78.2567 74.9205ZM86.8838 79.8369C87.1691 79.9995 87.5073 80.0422 87.8241 79.9554C88.1408 79.8687 88.4102 79.6597 88.5728 79.3744C88.7355 79.089 88.7781 78.7508 88.6914 78.434C88.6046 78.1173 88.3956 77.848 88.1103 77.6853L85.9587 76.4588C85.6734 76.2948 85.3346 76.2508 85.0169 76.3366C84.6991 76.4224 84.4285 76.6308 84.2645 76.9162C84.1004 77.2015 84.0565 77.5403 84.1423 77.858C84.228 78.1757 84.4365 78.4464 84.7218 78.6104L86.8838 79.8369ZM94.908 84.4103C95.1933 84.5743 95.5321 84.6183 95.8498 84.5325C96.1676 84.4467 96.4382 84.2383 96.6022 83.953C96.7663 83.6676 96.8102 83.3289 96.7245 83.0111C96.6387 82.6934 96.4302 82.4227 96.1449 82.2587L94.5858 81.3648C94.3209 81.2187 94.0122 81.1729 93.7163 81.2359C93.4204 81.2989 93.1571 81.4664 92.9747 81.7078C92.871 81.8493 92.7982 82.0112 92.7613 82.1827C92.7243 82.3542 92.724 82.5316 92.7603 82.7033C92.7966 82.875 92.8687 83.0371 92.9719 83.179C93.0751 83.3209 93.2071 83.4394 93.3593 83.5268L94.908 84.4103ZM51.4712 56.8036C51.3299 56.7231 51.1742 56.6712 51.0128 56.6508C50.8515 56.6305 50.6877 56.6421 50.5309 56.6851C50.374 56.728 50.2272 56.8015 50.0987 56.9012C49.9703 57.0009 49.8627 57.1249 49.7821 57.2662C49.7016 57.4074 49.6497 57.5632 49.6294 57.7245C49.609 57.8859 49.6207 58.0496 49.6636 58.2065C49.7066 58.3633 49.78 58.5102 49.8797 58.6386C49.9794 58.7671 50.1034 58.8747 50.2447 58.9552L52.4066 60.1817C52.5479 60.2622 52.7037 60.3142 52.865 60.3345C53.0264 60.3548 53.1901 60.3432 53.347 60.3002C53.5038 60.2573 53.6506 60.1839 53.7791 60.0842C53.9076 59.9845 54.0151 59.8604 54.0957 59.7192C54.1762 59.5779 54.2281 59.4221 54.2485 59.2608C54.2688 59.0995 54.2572 58.9357 54.2142 58.7789C54.1713 58.622 54.0979 58.4752 53.9982 58.3467C53.8985 58.2182 53.7744 58.1107 53.6331 58.0301L51.4712 56.8036Z" fill="#1F4478"/>
<path d="M17.5764 78.2778C17.8349 78.1067 18.0205 77.8456 18.0969 77.5451C18.1734 77.2447 18.1352 76.9266 17.9899 76.6528C17.8445 76.379 17.6024 76.1691 17.3108 76.0641C17.0191 75.959 16.6988 75.9664 16.4123 76.0847L14.1983 77.3423C13.9075 77.4967 13.6899 77.7603 13.5934 78.0751C13.4969 78.3899 13.5295 78.7301 13.6838 79.021C13.8382 79.3118 14.1018 79.5294 14.4166 79.6259C14.7314 79.7224 15.0716 79.6899 15.3625 79.5355L17.5764 78.2778ZM26.2035 73.3614C26.4695 73.1927 26.6618 72.9297 26.7419 72.6251C26.8219 72.3205 26.7838 71.9968 26.6351 71.7192C26.4864 71.4415 26.2382 71.2304 25.9402 71.1282C25.6423 71.026 25.3168 71.0403 25.029 71.1683L22.867 72.4363C22.5775 72.5907 22.3613 72.8537 22.2658 73.1676C22.1702 73.4814 22.2033 73.8203 22.3577 74.1098C22.5121 74.3992 22.7751 74.6155 23.0889 74.711C23.4028 74.8065 23.7417 74.7735 24.0311 74.6191L26.2035 73.3614ZM34.8202 68.445C35.1096 68.2906 35.3259 68.0276 35.4214 67.7138C35.5169 67.3999 35.4839 67.061 35.3295 66.7716C35.1751 66.4821 34.9121 66.2658 34.5982 66.1703C34.2844 66.0748 33.9455 66.1079 33.656 66.2623L31.4421 67.5615C31.1836 67.7326 30.998 67.9938 30.9216 68.2942C30.8451 68.5946 30.8833 68.9127 31.0286 69.1865C31.174 69.4603 31.4161 69.6702 31.7077 69.7752C31.9994 69.8803 32.3197 69.8729 32.6062 69.7547L34.8202 68.445ZM43.4472 63.539C43.7408 63.3846 43.9611 63.12 44.0595 62.8032C44.1579 62.4864 44.1265 62.1436 43.9721 61.85C43.8178 61.5564 43.5531 61.3362 43.2363 61.2377C42.9196 61.1393 42.5767 61.1707 42.2831 61.3251L40.0588 62.5828C39.8003 62.7538 39.6147 63.015 39.5382 63.3154C39.4618 63.6158 39.5 63.934 39.6453 64.2078C39.7907 64.4816 40.0328 64.6914 40.3244 64.7965C40.6161 64.9015 40.9364 64.8942 41.2229 64.7759L43.4472 63.539ZM51.4715 58.9552C51.7609 58.8009 51.9772 58.5378 52.0727 58.224C52.1682 57.9102 52.1352 57.5712 51.9808 57.2818C51.8264 56.9923 51.5634 56.7761 51.2495 56.6805C50.9357 56.585 50.5968 56.6181 50.3073 56.7725L48.6859 57.6975C48.3964 57.8574 48.1823 58.1258 48.0907 58.4435C47.9991 58.7612 48.0374 59.1023 48.1973 59.3918C48.3572 59.6812 48.6255 59.8953 48.9433 59.9869C49.261 60.0785 49.6021 60.0402 49.8916 59.8803L51.4715 58.9552ZM5.57125 82.2587C5.31273 82.4298 5.12716 82.691 5.05072 82.9914C4.97428 83.2918 5.01246 83.6099 5.15779 83.8837C5.30313 84.1575 5.54522 84.3674 5.83688 84.4724C6.12853 84.5775 6.44885 84.5702 6.73539 84.4519L8.95972 83.1526C9.10304 83.0755 9.22977 82.9709 9.33267 82.8448C9.43557 82.7187 9.51262 82.5736 9.55943 82.4177C9.60625 82.2618 9.6219 82.0983 9.60549 81.9363C9.58909 81.7744 9.54095 81.6173 9.46383 81.474C9.38671 81.3307 9.28212 81.2039 9.15602 81.101C9.02992 80.9981 8.88479 80.9211 8.72892 80.8743C8.57304 80.8275 8.40947 80.8118 8.24755 80.8282C8.08562 80.8446 7.92851 80.8927 7.78519 80.9699L5.57125 82.2587Z" fill="#1F4478"/>
<path d="M52.1055 96.1453C52.1248 95.8172 52.013 95.4949 51.7946 95.2493C51.5763 95.0037 51.2694 94.8549 50.9413 94.8356C50.6133 94.8163 50.291 94.9281 50.0454 95.1465C49.7998 95.3648 49.651 95.6717 49.6317 95.9998V98.6295C49.611 98.9575 49.7215 99.2803 49.9388 99.5269C50.1562 99.7735 50.4626 99.9236 50.7906 99.9443C51.1187 99.965 51.4415 99.8545 51.6881 99.6372C51.9346 99.4198 52.0848 99.1134 52.1055 98.7854V96.1453ZM52.1055 86.2085C52.1261 85.8805 52.0157 85.5577 51.7983 85.3111C51.581 85.0645 51.2746 84.9144 50.9465 84.8937C50.6185 84.873 50.2957 84.9835 50.0491 85.2009C49.8025 85.4182 49.6523 85.7246 49.6317 86.0526V88.6927C49.6221 88.8552 49.6447 89.0179 49.698 89.1716C49.7513 89.3253 49.8344 89.467 49.9425 89.5887C50.0506 89.7103 50.1816 89.8094 50.328 89.8804C50.4744 89.9514 50.6334 89.9928 50.7958 90.0024C51.1239 90.0217 51.4461 89.9099 51.6917 89.6916C51.9374 89.4732 52.0862 89.1663 52.1055 88.8382V86.2085ZM52.1055 76.2614C52.1261 75.9334 52.0157 75.6105 51.7983 75.364C51.581 75.1174 51.2746 74.9672 50.9465 74.9466C50.6185 74.9259 50.2957 75.0364 50.0491 75.2537C49.8025 75.4711 49.6523 75.7775 49.6317 76.1055V78.7456C49.611 79.0736 49.7215 79.3965 49.9388 79.643C50.1562 79.8896 50.4626 80.0398 50.7906 80.0604C51.1187 80.0811 51.4415 79.9706 51.6881 79.7533C51.9346 79.5359 52.0848 79.2296 52.1055 78.9015V76.2614ZM52.1055 66.3143C52.115 66.1519 52.0925 65.9891 52.0392 65.8354C51.9858 65.6817 51.9027 65.54 51.7946 65.4184C51.6865 65.2968 51.5555 65.1976 51.4091 65.1266C51.2627 65.0556 51.1038 65.0142 50.9413 65.0046C50.7789 64.9951 50.6162 65.0176 50.4625 65.0709C50.3087 65.1243 50.167 65.2074 50.0454 65.3155C49.9238 65.4236 49.8247 65.5546 49.7537 65.701C49.6827 65.8474 49.6412 66.0063 49.6317 66.1688V68.7985C49.611 69.1265 49.7215 69.4493 49.9388 69.6959C50.1562 69.9425 50.4626 70.0927 50.7906 70.1133C51.1187 70.134 51.4415 70.0235 51.6881 69.8062C51.9346 69.5888 52.0848 69.2824 52.1055 68.9544V66.3143ZM52.1055 56.3776C52.1261 56.0495 52.0157 55.7267 51.7983 55.4801C51.581 55.2335 51.2746 55.0834 50.9465 55.0627C50.6185 55.042 50.2957 55.1525 50.0491 55.3699C49.8025 55.5872 49.6523 55.8936 49.6317 56.2216V58.8617C49.6221 59.0242 49.6447 59.1869 49.698 59.3406C49.7513 59.4943 49.8344 59.6361 49.9425 59.7577C50.0506 59.8793 50.1816 59.9784 50.328 60.0494C50.4744 60.1204 50.6334 60.1618 50.7958 60.1714C50.9582 60.181 51.121 60.1584 51.2747 60.1051C51.4284 60.0518 51.5701 59.9687 51.6917 59.8606C51.8134 59.7525 51.9125 59.6215 51.9835 59.4751C52.0545 59.3287 52.0959 59.1697 52.1055 59.0073V56.3776ZM52.1055 46.4304C52.1248 46.1024 52.013 45.7801 51.7946 45.5345C51.5763 45.2889 51.2694 45.1401 50.9413 45.1208C50.6133 45.1015 50.291 45.2133 50.0454 45.4316C49.7998 45.6499 49.651 45.9569 49.6317 46.2849V48.9146C49.611 49.2427 49.7215 49.5655 49.9388 49.8121C50.1562 50.0586 50.4626 50.2088 50.7906 50.2295C51.1187 50.2501 51.4415 50.1397 51.6881 49.9223C51.9346 49.705 52.0848 49.3986 52.1055 49.0705V46.4304ZM52.1055 36.4833C52.1193 36.1553 52.0022 35.8352 51.7799 35.5935C51.5577 35.3518 51.2486 35.2082 50.9205 35.1944C50.5925 35.1807 50.2724 35.2978 50.0307 35.52C49.789 35.7422 49.6455 36.0513 49.6317 36.3794V38.9779C49.6221 39.1403 49.6447 39.303 49.698 39.4568C49.7513 39.6105 49.8344 39.7522 49.9425 39.8738C50.0506 39.9954 50.1816 40.0946 50.328 40.1655C50.4744 40.2365 50.6334 40.278 50.7958 40.2875C50.9582 40.2971 51.121 40.2746 51.2747 40.2212C51.4284 40.1679 51.5701 40.0848 51.6917 39.9767C51.8134 39.8686 51.9125 39.7376 51.9835 39.5912C52.0545 39.4448 52.0959 39.2858 52.1055 39.1234V36.4833ZM52.1055 26.5466C52.1261 26.2185 52.0157 25.8957 51.7983 25.6491C51.581 25.4025 51.2746 25.2524 50.9465 25.2317C50.6185 25.211 50.2957 25.3215 50.0491 25.5389C49.8025 25.7562 49.6523 26.0626 49.6317 26.3907V29.0308C49.647 29.3368 49.7744 29.6266 49.9897 29.8447C50.205 30.0628 50.4931 30.194 50.799 30.2133C51.1048 30.2326 51.4071 30.1386 51.6481 29.9492C51.889 29.7599 52.0519 29.4884 52.1055 29.1867V26.5466ZM52.1055 16.5994C52.115 16.437 52.0925 16.2743 52.0392 16.1206C51.9858 15.9668 51.9027 15.8251 51.7946 15.7035C51.6865 15.5819 51.5555 15.4828 51.4091 15.4118C51.2627 15.3408 51.1038 15.2993 50.9413 15.2898C50.7789 15.2802 50.6162 15.3028 50.4625 15.3561C50.3087 15.4094 50.167 15.4925 50.0454 15.6006C49.9238 15.7087 49.8247 15.8397 49.7537 15.9861C49.6827 16.1325 49.6412 16.2915 49.6317 16.4539V19.0836C49.611 19.4117 49.7215 19.7345 49.9388 19.9811C50.1562 20.2277 50.4626 20.3778 50.7906 20.3985C51.1187 20.4192 51.4415 20.3087 51.6881 20.0913C51.9346 19.874 52.0848 19.5676 52.1055 19.2395V16.6306V16.5994ZM52.1055 7.45267C52.1289 7.12462 52.0211 6.8007 51.8057 6.55217C51.5903 6.30364 51.285 6.15085 50.9569 6.12742C50.6289 6.10399 50.305 6.21183 50.0564 6.42723C49.8079 6.64262 49.6551 6.94792 49.6317 7.27597V9.1469C49.6221 9.30933 49.6447 9.47205 49.698 9.62578C49.7513 9.7795 49.8344 9.92121 49.9425 10.0428C50.0506 10.1644 50.1816 10.2636 50.328 10.3346C50.4744 10.4055 50.6334 10.447 50.7958 10.4566C51.1239 10.4758 51.4461 10.364 51.6917 10.1457C51.9374 9.9274 52.0862 9.62046 52.1055 9.29242V7.45267ZM49.6213 108.577C49.602 108.905 49.7138 109.227 49.9321 109.473C50.1504 109.718 50.4574 109.867 50.7854 109.886C51.1135 109.906 51.4357 109.794 51.6813 109.575C51.927 109.357 52.0758 109.05 52.0951 108.722V106.092C52.1157 105.764 52.0053 105.442 51.7879 105.195C51.5706 104.948 51.2642 104.798 50.9361 104.778C50.6081 104.757 50.2853 104.867 50.0387 105.085C49.7921 105.302 49.642 105.608 49.6213 105.936V108.577Z" fill="#1F4478"/>
<path d="M4.94776 43.6552C4.94666 43.966 5.06261 44.2658 5.27255 44.495C5.48248 44.7242 5.77101 44.866 6.08071 44.8921C6.25216 44.9064 6.42473 44.8851 6.58755 44.8296C6.75038 44.774 6.89995 44.6853 7.02685 44.5692C7.15376 44.453 7.25526 44.3118 7.32498 44.1545C7.39469 43.9972 7.43111 43.8272 7.43194 43.6552V41.1398C7.42809 40.8288 7.30908 40.5302 7.09791 40.3017C6.88674 40.0733 6.5984 39.9312 6.2886 39.9029C6.11764 39.8885 5.94556 39.9098 5.78328 39.9655C5.621 40.0212 5.47208 40.11 5.34598 40.2263C5.21988 40.3426 5.11936 40.4839 5.0508 40.6412C4.98224 40.7985 4.94715 40.9683 4.94776 41.1398V43.6552ZM4.94776 53.5815C4.97613 53.8913 5.11926 54.1794 5.34906 54.3891C5.57886 54.5988 5.87874 54.7151 6.18985 54.7151C6.50096 54.7151 6.80084 54.5988 7.03064 54.3891C7.26044 54.1794 7.40357 53.8913 7.43194 53.5815V51.0662C7.40357 50.7563 7.26044 50.4683 7.03064 50.2586C6.80084 50.0489 6.50096 49.9326 6.18985 49.9326C5.87874 49.9326 5.57886 50.0489 5.34906 50.2586C5.11926 50.4683 4.97613 50.7563 4.94776 51.0662V53.5815ZM4.94776 63.5079C4.97613 63.8177 5.11926 64.1057 5.34906 64.3154C5.57886 64.5251 5.87874 64.6414 6.18985 64.6414C6.50096 64.6414 6.80084 64.5251 7.03064 64.3154C7.26044 64.1057 7.40357 63.8177 7.43194 63.5079V60.9925C7.40357 60.6827 7.26044 60.3947 7.03064 60.1849C6.80084 59.9752 6.50096 59.859 6.18985 59.859C5.87874 59.859 5.57886 59.9752 5.34906 60.1849C5.11926 60.3947 4.97613 60.6827 4.94776 60.9925V63.5079ZM4.94776 73.4238C4.97613 73.7336 5.11926 74.0217 5.34906 74.2314C5.57886 74.4411 5.87874 74.5574 6.18985 74.5574C6.50096 74.5574 6.80084 74.4411 7.03064 74.2314C7.26044 74.0217 7.40357 73.7336 7.43194 73.4238V70.9188C7.40357 70.609 7.26044 70.321 7.03064 70.1113C6.80084 69.9016 6.50096 69.7853 6.18985 69.7853C5.87874 69.7853 5.57886 69.9016 5.34906 70.1113C5.11926 70.321 4.97613 70.609 4.94776 70.9188V73.4238ZM4.94776 82.7785C4.97613 83.0883 5.11926 83.3763 5.34906 83.586C5.57886 83.7958 5.87874 83.912 6.18985 83.912C6.50096 83.912 6.80084 83.7958 7.03064 83.586C7.26044 83.3763 7.40357 83.0883 7.43194 82.7785V80.8348C7.42809 80.5237 7.30908 80.2251 7.09791 79.9967C6.88674 79.7682 6.5984 79.6261 6.2886 79.5979C6.11798 79.5851 5.94654 79.6075 5.78495 79.6637C5.62336 79.72 5.47508 79.8089 5.34932 79.9249C5.22355 80.0409 5.123 80.1815 5.05392 80.3381C4.98484 80.4946 4.94871 80.6637 4.94776 80.8348V82.7785ZM7.43194 31.1823C7.42809 30.8712 7.30908 30.5726 7.09791 30.3442C6.88674 30.1157 6.5984 29.9737 6.2886 29.9454C6.11798 29.9326 5.94654 29.955 5.78495 30.0112C5.62336 30.0675 5.47508 30.1564 5.34932 30.2724C5.22355 30.3884 5.123 30.5291 5.05392 30.6856C4.98484 30.8421 4.94871 31.0112 4.94776 31.1823V33.6665C4.94666 33.9773 5.06261 34.2771 5.27255 34.5063C5.48248 34.7355 5.77101 34.8773 6.08071 34.9034C6.25216 34.9177 6.42473 34.8964 6.58755 34.8409C6.75038 34.7853 6.89995 34.6966 7.02685 34.5805C7.15376 34.4643 7.25526 34.3231 7.32498 34.1658C7.39469 34.0085 7.43111 33.8385 7.43194 33.6665V31.1823Z" fill="#1F4478"/>
<path fill-rule="evenodd" clip-rule="evenodd" d="M6.23635 77.8413C7.19639 77.8413 8.13487 78.126 8.93311 78.6594C9.73135 79.1927 10.3535 79.9508 10.7209 80.8378C11.0883 81.7247 11.1844 82.7007 10.9971 83.6423C10.8098 84.5839 10.3475 85.4488 9.66867 86.1277C8.98982 86.8065 8.12492 87.2688 7.18333 87.4561C6.24174 87.6434 5.26576 87.5473 4.3788 87.1799C3.49184 86.8125 2.73374 86.1903 2.20038 85.3921C1.66701 84.5939 1.38232 83.6554 1.38232 82.6953C1.38232 82.0579 1.50788 81.4267 1.75182 80.8378C1.99575 80.2489 2.3533 79.7138 2.80404 79.263C3.25478 78.8123 3.78988 78.4547 4.3788 78.2108C4.96772 77.9669 5.59891 77.8413 6.23635 77.8413Z" fill="#1F4478"/>
<path d="M53.9867 114.148C53.2827 114.675 52.4752 115.048 51.617 115.241C50.7589 115.434 49.8696 115.443 49.0076 115.268C48.1456 115.093 47.3303 114.738 46.6153 114.226C45.9003 113.713 45.3018 113.056 44.8591 112.295C44.4164 111.535 44.1394 110.69 44.0464 109.816C43.9534 108.941 44.0465 108.057 44.3195 107.22C44.5926 106.384 45.0394 105.615 45.6307 104.964C46.222 104.313 46.9443 103.794 47.7503 103.442L89.3889 79.1301V42.2936L53.914 62.4789C52.9659 63.0262 51.8905 63.3144 50.7958 63.3144C49.701 63.3144 48.6256 63.0262 47.6775 62.4789L3.11816 37.0238C1.70561 36.2014 0.672385 34.8573 0.240836 33.2808C-0.190713 31.7043 0.0139136 30.0214 0.810679 28.5942C1.36829 27.6009 2.19282 26.7836 3.19092 26.2347L47.8127 0.810839C48.5197 0.395964 49.3023 0.125811 50.1147 0.0160898C50.9271 -0.0936315 51.7533 -0.0407309 52.5451 0.171715C53.3369 0.384161 54.0785 0.751913 54.7269 1.25358C55.3753 1.75525 55.9175 2.38083 56.3219 3.09393C56.7263 3.80703 56.985 4.59343 57.0827 5.40739C57.1805 6.22134 57.1155 7.04661 56.8914 7.83521C56.6673 8.6238 56.2887 9.35998 55.7776 10.0009C55.2664 10.6419 54.6329 11.1748 53.914 11.5687L18.7093 31.6397L50.9309 49.9852L92.0602 26.505C92.9954 25.8864 94.08 25.5313 95.1999 25.4772C96.3199 25.423 97.4337 25.6718 98.4241 26.1974C99.4146 26.7229 100.245 27.5058 100.828 28.4635C101.411 29.4213 101.725 30.5185 101.737 31.6397V82.6953C101.729 83.7819 101.437 84.8474 100.89 85.7864C100.343 86.7253 99.5599 87.505 98.6189 88.0483L53.9867 114.148Z" fill="#871F14"/>
</g>
<g clip-path="url(#clip1_311_3893)">
<path d="M301.613 70.5388H309.218V60.557L318.564 45.4099H310.007L305.415 53.8853L300.742 45.4099H292.185L301.613 60.557V70.5388ZM277.11 70.5388H284.724V52.0918H291.426V45.4099H270.366V52.0406H277.11V70.5388ZM259.277 70.5388H266.892V45.4099H259.277V70.5388ZM247.697 53.9263C247.687 54.2374 247.614 54.5432 247.482 54.8253C247.351 55.1074 247.163 55.36 246.932 55.5677C246.7 55.7755 246.429 55.9343 246.134 56.0344C245.839 56.1345 245.527 56.1739 245.217 56.1502H240.585V51.7434H245.217C245.524 51.7197 245.833 51.7578 246.125 51.8554C246.417 51.953 246.686 52.1081 246.917 52.3115C247.149 52.515 247.337 52.7627 247.471 53.0401C247.604 53.3174 247.681 53.6187 247.697 53.9263ZM246.795 70.5388H255.465L250.905 61.6535C252.315 60.9593 253.493 59.8698 254.296 58.5179C255.098 57.1659 255.49 55.6098 255.424 54.039C255.424 49.335 252.257 45.4099 246.385 45.4099H232.98V70.5388H240.585V62.4734H243.331L246.795 70.5388ZM203.506 57.9949C203.506 66.0193 209.717 71 217.331 71C219.503 71.0324 221.657 70.5908 223.641 69.7058C225.625 68.8208 227.392 67.5138 228.819 65.8758V55.812H216.521V62.0635H221.379V63.16C220.158 63.9414 218.729 64.3344 217.28 64.2873C216.454 64.308 215.634 64.1583 214.869 63.8475C214.104 63.5367 213.411 63.0715 212.834 62.481C212.257 61.8905 211.808 61.1873 211.515 60.4155C211.222 59.6436 211.091 58.8196 211.131 57.9949C211.091 57.1702 211.222 56.3462 211.515 55.5743C211.808 54.8024 212.257 54.0993 212.834 53.5087C213.411 52.9182 214.104 52.4531 214.869 52.1423C215.634 51.8315 216.454 51.6817 217.28 51.7024C218.229 51.6956 219.162 51.9477 219.978 52.4317C220.794 52.9157 221.463 53.6131 221.912 54.449L228.369 51.149C226.657 47.9413 223.162 45 217.331 45C209.717 45 203.506 49.9294 203.506 57.9949ZM181.646 70.5388H200.698V64.2054H189.251V61.0079H200.442V54.6847H189.251V51.7434H200.698V45.4099H181.646V70.5388ZM163.845 70.5388H171.46V52.0918H178.162V45.4099H157.112V52.0406H163.845V70.5388ZM146.32 70.5388H153.628V45.4099H146.023V58.0666L137.281 45.4099H129.441V70.5388H137.056V57.052L146.32 70.5388ZM117 70.5388H124.604V45.4099H117V70.5388Z" fill="#1F4478"/>
</g>
<g clip-path="url(#clip2_311_3893)">
<path d="M449.385 45H326V71H449.385V45Z" fill="#871F14"/>
<path d="M434.695 53.91L436.959 59.7527H432.42L434.695 53.91ZM438.284 63.2375H439.724L435.55 52.7415H433.923L429.75 63.2375H431.2L432.128 60.9108H437.449L438.284 63.2375ZM408.851 62.0794V53.91H411.136C411.678 53.8823 412.219 53.9696 412.725 54.1662C413.23 54.3628 413.688 54.6642 414.068 55.0506C414.449 55.437 414.743 55.8996 414.932 56.4079C415.121 56.9163 415.2 57.4589 415.164 57.9999C415.195 58.5394 415.112 59.0793 414.922 59.5849C414.731 60.0905 414.437 60.5505 414.057 60.935C413.677 61.3195 413.221 61.6201 412.718 61.8172C412.215 62.0143 411.676 62.1036 411.136 62.0794H408.851ZM407.547 63.2375H411.136C411.84 63.2798 412.545 63.1751 413.206 62.9301C413.867 62.6851 414.47 62.3052 414.977 61.8145C415.483 61.3239 415.882 60.7332 416.148 60.08C416.413 59.4269 416.54 58.7256 416.52 58.0208C416.535 57.3173 416.405 56.6181 416.138 55.9672C415.871 55.3162 415.472 54.7274 414.966 54.2377C414.461 53.748 413.86 53.3679 413.201 53.1213C412.542 52.8746 411.839 52.7666 411.136 52.8041H407.547V63.2375ZM388.965 53.91L391.229 59.7527H386.68L388.965 53.91ZM392.554 63.2375H394.005L389.769 52.7415H388.152L383.978 63.2375H385.428L386.357 60.9108H391.678L392.554 63.2375ZM367.128 63.4357C367.922 63.4524 368.707 63.2702 369.412 62.9057C370.118 62.5413 370.721 62.0061 371.166 61.349L370.05 60.7439C369.723 61.2158 369.286 61.6011 368.777 61.8665C368.268 62.1319 367.702 62.2694 367.128 62.2672C366.581 62.2639 366.041 62.1492 365.539 61.9301C365.038 61.711 364.587 61.392 364.213 60.9927C363.839 60.5934 363.55 60.1221 363.364 59.6076C363.179 59.093 363.1 58.546 363.132 57.9999C363.098 57.4535 363.176 56.9059 363.361 56.3906C363.547 55.8754 363.835 55.4035 364.209 55.0039C364.584 54.6043 365.036 54.2853 365.538 54.0667C366.039 53.8481 366.581 53.7345 367.128 53.7327C367.703 53.7316 368.27 53.8708 368.779 54.138C369.288 54.4052 369.724 54.7926 370.05 55.2664L371.156 54.6508C370.713 53.9932 370.112 53.4574 369.409 53.0928C368.705 52.7282 367.921 52.5464 367.128 52.5641C366.414 52.545 365.703 52.6728 365.04 52.9396C364.378 53.2064 363.777 53.6066 363.275 54.1153C362.773 54.624 362.381 55.2303 362.123 55.8968C361.865 56.5632 361.747 57.2755 361.776 57.9895C361.744 58.7052 361.86 59.4198 362.117 60.0887C362.373 60.7576 362.765 61.3665 363.267 61.8775C363.769 62.3884 364.371 62.7905 365.035 63.0586C365.7 63.3267 366.412 63.4551 367.128 63.4357ZM340.168 61.7664C340.68 62.3186 341.304 62.7538 341.999 63.0419C342.695 63.3301 343.444 63.4644 344.196 63.4357C347.034 63.4357 348.067 61.8707 348.067 60.3057C348.067 58.1043 346.115 57.5617 344.404 57.1131C343.069 56.7897 341.859 56.4767 341.859 55.4333C341.859 54.39 342.756 53.764 344.008 53.764C344.574 53.7463 345.137 53.8488 345.66 54.0646C346.184 54.2804 346.655 54.6046 347.044 55.016L347.837 54.0561C347.351 53.5639 346.768 53.1788 346.125 52.9254C345.482 52.6721 344.793 52.5561 344.102 52.585C342.015 52.585 340.502 53.764 340.502 55.4959C340.502 57.5826 342.37 58.0312 344.06 58.4694C345.437 58.8555 346.721 59.1998 346.721 60.4518C346.721 61.2551 346.115 62.2672 344.248 62.2672C343.623 62.2638 343.006 62.1293 342.436 61.8722C341.866 61.6152 341.357 61.2415 340.941 60.7752L340.168 61.7664Z" fill="white"/>
</g>
<defs>
<clipPath id="clip0_311_3893">
<rect width="101.737" height="115" fill="white"/>
</clipPath>
<clipPath id="clip1_311_3893">
<rect width="201.564" height="26" fill="white" transform="translate(117 45)"/>
</clipPath>
<clipPath id="clip2_311_3893">
<rect width="123.385" height="26" fill="white" transform="translate(326 45)"/>
</clipPath>
</defs>
</svg>
